M48
; DRILL file {KiCad 5.1.10-88a1d61d58~90~ubuntu20.04.1} date Mon Nov  1 21:42:28 2021
; FORMAT={-:-/ absolute / metric / decimal}
; #@! TF.CreationDate,2021-11-01T21:42:28-04:00
; #@! TF.GenerationSoftware,Kicad,Pcbnew,5.1.10-88a1d61d58~90~ubuntu20.04.1
; #@! TF.FileFunction,Plated,1,2,PTH
FMAT,2
METRIC
T1C0.330
T2C0.381
T3C0.800
T4C0.900
T5C0.920
T6C0.950
T7C1.000
T8C1.020
T9C1.270
T10C1.600
T11C2.330
T12C3.250
%
G90
G05
T1
X88.5Y-59.0
X90.501Y-59.001
X98.5Y-51.0
X103.0Y-68.0
T2
X21.5Y-39.5
X21.5Y-41.0
X21.5Y-42.5
X21.5Y-44.0
X21.5Y-45.5
X21.5Y-47.0
X21.5Y-48.5
X21.5Y-50.0
X23.0Y-39.5
X23.0Y-41.0
X23.0Y-42.5
X23.0Y-44.0
X23.0Y-45.5
X23.0Y-47.0
X23.0Y-48.5
X23.0Y-50.0
X24.5Y-39.5
X26.0Y-39.5
X26.911Y-41.5
X28.0Y-41.5
X32.0Y-44.0
X33.0Y-38.5
X33.5Y-44.0
X36.0Y-38.5
X36.5Y-40.0
X41.5Y-59.0
X41.5Y-66.0
X41.5Y-73.0
X41.5Y-80.0
X41.5Y-87.0
X41.5Y-94.0
X41.5Y-101.0
X41.5Y-108.0
X46.0Y-96.5
X46.0Y-105.5
X47.0Y-59.5
X47.0Y-82.5
X47.5Y-72.0
X48.5Y-96.5
X48.5Y-105.5
X49.865Y-70.865
X49.887Y-74.387
X51.0Y-46.0
X51.5Y-32.0
X51.5Y-33.5
X51.637Y-72.637
X52.5Y-32.0
X52.5Y-33.5
X52.5Y-68.0
X52.5Y-98.5
X52.5Y-103.5
X53.0Y-39.5
X53.0Y-40.5
X53.0Y-42.0
X53.0Y-43.0
X54.0Y-48.0
X54.5Y-68.0
X55.0Y-48.0
X55.5Y-106.5
X56.0Y-83.398
X56.0Y-84.5
X56.0Y-96.5
X56.847Y-57.083
X57.5Y-58.0
X57.5Y-63.5
X57.5Y-68.0
X57.5Y-89.5
X57.5Y-92.5
X57.781Y-59.052
X57.781Y-72.5
X57.781Y-74.5
X57.781Y-82.5
X59.5Y-55.5
X60.0Y-98.5
X60.0Y-103.5
X60.34Y-74.5
X60.5Y-58.0
X60.5Y-59.5
X60.5Y-68.0
X60.5Y-72.5
X60.5Y-82.5
X60.5Y-83.589
X62.0Y-92.5
X63.0Y-90.5
X63.5Y-96.5
X63.5Y-105.5
X64.5Y-21.5
X67.5Y-98.5
X68.5Y-105.5
X71.0Y-96.5
X71.5Y-105.5
X75.0Y-98.5
X75.0Y-103.5
X75.495Y-25.005
X76.5Y-25.0
X77.495Y-25.005
X78.5Y-96.5
X79.007Y-105.5
X82.0Y-25.0
X82.5Y-98.5
X82.5Y-103.5
X83.0Y-25.0
X83.865Y-84.365
X84.0Y-25.0
X85.636Y-86.136
X86.0Y-96.5
X86.0Y-105.5
X88.0Y-64.5
X89.0Y-57.0
X89.5Y-99.0
X90.5Y-92.0
X90.5Y-104.0
X90.5Y-107.0
X92.0Y-79.5
X92.0Y-82.5
X93.0Y-92.0
X94.0Y-57.0
X95.5Y-107.5
X95.5Y-109.5
X96.508Y-64.011
X98.5Y-105.5
X99.0Y-92.5
X100.0Y-110.0
X101.5Y-106.5
X103.5Y-71.5
X105.5Y-86.5
X113.0Y-68.0
T3
X73.17Y-39.97
X73.17Y-41.97
X75.17Y-39.97
X75.17Y-41.97
X77.17Y-39.97
X77.17Y-41.97
T4
X100.11Y-33.055
X100.11Y-35.595
X100.11Y-38.135
X100.11Y-40.675
X102.65Y-34.325
X102.65Y-36.865
X102.65Y-39.405
X102.65Y-41.945
T5
X105.0Y-57.0
X105.0Y-59.5
X107.0Y-57.0
X107.0Y-59.5
T6
X25.0Y-59.0
X25.0Y-66.0
X25.0Y-73.0
X25.0Y-80.0
X25.0Y-87.0
X25.0Y-94.0
X25.0Y-101.0
X25.0Y-108.0
X27.5Y-59.0
X27.5Y-66.0
X27.5Y-73.0
X27.5Y-80.0
X27.5Y-87.0
X27.5Y-94.0
X27.5Y-101.0
X27.5Y-108.0
X30.0Y-59.0
X30.0Y-66.0
X30.0Y-73.0
X30.0Y-80.0
X30.0Y-87.0
X30.0Y-94.0
X30.0Y-101.0
X30.0Y-108.0
X43.0Y-116.0
X45.5Y-116.0
X48.0Y-116.0
X50.5Y-116.0
X57.0Y-116.0
X59.5Y-116.0
X62.0Y-116.0
X64.5Y-116.0
X71.0Y-116.0
X73.5Y-116.0
X76.0Y-116.0
X78.5Y-116.0
X85.0Y-116.0
X87.5Y-116.0
X89.5Y-23.0
X89.5Y-25.5
X89.5Y-28.0
X89.5Y-30.5
X89.5Y-33.0
X89.5Y-35.5
X90.0Y-116.0
X92.5Y-116.0
X96.695Y-23.09
X99.0Y-116.0
X99.195Y-23.09
X101.5Y-116.0
X101.695Y-23.09
X104.0Y-116.0
X104.195Y-23.09
X106.5Y-116.0
X106.695Y-23.09
X109.0Y-116.0
X109.195Y-23.09
T7
X24.0Y-34.5
X29.0Y-34.5
X40.0Y-34.5
X41.0Y-23.0
X43.5Y-23.0
X45.0Y-34.5
X51.0Y-23.0
X53.5Y-23.0
X64.38Y-27.0
X64.38Y-29.54
X64.38Y-32.08
X64.38Y-34.62
X64.38Y-37.16
X64.38Y-39.7
X64.38Y-42.24
X64.38Y-44.78
X64.38Y-47.32
X64.38Y-49.86
X64.38Y-52.4
X64.38Y-54.94
X64.38Y-57.48
X64.38Y-60.02
X64.38Y-62.56
X64.38Y-65.1
X64.38Y-67.64
X64.38Y-70.18
X64.38Y-72.72
X64.38Y-75.26
X64.38Y-77.8
X64.38Y-80.34
X64.38Y-82.88
X64.38Y-85.42
X79.62Y-27.0
X79.62Y-29.54
X79.62Y-32.08
X79.62Y-34.62
X79.62Y-37.16
X79.62Y-39.7
X79.62Y-42.24
X79.62Y-44.78
X79.62Y-47.32
X79.62Y-49.86
X79.62Y-52.4
X79.62Y-54.94
X79.62Y-57.48
X79.62Y-60.02
X79.62Y-62.56
X79.62Y-65.1
X79.62Y-67.64
X79.62Y-70.18
X79.62Y-72.72
X79.62Y-75.26
X79.62Y-77.8
X79.62Y-80.34
X79.62Y-82.88
X79.62Y-85.42
T8
X112.38Y-31.175
X112.38Y-41.285
X114.08Y-33.715
X114.08Y-43.825
T9
X30.095Y-24.0
X33.905Y-24.0
X116.0Y-72.595
X116.0Y-76.405
X116.0Y-81.595
X116.0Y-85.405
X116.0Y-90.595
X116.0Y-94.405
X116.0Y-99.595
X116.0Y-103.405
T10
X105.95Y-29.625
X106.0Y-45.375
T11
X109.71Y-52.23
X109.71Y-64.27
T12
X109.0Y-31.785
X109.0Y-43.215
T0
M30
