G04 #@! TF.GenerationSoftware,KiCad,Pcbnew,5.1.10-88a1d61d58~90~ubuntu20.04.1*
G04 #@! TF.CreationDate,2021-11-01T21:41:42-04:00*
G04 #@! TF.ProjectId,control,636f6e74-726f-46c2-9e6b-696361645f70,rev?*
G04 #@! TF.SameCoordinates,Original*
G04 #@! TF.FileFunction,Paste,Top*
G04 #@! TF.FilePolarity,Positive*
%FSLAX46Y46*%
G04 Gerber Fmt 4.6, Leading zero omitted, Abs format (unit mm)*
G04 Created by KiCad (PCBNEW 5.1.10-88a1d61d58~90~ubuntu20.04.1) date 2021-11-01 21:41:42*
%MOMM*%
%LPD*%
G01*
G04 APERTURE LIST*
%ADD10R,2.750000X3.050000*%
%ADD11R,1.200000X2.200000*%
%ADD12R,2.300000X2.500000*%
%ADD13R,0.800000X0.900000*%
%ADD14R,0.450000X1.750000*%
%ADD15R,2.000000X1.500000*%
%ADD16R,2.000000X3.800000*%
%ADD17R,1.060000X0.650000*%
%ADD18R,2.000000X3.200000*%
%ADD19R,2.500000X2.300000*%
G04 APERTURE END LIST*
G36*
G01*
X97450001Y-51187500D02*
X96549999Y-51187500D01*
G75*
G02*
X96300000Y-50937501I0J249999D01*
G01*
X96300000Y-50412499D01*
G75*
G02*
X96549999Y-50162500I249999J0D01*
G01*
X97450001Y-50162500D01*
G75*
G02*
X97700000Y-50412499I0J-249999D01*
G01*
X97700000Y-50937501D01*
G75*
G02*
X97450001Y-51187500I-249999J0D01*
G01*
G37*
G36*
G01*
X97450001Y-53012500D02*
X96549999Y-53012500D01*
G75*
G02*
X96300000Y-52762501I0J249999D01*
G01*
X96300000Y-52237499D01*
G75*
G02*
X96549999Y-51987500I249999J0D01*
G01*
X97450001Y-51987500D01*
G75*
G02*
X97700000Y-52237499I0J-249999D01*
G01*
X97700000Y-52762501D01*
G75*
G02*
X97450001Y-53012500I-249999J0D01*
G01*
G37*
G36*
G01*
X83450001Y-70512500D02*
X82549999Y-70512500D01*
G75*
G02*
X82300000Y-70262501I0J249999D01*
G01*
X82300000Y-69737499D01*
G75*
G02*
X82549999Y-69487500I249999J0D01*
G01*
X83450001Y-69487500D01*
G75*
G02*
X83700000Y-69737499I0J-249999D01*
G01*
X83700000Y-70262501D01*
G75*
G02*
X83450001Y-70512500I-249999J0D01*
G01*
G37*
G36*
G01*
X83450001Y-72337500D02*
X82549999Y-72337500D01*
G75*
G02*
X82300000Y-72087501I0J249999D01*
G01*
X82300000Y-71562499D01*
G75*
G02*
X82549999Y-71312500I249999J0D01*
G01*
X83450001Y-71312500D01*
G75*
G02*
X83700000Y-71562499I0J-249999D01*
G01*
X83700000Y-72087501D01*
G75*
G02*
X83450001Y-72337500I-249999J0D01*
G01*
G37*
G36*
G01*
X83987500Y-63950001D02*
X83987500Y-63049999D01*
G75*
G02*
X84237499Y-62800000I249999J0D01*
G01*
X84762501Y-62800000D01*
G75*
G02*
X85012500Y-63049999I0J-249999D01*
G01*
X85012500Y-63950001D01*
G75*
G02*
X84762501Y-64200000I-249999J0D01*
G01*
X84237499Y-64200000D01*
G75*
G02*
X83987500Y-63950001I0J249999D01*
G01*
G37*
G36*
G01*
X82162500Y-63950001D02*
X82162500Y-63049999D01*
G75*
G02*
X82412499Y-62800000I249999J0D01*
G01*
X82937501Y-62800000D01*
G75*
G02*
X83187500Y-63049999I0J-249999D01*
G01*
X83187500Y-63950001D01*
G75*
G02*
X82937501Y-64200000I-249999J0D01*
G01*
X82412499Y-64200000D01*
G75*
G02*
X82162500Y-63950001I0J249999D01*
G01*
G37*
G36*
G01*
X83987500Y-60450001D02*
X83987500Y-59549999D01*
G75*
G02*
X84237499Y-59300000I249999J0D01*
G01*
X84762501Y-59300000D01*
G75*
G02*
X85012500Y-59549999I0J-249999D01*
G01*
X85012500Y-60450001D01*
G75*
G02*
X84762501Y-60700000I-249999J0D01*
G01*
X84237499Y-60700000D01*
G75*
G02*
X83987500Y-60450001I0J249999D01*
G01*
G37*
G36*
G01*
X82162500Y-60450001D02*
X82162500Y-59549999D01*
G75*
G02*
X82412499Y-59300000I249999J0D01*
G01*
X82937501Y-59300000D01*
G75*
G02*
X83187500Y-59549999I0J-249999D01*
G01*
X83187500Y-60450001D01*
G75*
G02*
X82937501Y-60700000I-249999J0D01*
G01*
X82412499Y-60700000D01*
G75*
G02*
X82162500Y-60450001I0J249999D01*
G01*
G37*
G36*
G01*
X86450001Y-70512500D02*
X85549999Y-70512500D01*
G75*
G02*
X85300000Y-70262501I0J249999D01*
G01*
X85300000Y-69737499D01*
G75*
G02*
X85549999Y-69487500I249999J0D01*
G01*
X86450001Y-69487500D01*
G75*
G02*
X86700000Y-69737499I0J-249999D01*
G01*
X86700000Y-70262501D01*
G75*
G02*
X86450001Y-70512500I-249999J0D01*
G01*
G37*
G36*
G01*
X86450001Y-72337500D02*
X85549999Y-72337500D01*
G75*
G02*
X85300000Y-72087501I0J249999D01*
G01*
X85300000Y-71562499D01*
G75*
G02*
X85549999Y-71312500I249999J0D01*
G01*
X86450001Y-71312500D01*
G75*
G02*
X86700000Y-71562499I0J-249999D01*
G01*
X86700000Y-72087501D01*
G75*
G02*
X86450001Y-72337500I-249999J0D01*
G01*
G37*
G36*
G01*
X101312500Y-68450001D02*
X101312500Y-67549999D01*
G75*
G02*
X101562499Y-67300000I249999J0D01*
G01*
X102087501Y-67300000D01*
G75*
G02*
X102337500Y-67549999I0J-249999D01*
G01*
X102337500Y-68450001D01*
G75*
G02*
X102087501Y-68700000I-249999J0D01*
G01*
X101562499Y-68700000D01*
G75*
G02*
X101312500Y-68450001I0J249999D01*
G01*
G37*
G36*
G01*
X99487500Y-68450001D02*
X99487500Y-67549999D01*
G75*
G02*
X99737499Y-67300000I249999J0D01*
G01*
X100262501Y-67300000D01*
G75*
G02*
X100512500Y-67549999I0J-249999D01*
G01*
X100512500Y-68450001D01*
G75*
G02*
X100262501Y-68700000I-249999J0D01*
G01*
X99737499Y-68700000D01*
G75*
G02*
X99487500Y-68450001I0J249999D01*
G01*
G37*
G36*
G01*
X81125001Y-108637500D02*
X79874999Y-108637500D01*
G75*
G02*
X79625000Y-108387501I0J249999D01*
G01*
X79625000Y-107762499D01*
G75*
G02*
X79874999Y-107512500I249999J0D01*
G01*
X81125001Y-107512500D01*
G75*
G02*
X81375000Y-107762499I0J-249999D01*
G01*
X81375000Y-108387501D01*
G75*
G02*
X81125001Y-108637500I-249999J0D01*
G01*
G37*
G36*
G01*
X81125001Y-111562500D02*
X79874999Y-111562500D01*
G75*
G02*
X79625000Y-111312501I0J249999D01*
G01*
X79625000Y-110687499D01*
G75*
G02*
X79874999Y-110437500I249999J0D01*
G01*
X81125001Y-110437500D01*
G75*
G02*
X81375000Y-110687499I0J-249999D01*
G01*
X81375000Y-111312501D01*
G75*
G02*
X81125001Y-111562500I-249999J0D01*
G01*
G37*
G36*
G01*
X54660000Y-85000000D02*
X54960000Y-85000000D01*
G75*
G02*
X55110000Y-85150000I0J-150000D01*
G01*
X55110000Y-86800000D01*
G75*
G02*
X54960000Y-86950000I-150000J0D01*
G01*
X54660000Y-86950000D01*
G75*
G02*
X54510000Y-86800000I0J150000D01*
G01*
X54510000Y-85150000D01*
G75*
G02*
X54660000Y-85000000I150000J0D01*
G01*
G37*
G36*
G01*
X53390000Y-85000000D02*
X53690000Y-85000000D01*
G75*
G02*
X53840000Y-85150000I0J-150000D01*
G01*
X53840000Y-86800000D01*
G75*
G02*
X53690000Y-86950000I-150000J0D01*
G01*
X53390000Y-86950000D01*
G75*
G02*
X53240000Y-86800000I0J150000D01*
G01*
X53240000Y-85150000D01*
G75*
G02*
X53390000Y-85000000I150000J0D01*
G01*
G37*
G36*
G01*
X52120000Y-85000000D02*
X52420000Y-85000000D01*
G75*
G02*
X52570000Y-85150000I0J-150000D01*
G01*
X52570000Y-86800000D01*
G75*
G02*
X52420000Y-86950000I-150000J0D01*
G01*
X52120000Y-86950000D01*
G75*
G02*
X51970000Y-86800000I0J150000D01*
G01*
X51970000Y-85150000D01*
G75*
G02*
X52120000Y-85000000I150000J0D01*
G01*
G37*
G36*
G01*
X50850000Y-85000000D02*
X51150000Y-85000000D01*
G75*
G02*
X51300000Y-85150000I0J-150000D01*
G01*
X51300000Y-86800000D01*
G75*
G02*
X51150000Y-86950000I-150000J0D01*
G01*
X50850000Y-86950000D01*
G75*
G02*
X50700000Y-86800000I0J150000D01*
G01*
X50700000Y-85150000D01*
G75*
G02*
X50850000Y-85000000I150000J0D01*
G01*
G37*
G36*
G01*
X49580000Y-85000000D02*
X49880000Y-85000000D01*
G75*
G02*
X50030000Y-85150000I0J-150000D01*
G01*
X50030000Y-86800000D01*
G75*
G02*
X49880000Y-86950000I-150000J0D01*
G01*
X49580000Y-86950000D01*
G75*
G02*
X49430000Y-86800000I0J150000D01*
G01*
X49430000Y-85150000D01*
G75*
G02*
X49580000Y-85000000I150000J0D01*
G01*
G37*
G36*
G01*
X48310000Y-85000000D02*
X48610000Y-85000000D01*
G75*
G02*
X48760000Y-85150000I0J-150000D01*
G01*
X48760000Y-86800000D01*
G75*
G02*
X48610000Y-86950000I-150000J0D01*
G01*
X48310000Y-86950000D01*
G75*
G02*
X48160000Y-86800000I0J150000D01*
G01*
X48160000Y-85150000D01*
G75*
G02*
X48310000Y-85000000I150000J0D01*
G01*
G37*
G36*
G01*
X47040000Y-85000000D02*
X47340000Y-85000000D01*
G75*
G02*
X47490000Y-85150000I0J-150000D01*
G01*
X47490000Y-86800000D01*
G75*
G02*
X47340000Y-86950000I-150000J0D01*
G01*
X47040000Y-86950000D01*
G75*
G02*
X46890000Y-86800000I0J150000D01*
G01*
X46890000Y-85150000D01*
G75*
G02*
X47040000Y-85000000I150000J0D01*
G01*
G37*
G36*
G01*
X47040000Y-80050000D02*
X47340000Y-80050000D01*
G75*
G02*
X47490000Y-80200000I0J-150000D01*
G01*
X47490000Y-81850000D01*
G75*
G02*
X47340000Y-82000000I-150000J0D01*
G01*
X47040000Y-82000000D01*
G75*
G02*
X46890000Y-81850000I0J150000D01*
G01*
X46890000Y-80200000D01*
G75*
G02*
X47040000Y-80050000I150000J0D01*
G01*
G37*
G36*
G01*
X48310000Y-80050000D02*
X48610000Y-80050000D01*
G75*
G02*
X48760000Y-80200000I0J-150000D01*
G01*
X48760000Y-81850000D01*
G75*
G02*
X48610000Y-82000000I-150000J0D01*
G01*
X48310000Y-82000000D01*
G75*
G02*
X48160000Y-81850000I0J150000D01*
G01*
X48160000Y-80200000D01*
G75*
G02*
X48310000Y-80050000I150000J0D01*
G01*
G37*
G36*
G01*
X49580000Y-80050000D02*
X49880000Y-80050000D01*
G75*
G02*
X50030000Y-80200000I0J-150000D01*
G01*
X50030000Y-81850000D01*
G75*
G02*
X49880000Y-82000000I-150000J0D01*
G01*
X49580000Y-82000000D01*
G75*
G02*
X49430000Y-81850000I0J150000D01*
G01*
X49430000Y-80200000D01*
G75*
G02*
X49580000Y-80050000I150000J0D01*
G01*
G37*
G36*
G01*
X50850000Y-80050000D02*
X51150000Y-80050000D01*
G75*
G02*
X51300000Y-80200000I0J-150000D01*
G01*
X51300000Y-81850000D01*
G75*
G02*
X51150000Y-82000000I-150000J0D01*
G01*
X50850000Y-82000000D01*
G75*
G02*
X50700000Y-81850000I0J150000D01*
G01*
X50700000Y-80200000D01*
G75*
G02*
X50850000Y-80050000I150000J0D01*
G01*
G37*
G36*
G01*
X52120000Y-80050000D02*
X52420000Y-80050000D01*
G75*
G02*
X52570000Y-80200000I0J-150000D01*
G01*
X52570000Y-81850000D01*
G75*
G02*
X52420000Y-82000000I-150000J0D01*
G01*
X52120000Y-82000000D01*
G75*
G02*
X51970000Y-81850000I0J150000D01*
G01*
X51970000Y-80200000D01*
G75*
G02*
X52120000Y-80050000I150000J0D01*
G01*
G37*
G36*
G01*
X53390000Y-80050000D02*
X53690000Y-80050000D01*
G75*
G02*
X53840000Y-80200000I0J-150000D01*
G01*
X53840000Y-81850000D01*
G75*
G02*
X53690000Y-82000000I-150000J0D01*
G01*
X53390000Y-82000000D01*
G75*
G02*
X53240000Y-81850000I0J150000D01*
G01*
X53240000Y-80200000D01*
G75*
G02*
X53390000Y-80050000I150000J0D01*
G01*
G37*
G36*
G01*
X54660000Y-80050000D02*
X54960000Y-80050000D01*
G75*
G02*
X55110000Y-80200000I0J-150000D01*
G01*
X55110000Y-81850000D01*
G75*
G02*
X54960000Y-82000000I-150000J0D01*
G01*
X54660000Y-82000000D01*
G75*
G02*
X54510000Y-81850000I0J150000D01*
G01*
X54510000Y-80200000D01*
G75*
G02*
X54660000Y-80050000I150000J0D01*
G01*
G37*
G36*
G01*
X54660000Y-65000000D02*
X54960000Y-65000000D01*
G75*
G02*
X55110000Y-65150000I0J-150000D01*
G01*
X55110000Y-66800000D01*
G75*
G02*
X54960000Y-66950000I-150000J0D01*
G01*
X54660000Y-66950000D01*
G75*
G02*
X54510000Y-66800000I0J150000D01*
G01*
X54510000Y-65150000D01*
G75*
G02*
X54660000Y-65000000I150000J0D01*
G01*
G37*
G36*
G01*
X53390000Y-65000000D02*
X53690000Y-65000000D01*
G75*
G02*
X53840000Y-65150000I0J-150000D01*
G01*
X53840000Y-66800000D01*
G75*
G02*
X53690000Y-66950000I-150000J0D01*
G01*
X53390000Y-66950000D01*
G75*
G02*
X53240000Y-66800000I0J150000D01*
G01*
X53240000Y-65150000D01*
G75*
G02*
X53390000Y-65000000I150000J0D01*
G01*
G37*
G36*
G01*
X52120000Y-65000000D02*
X52420000Y-65000000D01*
G75*
G02*
X52570000Y-65150000I0J-150000D01*
G01*
X52570000Y-66800000D01*
G75*
G02*
X52420000Y-66950000I-150000J0D01*
G01*
X52120000Y-66950000D01*
G75*
G02*
X51970000Y-66800000I0J150000D01*
G01*
X51970000Y-65150000D01*
G75*
G02*
X52120000Y-65000000I150000J0D01*
G01*
G37*
G36*
G01*
X50850000Y-65000000D02*
X51150000Y-65000000D01*
G75*
G02*
X51300000Y-65150000I0J-150000D01*
G01*
X51300000Y-66800000D01*
G75*
G02*
X51150000Y-66950000I-150000J0D01*
G01*
X50850000Y-66950000D01*
G75*
G02*
X50700000Y-66800000I0J150000D01*
G01*
X50700000Y-65150000D01*
G75*
G02*
X50850000Y-65000000I150000J0D01*
G01*
G37*
G36*
G01*
X49580000Y-65000000D02*
X49880000Y-65000000D01*
G75*
G02*
X50030000Y-65150000I0J-150000D01*
G01*
X50030000Y-66800000D01*
G75*
G02*
X49880000Y-66950000I-150000J0D01*
G01*
X49580000Y-66950000D01*
G75*
G02*
X49430000Y-66800000I0J150000D01*
G01*
X49430000Y-65150000D01*
G75*
G02*
X49580000Y-65000000I150000J0D01*
G01*
G37*
G36*
G01*
X48310000Y-65000000D02*
X48610000Y-65000000D01*
G75*
G02*
X48760000Y-65150000I0J-150000D01*
G01*
X48760000Y-66800000D01*
G75*
G02*
X48610000Y-66950000I-150000J0D01*
G01*
X48310000Y-66950000D01*
G75*
G02*
X48160000Y-66800000I0J150000D01*
G01*
X48160000Y-65150000D01*
G75*
G02*
X48310000Y-65000000I150000J0D01*
G01*
G37*
G36*
G01*
X47040000Y-65000000D02*
X47340000Y-65000000D01*
G75*
G02*
X47490000Y-65150000I0J-150000D01*
G01*
X47490000Y-66800000D01*
G75*
G02*
X47340000Y-66950000I-150000J0D01*
G01*
X47040000Y-66950000D01*
G75*
G02*
X46890000Y-66800000I0J150000D01*
G01*
X46890000Y-65150000D01*
G75*
G02*
X47040000Y-65000000I150000J0D01*
G01*
G37*
G36*
G01*
X47040000Y-60050000D02*
X47340000Y-60050000D01*
G75*
G02*
X47490000Y-60200000I0J-150000D01*
G01*
X47490000Y-61850000D01*
G75*
G02*
X47340000Y-62000000I-150000J0D01*
G01*
X47040000Y-62000000D01*
G75*
G02*
X46890000Y-61850000I0J150000D01*
G01*
X46890000Y-60200000D01*
G75*
G02*
X47040000Y-60050000I150000J0D01*
G01*
G37*
G36*
G01*
X48310000Y-60050000D02*
X48610000Y-60050000D01*
G75*
G02*
X48760000Y-60200000I0J-150000D01*
G01*
X48760000Y-61850000D01*
G75*
G02*
X48610000Y-62000000I-150000J0D01*
G01*
X48310000Y-62000000D01*
G75*
G02*
X48160000Y-61850000I0J150000D01*
G01*
X48160000Y-60200000D01*
G75*
G02*
X48310000Y-60050000I150000J0D01*
G01*
G37*
G36*
G01*
X49580000Y-60050000D02*
X49880000Y-60050000D01*
G75*
G02*
X50030000Y-60200000I0J-150000D01*
G01*
X50030000Y-61850000D01*
G75*
G02*
X49880000Y-62000000I-150000J0D01*
G01*
X49580000Y-62000000D01*
G75*
G02*
X49430000Y-61850000I0J150000D01*
G01*
X49430000Y-60200000D01*
G75*
G02*
X49580000Y-60050000I150000J0D01*
G01*
G37*
G36*
G01*
X50850000Y-60050000D02*
X51150000Y-60050000D01*
G75*
G02*
X51300000Y-60200000I0J-150000D01*
G01*
X51300000Y-61850000D01*
G75*
G02*
X51150000Y-62000000I-150000J0D01*
G01*
X50850000Y-62000000D01*
G75*
G02*
X50700000Y-61850000I0J150000D01*
G01*
X50700000Y-60200000D01*
G75*
G02*
X50850000Y-60050000I150000J0D01*
G01*
G37*
G36*
G01*
X52120000Y-60050000D02*
X52420000Y-60050000D01*
G75*
G02*
X52570000Y-60200000I0J-150000D01*
G01*
X52570000Y-61850000D01*
G75*
G02*
X52420000Y-62000000I-150000J0D01*
G01*
X52120000Y-62000000D01*
G75*
G02*
X51970000Y-61850000I0J150000D01*
G01*
X51970000Y-60200000D01*
G75*
G02*
X52120000Y-60050000I150000J0D01*
G01*
G37*
G36*
G01*
X53390000Y-60050000D02*
X53690000Y-60050000D01*
G75*
G02*
X53840000Y-60200000I0J-150000D01*
G01*
X53840000Y-61850000D01*
G75*
G02*
X53690000Y-62000000I-150000J0D01*
G01*
X53390000Y-62000000D01*
G75*
G02*
X53240000Y-61850000I0J150000D01*
G01*
X53240000Y-60200000D01*
G75*
G02*
X53390000Y-60050000I150000J0D01*
G01*
G37*
G36*
G01*
X54660000Y-60050000D02*
X54960000Y-60050000D01*
G75*
G02*
X55110000Y-60200000I0J-150000D01*
G01*
X55110000Y-61850000D01*
G75*
G02*
X54960000Y-62000000I-150000J0D01*
G01*
X54660000Y-62000000D01*
G75*
G02*
X54510000Y-61850000I0J150000D01*
G01*
X54510000Y-60200000D01*
G75*
G02*
X54660000Y-60050000I150000J0D01*
G01*
G37*
G36*
G01*
X98000000Y-78245000D02*
X98000000Y-77945000D01*
G75*
G02*
X98150000Y-77795000I150000J0D01*
G01*
X99800000Y-77795000D01*
G75*
G02*
X99950000Y-77945000I0J-150000D01*
G01*
X99950000Y-78245000D01*
G75*
G02*
X99800000Y-78395000I-150000J0D01*
G01*
X98150000Y-78395000D01*
G75*
G02*
X98000000Y-78245000I0J150000D01*
G01*
G37*
G36*
G01*
X98000000Y-79515000D02*
X98000000Y-79215000D01*
G75*
G02*
X98150000Y-79065000I150000J0D01*
G01*
X99800000Y-79065000D01*
G75*
G02*
X99950000Y-79215000I0J-150000D01*
G01*
X99950000Y-79515000D01*
G75*
G02*
X99800000Y-79665000I-150000J0D01*
G01*
X98150000Y-79665000D01*
G75*
G02*
X98000000Y-79515000I0J150000D01*
G01*
G37*
G36*
G01*
X98000000Y-80785000D02*
X98000000Y-80485000D01*
G75*
G02*
X98150000Y-80335000I150000J0D01*
G01*
X99800000Y-80335000D01*
G75*
G02*
X99950000Y-80485000I0J-150000D01*
G01*
X99950000Y-80785000D01*
G75*
G02*
X99800000Y-80935000I-150000J0D01*
G01*
X98150000Y-80935000D01*
G75*
G02*
X98000000Y-80785000I0J150000D01*
G01*
G37*
G36*
G01*
X98000000Y-82055000D02*
X98000000Y-81755000D01*
G75*
G02*
X98150000Y-81605000I150000J0D01*
G01*
X99800000Y-81605000D01*
G75*
G02*
X99950000Y-81755000I0J-150000D01*
G01*
X99950000Y-82055000D01*
G75*
G02*
X99800000Y-82205000I-150000J0D01*
G01*
X98150000Y-82205000D01*
G75*
G02*
X98000000Y-82055000I0J150000D01*
G01*
G37*
G36*
G01*
X93050000Y-82055000D02*
X93050000Y-81755000D01*
G75*
G02*
X93200000Y-81605000I150000J0D01*
G01*
X94850000Y-81605000D01*
G75*
G02*
X95000000Y-81755000I0J-150000D01*
G01*
X95000000Y-82055000D01*
G75*
G02*
X94850000Y-82205000I-150000J0D01*
G01*
X93200000Y-82205000D01*
G75*
G02*
X93050000Y-82055000I0J150000D01*
G01*
G37*
G36*
G01*
X93050000Y-80785000D02*
X93050000Y-80485000D01*
G75*
G02*
X93200000Y-80335000I150000J0D01*
G01*
X94850000Y-80335000D01*
G75*
G02*
X95000000Y-80485000I0J-150000D01*
G01*
X95000000Y-80785000D01*
G75*
G02*
X94850000Y-80935000I-150000J0D01*
G01*
X93200000Y-80935000D01*
G75*
G02*
X93050000Y-80785000I0J150000D01*
G01*
G37*
G36*
G01*
X93050000Y-79515000D02*
X93050000Y-79215000D01*
G75*
G02*
X93200000Y-79065000I150000J0D01*
G01*
X94850000Y-79065000D01*
G75*
G02*
X95000000Y-79215000I0J-150000D01*
G01*
X95000000Y-79515000D01*
G75*
G02*
X94850000Y-79665000I-150000J0D01*
G01*
X93200000Y-79665000D01*
G75*
G02*
X93050000Y-79515000I0J150000D01*
G01*
G37*
G36*
G01*
X93050000Y-78245000D02*
X93050000Y-77945000D01*
G75*
G02*
X93200000Y-77795000I150000J0D01*
G01*
X94850000Y-77795000D01*
G75*
G02*
X95000000Y-77945000I0J-150000D01*
G01*
X95000000Y-78245000D01*
G75*
G02*
X94850000Y-78395000I-150000J0D01*
G01*
X93200000Y-78395000D01*
G75*
G02*
X93050000Y-78245000I0J150000D01*
G01*
G37*
G36*
G01*
X94255000Y-98000000D02*
X94555000Y-98000000D01*
G75*
G02*
X94705000Y-98150000I0J-150000D01*
G01*
X94705000Y-99800000D01*
G75*
G02*
X94555000Y-99950000I-150000J0D01*
G01*
X94255000Y-99950000D01*
G75*
G02*
X94105000Y-99800000I0J150000D01*
G01*
X94105000Y-98150000D01*
G75*
G02*
X94255000Y-98000000I150000J0D01*
G01*
G37*
G36*
G01*
X92985000Y-98000000D02*
X93285000Y-98000000D01*
G75*
G02*
X93435000Y-98150000I0J-150000D01*
G01*
X93435000Y-99800000D01*
G75*
G02*
X93285000Y-99950000I-150000J0D01*
G01*
X92985000Y-99950000D01*
G75*
G02*
X92835000Y-99800000I0J150000D01*
G01*
X92835000Y-98150000D01*
G75*
G02*
X92985000Y-98000000I150000J0D01*
G01*
G37*
G36*
G01*
X91715000Y-98000000D02*
X92015000Y-98000000D01*
G75*
G02*
X92165000Y-98150000I0J-150000D01*
G01*
X92165000Y-99800000D01*
G75*
G02*
X92015000Y-99950000I-150000J0D01*
G01*
X91715000Y-99950000D01*
G75*
G02*
X91565000Y-99800000I0J150000D01*
G01*
X91565000Y-98150000D01*
G75*
G02*
X91715000Y-98000000I150000J0D01*
G01*
G37*
G36*
G01*
X90445000Y-98000000D02*
X90745000Y-98000000D01*
G75*
G02*
X90895000Y-98150000I0J-150000D01*
G01*
X90895000Y-99800000D01*
G75*
G02*
X90745000Y-99950000I-150000J0D01*
G01*
X90445000Y-99950000D01*
G75*
G02*
X90295000Y-99800000I0J150000D01*
G01*
X90295000Y-98150000D01*
G75*
G02*
X90445000Y-98000000I150000J0D01*
G01*
G37*
G36*
G01*
X90445000Y-93050000D02*
X90745000Y-93050000D01*
G75*
G02*
X90895000Y-93200000I0J-150000D01*
G01*
X90895000Y-94850000D01*
G75*
G02*
X90745000Y-95000000I-150000J0D01*
G01*
X90445000Y-95000000D01*
G75*
G02*
X90295000Y-94850000I0J150000D01*
G01*
X90295000Y-93200000D01*
G75*
G02*
X90445000Y-93050000I150000J0D01*
G01*
G37*
G36*
G01*
X91715000Y-93050000D02*
X92015000Y-93050000D01*
G75*
G02*
X92165000Y-93200000I0J-150000D01*
G01*
X92165000Y-94850000D01*
G75*
G02*
X92015000Y-95000000I-150000J0D01*
G01*
X91715000Y-95000000D01*
G75*
G02*
X91565000Y-94850000I0J150000D01*
G01*
X91565000Y-93200000D01*
G75*
G02*
X91715000Y-93050000I150000J0D01*
G01*
G37*
G36*
G01*
X92985000Y-93050000D02*
X93285000Y-93050000D01*
G75*
G02*
X93435000Y-93200000I0J-150000D01*
G01*
X93435000Y-94850000D01*
G75*
G02*
X93285000Y-95000000I-150000J0D01*
G01*
X92985000Y-95000000D01*
G75*
G02*
X92835000Y-94850000I0J150000D01*
G01*
X92835000Y-93200000D01*
G75*
G02*
X92985000Y-93050000I150000J0D01*
G01*
G37*
G36*
G01*
X94255000Y-93050000D02*
X94555000Y-93050000D01*
G75*
G02*
X94705000Y-93200000I0J-150000D01*
G01*
X94705000Y-94850000D01*
G75*
G02*
X94555000Y-95000000I-150000J0D01*
G01*
X94255000Y-95000000D01*
G75*
G02*
X94105000Y-94850000I0J150000D01*
G01*
X94105000Y-93200000D01*
G75*
G02*
X94255000Y-93050000I150000J0D01*
G01*
G37*
G36*
G01*
X97745000Y-95000000D02*
X97445000Y-95000000D01*
G75*
G02*
X97295000Y-94850000I0J150000D01*
G01*
X97295000Y-93200000D01*
G75*
G02*
X97445000Y-93050000I150000J0D01*
G01*
X97745000Y-93050000D01*
G75*
G02*
X97895000Y-93200000I0J-150000D01*
G01*
X97895000Y-94850000D01*
G75*
G02*
X97745000Y-95000000I-150000J0D01*
G01*
G37*
G36*
G01*
X99015000Y-95000000D02*
X98715000Y-95000000D01*
G75*
G02*
X98565000Y-94850000I0J150000D01*
G01*
X98565000Y-93200000D01*
G75*
G02*
X98715000Y-93050000I150000J0D01*
G01*
X99015000Y-93050000D01*
G75*
G02*
X99165000Y-93200000I0J-150000D01*
G01*
X99165000Y-94850000D01*
G75*
G02*
X99015000Y-95000000I-150000J0D01*
G01*
G37*
G36*
G01*
X100285000Y-95000000D02*
X99985000Y-95000000D01*
G75*
G02*
X99835000Y-94850000I0J150000D01*
G01*
X99835000Y-93200000D01*
G75*
G02*
X99985000Y-93050000I150000J0D01*
G01*
X100285000Y-93050000D01*
G75*
G02*
X100435000Y-93200000I0J-150000D01*
G01*
X100435000Y-94850000D01*
G75*
G02*
X100285000Y-95000000I-150000J0D01*
G01*
G37*
G36*
G01*
X101555000Y-95000000D02*
X101255000Y-95000000D01*
G75*
G02*
X101105000Y-94850000I0J150000D01*
G01*
X101105000Y-93200000D01*
G75*
G02*
X101255000Y-93050000I150000J0D01*
G01*
X101555000Y-93050000D01*
G75*
G02*
X101705000Y-93200000I0J-150000D01*
G01*
X101705000Y-94850000D01*
G75*
G02*
X101555000Y-95000000I-150000J0D01*
G01*
G37*
G36*
G01*
X101555000Y-99950000D02*
X101255000Y-99950000D01*
G75*
G02*
X101105000Y-99800000I0J150000D01*
G01*
X101105000Y-98150000D01*
G75*
G02*
X101255000Y-98000000I150000J0D01*
G01*
X101555000Y-98000000D01*
G75*
G02*
X101705000Y-98150000I0J-150000D01*
G01*
X101705000Y-99800000D01*
G75*
G02*
X101555000Y-99950000I-150000J0D01*
G01*
G37*
G36*
G01*
X100285000Y-99950000D02*
X99985000Y-99950000D01*
G75*
G02*
X99835000Y-99800000I0J150000D01*
G01*
X99835000Y-98150000D01*
G75*
G02*
X99985000Y-98000000I150000J0D01*
G01*
X100285000Y-98000000D01*
G75*
G02*
X100435000Y-98150000I0J-150000D01*
G01*
X100435000Y-99800000D01*
G75*
G02*
X100285000Y-99950000I-150000J0D01*
G01*
G37*
G36*
G01*
X99015000Y-99950000D02*
X98715000Y-99950000D01*
G75*
G02*
X98565000Y-99800000I0J150000D01*
G01*
X98565000Y-98150000D01*
G75*
G02*
X98715000Y-98000000I150000J0D01*
G01*
X99015000Y-98000000D01*
G75*
G02*
X99165000Y-98150000I0J-150000D01*
G01*
X99165000Y-99800000D01*
G75*
G02*
X99015000Y-99950000I-150000J0D01*
G01*
G37*
G36*
G01*
X97745000Y-99950000D02*
X97445000Y-99950000D01*
G75*
G02*
X97295000Y-99800000I0J150000D01*
G01*
X97295000Y-98150000D01*
G75*
G02*
X97445000Y-98000000I150000J0D01*
G01*
X97745000Y-98000000D01*
G75*
G02*
X97895000Y-98150000I0J-150000D01*
G01*
X97895000Y-99800000D01*
G75*
G02*
X97745000Y-99950000I-150000J0D01*
G01*
G37*
G36*
G01*
X109012500Y-100549999D02*
X109012500Y-101450001D01*
G75*
G02*
X108762501Y-101700000I-249999J0D01*
G01*
X108237499Y-101700000D01*
G75*
G02*
X107987500Y-101450001I0J249999D01*
G01*
X107987500Y-100549999D01*
G75*
G02*
X108237499Y-100300000I249999J0D01*
G01*
X108762501Y-100300000D01*
G75*
G02*
X109012500Y-100549999I0J-249999D01*
G01*
G37*
G36*
G01*
X110837500Y-100549999D02*
X110837500Y-101450001D01*
G75*
G02*
X110587501Y-101700000I-249999J0D01*
G01*
X110062499Y-101700000D01*
G75*
G02*
X109812500Y-101450001I0J249999D01*
G01*
X109812500Y-100549999D01*
G75*
G02*
X110062499Y-100300000I249999J0D01*
G01*
X110587501Y-100300000D01*
G75*
G02*
X110837500Y-100549999I0J-249999D01*
G01*
G37*
G36*
G01*
X103487500Y-86950001D02*
X103487500Y-86049999D01*
G75*
G02*
X103737499Y-85800000I249999J0D01*
G01*
X104262501Y-85800000D01*
G75*
G02*
X104512500Y-86049999I0J-249999D01*
G01*
X104512500Y-86950001D01*
G75*
G02*
X104262501Y-87200000I-249999J0D01*
G01*
X103737499Y-87200000D01*
G75*
G02*
X103487500Y-86950001I0J249999D01*
G01*
G37*
G36*
G01*
X101662500Y-86950001D02*
X101662500Y-86049999D01*
G75*
G02*
X101912499Y-85800000I249999J0D01*
G01*
X102437501Y-85800000D01*
G75*
G02*
X102687500Y-86049999I0J-249999D01*
G01*
X102687500Y-86950001D01*
G75*
G02*
X102437501Y-87200000I-249999J0D01*
G01*
X101912499Y-87200000D01*
G75*
G02*
X101662500Y-86950001I0J249999D01*
G01*
G37*
G36*
G01*
X89512500Y-80549999D02*
X89512500Y-81450001D01*
G75*
G02*
X89262501Y-81700000I-249999J0D01*
G01*
X88737499Y-81700000D01*
G75*
G02*
X88487500Y-81450001I0J249999D01*
G01*
X88487500Y-80549999D01*
G75*
G02*
X88737499Y-80300000I249999J0D01*
G01*
X89262501Y-80300000D01*
G75*
G02*
X89512500Y-80549999I0J-249999D01*
G01*
G37*
G36*
G01*
X91337500Y-80549999D02*
X91337500Y-81450001D01*
G75*
G02*
X91087501Y-81700000I-249999J0D01*
G01*
X90562499Y-81700000D01*
G75*
G02*
X90312500Y-81450001I0J249999D01*
G01*
X90312500Y-80549999D01*
G75*
G02*
X90562499Y-80300000I249999J0D01*
G01*
X91087501Y-80300000D01*
G75*
G02*
X91337500Y-80549999I0J-249999D01*
G01*
G37*
G36*
G01*
X91950001Y-89687500D02*
X91049999Y-89687500D01*
G75*
G02*
X90800000Y-89437501I0J249999D01*
G01*
X90800000Y-88912499D01*
G75*
G02*
X91049999Y-88662500I249999J0D01*
G01*
X91950001Y-88662500D01*
G75*
G02*
X92200000Y-88912499I0J-249999D01*
G01*
X92200000Y-89437501D01*
G75*
G02*
X91950001Y-89687500I-249999J0D01*
G01*
G37*
G36*
G01*
X91950001Y-91512500D02*
X91049999Y-91512500D01*
G75*
G02*
X90800000Y-91262501I0J249999D01*
G01*
X90800000Y-90737499D01*
G75*
G02*
X91049999Y-90487500I249999J0D01*
G01*
X91950001Y-90487500D01*
G75*
G02*
X92200000Y-90737499I0J-249999D01*
G01*
X92200000Y-91262501D01*
G75*
G02*
X91950001Y-91512500I-249999J0D01*
G01*
G37*
G36*
G01*
X109512500Y-84549999D02*
X109512500Y-85450001D01*
G75*
G02*
X109262501Y-85700000I-249999J0D01*
G01*
X108737499Y-85700000D01*
G75*
G02*
X108487500Y-85450001I0J249999D01*
G01*
X108487500Y-84549999D01*
G75*
G02*
X108737499Y-84300000I249999J0D01*
G01*
X109262501Y-84300000D01*
G75*
G02*
X109512500Y-84549999I0J-249999D01*
G01*
G37*
G36*
G01*
X111337500Y-84549999D02*
X111337500Y-85450001D01*
G75*
G02*
X111087501Y-85700000I-249999J0D01*
G01*
X110562499Y-85700000D01*
G75*
G02*
X110312500Y-85450001I0J249999D01*
G01*
X110312500Y-84549999D01*
G75*
G02*
X110562499Y-84300000I249999J0D01*
G01*
X111087501Y-84300000D01*
G75*
G02*
X111337500Y-84549999I0J-249999D01*
G01*
G37*
G36*
G01*
X101487500Y-71950001D02*
X101487500Y-71049999D01*
G75*
G02*
X101737499Y-70800000I249999J0D01*
G01*
X102262501Y-70800000D01*
G75*
G02*
X102512500Y-71049999I0J-249999D01*
G01*
X102512500Y-71950001D01*
G75*
G02*
X102262501Y-72200000I-249999J0D01*
G01*
X101737499Y-72200000D01*
G75*
G02*
X101487500Y-71950001I0J249999D01*
G01*
G37*
G36*
G01*
X99662500Y-71950001D02*
X99662500Y-71049999D01*
G75*
G02*
X99912499Y-70800000I249999J0D01*
G01*
X100437501Y-70800000D01*
G75*
G02*
X100687500Y-71049999I0J-249999D01*
G01*
X100687500Y-71950001D01*
G75*
G02*
X100437501Y-72200000I-249999J0D01*
G01*
X99912499Y-72200000D01*
G75*
G02*
X99662500Y-71950001I0J249999D01*
G01*
G37*
G36*
G01*
X94950001Y-89687500D02*
X94049999Y-89687500D01*
G75*
G02*
X93800000Y-89437501I0J249999D01*
G01*
X93800000Y-88912499D01*
G75*
G02*
X94049999Y-88662500I249999J0D01*
G01*
X94950001Y-88662500D01*
G75*
G02*
X95200000Y-88912499I0J-249999D01*
G01*
X95200000Y-89437501D01*
G75*
G02*
X94950001Y-89687500I-249999J0D01*
G01*
G37*
G36*
G01*
X94950001Y-91512500D02*
X94049999Y-91512500D01*
G75*
G02*
X93800000Y-91262501I0J249999D01*
G01*
X93800000Y-90737499D01*
G75*
G02*
X94049999Y-90487500I249999J0D01*
G01*
X94950001Y-90487500D01*
G75*
G02*
X95200000Y-90737499I0J-249999D01*
G01*
X95200000Y-91262501D01*
G75*
G02*
X94950001Y-91512500I-249999J0D01*
G01*
G37*
G36*
G01*
X98950001Y-89687500D02*
X98049999Y-89687500D01*
G75*
G02*
X97800000Y-89437501I0J249999D01*
G01*
X97800000Y-88912499D01*
G75*
G02*
X98049999Y-88662500I249999J0D01*
G01*
X98950001Y-88662500D01*
G75*
G02*
X99200000Y-88912499I0J-249999D01*
G01*
X99200000Y-89437501D01*
G75*
G02*
X98950001Y-89687500I-249999J0D01*
G01*
G37*
G36*
G01*
X98950001Y-91512500D02*
X98049999Y-91512500D01*
G75*
G02*
X97800000Y-91262501I0J249999D01*
G01*
X97800000Y-90737499D01*
G75*
G02*
X98049999Y-90487500I249999J0D01*
G01*
X98950001Y-90487500D01*
G75*
G02*
X99200000Y-90737499I0J-249999D01*
G01*
X99200000Y-91262501D01*
G75*
G02*
X98950001Y-91512500I-249999J0D01*
G01*
G37*
G36*
G01*
X89512500Y-77549999D02*
X89512500Y-78450001D01*
G75*
G02*
X89262501Y-78700000I-249999J0D01*
G01*
X88737499Y-78700000D01*
G75*
G02*
X88487500Y-78450001I0J249999D01*
G01*
X88487500Y-77549999D01*
G75*
G02*
X88737499Y-77300000I249999J0D01*
G01*
X89262501Y-77300000D01*
G75*
G02*
X89512500Y-77549999I0J-249999D01*
G01*
G37*
G36*
G01*
X91337500Y-77549999D02*
X91337500Y-78450001D01*
G75*
G02*
X91087501Y-78700000I-249999J0D01*
G01*
X90562499Y-78700000D01*
G75*
G02*
X90312500Y-78450001I0J249999D01*
G01*
X90312500Y-77549999D01*
G75*
G02*
X90562499Y-77300000I249999J0D01*
G01*
X91087501Y-77300000D01*
G75*
G02*
X91337500Y-77549999I0J-249999D01*
G01*
G37*
D10*
X109525000Y-93575000D03*
X106475000Y-90225000D03*
X106475000Y-93575000D03*
X109525000Y-90225000D03*
D11*
X110280000Y-98200000D03*
X105720000Y-98200000D03*
D10*
X109525000Y-77850000D03*
X106475000Y-74500000D03*
X106475000Y-77850000D03*
X109525000Y-74500000D03*
D11*
X110280000Y-82475000D03*
X105720000Y-82475000D03*
G36*
G01*
X98000000Y-110975000D02*
X98000000Y-110025000D01*
G75*
G02*
X98250000Y-109775000I250000J0D01*
G01*
X98750000Y-109775000D01*
G75*
G02*
X99000000Y-110025000I0J-250000D01*
G01*
X99000000Y-110975000D01*
G75*
G02*
X98750000Y-111225000I-250000J0D01*
G01*
X98250000Y-111225000D01*
G75*
G02*
X98000000Y-110975000I0J250000D01*
G01*
G37*
G36*
G01*
X96100000Y-110975000D02*
X96100000Y-110025000D01*
G75*
G02*
X96350000Y-109775000I250000J0D01*
G01*
X96850000Y-109775000D01*
G75*
G02*
X97100000Y-110025000I0J-250000D01*
G01*
X97100000Y-110975000D01*
G75*
G02*
X96850000Y-111225000I-250000J0D01*
G01*
X96350000Y-111225000D01*
G75*
G02*
X96100000Y-110975000I0J250000D01*
G01*
G37*
G36*
G01*
X94255000Y-109500000D02*
X94555000Y-109500000D01*
G75*
G02*
X94705000Y-109650000I0J-150000D01*
G01*
X94705000Y-111300000D01*
G75*
G02*
X94555000Y-111450000I-150000J0D01*
G01*
X94255000Y-111450000D01*
G75*
G02*
X94105000Y-111300000I0J150000D01*
G01*
X94105000Y-109650000D01*
G75*
G02*
X94255000Y-109500000I150000J0D01*
G01*
G37*
G36*
G01*
X92985000Y-109500000D02*
X93285000Y-109500000D01*
G75*
G02*
X93435000Y-109650000I0J-150000D01*
G01*
X93435000Y-111300000D01*
G75*
G02*
X93285000Y-111450000I-150000J0D01*
G01*
X92985000Y-111450000D01*
G75*
G02*
X92835000Y-111300000I0J150000D01*
G01*
X92835000Y-109650000D01*
G75*
G02*
X92985000Y-109500000I150000J0D01*
G01*
G37*
G36*
G01*
X91715000Y-109500000D02*
X92015000Y-109500000D01*
G75*
G02*
X92165000Y-109650000I0J-150000D01*
G01*
X92165000Y-111300000D01*
G75*
G02*
X92015000Y-111450000I-150000J0D01*
G01*
X91715000Y-111450000D01*
G75*
G02*
X91565000Y-111300000I0J150000D01*
G01*
X91565000Y-109650000D01*
G75*
G02*
X91715000Y-109500000I150000J0D01*
G01*
G37*
G36*
G01*
X90445000Y-109500000D02*
X90745000Y-109500000D01*
G75*
G02*
X90895000Y-109650000I0J-150000D01*
G01*
X90895000Y-111300000D01*
G75*
G02*
X90745000Y-111450000I-150000J0D01*
G01*
X90445000Y-111450000D01*
G75*
G02*
X90295000Y-111300000I0J150000D01*
G01*
X90295000Y-109650000D01*
G75*
G02*
X90445000Y-109500000I150000J0D01*
G01*
G37*
G36*
G01*
X90445000Y-104550000D02*
X90745000Y-104550000D01*
G75*
G02*
X90895000Y-104700000I0J-150000D01*
G01*
X90895000Y-106350000D01*
G75*
G02*
X90745000Y-106500000I-150000J0D01*
G01*
X90445000Y-106500000D01*
G75*
G02*
X90295000Y-106350000I0J150000D01*
G01*
X90295000Y-104700000D01*
G75*
G02*
X90445000Y-104550000I150000J0D01*
G01*
G37*
G36*
G01*
X91715000Y-104550000D02*
X92015000Y-104550000D01*
G75*
G02*
X92165000Y-104700000I0J-150000D01*
G01*
X92165000Y-106350000D01*
G75*
G02*
X92015000Y-106500000I-150000J0D01*
G01*
X91715000Y-106500000D01*
G75*
G02*
X91565000Y-106350000I0J150000D01*
G01*
X91565000Y-104700000D01*
G75*
G02*
X91715000Y-104550000I150000J0D01*
G01*
G37*
G36*
G01*
X92985000Y-104550000D02*
X93285000Y-104550000D01*
G75*
G02*
X93435000Y-104700000I0J-150000D01*
G01*
X93435000Y-106350000D01*
G75*
G02*
X93285000Y-106500000I-150000J0D01*
G01*
X92985000Y-106500000D01*
G75*
G02*
X92835000Y-106350000I0J150000D01*
G01*
X92835000Y-104700000D01*
G75*
G02*
X92985000Y-104550000I150000J0D01*
G01*
G37*
G36*
G01*
X94255000Y-104550000D02*
X94555000Y-104550000D01*
G75*
G02*
X94705000Y-104700000I0J-150000D01*
G01*
X94705000Y-106350000D01*
G75*
G02*
X94555000Y-106500000I-150000J0D01*
G01*
X94255000Y-106500000D01*
G75*
G02*
X94105000Y-106350000I0J150000D01*
G01*
X94105000Y-104700000D01*
G75*
G02*
X94255000Y-104550000I150000J0D01*
G01*
G37*
G36*
G01*
X87255000Y-102500000D02*
X87555000Y-102500000D01*
G75*
G02*
X87705000Y-102650000I0J-150000D01*
G01*
X87705000Y-104300000D01*
G75*
G02*
X87555000Y-104450000I-150000J0D01*
G01*
X87255000Y-104450000D01*
G75*
G02*
X87105000Y-104300000I0J150000D01*
G01*
X87105000Y-102650000D01*
G75*
G02*
X87255000Y-102500000I150000J0D01*
G01*
G37*
G36*
G01*
X85985000Y-102500000D02*
X86285000Y-102500000D01*
G75*
G02*
X86435000Y-102650000I0J-150000D01*
G01*
X86435000Y-104300000D01*
G75*
G02*
X86285000Y-104450000I-150000J0D01*
G01*
X85985000Y-104450000D01*
G75*
G02*
X85835000Y-104300000I0J150000D01*
G01*
X85835000Y-102650000D01*
G75*
G02*
X85985000Y-102500000I150000J0D01*
G01*
G37*
G36*
G01*
X84715000Y-102500000D02*
X85015000Y-102500000D01*
G75*
G02*
X85165000Y-102650000I0J-150000D01*
G01*
X85165000Y-104300000D01*
G75*
G02*
X85015000Y-104450000I-150000J0D01*
G01*
X84715000Y-104450000D01*
G75*
G02*
X84565000Y-104300000I0J150000D01*
G01*
X84565000Y-102650000D01*
G75*
G02*
X84715000Y-102500000I150000J0D01*
G01*
G37*
G36*
G01*
X83445000Y-102500000D02*
X83745000Y-102500000D01*
G75*
G02*
X83895000Y-102650000I0J-150000D01*
G01*
X83895000Y-104300000D01*
G75*
G02*
X83745000Y-104450000I-150000J0D01*
G01*
X83445000Y-104450000D01*
G75*
G02*
X83295000Y-104300000I0J150000D01*
G01*
X83295000Y-102650000D01*
G75*
G02*
X83445000Y-102500000I150000J0D01*
G01*
G37*
G36*
G01*
X83445000Y-97550000D02*
X83745000Y-97550000D01*
G75*
G02*
X83895000Y-97700000I0J-150000D01*
G01*
X83895000Y-99350000D01*
G75*
G02*
X83745000Y-99500000I-150000J0D01*
G01*
X83445000Y-99500000D01*
G75*
G02*
X83295000Y-99350000I0J150000D01*
G01*
X83295000Y-97700000D01*
G75*
G02*
X83445000Y-97550000I150000J0D01*
G01*
G37*
G36*
G01*
X84715000Y-97550000D02*
X85015000Y-97550000D01*
G75*
G02*
X85165000Y-97700000I0J-150000D01*
G01*
X85165000Y-99350000D01*
G75*
G02*
X85015000Y-99500000I-150000J0D01*
G01*
X84715000Y-99500000D01*
G75*
G02*
X84565000Y-99350000I0J150000D01*
G01*
X84565000Y-97700000D01*
G75*
G02*
X84715000Y-97550000I150000J0D01*
G01*
G37*
G36*
G01*
X85985000Y-97550000D02*
X86285000Y-97550000D01*
G75*
G02*
X86435000Y-97700000I0J-150000D01*
G01*
X86435000Y-99350000D01*
G75*
G02*
X86285000Y-99500000I-150000J0D01*
G01*
X85985000Y-99500000D01*
G75*
G02*
X85835000Y-99350000I0J150000D01*
G01*
X85835000Y-97700000D01*
G75*
G02*
X85985000Y-97550000I150000J0D01*
G01*
G37*
G36*
G01*
X87255000Y-97550000D02*
X87555000Y-97550000D01*
G75*
G02*
X87705000Y-97700000I0J-150000D01*
G01*
X87705000Y-99350000D01*
G75*
G02*
X87555000Y-99500000I-150000J0D01*
G01*
X87255000Y-99500000D01*
G75*
G02*
X87105000Y-99350000I0J150000D01*
G01*
X87105000Y-97700000D01*
G75*
G02*
X87255000Y-97550000I150000J0D01*
G01*
G37*
G36*
G01*
X79755000Y-102500000D02*
X80055000Y-102500000D01*
G75*
G02*
X80205000Y-102650000I0J-150000D01*
G01*
X80205000Y-104300000D01*
G75*
G02*
X80055000Y-104450000I-150000J0D01*
G01*
X79755000Y-104450000D01*
G75*
G02*
X79605000Y-104300000I0J150000D01*
G01*
X79605000Y-102650000D01*
G75*
G02*
X79755000Y-102500000I150000J0D01*
G01*
G37*
G36*
G01*
X78485000Y-102500000D02*
X78785000Y-102500000D01*
G75*
G02*
X78935000Y-102650000I0J-150000D01*
G01*
X78935000Y-104300000D01*
G75*
G02*
X78785000Y-104450000I-150000J0D01*
G01*
X78485000Y-104450000D01*
G75*
G02*
X78335000Y-104300000I0J150000D01*
G01*
X78335000Y-102650000D01*
G75*
G02*
X78485000Y-102500000I150000J0D01*
G01*
G37*
G36*
G01*
X77215000Y-102500000D02*
X77515000Y-102500000D01*
G75*
G02*
X77665000Y-102650000I0J-150000D01*
G01*
X77665000Y-104300000D01*
G75*
G02*
X77515000Y-104450000I-150000J0D01*
G01*
X77215000Y-104450000D01*
G75*
G02*
X77065000Y-104300000I0J150000D01*
G01*
X77065000Y-102650000D01*
G75*
G02*
X77215000Y-102500000I150000J0D01*
G01*
G37*
G36*
G01*
X75945000Y-102500000D02*
X76245000Y-102500000D01*
G75*
G02*
X76395000Y-102650000I0J-150000D01*
G01*
X76395000Y-104300000D01*
G75*
G02*
X76245000Y-104450000I-150000J0D01*
G01*
X75945000Y-104450000D01*
G75*
G02*
X75795000Y-104300000I0J150000D01*
G01*
X75795000Y-102650000D01*
G75*
G02*
X75945000Y-102500000I150000J0D01*
G01*
G37*
G36*
G01*
X75945000Y-97550000D02*
X76245000Y-97550000D01*
G75*
G02*
X76395000Y-97700000I0J-150000D01*
G01*
X76395000Y-99350000D01*
G75*
G02*
X76245000Y-99500000I-150000J0D01*
G01*
X75945000Y-99500000D01*
G75*
G02*
X75795000Y-99350000I0J150000D01*
G01*
X75795000Y-97700000D01*
G75*
G02*
X75945000Y-97550000I150000J0D01*
G01*
G37*
G36*
G01*
X77215000Y-97550000D02*
X77515000Y-97550000D01*
G75*
G02*
X77665000Y-97700000I0J-150000D01*
G01*
X77665000Y-99350000D01*
G75*
G02*
X77515000Y-99500000I-150000J0D01*
G01*
X77215000Y-99500000D01*
G75*
G02*
X77065000Y-99350000I0J150000D01*
G01*
X77065000Y-97700000D01*
G75*
G02*
X77215000Y-97550000I150000J0D01*
G01*
G37*
G36*
G01*
X78485000Y-97550000D02*
X78785000Y-97550000D01*
G75*
G02*
X78935000Y-97700000I0J-150000D01*
G01*
X78935000Y-99350000D01*
G75*
G02*
X78785000Y-99500000I-150000J0D01*
G01*
X78485000Y-99500000D01*
G75*
G02*
X78335000Y-99350000I0J150000D01*
G01*
X78335000Y-97700000D01*
G75*
G02*
X78485000Y-97550000I150000J0D01*
G01*
G37*
G36*
G01*
X79755000Y-97550000D02*
X80055000Y-97550000D01*
G75*
G02*
X80205000Y-97700000I0J-150000D01*
G01*
X80205000Y-99350000D01*
G75*
G02*
X80055000Y-99500000I-150000J0D01*
G01*
X79755000Y-99500000D01*
G75*
G02*
X79605000Y-99350000I0J150000D01*
G01*
X79605000Y-97700000D01*
G75*
G02*
X79755000Y-97550000I150000J0D01*
G01*
G37*
G36*
G01*
X72255000Y-102500000D02*
X72555000Y-102500000D01*
G75*
G02*
X72705000Y-102650000I0J-150000D01*
G01*
X72705000Y-104300000D01*
G75*
G02*
X72555000Y-104450000I-150000J0D01*
G01*
X72255000Y-104450000D01*
G75*
G02*
X72105000Y-104300000I0J150000D01*
G01*
X72105000Y-102650000D01*
G75*
G02*
X72255000Y-102500000I150000J0D01*
G01*
G37*
G36*
G01*
X70985000Y-102500000D02*
X71285000Y-102500000D01*
G75*
G02*
X71435000Y-102650000I0J-150000D01*
G01*
X71435000Y-104300000D01*
G75*
G02*
X71285000Y-104450000I-150000J0D01*
G01*
X70985000Y-104450000D01*
G75*
G02*
X70835000Y-104300000I0J150000D01*
G01*
X70835000Y-102650000D01*
G75*
G02*
X70985000Y-102500000I150000J0D01*
G01*
G37*
G36*
G01*
X69715000Y-102500000D02*
X70015000Y-102500000D01*
G75*
G02*
X70165000Y-102650000I0J-150000D01*
G01*
X70165000Y-104300000D01*
G75*
G02*
X70015000Y-104450000I-150000J0D01*
G01*
X69715000Y-104450000D01*
G75*
G02*
X69565000Y-104300000I0J150000D01*
G01*
X69565000Y-102650000D01*
G75*
G02*
X69715000Y-102500000I150000J0D01*
G01*
G37*
G36*
G01*
X68445000Y-102500000D02*
X68745000Y-102500000D01*
G75*
G02*
X68895000Y-102650000I0J-150000D01*
G01*
X68895000Y-104300000D01*
G75*
G02*
X68745000Y-104450000I-150000J0D01*
G01*
X68445000Y-104450000D01*
G75*
G02*
X68295000Y-104300000I0J150000D01*
G01*
X68295000Y-102650000D01*
G75*
G02*
X68445000Y-102500000I150000J0D01*
G01*
G37*
G36*
G01*
X68445000Y-97550000D02*
X68745000Y-97550000D01*
G75*
G02*
X68895000Y-97700000I0J-150000D01*
G01*
X68895000Y-99350000D01*
G75*
G02*
X68745000Y-99500000I-150000J0D01*
G01*
X68445000Y-99500000D01*
G75*
G02*
X68295000Y-99350000I0J150000D01*
G01*
X68295000Y-97700000D01*
G75*
G02*
X68445000Y-97550000I150000J0D01*
G01*
G37*
G36*
G01*
X69715000Y-97550000D02*
X70015000Y-97550000D01*
G75*
G02*
X70165000Y-97700000I0J-150000D01*
G01*
X70165000Y-99350000D01*
G75*
G02*
X70015000Y-99500000I-150000J0D01*
G01*
X69715000Y-99500000D01*
G75*
G02*
X69565000Y-99350000I0J150000D01*
G01*
X69565000Y-97700000D01*
G75*
G02*
X69715000Y-97550000I150000J0D01*
G01*
G37*
G36*
G01*
X70985000Y-97550000D02*
X71285000Y-97550000D01*
G75*
G02*
X71435000Y-97700000I0J-150000D01*
G01*
X71435000Y-99350000D01*
G75*
G02*
X71285000Y-99500000I-150000J0D01*
G01*
X70985000Y-99500000D01*
G75*
G02*
X70835000Y-99350000I0J150000D01*
G01*
X70835000Y-97700000D01*
G75*
G02*
X70985000Y-97550000I150000J0D01*
G01*
G37*
G36*
G01*
X72255000Y-97550000D02*
X72555000Y-97550000D01*
G75*
G02*
X72705000Y-97700000I0J-150000D01*
G01*
X72705000Y-99350000D01*
G75*
G02*
X72555000Y-99500000I-150000J0D01*
G01*
X72255000Y-99500000D01*
G75*
G02*
X72105000Y-99350000I0J150000D01*
G01*
X72105000Y-97700000D01*
G75*
G02*
X72255000Y-97550000I150000J0D01*
G01*
G37*
G36*
G01*
X64755000Y-102500000D02*
X65055000Y-102500000D01*
G75*
G02*
X65205000Y-102650000I0J-150000D01*
G01*
X65205000Y-104300000D01*
G75*
G02*
X65055000Y-104450000I-150000J0D01*
G01*
X64755000Y-104450000D01*
G75*
G02*
X64605000Y-104300000I0J150000D01*
G01*
X64605000Y-102650000D01*
G75*
G02*
X64755000Y-102500000I150000J0D01*
G01*
G37*
G36*
G01*
X63485000Y-102500000D02*
X63785000Y-102500000D01*
G75*
G02*
X63935000Y-102650000I0J-150000D01*
G01*
X63935000Y-104300000D01*
G75*
G02*
X63785000Y-104450000I-150000J0D01*
G01*
X63485000Y-104450000D01*
G75*
G02*
X63335000Y-104300000I0J150000D01*
G01*
X63335000Y-102650000D01*
G75*
G02*
X63485000Y-102500000I150000J0D01*
G01*
G37*
G36*
G01*
X62215000Y-102500000D02*
X62515000Y-102500000D01*
G75*
G02*
X62665000Y-102650000I0J-150000D01*
G01*
X62665000Y-104300000D01*
G75*
G02*
X62515000Y-104450000I-150000J0D01*
G01*
X62215000Y-104450000D01*
G75*
G02*
X62065000Y-104300000I0J150000D01*
G01*
X62065000Y-102650000D01*
G75*
G02*
X62215000Y-102500000I150000J0D01*
G01*
G37*
G36*
G01*
X60945000Y-102500000D02*
X61245000Y-102500000D01*
G75*
G02*
X61395000Y-102650000I0J-150000D01*
G01*
X61395000Y-104300000D01*
G75*
G02*
X61245000Y-104450000I-150000J0D01*
G01*
X60945000Y-104450000D01*
G75*
G02*
X60795000Y-104300000I0J150000D01*
G01*
X60795000Y-102650000D01*
G75*
G02*
X60945000Y-102500000I150000J0D01*
G01*
G37*
G36*
G01*
X60945000Y-97550000D02*
X61245000Y-97550000D01*
G75*
G02*
X61395000Y-97700000I0J-150000D01*
G01*
X61395000Y-99350000D01*
G75*
G02*
X61245000Y-99500000I-150000J0D01*
G01*
X60945000Y-99500000D01*
G75*
G02*
X60795000Y-99350000I0J150000D01*
G01*
X60795000Y-97700000D01*
G75*
G02*
X60945000Y-97550000I150000J0D01*
G01*
G37*
G36*
G01*
X62215000Y-97550000D02*
X62515000Y-97550000D01*
G75*
G02*
X62665000Y-97700000I0J-150000D01*
G01*
X62665000Y-99350000D01*
G75*
G02*
X62515000Y-99500000I-150000J0D01*
G01*
X62215000Y-99500000D01*
G75*
G02*
X62065000Y-99350000I0J150000D01*
G01*
X62065000Y-97700000D01*
G75*
G02*
X62215000Y-97550000I150000J0D01*
G01*
G37*
G36*
G01*
X63485000Y-97550000D02*
X63785000Y-97550000D01*
G75*
G02*
X63935000Y-97700000I0J-150000D01*
G01*
X63935000Y-99350000D01*
G75*
G02*
X63785000Y-99500000I-150000J0D01*
G01*
X63485000Y-99500000D01*
G75*
G02*
X63335000Y-99350000I0J150000D01*
G01*
X63335000Y-97700000D01*
G75*
G02*
X63485000Y-97550000I150000J0D01*
G01*
G37*
G36*
G01*
X64755000Y-97550000D02*
X65055000Y-97550000D01*
G75*
G02*
X65205000Y-97700000I0J-150000D01*
G01*
X65205000Y-99350000D01*
G75*
G02*
X65055000Y-99500000I-150000J0D01*
G01*
X64755000Y-99500000D01*
G75*
G02*
X64605000Y-99350000I0J150000D01*
G01*
X64605000Y-97700000D01*
G75*
G02*
X64755000Y-97550000I150000J0D01*
G01*
G37*
G36*
G01*
X57255000Y-102500000D02*
X57555000Y-102500000D01*
G75*
G02*
X57705000Y-102650000I0J-150000D01*
G01*
X57705000Y-104300000D01*
G75*
G02*
X57555000Y-104450000I-150000J0D01*
G01*
X57255000Y-104450000D01*
G75*
G02*
X57105000Y-104300000I0J150000D01*
G01*
X57105000Y-102650000D01*
G75*
G02*
X57255000Y-102500000I150000J0D01*
G01*
G37*
G36*
G01*
X55985000Y-102500000D02*
X56285000Y-102500000D01*
G75*
G02*
X56435000Y-102650000I0J-150000D01*
G01*
X56435000Y-104300000D01*
G75*
G02*
X56285000Y-104450000I-150000J0D01*
G01*
X55985000Y-104450000D01*
G75*
G02*
X55835000Y-104300000I0J150000D01*
G01*
X55835000Y-102650000D01*
G75*
G02*
X55985000Y-102500000I150000J0D01*
G01*
G37*
G36*
G01*
X54715000Y-102500000D02*
X55015000Y-102500000D01*
G75*
G02*
X55165000Y-102650000I0J-150000D01*
G01*
X55165000Y-104300000D01*
G75*
G02*
X55015000Y-104450000I-150000J0D01*
G01*
X54715000Y-104450000D01*
G75*
G02*
X54565000Y-104300000I0J150000D01*
G01*
X54565000Y-102650000D01*
G75*
G02*
X54715000Y-102500000I150000J0D01*
G01*
G37*
G36*
G01*
X53445000Y-102500000D02*
X53745000Y-102500000D01*
G75*
G02*
X53895000Y-102650000I0J-150000D01*
G01*
X53895000Y-104300000D01*
G75*
G02*
X53745000Y-104450000I-150000J0D01*
G01*
X53445000Y-104450000D01*
G75*
G02*
X53295000Y-104300000I0J150000D01*
G01*
X53295000Y-102650000D01*
G75*
G02*
X53445000Y-102500000I150000J0D01*
G01*
G37*
G36*
G01*
X53445000Y-97550000D02*
X53745000Y-97550000D01*
G75*
G02*
X53895000Y-97700000I0J-150000D01*
G01*
X53895000Y-99350000D01*
G75*
G02*
X53745000Y-99500000I-150000J0D01*
G01*
X53445000Y-99500000D01*
G75*
G02*
X53295000Y-99350000I0J150000D01*
G01*
X53295000Y-97700000D01*
G75*
G02*
X53445000Y-97550000I150000J0D01*
G01*
G37*
G36*
G01*
X54715000Y-97550000D02*
X55015000Y-97550000D01*
G75*
G02*
X55165000Y-97700000I0J-150000D01*
G01*
X55165000Y-99350000D01*
G75*
G02*
X55015000Y-99500000I-150000J0D01*
G01*
X54715000Y-99500000D01*
G75*
G02*
X54565000Y-99350000I0J150000D01*
G01*
X54565000Y-97700000D01*
G75*
G02*
X54715000Y-97550000I150000J0D01*
G01*
G37*
G36*
G01*
X55985000Y-97550000D02*
X56285000Y-97550000D01*
G75*
G02*
X56435000Y-97700000I0J-150000D01*
G01*
X56435000Y-99350000D01*
G75*
G02*
X56285000Y-99500000I-150000J0D01*
G01*
X55985000Y-99500000D01*
G75*
G02*
X55835000Y-99350000I0J150000D01*
G01*
X55835000Y-97700000D01*
G75*
G02*
X55985000Y-97550000I150000J0D01*
G01*
G37*
G36*
G01*
X57255000Y-97550000D02*
X57555000Y-97550000D01*
G75*
G02*
X57705000Y-97700000I0J-150000D01*
G01*
X57705000Y-99350000D01*
G75*
G02*
X57555000Y-99500000I-150000J0D01*
G01*
X57255000Y-99500000D01*
G75*
G02*
X57105000Y-99350000I0J150000D01*
G01*
X57105000Y-97700000D01*
G75*
G02*
X57255000Y-97550000I150000J0D01*
G01*
G37*
G36*
G01*
X49755000Y-102500000D02*
X50055000Y-102500000D01*
G75*
G02*
X50205000Y-102650000I0J-150000D01*
G01*
X50205000Y-104300000D01*
G75*
G02*
X50055000Y-104450000I-150000J0D01*
G01*
X49755000Y-104450000D01*
G75*
G02*
X49605000Y-104300000I0J150000D01*
G01*
X49605000Y-102650000D01*
G75*
G02*
X49755000Y-102500000I150000J0D01*
G01*
G37*
G36*
G01*
X48485000Y-102500000D02*
X48785000Y-102500000D01*
G75*
G02*
X48935000Y-102650000I0J-150000D01*
G01*
X48935000Y-104300000D01*
G75*
G02*
X48785000Y-104450000I-150000J0D01*
G01*
X48485000Y-104450000D01*
G75*
G02*
X48335000Y-104300000I0J150000D01*
G01*
X48335000Y-102650000D01*
G75*
G02*
X48485000Y-102500000I150000J0D01*
G01*
G37*
G36*
G01*
X47215000Y-102500000D02*
X47515000Y-102500000D01*
G75*
G02*
X47665000Y-102650000I0J-150000D01*
G01*
X47665000Y-104300000D01*
G75*
G02*
X47515000Y-104450000I-150000J0D01*
G01*
X47215000Y-104450000D01*
G75*
G02*
X47065000Y-104300000I0J150000D01*
G01*
X47065000Y-102650000D01*
G75*
G02*
X47215000Y-102500000I150000J0D01*
G01*
G37*
G36*
G01*
X45945000Y-102500000D02*
X46245000Y-102500000D01*
G75*
G02*
X46395000Y-102650000I0J-150000D01*
G01*
X46395000Y-104300000D01*
G75*
G02*
X46245000Y-104450000I-150000J0D01*
G01*
X45945000Y-104450000D01*
G75*
G02*
X45795000Y-104300000I0J150000D01*
G01*
X45795000Y-102650000D01*
G75*
G02*
X45945000Y-102500000I150000J0D01*
G01*
G37*
G36*
G01*
X45945000Y-97550000D02*
X46245000Y-97550000D01*
G75*
G02*
X46395000Y-97700000I0J-150000D01*
G01*
X46395000Y-99350000D01*
G75*
G02*
X46245000Y-99500000I-150000J0D01*
G01*
X45945000Y-99500000D01*
G75*
G02*
X45795000Y-99350000I0J150000D01*
G01*
X45795000Y-97700000D01*
G75*
G02*
X45945000Y-97550000I150000J0D01*
G01*
G37*
G36*
G01*
X47215000Y-97550000D02*
X47515000Y-97550000D01*
G75*
G02*
X47665000Y-97700000I0J-150000D01*
G01*
X47665000Y-99350000D01*
G75*
G02*
X47515000Y-99500000I-150000J0D01*
G01*
X47215000Y-99500000D01*
G75*
G02*
X47065000Y-99350000I0J150000D01*
G01*
X47065000Y-97700000D01*
G75*
G02*
X47215000Y-97550000I150000J0D01*
G01*
G37*
G36*
G01*
X48485000Y-97550000D02*
X48785000Y-97550000D01*
G75*
G02*
X48935000Y-97700000I0J-150000D01*
G01*
X48935000Y-99350000D01*
G75*
G02*
X48785000Y-99500000I-150000J0D01*
G01*
X48485000Y-99500000D01*
G75*
G02*
X48335000Y-99350000I0J150000D01*
G01*
X48335000Y-97700000D01*
G75*
G02*
X48485000Y-97550000I150000J0D01*
G01*
G37*
G36*
G01*
X49755000Y-97550000D02*
X50055000Y-97550000D01*
G75*
G02*
X50205000Y-97700000I0J-150000D01*
G01*
X50205000Y-99350000D01*
G75*
G02*
X50055000Y-99500000I-150000J0D01*
G01*
X49755000Y-99500000D01*
G75*
G02*
X49605000Y-99350000I0J150000D01*
G01*
X49605000Y-97700000D01*
G75*
G02*
X49755000Y-97550000I150000J0D01*
G01*
G37*
G36*
G01*
X97450001Y-107187500D02*
X96549999Y-107187500D01*
G75*
G02*
X96300000Y-106937501I0J249999D01*
G01*
X96300000Y-106412499D01*
G75*
G02*
X96549999Y-106162500I249999J0D01*
G01*
X97450001Y-106162500D01*
G75*
G02*
X97700000Y-106412499I0J-249999D01*
G01*
X97700000Y-106937501D01*
G75*
G02*
X97450001Y-107187500I-249999J0D01*
G01*
G37*
G36*
G01*
X97450001Y-109012500D02*
X96549999Y-109012500D01*
G75*
G02*
X96300000Y-108762501I0J249999D01*
G01*
X96300000Y-108237499D01*
G75*
G02*
X96549999Y-107987500I249999J0D01*
G01*
X97450001Y-107987500D01*
G75*
G02*
X97700000Y-108237499I0J-249999D01*
G01*
X97700000Y-108762501D01*
G75*
G02*
X97450001Y-109012500I-249999J0D01*
G01*
G37*
G36*
G01*
X95012500Y-102049999D02*
X95012500Y-102950001D01*
G75*
G02*
X94762501Y-103200000I-249999J0D01*
G01*
X94237499Y-103200000D01*
G75*
G02*
X93987500Y-102950001I0J249999D01*
G01*
X93987500Y-102049999D01*
G75*
G02*
X94237499Y-101800000I249999J0D01*
G01*
X94762501Y-101800000D01*
G75*
G02*
X95012500Y-102049999I0J-249999D01*
G01*
G37*
G36*
G01*
X96837500Y-102049999D02*
X96837500Y-102950001D01*
G75*
G02*
X96587501Y-103200000I-249999J0D01*
G01*
X96062499Y-103200000D01*
G75*
G02*
X95812500Y-102950001I0J249999D01*
G01*
X95812500Y-102049999D01*
G75*
G02*
X96062499Y-101800000I249999J0D01*
G01*
X96587501Y-101800000D01*
G75*
G02*
X96837500Y-102049999I0J-249999D01*
G01*
G37*
G36*
G01*
X91012500Y-102049999D02*
X91012500Y-102950001D01*
G75*
G02*
X90762501Y-103200000I-249999J0D01*
G01*
X90237499Y-103200000D01*
G75*
G02*
X89987500Y-102950001I0J249999D01*
G01*
X89987500Y-102049999D01*
G75*
G02*
X90237499Y-101800000I249999J0D01*
G01*
X90762501Y-101800000D01*
G75*
G02*
X91012500Y-102049999I0J-249999D01*
G01*
G37*
G36*
G01*
X92837500Y-102049999D02*
X92837500Y-102950001D01*
G75*
G02*
X92587501Y-103200000I-249999J0D01*
G01*
X92062499Y-103200000D01*
G75*
G02*
X91812500Y-102950001I0J249999D01*
G01*
X91812500Y-102049999D01*
G75*
G02*
X92062499Y-101800000I249999J0D01*
G01*
X92587501Y-101800000D01*
G75*
G02*
X92837500Y-102049999I0J-249999D01*
G01*
G37*
G36*
G01*
X103812500Y-109450001D02*
X103812500Y-108549999D01*
G75*
G02*
X104062499Y-108300000I249999J0D01*
G01*
X104587501Y-108300000D01*
G75*
G02*
X104837500Y-108549999I0J-249999D01*
G01*
X104837500Y-109450001D01*
G75*
G02*
X104587501Y-109700000I-249999J0D01*
G01*
X104062499Y-109700000D01*
G75*
G02*
X103812500Y-109450001I0J249999D01*
G01*
G37*
G36*
G01*
X101987500Y-109450001D02*
X101987500Y-108549999D01*
G75*
G02*
X102237499Y-108300000I249999J0D01*
G01*
X102762501Y-108300000D01*
G75*
G02*
X103012500Y-108549999I0J-249999D01*
G01*
X103012500Y-109450001D01*
G75*
G02*
X102762501Y-109700000I-249999J0D01*
G01*
X102237499Y-109700000D01*
G75*
G02*
X101987500Y-109450001I0J249999D01*
G01*
G37*
G36*
G01*
X87125001Y-108637500D02*
X85874999Y-108637500D01*
G75*
G02*
X85625000Y-108387501I0J249999D01*
G01*
X85625000Y-107762499D01*
G75*
G02*
X85874999Y-107512500I249999J0D01*
G01*
X87125001Y-107512500D01*
G75*
G02*
X87375000Y-107762499I0J-249999D01*
G01*
X87375000Y-108387501D01*
G75*
G02*
X87125001Y-108637500I-249999J0D01*
G01*
G37*
G36*
G01*
X87125001Y-111562500D02*
X85874999Y-111562500D01*
G75*
G02*
X85625000Y-111312501I0J249999D01*
G01*
X85625000Y-110687499D01*
G75*
G02*
X85874999Y-110437500I249999J0D01*
G01*
X87125001Y-110437500D01*
G75*
G02*
X87375000Y-110687499I0J-249999D01*
G01*
X87375000Y-111312501D01*
G75*
G02*
X87125001Y-111562500I-249999J0D01*
G01*
G37*
G36*
G01*
X77125001Y-108637500D02*
X75874999Y-108637500D01*
G75*
G02*
X75625000Y-108387501I0J249999D01*
G01*
X75625000Y-107762499D01*
G75*
G02*
X75874999Y-107512500I249999J0D01*
G01*
X77125001Y-107512500D01*
G75*
G02*
X77375000Y-107762499I0J-249999D01*
G01*
X77375000Y-108387501D01*
G75*
G02*
X77125001Y-108637500I-249999J0D01*
G01*
G37*
G36*
G01*
X77125001Y-111562500D02*
X75874999Y-111562500D01*
G75*
G02*
X75625000Y-111312501I0J249999D01*
G01*
X75625000Y-110687499D01*
G75*
G02*
X75874999Y-110437500I249999J0D01*
G01*
X77125001Y-110437500D01*
G75*
G02*
X77375000Y-110687499I0J-249999D01*
G01*
X77375000Y-111312501D01*
G75*
G02*
X77125001Y-111562500I-249999J0D01*
G01*
G37*
G36*
G01*
X63125001Y-108637500D02*
X61874999Y-108637500D01*
G75*
G02*
X61625000Y-108387501I0J249999D01*
G01*
X61625000Y-107762499D01*
G75*
G02*
X61874999Y-107512500I249999J0D01*
G01*
X63125001Y-107512500D01*
G75*
G02*
X63375000Y-107762499I0J-249999D01*
G01*
X63375000Y-108387501D01*
G75*
G02*
X63125001Y-108637500I-249999J0D01*
G01*
G37*
G36*
G01*
X63125001Y-111562500D02*
X61874999Y-111562500D01*
G75*
G02*
X61625000Y-111312501I0J249999D01*
G01*
X61625000Y-110687499D01*
G75*
G02*
X61874999Y-110437500I249999J0D01*
G01*
X63125001Y-110437500D01*
G75*
G02*
X63375000Y-110687499I0J-249999D01*
G01*
X63375000Y-111312501D01*
G75*
G02*
X63125001Y-111562500I-249999J0D01*
G01*
G37*
G36*
G01*
X52125001Y-108637500D02*
X50874999Y-108637500D01*
G75*
G02*
X50625000Y-108387501I0J249999D01*
G01*
X50625000Y-107762499D01*
G75*
G02*
X50874999Y-107512500I249999J0D01*
G01*
X52125001Y-107512500D01*
G75*
G02*
X52375000Y-107762499I0J-249999D01*
G01*
X52375000Y-108387501D01*
G75*
G02*
X52125001Y-108637500I-249999J0D01*
G01*
G37*
G36*
G01*
X52125001Y-111562500D02*
X50874999Y-111562500D01*
G75*
G02*
X50625000Y-111312501I0J249999D01*
G01*
X50625000Y-110687499D01*
G75*
G02*
X50874999Y-110437500I249999J0D01*
G01*
X52125001Y-110437500D01*
G75*
G02*
X52375000Y-110687499I0J-249999D01*
G01*
X52375000Y-111312501D01*
G75*
G02*
X52125001Y-111562500I-249999J0D01*
G01*
G37*
G36*
G01*
X87950001Y-94187500D02*
X87049999Y-94187500D01*
G75*
G02*
X86800000Y-93937501I0J249999D01*
G01*
X86800000Y-93412499D01*
G75*
G02*
X87049999Y-93162500I249999J0D01*
G01*
X87950001Y-93162500D01*
G75*
G02*
X88200000Y-93412499I0J-249999D01*
G01*
X88200000Y-93937501D01*
G75*
G02*
X87950001Y-94187500I-249999J0D01*
G01*
G37*
G36*
G01*
X87950001Y-96012500D02*
X87049999Y-96012500D01*
G75*
G02*
X86800000Y-95762501I0J249999D01*
G01*
X86800000Y-95237499D01*
G75*
G02*
X87049999Y-94987500I249999J0D01*
G01*
X87950001Y-94987500D01*
G75*
G02*
X88200000Y-95237499I0J-249999D01*
G01*
X88200000Y-95762501D01*
G75*
G02*
X87950001Y-96012500I-249999J0D01*
G01*
G37*
G36*
G01*
X77450001Y-94187500D02*
X76549999Y-94187500D01*
G75*
G02*
X76300000Y-93937501I0J249999D01*
G01*
X76300000Y-93412499D01*
G75*
G02*
X76549999Y-93162500I249999J0D01*
G01*
X77450001Y-93162500D01*
G75*
G02*
X77700000Y-93412499I0J-249999D01*
G01*
X77700000Y-93937501D01*
G75*
G02*
X77450001Y-94187500I-249999J0D01*
G01*
G37*
G36*
G01*
X77450001Y-96012500D02*
X76549999Y-96012500D01*
G75*
G02*
X76300000Y-95762501I0J249999D01*
G01*
X76300000Y-95237499D01*
G75*
G02*
X76549999Y-94987500I249999J0D01*
G01*
X77450001Y-94987500D01*
G75*
G02*
X77700000Y-95237499I0J-249999D01*
G01*
X77700000Y-95762501D01*
G75*
G02*
X77450001Y-96012500I-249999J0D01*
G01*
G37*
G36*
G01*
X65450001Y-94187500D02*
X64549999Y-94187500D01*
G75*
G02*
X64300000Y-93937501I0J249999D01*
G01*
X64300000Y-93412499D01*
G75*
G02*
X64549999Y-93162500I249999J0D01*
G01*
X65450001Y-93162500D01*
G75*
G02*
X65700000Y-93412499I0J-249999D01*
G01*
X65700000Y-93937501D01*
G75*
G02*
X65450001Y-94187500I-249999J0D01*
G01*
G37*
G36*
G01*
X65450001Y-96012500D02*
X64549999Y-96012500D01*
G75*
G02*
X64300000Y-95762501I0J249999D01*
G01*
X64300000Y-95237499D01*
G75*
G02*
X64549999Y-94987500I249999J0D01*
G01*
X65450001Y-94987500D01*
G75*
G02*
X65700000Y-95237499I0J-249999D01*
G01*
X65700000Y-95762501D01*
G75*
G02*
X65450001Y-96012500I-249999J0D01*
G01*
G37*
G36*
G01*
X54950001Y-94187500D02*
X54049999Y-94187500D01*
G75*
G02*
X53800000Y-93937501I0J249999D01*
G01*
X53800000Y-93412499D01*
G75*
G02*
X54049999Y-93162500I249999J0D01*
G01*
X54950001Y-93162500D01*
G75*
G02*
X55200000Y-93412499I0J-249999D01*
G01*
X55200000Y-93937501D01*
G75*
G02*
X54950001Y-94187500I-249999J0D01*
G01*
G37*
G36*
G01*
X54950001Y-96012500D02*
X54049999Y-96012500D01*
G75*
G02*
X53800000Y-95762501I0J249999D01*
G01*
X53800000Y-95237499D01*
G75*
G02*
X54049999Y-94987500I249999J0D01*
G01*
X54950001Y-94987500D01*
G75*
G02*
X55200000Y-95237499I0J-249999D01*
G01*
X55200000Y-95762501D01*
G75*
G02*
X54950001Y-96012500I-249999J0D01*
G01*
G37*
G36*
G01*
X84125001Y-108637500D02*
X82874999Y-108637500D01*
G75*
G02*
X82625000Y-108387501I0J249999D01*
G01*
X82625000Y-107762499D01*
G75*
G02*
X82874999Y-107512500I249999J0D01*
G01*
X84125001Y-107512500D01*
G75*
G02*
X84375000Y-107762499I0J-249999D01*
G01*
X84375000Y-108387501D01*
G75*
G02*
X84125001Y-108637500I-249999J0D01*
G01*
G37*
G36*
G01*
X84125001Y-111562500D02*
X82874999Y-111562500D01*
G75*
G02*
X82625000Y-111312501I0J249999D01*
G01*
X82625000Y-110687499D01*
G75*
G02*
X82874999Y-110437500I249999J0D01*
G01*
X84125001Y-110437500D01*
G75*
G02*
X84375000Y-110687499I0J-249999D01*
G01*
X84375000Y-111312501D01*
G75*
G02*
X84125001Y-111562500I-249999J0D01*
G01*
G37*
G36*
G01*
X74125001Y-108637500D02*
X72874999Y-108637500D01*
G75*
G02*
X72625000Y-108387501I0J249999D01*
G01*
X72625000Y-107762499D01*
G75*
G02*
X72874999Y-107512500I249999J0D01*
G01*
X74125001Y-107512500D01*
G75*
G02*
X74375000Y-107762499I0J-249999D01*
G01*
X74375000Y-108387501D01*
G75*
G02*
X74125001Y-108637500I-249999J0D01*
G01*
G37*
G36*
G01*
X74125001Y-111562500D02*
X72874999Y-111562500D01*
G75*
G02*
X72625000Y-111312501I0J249999D01*
G01*
X72625000Y-110687499D01*
G75*
G02*
X72874999Y-110437500I249999J0D01*
G01*
X74125001Y-110437500D01*
G75*
G02*
X74375000Y-110687499I0J-249999D01*
G01*
X74375000Y-111312501D01*
G75*
G02*
X74125001Y-111562500I-249999J0D01*
G01*
G37*
G36*
G01*
X60125001Y-108637500D02*
X58874999Y-108637500D01*
G75*
G02*
X58625000Y-108387501I0J249999D01*
G01*
X58625000Y-107762499D01*
G75*
G02*
X58874999Y-107512500I249999J0D01*
G01*
X60125001Y-107512500D01*
G75*
G02*
X60375000Y-107762499I0J-249999D01*
G01*
X60375000Y-108387501D01*
G75*
G02*
X60125001Y-108637500I-249999J0D01*
G01*
G37*
G36*
G01*
X60125001Y-111562500D02*
X58874999Y-111562500D01*
G75*
G02*
X58625000Y-111312501I0J249999D01*
G01*
X58625000Y-110687499D01*
G75*
G02*
X58874999Y-110437500I249999J0D01*
G01*
X60125001Y-110437500D01*
G75*
G02*
X60375000Y-110687499I0J-249999D01*
G01*
X60375000Y-111312501D01*
G75*
G02*
X60125001Y-111562500I-249999J0D01*
G01*
G37*
G36*
G01*
X49125001Y-108637500D02*
X47874999Y-108637500D01*
G75*
G02*
X47625000Y-108387501I0J249999D01*
G01*
X47625000Y-107762499D01*
G75*
G02*
X47874999Y-107512500I249999J0D01*
G01*
X49125001Y-107512500D01*
G75*
G02*
X49375000Y-107762499I0J-249999D01*
G01*
X49375000Y-108387501D01*
G75*
G02*
X49125001Y-108637500I-249999J0D01*
G01*
G37*
G36*
G01*
X49125001Y-111562500D02*
X47874999Y-111562500D01*
G75*
G02*
X47625000Y-111312501I0J249999D01*
G01*
X47625000Y-110687499D01*
G75*
G02*
X47874999Y-110437500I249999J0D01*
G01*
X49125001Y-110437500D01*
G75*
G02*
X49375000Y-110687499I0J-249999D01*
G01*
X49375000Y-111312501D01*
G75*
G02*
X49125001Y-111562500I-249999J0D01*
G01*
G37*
G36*
G01*
X84950001Y-94187500D02*
X84049999Y-94187500D01*
G75*
G02*
X83800000Y-93937501I0J249999D01*
G01*
X83800000Y-93412499D01*
G75*
G02*
X84049999Y-93162500I249999J0D01*
G01*
X84950001Y-93162500D01*
G75*
G02*
X85200000Y-93412499I0J-249999D01*
G01*
X85200000Y-93937501D01*
G75*
G02*
X84950001Y-94187500I-249999J0D01*
G01*
G37*
G36*
G01*
X84950001Y-96012500D02*
X84049999Y-96012500D01*
G75*
G02*
X83800000Y-95762501I0J249999D01*
G01*
X83800000Y-95237499D01*
G75*
G02*
X84049999Y-94987500I249999J0D01*
G01*
X84950001Y-94987500D01*
G75*
G02*
X85200000Y-95237499I0J-249999D01*
G01*
X85200000Y-95762501D01*
G75*
G02*
X84950001Y-96012500I-249999J0D01*
G01*
G37*
G36*
G01*
X72950001Y-94187500D02*
X72049999Y-94187500D01*
G75*
G02*
X71800000Y-93937501I0J249999D01*
G01*
X71800000Y-93412499D01*
G75*
G02*
X72049999Y-93162500I249999J0D01*
G01*
X72950001Y-93162500D01*
G75*
G02*
X73200000Y-93412499I0J-249999D01*
G01*
X73200000Y-93937501D01*
G75*
G02*
X72950001Y-94187500I-249999J0D01*
G01*
G37*
G36*
G01*
X72950001Y-96012500D02*
X72049999Y-96012500D01*
G75*
G02*
X71800000Y-95762501I0J249999D01*
G01*
X71800000Y-95237499D01*
G75*
G02*
X72049999Y-94987500I249999J0D01*
G01*
X72950001Y-94987500D01*
G75*
G02*
X73200000Y-95237499I0J-249999D01*
G01*
X73200000Y-95762501D01*
G75*
G02*
X72950001Y-96012500I-249999J0D01*
G01*
G37*
G36*
G01*
X62450001Y-94187500D02*
X61549999Y-94187500D01*
G75*
G02*
X61300000Y-93937501I0J249999D01*
G01*
X61300000Y-93412499D01*
G75*
G02*
X61549999Y-93162500I249999J0D01*
G01*
X62450001Y-93162500D01*
G75*
G02*
X62700000Y-93412499I0J-249999D01*
G01*
X62700000Y-93937501D01*
G75*
G02*
X62450001Y-94187500I-249999J0D01*
G01*
G37*
G36*
G01*
X62450001Y-96012500D02*
X61549999Y-96012500D01*
G75*
G02*
X61300000Y-95762501I0J249999D01*
G01*
X61300000Y-95237499D01*
G75*
G02*
X61549999Y-94987500I249999J0D01*
G01*
X62450001Y-94987500D01*
G75*
G02*
X62700000Y-95237499I0J-249999D01*
G01*
X62700000Y-95762501D01*
G75*
G02*
X62450001Y-96012500I-249999J0D01*
G01*
G37*
G36*
G01*
X50450001Y-94187500D02*
X49549999Y-94187500D01*
G75*
G02*
X49300000Y-93937501I0J249999D01*
G01*
X49300000Y-93412499D01*
G75*
G02*
X49549999Y-93162500I249999J0D01*
G01*
X50450001Y-93162500D01*
G75*
G02*
X50700000Y-93412499I0J-249999D01*
G01*
X50700000Y-93937501D01*
G75*
G02*
X50450001Y-94187500I-249999J0D01*
G01*
G37*
G36*
G01*
X50450001Y-96012500D02*
X49549999Y-96012500D01*
G75*
G02*
X49300000Y-95762501I0J249999D01*
G01*
X49300000Y-95237499D01*
G75*
G02*
X49549999Y-94987500I249999J0D01*
G01*
X50450001Y-94987500D01*
G75*
G02*
X50700000Y-95237499I0J-249999D01*
G01*
X50700000Y-95762501D01*
G75*
G02*
X50450001Y-96012500I-249999J0D01*
G01*
G37*
G36*
G01*
X71125001Y-108637500D02*
X69874999Y-108637500D01*
G75*
G02*
X69625000Y-108387501I0J249999D01*
G01*
X69625000Y-107762499D01*
G75*
G02*
X69874999Y-107512500I249999J0D01*
G01*
X71125001Y-107512500D01*
G75*
G02*
X71375000Y-107762499I0J-249999D01*
G01*
X71375000Y-108387501D01*
G75*
G02*
X71125001Y-108637500I-249999J0D01*
G01*
G37*
G36*
G01*
X71125001Y-111562500D02*
X69874999Y-111562500D01*
G75*
G02*
X69625000Y-111312501I0J249999D01*
G01*
X69625000Y-110687499D01*
G75*
G02*
X69874999Y-110437500I249999J0D01*
G01*
X71125001Y-110437500D01*
G75*
G02*
X71375000Y-110687499I0J-249999D01*
G01*
X71375000Y-111312501D01*
G75*
G02*
X71125001Y-111562500I-249999J0D01*
G01*
G37*
G36*
G01*
X57125001Y-108637500D02*
X55874999Y-108637500D01*
G75*
G02*
X55625000Y-108387501I0J249999D01*
G01*
X55625000Y-107762499D01*
G75*
G02*
X55874999Y-107512500I249999J0D01*
G01*
X57125001Y-107512500D01*
G75*
G02*
X57375000Y-107762499I0J-249999D01*
G01*
X57375000Y-108387501D01*
G75*
G02*
X57125001Y-108637500I-249999J0D01*
G01*
G37*
G36*
G01*
X57125001Y-111562500D02*
X55874999Y-111562500D01*
G75*
G02*
X55625000Y-111312501I0J249999D01*
G01*
X55625000Y-110687499D01*
G75*
G02*
X55874999Y-110437500I249999J0D01*
G01*
X57125001Y-110437500D01*
G75*
G02*
X57375000Y-110687499I0J-249999D01*
G01*
X57375000Y-111312501D01*
G75*
G02*
X57125001Y-111562500I-249999J0D01*
G01*
G37*
G36*
G01*
X46125001Y-108637500D02*
X44874999Y-108637500D01*
G75*
G02*
X44625000Y-108387501I0J249999D01*
G01*
X44625000Y-107762499D01*
G75*
G02*
X44874999Y-107512500I249999J0D01*
G01*
X46125001Y-107512500D01*
G75*
G02*
X46375000Y-107762499I0J-249999D01*
G01*
X46375000Y-108387501D01*
G75*
G02*
X46125001Y-108637500I-249999J0D01*
G01*
G37*
G36*
G01*
X46125001Y-111562500D02*
X44874999Y-111562500D01*
G75*
G02*
X44625000Y-111312501I0J249999D01*
G01*
X44625000Y-110687499D01*
G75*
G02*
X44874999Y-110437500I249999J0D01*
G01*
X46125001Y-110437500D01*
G75*
G02*
X46375000Y-110687499I0J-249999D01*
G01*
X46375000Y-111312501D01*
G75*
G02*
X46125001Y-111562500I-249999J0D01*
G01*
G37*
G36*
G01*
X80450001Y-94187500D02*
X79549999Y-94187500D01*
G75*
G02*
X79300000Y-93937501I0J249999D01*
G01*
X79300000Y-93412499D01*
G75*
G02*
X79549999Y-93162500I249999J0D01*
G01*
X80450001Y-93162500D01*
G75*
G02*
X80700000Y-93412499I0J-249999D01*
G01*
X80700000Y-93937501D01*
G75*
G02*
X80450001Y-94187500I-249999J0D01*
G01*
G37*
G36*
G01*
X80450001Y-96012500D02*
X79549999Y-96012500D01*
G75*
G02*
X79300000Y-95762501I0J249999D01*
G01*
X79300000Y-95237499D01*
G75*
G02*
X79549999Y-94987500I249999J0D01*
G01*
X80450001Y-94987500D01*
G75*
G02*
X80700000Y-95237499I0J-249999D01*
G01*
X80700000Y-95762501D01*
G75*
G02*
X80450001Y-96012500I-249999J0D01*
G01*
G37*
G36*
G01*
X69950001Y-94187500D02*
X69049999Y-94187500D01*
G75*
G02*
X68800000Y-93937501I0J249999D01*
G01*
X68800000Y-93412499D01*
G75*
G02*
X69049999Y-93162500I249999J0D01*
G01*
X69950001Y-93162500D01*
G75*
G02*
X70200000Y-93412499I0J-249999D01*
G01*
X70200000Y-93937501D01*
G75*
G02*
X69950001Y-94187500I-249999J0D01*
G01*
G37*
G36*
G01*
X69950001Y-96012500D02*
X69049999Y-96012500D01*
G75*
G02*
X68800000Y-95762501I0J249999D01*
G01*
X68800000Y-95237499D01*
G75*
G02*
X69049999Y-94987500I249999J0D01*
G01*
X69950001Y-94987500D01*
G75*
G02*
X70200000Y-95237499I0J-249999D01*
G01*
X70200000Y-95762501D01*
G75*
G02*
X69950001Y-96012500I-249999J0D01*
G01*
G37*
G36*
G01*
X57950001Y-94187500D02*
X57049999Y-94187500D01*
G75*
G02*
X56800000Y-93937501I0J249999D01*
G01*
X56800000Y-93412499D01*
G75*
G02*
X57049999Y-93162500I249999J0D01*
G01*
X57950001Y-93162500D01*
G75*
G02*
X58200000Y-93412499I0J-249999D01*
G01*
X58200000Y-93937501D01*
G75*
G02*
X57950001Y-94187500I-249999J0D01*
G01*
G37*
G36*
G01*
X57950001Y-96012500D02*
X57049999Y-96012500D01*
G75*
G02*
X56800000Y-95762501I0J249999D01*
G01*
X56800000Y-95237499D01*
G75*
G02*
X57049999Y-94987500I249999J0D01*
G01*
X57950001Y-94987500D01*
G75*
G02*
X58200000Y-95237499I0J-249999D01*
G01*
X58200000Y-95762501D01*
G75*
G02*
X57950001Y-96012500I-249999J0D01*
G01*
G37*
G36*
G01*
X47450001Y-94187500D02*
X46549999Y-94187500D01*
G75*
G02*
X46300000Y-93937501I0J249999D01*
G01*
X46300000Y-93412499D01*
G75*
G02*
X46549999Y-93162500I249999J0D01*
G01*
X47450001Y-93162500D01*
G75*
G02*
X47700000Y-93412499I0J-249999D01*
G01*
X47700000Y-93937501D01*
G75*
G02*
X47450001Y-94187500I-249999J0D01*
G01*
G37*
G36*
G01*
X47450001Y-96012500D02*
X46549999Y-96012500D01*
G75*
G02*
X46300000Y-95762501I0J249999D01*
G01*
X46300000Y-95237499D01*
G75*
G02*
X46549999Y-94987500I249999J0D01*
G01*
X47450001Y-94987500D01*
G75*
G02*
X47700000Y-95237499I0J-249999D01*
G01*
X47700000Y-95762501D01*
G75*
G02*
X47450001Y-96012500I-249999J0D01*
G01*
G37*
D12*
X103500000Y-106300000D03*
X103500000Y-102000000D03*
G36*
G01*
X100475000Y-107100000D02*
X99525000Y-107100000D01*
G75*
G02*
X99275000Y-106850000I0J250000D01*
G01*
X99275000Y-106350000D01*
G75*
G02*
X99525000Y-106100000I250000J0D01*
G01*
X100475000Y-106100000D01*
G75*
G02*
X100725000Y-106350000I0J-250000D01*
G01*
X100725000Y-106850000D01*
G75*
G02*
X100475000Y-107100000I-250000J0D01*
G01*
G37*
G36*
G01*
X100475000Y-109000000D02*
X99525000Y-109000000D01*
G75*
G02*
X99275000Y-108750000I0J250000D01*
G01*
X99275000Y-108250000D01*
G75*
G02*
X99525000Y-108000000I250000J0D01*
G01*
X100475000Y-108000000D01*
G75*
G02*
X100725000Y-108250000I0J-250000D01*
G01*
X100725000Y-108750000D01*
G75*
G02*
X100475000Y-109000000I-250000J0D01*
G01*
G37*
G36*
G01*
X98025000Y-103900000D02*
X98975000Y-103900000D01*
G75*
G02*
X99225000Y-104150000I0J-250000D01*
G01*
X99225000Y-104650000D01*
G75*
G02*
X98975000Y-104900000I-250000J0D01*
G01*
X98025000Y-104900000D01*
G75*
G02*
X97775000Y-104650000I0J250000D01*
G01*
X97775000Y-104150000D01*
G75*
G02*
X98025000Y-103900000I250000J0D01*
G01*
G37*
G36*
G01*
X98025000Y-102000000D02*
X98975000Y-102000000D01*
G75*
G02*
X99225000Y-102250000I0J-250000D01*
G01*
X99225000Y-102750000D01*
G75*
G02*
X98975000Y-103000000I-250000J0D01*
G01*
X98025000Y-103000000D01*
G75*
G02*
X97775000Y-102750000I0J250000D01*
G01*
X97775000Y-102250000D01*
G75*
G02*
X98025000Y-102000000I250000J0D01*
G01*
G37*
D13*
X62000000Y-23500000D03*
X61050000Y-21500000D03*
X62950000Y-21500000D03*
D14*
X88775000Y-55400000D03*
X89425000Y-55400000D03*
X90075000Y-55400000D03*
X90725000Y-55400000D03*
X91375000Y-55400000D03*
X92025000Y-55400000D03*
X92675000Y-55400000D03*
X93325000Y-55400000D03*
X93975000Y-55400000D03*
X94625000Y-55400000D03*
X95275000Y-55400000D03*
X95925000Y-55400000D03*
X96575000Y-55400000D03*
X97225000Y-55400000D03*
X97225000Y-62600000D03*
X96575000Y-62600000D03*
X95925000Y-62600000D03*
X95275000Y-62600000D03*
X94625000Y-62600000D03*
X93975000Y-62600000D03*
X93325000Y-62600000D03*
X92675000Y-62600000D03*
X92025000Y-62600000D03*
X91375000Y-62600000D03*
X90725000Y-62600000D03*
X90075000Y-62600000D03*
X89425000Y-62600000D03*
X88775000Y-62600000D03*
D15*
X49850000Y-32700000D03*
X49850000Y-37300000D03*
X49850000Y-35000000D03*
D16*
X56150000Y-35000000D03*
D17*
X52100000Y-45050000D03*
X52100000Y-46950000D03*
X49900000Y-46950000D03*
X49900000Y-46000000D03*
X49900000Y-45050000D03*
G36*
G01*
X26000000Y-45255000D02*
X26000000Y-45555000D01*
G75*
G02*
X25850000Y-45705000I-150000J0D01*
G01*
X24200000Y-45705000D01*
G75*
G02*
X24050000Y-45555000I0J150000D01*
G01*
X24050000Y-45255000D01*
G75*
G02*
X24200000Y-45105000I150000J0D01*
G01*
X25850000Y-45105000D01*
G75*
G02*
X26000000Y-45255000I0J-150000D01*
G01*
G37*
G36*
G01*
X26000000Y-43985000D02*
X26000000Y-44285000D01*
G75*
G02*
X25850000Y-44435000I-150000J0D01*
G01*
X24200000Y-44435000D01*
G75*
G02*
X24050000Y-44285000I0J150000D01*
G01*
X24050000Y-43985000D01*
G75*
G02*
X24200000Y-43835000I150000J0D01*
G01*
X25850000Y-43835000D01*
G75*
G02*
X26000000Y-43985000I0J-150000D01*
G01*
G37*
G36*
G01*
X26000000Y-42715000D02*
X26000000Y-43015000D01*
G75*
G02*
X25850000Y-43165000I-150000J0D01*
G01*
X24200000Y-43165000D01*
G75*
G02*
X24050000Y-43015000I0J150000D01*
G01*
X24050000Y-42715000D01*
G75*
G02*
X24200000Y-42565000I150000J0D01*
G01*
X25850000Y-42565000D01*
G75*
G02*
X26000000Y-42715000I0J-150000D01*
G01*
G37*
G36*
G01*
X26000000Y-41445000D02*
X26000000Y-41745000D01*
G75*
G02*
X25850000Y-41895000I-150000J0D01*
G01*
X24200000Y-41895000D01*
G75*
G02*
X24050000Y-41745000I0J150000D01*
G01*
X24050000Y-41445000D01*
G75*
G02*
X24200000Y-41295000I150000J0D01*
G01*
X25850000Y-41295000D01*
G75*
G02*
X26000000Y-41445000I0J-150000D01*
G01*
G37*
G36*
G01*
X30950000Y-41445000D02*
X30950000Y-41745000D01*
G75*
G02*
X30800000Y-41895000I-150000J0D01*
G01*
X29150000Y-41895000D01*
G75*
G02*
X29000000Y-41745000I0J150000D01*
G01*
X29000000Y-41445000D01*
G75*
G02*
X29150000Y-41295000I150000J0D01*
G01*
X30800000Y-41295000D01*
G75*
G02*
X30950000Y-41445000I0J-150000D01*
G01*
G37*
G36*
G01*
X30950000Y-42715000D02*
X30950000Y-43015000D01*
G75*
G02*
X30800000Y-43165000I-150000J0D01*
G01*
X29150000Y-43165000D01*
G75*
G02*
X29000000Y-43015000I0J150000D01*
G01*
X29000000Y-42715000D01*
G75*
G02*
X29150000Y-42565000I150000J0D01*
G01*
X30800000Y-42565000D01*
G75*
G02*
X30950000Y-42715000I0J-150000D01*
G01*
G37*
G36*
G01*
X30950000Y-43985000D02*
X30950000Y-44285000D01*
G75*
G02*
X30800000Y-44435000I-150000J0D01*
G01*
X29150000Y-44435000D01*
G75*
G02*
X29000000Y-44285000I0J150000D01*
G01*
X29000000Y-43985000D01*
G75*
G02*
X29150000Y-43835000I150000J0D01*
G01*
X30800000Y-43835000D01*
G75*
G02*
X30950000Y-43985000I0J-150000D01*
G01*
G37*
G36*
G01*
X30950000Y-45255000D02*
X30950000Y-45555000D01*
G75*
G02*
X30800000Y-45705000I-150000J0D01*
G01*
X29150000Y-45705000D01*
G75*
G02*
X29000000Y-45555000I0J150000D01*
G01*
X29000000Y-45255000D01*
G75*
G02*
X29150000Y-45105000I150000J0D01*
G01*
X30800000Y-45105000D01*
G75*
G02*
X30950000Y-45255000I0J-150000D01*
G01*
G37*
G36*
G01*
X39687500Y-106049999D02*
X39687500Y-106950001D01*
G75*
G02*
X39437501Y-107200000I-249999J0D01*
G01*
X38912499Y-107200000D01*
G75*
G02*
X38662500Y-106950001I0J249999D01*
G01*
X38662500Y-106049999D01*
G75*
G02*
X38912499Y-105800000I249999J0D01*
G01*
X39437501Y-105800000D01*
G75*
G02*
X39687500Y-106049999I0J-249999D01*
G01*
G37*
G36*
G01*
X41512500Y-106049999D02*
X41512500Y-106950001D01*
G75*
G02*
X41262501Y-107200000I-249999J0D01*
G01*
X40737499Y-107200000D01*
G75*
G02*
X40487500Y-106950001I0J249999D01*
G01*
X40487500Y-106049999D01*
G75*
G02*
X40737499Y-105800000I249999J0D01*
G01*
X41262501Y-105800000D01*
G75*
G02*
X41512500Y-106049999I0J-249999D01*
G01*
G37*
G36*
G01*
X39687500Y-92049999D02*
X39687500Y-92950001D01*
G75*
G02*
X39437501Y-93200000I-249999J0D01*
G01*
X38912499Y-93200000D01*
G75*
G02*
X38662500Y-92950001I0J249999D01*
G01*
X38662500Y-92049999D01*
G75*
G02*
X38912499Y-91800000I249999J0D01*
G01*
X39437501Y-91800000D01*
G75*
G02*
X39687500Y-92049999I0J-249999D01*
G01*
G37*
G36*
G01*
X41512500Y-92049999D02*
X41512500Y-92950001D01*
G75*
G02*
X41262501Y-93200000I-249999J0D01*
G01*
X40737499Y-93200000D01*
G75*
G02*
X40487500Y-92950001I0J249999D01*
G01*
X40487500Y-92049999D01*
G75*
G02*
X40737499Y-91800000I249999J0D01*
G01*
X41262501Y-91800000D01*
G75*
G02*
X41512500Y-92049999I0J-249999D01*
G01*
G37*
G36*
G01*
X39687500Y-78049999D02*
X39687500Y-78950001D01*
G75*
G02*
X39437501Y-79200000I-249999J0D01*
G01*
X38912499Y-79200000D01*
G75*
G02*
X38662500Y-78950001I0J249999D01*
G01*
X38662500Y-78049999D01*
G75*
G02*
X38912499Y-77800000I249999J0D01*
G01*
X39437501Y-77800000D01*
G75*
G02*
X39687500Y-78049999I0J-249999D01*
G01*
G37*
G36*
G01*
X41512500Y-78049999D02*
X41512500Y-78950001D01*
G75*
G02*
X41262501Y-79200000I-249999J0D01*
G01*
X40737499Y-79200000D01*
G75*
G02*
X40487500Y-78950001I0J249999D01*
G01*
X40487500Y-78049999D01*
G75*
G02*
X40737499Y-77800000I249999J0D01*
G01*
X41262501Y-77800000D01*
G75*
G02*
X41512500Y-78049999I0J-249999D01*
G01*
G37*
G36*
G01*
X39687500Y-64049999D02*
X39687500Y-64950001D01*
G75*
G02*
X39437501Y-65200000I-249999J0D01*
G01*
X38912499Y-65200000D01*
G75*
G02*
X38662500Y-64950001I0J249999D01*
G01*
X38662500Y-64049999D01*
G75*
G02*
X38912499Y-63800000I249999J0D01*
G01*
X39437501Y-63800000D01*
G75*
G02*
X39687500Y-64049999I0J-249999D01*
G01*
G37*
G36*
G01*
X41512500Y-64049999D02*
X41512500Y-64950001D01*
G75*
G02*
X41262501Y-65200000I-249999J0D01*
G01*
X40737499Y-65200000D01*
G75*
G02*
X40487500Y-64950001I0J249999D01*
G01*
X40487500Y-64049999D01*
G75*
G02*
X40737499Y-63800000I249999J0D01*
G01*
X41262501Y-63800000D01*
G75*
G02*
X41512500Y-64049999I0J-249999D01*
G01*
G37*
G36*
G01*
X39687500Y-99049999D02*
X39687500Y-99950001D01*
G75*
G02*
X39437501Y-100200000I-249999J0D01*
G01*
X38912499Y-100200000D01*
G75*
G02*
X38662500Y-99950001I0J249999D01*
G01*
X38662500Y-99049999D01*
G75*
G02*
X38912499Y-98800000I249999J0D01*
G01*
X39437501Y-98800000D01*
G75*
G02*
X39687500Y-99049999I0J-249999D01*
G01*
G37*
G36*
G01*
X41512500Y-99049999D02*
X41512500Y-99950001D01*
G75*
G02*
X41262501Y-100200000I-249999J0D01*
G01*
X40737499Y-100200000D01*
G75*
G02*
X40487500Y-99950001I0J249999D01*
G01*
X40487500Y-99049999D01*
G75*
G02*
X40737499Y-98800000I249999J0D01*
G01*
X41262501Y-98800000D01*
G75*
G02*
X41512500Y-99049999I0J-249999D01*
G01*
G37*
G36*
G01*
X39687500Y-85049999D02*
X39687500Y-85950001D01*
G75*
G02*
X39437501Y-86200000I-249999J0D01*
G01*
X38912499Y-86200000D01*
G75*
G02*
X38662500Y-85950001I0J249999D01*
G01*
X38662500Y-85049999D01*
G75*
G02*
X38912499Y-84800000I249999J0D01*
G01*
X39437501Y-84800000D01*
G75*
G02*
X39687500Y-85049999I0J-249999D01*
G01*
G37*
G36*
G01*
X41512500Y-85049999D02*
X41512500Y-85950001D01*
G75*
G02*
X41262501Y-86200000I-249999J0D01*
G01*
X40737499Y-86200000D01*
G75*
G02*
X40487500Y-85950001I0J249999D01*
G01*
X40487500Y-85049999D01*
G75*
G02*
X40737499Y-84800000I249999J0D01*
G01*
X41262501Y-84800000D01*
G75*
G02*
X41512500Y-85049999I0J-249999D01*
G01*
G37*
G36*
G01*
X39687500Y-71049999D02*
X39687500Y-71950001D01*
G75*
G02*
X39437501Y-72200000I-249999J0D01*
G01*
X38912499Y-72200000D01*
G75*
G02*
X38662500Y-71950001I0J249999D01*
G01*
X38662500Y-71049999D01*
G75*
G02*
X38912499Y-70800000I249999J0D01*
G01*
X39437501Y-70800000D01*
G75*
G02*
X39687500Y-71049999I0J-249999D01*
G01*
G37*
G36*
G01*
X41512500Y-71049999D02*
X41512500Y-71950001D01*
G75*
G02*
X41262501Y-72200000I-249999J0D01*
G01*
X40737499Y-72200000D01*
G75*
G02*
X40487500Y-71950001I0J249999D01*
G01*
X40487500Y-71049999D01*
G75*
G02*
X40737499Y-70800000I249999J0D01*
G01*
X41262501Y-70800000D01*
G75*
G02*
X41512500Y-71049999I0J-249999D01*
G01*
G37*
G36*
G01*
X39687500Y-57049999D02*
X39687500Y-57950001D01*
G75*
G02*
X39437501Y-58200000I-249999J0D01*
G01*
X38912499Y-58200000D01*
G75*
G02*
X38662500Y-57950001I0J249999D01*
G01*
X38662500Y-57049999D01*
G75*
G02*
X38912499Y-56800000I249999J0D01*
G01*
X39437501Y-56800000D01*
G75*
G02*
X39687500Y-57049999I0J-249999D01*
G01*
G37*
G36*
G01*
X41512500Y-57049999D02*
X41512500Y-57950001D01*
G75*
G02*
X41262501Y-58200000I-249999J0D01*
G01*
X40737499Y-58200000D01*
G75*
G02*
X40487500Y-57950001I0J249999D01*
G01*
X40487500Y-57049999D01*
G75*
G02*
X40737499Y-56800000I249999J0D01*
G01*
X41262501Y-56800000D01*
G75*
G02*
X41512500Y-57049999I0J-249999D01*
G01*
G37*
G36*
G01*
X75900000Y-22450001D02*
X75900000Y-21549999D01*
G75*
G02*
X76149999Y-21300000I249999J0D01*
G01*
X76675001Y-21300000D01*
G75*
G02*
X76925000Y-21549999I0J-249999D01*
G01*
X76925000Y-22450001D01*
G75*
G02*
X76675001Y-22700000I-249999J0D01*
G01*
X76149999Y-22700000D01*
G75*
G02*
X75900000Y-22450001I0J249999D01*
G01*
G37*
G36*
G01*
X74075000Y-22450001D02*
X74075000Y-21549999D01*
G75*
G02*
X74324999Y-21300000I249999J0D01*
G01*
X74850001Y-21300000D01*
G75*
G02*
X75100000Y-21549999I0J-249999D01*
G01*
X75100000Y-22450001D01*
G75*
G02*
X74850001Y-22700000I-249999J0D01*
G01*
X74324999Y-22700000D01*
G75*
G02*
X74075000Y-22450001I0J249999D01*
G01*
G37*
G36*
G01*
X69012500Y-21549999D02*
X69012500Y-22450001D01*
G75*
G02*
X68762501Y-22700000I-249999J0D01*
G01*
X68237499Y-22700000D01*
G75*
G02*
X67987500Y-22450001I0J249999D01*
G01*
X67987500Y-21549999D01*
G75*
G02*
X68237499Y-21300000I249999J0D01*
G01*
X68762501Y-21300000D01*
G75*
G02*
X69012500Y-21549999I0J-249999D01*
G01*
G37*
G36*
G01*
X70837500Y-21549999D02*
X70837500Y-22450001D01*
G75*
G02*
X70587501Y-22700000I-249999J0D01*
G01*
X70062499Y-22700000D01*
G75*
G02*
X69812500Y-22450001I0J249999D01*
G01*
X69812500Y-21549999D01*
G75*
G02*
X70062499Y-21300000I249999J0D01*
G01*
X70587501Y-21300000D01*
G75*
G02*
X70837500Y-21549999I0J-249999D01*
G01*
G37*
G36*
G01*
X93450001Y-70512500D02*
X92549999Y-70512500D01*
G75*
G02*
X92300000Y-70262501I0J249999D01*
G01*
X92300000Y-69737499D01*
G75*
G02*
X92549999Y-69487500I249999J0D01*
G01*
X93450001Y-69487500D01*
G75*
G02*
X93700000Y-69737499I0J-249999D01*
G01*
X93700000Y-70262501D01*
G75*
G02*
X93450001Y-70512500I-249999J0D01*
G01*
G37*
G36*
G01*
X93450001Y-72337500D02*
X92549999Y-72337500D01*
G75*
G02*
X92300000Y-72087501I0J249999D01*
G01*
X92300000Y-71562499D01*
G75*
G02*
X92549999Y-71312500I249999J0D01*
G01*
X93450001Y-71312500D01*
G75*
G02*
X93700000Y-71562499I0J-249999D01*
G01*
X93700000Y-72087501D01*
G75*
G02*
X93450001Y-72337500I-249999J0D01*
G01*
G37*
G36*
G01*
X89950001Y-70512500D02*
X89049999Y-70512500D01*
G75*
G02*
X88800000Y-70262501I0J249999D01*
G01*
X88800000Y-69737499D01*
G75*
G02*
X89049999Y-69487500I249999J0D01*
G01*
X89950001Y-69487500D01*
G75*
G02*
X90200000Y-69737499I0J-249999D01*
G01*
X90200000Y-70262501D01*
G75*
G02*
X89950001Y-70512500I-249999J0D01*
G01*
G37*
G36*
G01*
X89950001Y-72337500D02*
X89049999Y-72337500D01*
G75*
G02*
X88800000Y-72087501I0J249999D01*
G01*
X88800000Y-71562499D01*
G75*
G02*
X89049999Y-71312500I249999J0D01*
G01*
X89950001Y-71312500D01*
G75*
G02*
X90200000Y-71562499I0J-249999D01*
G01*
X90200000Y-72087501D01*
G75*
G02*
X89950001Y-72337500I-249999J0D01*
G01*
G37*
G36*
G01*
X86812500Y-53450001D02*
X86812500Y-52549999D01*
G75*
G02*
X87062499Y-52300000I249999J0D01*
G01*
X87587501Y-52300000D01*
G75*
G02*
X87837500Y-52549999I0J-249999D01*
G01*
X87837500Y-53450001D01*
G75*
G02*
X87587501Y-53700000I-249999J0D01*
G01*
X87062499Y-53700000D01*
G75*
G02*
X86812500Y-53450001I0J249999D01*
G01*
G37*
G36*
G01*
X84987500Y-53450001D02*
X84987500Y-52549999D01*
G75*
G02*
X85237499Y-52300000I249999J0D01*
G01*
X85762501Y-52300000D01*
G75*
G02*
X86012500Y-52549999I0J-249999D01*
G01*
X86012500Y-53450001D01*
G75*
G02*
X85762501Y-53700000I-249999J0D01*
G01*
X85237499Y-53700000D01*
G75*
G02*
X84987500Y-53450001I0J249999D01*
G01*
G37*
G36*
G01*
X86812500Y-51450001D02*
X86812500Y-50549999D01*
G75*
G02*
X87062499Y-50300000I249999J0D01*
G01*
X87587501Y-50300000D01*
G75*
G02*
X87837500Y-50549999I0J-249999D01*
G01*
X87837500Y-51450001D01*
G75*
G02*
X87587501Y-51700000I-249999J0D01*
G01*
X87062499Y-51700000D01*
G75*
G02*
X86812500Y-51450001I0J249999D01*
G01*
G37*
G36*
G01*
X84987500Y-51450001D02*
X84987500Y-50549999D01*
G75*
G02*
X85237499Y-50300000I249999J0D01*
G01*
X85762501Y-50300000D01*
G75*
G02*
X86012500Y-50549999I0J-249999D01*
G01*
X86012500Y-51450001D01*
G75*
G02*
X85762501Y-51700000I-249999J0D01*
G01*
X85237499Y-51700000D01*
G75*
G02*
X84987500Y-51450001I0J249999D01*
G01*
G37*
G36*
G01*
X101312500Y-56450001D02*
X101312500Y-55549999D01*
G75*
G02*
X101562499Y-55300000I249999J0D01*
G01*
X102087501Y-55300000D01*
G75*
G02*
X102337500Y-55549999I0J-249999D01*
G01*
X102337500Y-56450001D01*
G75*
G02*
X102087501Y-56700000I-249999J0D01*
G01*
X101562499Y-56700000D01*
G75*
G02*
X101312500Y-56450001I0J249999D01*
G01*
G37*
G36*
G01*
X99487500Y-56450001D02*
X99487500Y-55549999D01*
G75*
G02*
X99737499Y-55300000I249999J0D01*
G01*
X100262501Y-55300000D01*
G75*
G02*
X100512500Y-55549999I0J-249999D01*
G01*
X100512500Y-56450001D01*
G75*
G02*
X100262501Y-56700000I-249999J0D01*
G01*
X99737499Y-56700000D01*
G75*
G02*
X99487500Y-56450001I0J249999D01*
G01*
G37*
G36*
G01*
X101312500Y-62450001D02*
X101312500Y-61549999D01*
G75*
G02*
X101562499Y-61300000I249999J0D01*
G01*
X102087501Y-61300000D01*
G75*
G02*
X102337500Y-61549999I0J-249999D01*
G01*
X102337500Y-62450001D01*
G75*
G02*
X102087501Y-62700000I-249999J0D01*
G01*
X101562499Y-62700000D01*
G75*
G02*
X101312500Y-62450001I0J249999D01*
G01*
G37*
G36*
G01*
X99487500Y-62450001D02*
X99487500Y-61549999D01*
G75*
G02*
X99737499Y-61300000I249999J0D01*
G01*
X100262501Y-61300000D01*
G75*
G02*
X100512500Y-61549999I0J-249999D01*
G01*
X100512500Y-62450001D01*
G75*
G02*
X100262501Y-62700000I-249999J0D01*
G01*
X99737499Y-62700000D01*
G75*
G02*
X99487500Y-62450001I0J249999D01*
G01*
G37*
G36*
G01*
X101312500Y-65450001D02*
X101312500Y-64549999D01*
G75*
G02*
X101562499Y-64300000I249999J0D01*
G01*
X102087501Y-64300000D01*
G75*
G02*
X102337500Y-64549999I0J-249999D01*
G01*
X102337500Y-65450001D01*
G75*
G02*
X102087501Y-65700000I-249999J0D01*
G01*
X101562499Y-65700000D01*
G75*
G02*
X101312500Y-65450001I0J249999D01*
G01*
G37*
G36*
G01*
X99487500Y-65450001D02*
X99487500Y-64549999D01*
G75*
G02*
X99737499Y-64300000I249999J0D01*
G01*
X100262501Y-64300000D01*
G75*
G02*
X100512500Y-64549999I0J-249999D01*
G01*
X100512500Y-65450001D01*
G75*
G02*
X100262501Y-65700000I-249999J0D01*
G01*
X99737499Y-65700000D01*
G75*
G02*
X99487500Y-65450001I0J249999D01*
G01*
G37*
G36*
G01*
X38950001Y-109512500D02*
X38049999Y-109512500D01*
G75*
G02*
X37800000Y-109262501I0J249999D01*
G01*
X37800000Y-108737499D01*
G75*
G02*
X38049999Y-108487500I249999J0D01*
G01*
X38950001Y-108487500D01*
G75*
G02*
X39200000Y-108737499I0J-249999D01*
G01*
X39200000Y-109262501D01*
G75*
G02*
X38950001Y-109512500I-249999J0D01*
G01*
G37*
G36*
G01*
X38950001Y-111337500D02*
X38049999Y-111337500D01*
G75*
G02*
X37800000Y-111087501I0J249999D01*
G01*
X37800000Y-110562499D01*
G75*
G02*
X38049999Y-110312500I249999J0D01*
G01*
X38950001Y-110312500D01*
G75*
G02*
X39200000Y-110562499I0J-249999D01*
G01*
X39200000Y-111087501D01*
G75*
G02*
X38950001Y-111337500I-249999J0D01*
G01*
G37*
G36*
G01*
X38950001Y-95512500D02*
X38049999Y-95512500D01*
G75*
G02*
X37800000Y-95262501I0J249999D01*
G01*
X37800000Y-94737499D01*
G75*
G02*
X38049999Y-94487500I249999J0D01*
G01*
X38950001Y-94487500D01*
G75*
G02*
X39200000Y-94737499I0J-249999D01*
G01*
X39200000Y-95262501D01*
G75*
G02*
X38950001Y-95512500I-249999J0D01*
G01*
G37*
G36*
G01*
X38950001Y-97337500D02*
X38049999Y-97337500D01*
G75*
G02*
X37800000Y-97087501I0J249999D01*
G01*
X37800000Y-96562499D01*
G75*
G02*
X38049999Y-96312500I249999J0D01*
G01*
X38950001Y-96312500D01*
G75*
G02*
X39200000Y-96562499I0J-249999D01*
G01*
X39200000Y-97087501D01*
G75*
G02*
X38950001Y-97337500I-249999J0D01*
G01*
G37*
G36*
G01*
X38950001Y-81512500D02*
X38049999Y-81512500D01*
G75*
G02*
X37800000Y-81262501I0J249999D01*
G01*
X37800000Y-80737499D01*
G75*
G02*
X38049999Y-80487500I249999J0D01*
G01*
X38950001Y-80487500D01*
G75*
G02*
X39200000Y-80737499I0J-249999D01*
G01*
X39200000Y-81262501D01*
G75*
G02*
X38950001Y-81512500I-249999J0D01*
G01*
G37*
G36*
G01*
X38950001Y-83337500D02*
X38049999Y-83337500D01*
G75*
G02*
X37800000Y-83087501I0J249999D01*
G01*
X37800000Y-82562499D01*
G75*
G02*
X38049999Y-82312500I249999J0D01*
G01*
X38950001Y-82312500D01*
G75*
G02*
X39200000Y-82562499I0J-249999D01*
G01*
X39200000Y-83087501D01*
G75*
G02*
X38950001Y-83337500I-249999J0D01*
G01*
G37*
G36*
G01*
X38950001Y-67512500D02*
X38049999Y-67512500D01*
G75*
G02*
X37800000Y-67262501I0J249999D01*
G01*
X37800000Y-66737499D01*
G75*
G02*
X38049999Y-66487500I249999J0D01*
G01*
X38950001Y-66487500D01*
G75*
G02*
X39200000Y-66737499I0J-249999D01*
G01*
X39200000Y-67262501D01*
G75*
G02*
X38950001Y-67512500I-249999J0D01*
G01*
G37*
G36*
G01*
X38950001Y-69337500D02*
X38049999Y-69337500D01*
G75*
G02*
X37800000Y-69087501I0J249999D01*
G01*
X37800000Y-68562499D01*
G75*
G02*
X38049999Y-68312500I249999J0D01*
G01*
X38950001Y-68312500D01*
G75*
G02*
X39200000Y-68562499I0J-249999D01*
G01*
X39200000Y-69087501D01*
G75*
G02*
X38950001Y-69337500I-249999J0D01*
G01*
G37*
G36*
G01*
X35950001Y-109512500D02*
X35049999Y-109512500D01*
G75*
G02*
X34800000Y-109262501I0J249999D01*
G01*
X34800000Y-108737499D01*
G75*
G02*
X35049999Y-108487500I249999J0D01*
G01*
X35950001Y-108487500D01*
G75*
G02*
X36200000Y-108737499I0J-249999D01*
G01*
X36200000Y-109262501D01*
G75*
G02*
X35950001Y-109512500I-249999J0D01*
G01*
G37*
G36*
G01*
X35950001Y-111337500D02*
X35049999Y-111337500D01*
G75*
G02*
X34800000Y-111087501I0J249999D01*
G01*
X34800000Y-110562499D01*
G75*
G02*
X35049999Y-110312500I249999J0D01*
G01*
X35950001Y-110312500D01*
G75*
G02*
X36200000Y-110562499I0J-249999D01*
G01*
X36200000Y-111087501D01*
G75*
G02*
X35950001Y-111337500I-249999J0D01*
G01*
G37*
G36*
G01*
X35950001Y-95512500D02*
X35049999Y-95512500D01*
G75*
G02*
X34800000Y-95262501I0J249999D01*
G01*
X34800000Y-94737499D01*
G75*
G02*
X35049999Y-94487500I249999J0D01*
G01*
X35950001Y-94487500D01*
G75*
G02*
X36200000Y-94737499I0J-249999D01*
G01*
X36200000Y-95262501D01*
G75*
G02*
X35950001Y-95512500I-249999J0D01*
G01*
G37*
G36*
G01*
X35950001Y-97337500D02*
X35049999Y-97337500D01*
G75*
G02*
X34800000Y-97087501I0J249999D01*
G01*
X34800000Y-96562499D01*
G75*
G02*
X35049999Y-96312500I249999J0D01*
G01*
X35950001Y-96312500D01*
G75*
G02*
X36200000Y-96562499I0J-249999D01*
G01*
X36200000Y-97087501D01*
G75*
G02*
X35950001Y-97337500I-249999J0D01*
G01*
G37*
G36*
G01*
X35950001Y-81512500D02*
X35049999Y-81512500D01*
G75*
G02*
X34800000Y-81262501I0J249999D01*
G01*
X34800000Y-80737499D01*
G75*
G02*
X35049999Y-80487500I249999J0D01*
G01*
X35950001Y-80487500D01*
G75*
G02*
X36200000Y-80737499I0J-249999D01*
G01*
X36200000Y-81262501D01*
G75*
G02*
X35950001Y-81512500I-249999J0D01*
G01*
G37*
G36*
G01*
X35950001Y-83337500D02*
X35049999Y-83337500D01*
G75*
G02*
X34800000Y-83087501I0J249999D01*
G01*
X34800000Y-82562499D01*
G75*
G02*
X35049999Y-82312500I249999J0D01*
G01*
X35950001Y-82312500D01*
G75*
G02*
X36200000Y-82562499I0J-249999D01*
G01*
X36200000Y-83087501D01*
G75*
G02*
X35950001Y-83337500I-249999J0D01*
G01*
G37*
G36*
G01*
X35950001Y-67512500D02*
X35049999Y-67512500D01*
G75*
G02*
X34800000Y-67262501I0J249999D01*
G01*
X34800000Y-66737499D01*
G75*
G02*
X35049999Y-66487500I249999J0D01*
G01*
X35950001Y-66487500D01*
G75*
G02*
X36200000Y-66737499I0J-249999D01*
G01*
X36200000Y-67262501D01*
G75*
G02*
X35950001Y-67512500I-249999J0D01*
G01*
G37*
G36*
G01*
X35950001Y-69337500D02*
X35049999Y-69337500D01*
G75*
G02*
X34800000Y-69087501I0J249999D01*
G01*
X34800000Y-68562499D01*
G75*
G02*
X35049999Y-68312500I249999J0D01*
G01*
X35950001Y-68312500D01*
G75*
G02*
X36200000Y-68562499I0J-249999D01*
G01*
X36200000Y-69087501D01*
G75*
G02*
X35950001Y-69337500I-249999J0D01*
G01*
G37*
G36*
G01*
X38950001Y-102512500D02*
X38049999Y-102512500D01*
G75*
G02*
X37800000Y-102262501I0J249999D01*
G01*
X37800000Y-101737499D01*
G75*
G02*
X38049999Y-101487500I249999J0D01*
G01*
X38950001Y-101487500D01*
G75*
G02*
X39200000Y-101737499I0J-249999D01*
G01*
X39200000Y-102262501D01*
G75*
G02*
X38950001Y-102512500I-249999J0D01*
G01*
G37*
G36*
G01*
X38950001Y-104337500D02*
X38049999Y-104337500D01*
G75*
G02*
X37800000Y-104087501I0J249999D01*
G01*
X37800000Y-103562499D01*
G75*
G02*
X38049999Y-103312500I249999J0D01*
G01*
X38950001Y-103312500D01*
G75*
G02*
X39200000Y-103562499I0J-249999D01*
G01*
X39200000Y-104087501D01*
G75*
G02*
X38950001Y-104337500I-249999J0D01*
G01*
G37*
G36*
G01*
X38950001Y-88512500D02*
X38049999Y-88512500D01*
G75*
G02*
X37800000Y-88262501I0J249999D01*
G01*
X37800000Y-87737499D01*
G75*
G02*
X38049999Y-87487500I249999J0D01*
G01*
X38950001Y-87487500D01*
G75*
G02*
X39200000Y-87737499I0J-249999D01*
G01*
X39200000Y-88262501D01*
G75*
G02*
X38950001Y-88512500I-249999J0D01*
G01*
G37*
G36*
G01*
X38950001Y-90337500D02*
X38049999Y-90337500D01*
G75*
G02*
X37800000Y-90087501I0J249999D01*
G01*
X37800000Y-89562499D01*
G75*
G02*
X38049999Y-89312500I249999J0D01*
G01*
X38950001Y-89312500D01*
G75*
G02*
X39200000Y-89562499I0J-249999D01*
G01*
X39200000Y-90087501D01*
G75*
G02*
X38950001Y-90337500I-249999J0D01*
G01*
G37*
G36*
G01*
X38950001Y-74512500D02*
X38049999Y-74512500D01*
G75*
G02*
X37800000Y-74262501I0J249999D01*
G01*
X37800000Y-73737499D01*
G75*
G02*
X38049999Y-73487500I249999J0D01*
G01*
X38950001Y-73487500D01*
G75*
G02*
X39200000Y-73737499I0J-249999D01*
G01*
X39200000Y-74262501D01*
G75*
G02*
X38950001Y-74512500I-249999J0D01*
G01*
G37*
G36*
G01*
X38950001Y-76337500D02*
X38049999Y-76337500D01*
G75*
G02*
X37800000Y-76087501I0J249999D01*
G01*
X37800000Y-75562499D01*
G75*
G02*
X38049999Y-75312500I249999J0D01*
G01*
X38950001Y-75312500D01*
G75*
G02*
X39200000Y-75562499I0J-249999D01*
G01*
X39200000Y-76087501D01*
G75*
G02*
X38950001Y-76337500I-249999J0D01*
G01*
G37*
G36*
G01*
X38950001Y-60512500D02*
X38049999Y-60512500D01*
G75*
G02*
X37800000Y-60262501I0J249999D01*
G01*
X37800000Y-59737499D01*
G75*
G02*
X38049999Y-59487500I249999J0D01*
G01*
X38950001Y-59487500D01*
G75*
G02*
X39200000Y-59737499I0J-249999D01*
G01*
X39200000Y-60262501D01*
G75*
G02*
X38950001Y-60512500I-249999J0D01*
G01*
G37*
G36*
G01*
X38950001Y-62337500D02*
X38049999Y-62337500D01*
G75*
G02*
X37800000Y-62087501I0J249999D01*
G01*
X37800000Y-61562499D01*
G75*
G02*
X38049999Y-61312500I249999J0D01*
G01*
X38950001Y-61312500D01*
G75*
G02*
X39200000Y-61562499I0J-249999D01*
G01*
X39200000Y-62087501D01*
G75*
G02*
X38950001Y-62337500I-249999J0D01*
G01*
G37*
G36*
G01*
X35950001Y-102512500D02*
X35049999Y-102512500D01*
G75*
G02*
X34800000Y-102262501I0J249999D01*
G01*
X34800000Y-101737499D01*
G75*
G02*
X35049999Y-101487500I249999J0D01*
G01*
X35950001Y-101487500D01*
G75*
G02*
X36200000Y-101737499I0J-249999D01*
G01*
X36200000Y-102262501D01*
G75*
G02*
X35950001Y-102512500I-249999J0D01*
G01*
G37*
G36*
G01*
X35950001Y-104337500D02*
X35049999Y-104337500D01*
G75*
G02*
X34800000Y-104087501I0J249999D01*
G01*
X34800000Y-103562499D01*
G75*
G02*
X35049999Y-103312500I249999J0D01*
G01*
X35950001Y-103312500D01*
G75*
G02*
X36200000Y-103562499I0J-249999D01*
G01*
X36200000Y-104087501D01*
G75*
G02*
X35950001Y-104337500I-249999J0D01*
G01*
G37*
G36*
G01*
X35950001Y-88512500D02*
X35049999Y-88512500D01*
G75*
G02*
X34800000Y-88262501I0J249999D01*
G01*
X34800000Y-87737499D01*
G75*
G02*
X35049999Y-87487500I249999J0D01*
G01*
X35950001Y-87487500D01*
G75*
G02*
X36200000Y-87737499I0J-249999D01*
G01*
X36200000Y-88262501D01*
G75*
G02*
X35950001Y-88512500I-249999J0D01*
G01*
G37*
G36*
G01*
X35950001Y-90337500D02*
X35049999Y-90337500D01*
G75*
G02*
X34800000Y-90087501I0J249999D01*
G01*
X34800000Y-89562499D01*
G75*
G02*
X35049999Y-89312500I249999J0D01*
G01*
X35950001Y-89312500D01*
G75*
G02*
X36200000Y-89562499I0J-249999D01*
G01*
X36200000Y-90087501D01*
G75*
G02*
X35950001Y-90337500I-249999J0D01*
G01*
G37*
G36*
G01*
X35950001Y-74512500D02*
X35049999Y-74512500D01*
G75*
G02*
X34800000Y-74262501I0J249999D01*
G01*
X34800000Y-73737499D01*
G75*
G02*
X35049999Y-73487500I249999J0D01*
G01*
X35950001Y-73487500D01*
G75*
G02*
X36200000Y-73737499I0J-249999D01*
G01*
X36200000Y-74262501D01*
G75*
G02*
X35950001Y-74512500I-249999J0D01*
G01*
G37*
G36*
G01*
X35950001Y-76337500D02*
X35049999Y-76337500D01*
G75*
G02*
X34800000Y-76087501I0J249999D01*
G01*
X34800000Y-75562499D01*
G75*
G02*
X35049999Y-75312500I249999J0D01*
G01*
X35950001Y-75312500D01*
G75*
G02*
X36200000Y-75562499I0J-249999D01*
G01*
X36200000Y-76087501D01*
G75*
G02*
X35950001Y-76337500I-249999J0D01*
G01*
G37*
G36*
G01*
X35950001Y-60512500D02*
X35049999Y-60512500D01*
G75*
G02*
X34800000Y-60262501I0J249999D01*
G01*
X34800000Y-59737499D01*
G75*
G02*
X35049999Y-59487500I249999J0D01*
G01*
X35950001Y-59487500D01*
G75*
G02*
X36200000Y-59737499I0J-249999D01*
G01*
X36200000Y-60262501D01*
G75*
G02*
X35950001Y-60512500I-249999J0D01*
G01*
G37*
G36*
G01*
X35950001Y-62337500D02*
X35049999Y-62337500D01*
G75*
G02*
X34800000Y-62087501I0J249999D01*
G01*
X34800000Y-61562499D01*
G75*
G02*
X35049999Y-61312500I249999J0D01*
G01*
X35950001Y-61312500D01*
G75*
G02*
X36200000Y-61562499I0J-249999D01*
G01*
X36200000Y-62087501D01*
G75*
G02*
X35950001Y-62337500I-249999J0D01*
G01*
G37*
G36*
G01*
X34049999Y-37987500D02*
X34950001Y-37987500D01*
G75*
G02*
X35200000Y-38237499I0J-249999D01*
G01*
X35200000Y-38762501D01*
G75*
G02*
X34950001Y-39012500I-249999J0D01*
G01*
X34049999Y-39012500D01*
G75*
G02*
X33800000Y-38762501I0J249999D01*
G01*
X33800000Y-38237499D01*
G75*
G02*
X34049999Y-37987500I249999J0D01*
G01*
G37*
G36*
G01*
X34049999Y-36162500D02*
X34950001Y-36162500D01*
G75*
G02*
X35200000Y-36412499I0J-249999D01*
G01*
X35200000Y-36937501D01*
G75*
G02*
X34950001Y-37187500I-249999J0D01*
G01*
X34049999Y-37187500D01*
G75*
G02*
X33800000Y-36937501I0J249999D01*
G01*
X33800000Y-36412499D01*
G75*
G02*
X34049999Y-36162500I249999J0D01*
G01*
G37*
G36*
G01*
X35049999Y-34312500D02*
X35950001Y-34312500D01*
G75*
G02*
X36200000Y-34562499I0J-249999D01*
G01*
X36200000Y-35087501D01*
G75*
G02*
X35950001Y-35337500I-249999J0D01*
G01*
X35049999Y-35337500D01*
G75*
G02*
X34800000Y-35087501I0J249999D01*
G01*
X34800000Y-34562499D01*
G75*
G02*
X35049999Y-34312500I249999J0D01*
G01*
G37*
G36*
G01*
X35049999Y-32487500D02*
X35950001Y-32487500D01*
G75*
G02*
X36200000Y-32737499I0J-249999D01*
G01*
X36200000Y-33262501D01*
G75*
G02*
X35950001Y-33512500I-249999J0D01*
G01*
X35049999Y-33512500D01*
G75*
G02*
X34800000Y-33262501I0J249999D01*
G01*
X34800000Y-32737499D01*
G75*
G02*
X35049999Y-32487500I249999J0D01*
G01*
G37*
D13*
X79500000Y-24000000D03*
X78550000Y-22000000D03*
X80450000Y-22000000D03*
D18*
X43150000Y-49500000D03*
X33850000Y-49500000D03*
G36*
G01*
X92543750Y-66887500D02*
X93456250Y-66887500D01*
G75*
G02*
X93700000Y-67131250I0J-243750D01*
G01*
X93700000Y-67618750D01*
G75*
G02*
X93456250Y-67862500I-243750J0D01*
G01*
X92543750Y-67862500D01*
G75*
G02*
X92300000Y-67618750I0J243750D01*
G01*
X92300000Y-67131250D01*
G75*
G02*
X92543750Y-66887500I243750J0D01*
G01*
G37*
G36*
G01*
X92543750Y-65012500D02*
X93456250Y-65012500D01*
G75*
G02*
X93700000Y-65256250I0J-243750D01*
G01*
X93700000Y-65743750D01*
G75*
G02*
X93456250Y-65987500I-243750J0D01*
G01*
X92543750Y-65987500D01*
G75*
G02*
X92300000Y-65743750I0J243750D01*
G01*
X92300000Y-65256250D01*
G75*
G02*
X92543750Y-65012500I243750J0D01*
G01*
G37*
G36*
G01*
X89043750Y-66887500D02*
X89956250Y-66887500D01*
G75*
G02*
X90200000Y-67131250I0J-243750D01*
G01*
X90200000Y-67618750D01*
G75*
G02*
X89956250Y-67862500I-243750J0D01*
G01*
X89043750Y-67862500D01*
G75*
G02*
X88800000Y-67618750I0J243750D01*
G01*
X88800000Y-67131250D01*
G75*
G02*
X89043750Y-66887500I243750J0D01*
G01*
G37*
G36*
G01*
X89043750Y-65012500D02*
X89956250Y-65012500D01*
G75*
G02*
X90200000Y-65256250I0J-243750D01*
G01*
X90200000Y-65743750D01*
G75*
G02*
X89956250Y-65987500I-243750J0D01*
G01*
X89043750Y-65987500D01*
G75*
G02*
X88800000Y-65743750I0J243750D01*
G01*
X88800000Y-65256250D01*
G75*
G02*
X89043750Y-65012500I243750J0D01*
G01*
G37*
G36*
G01*
X93956250Y-51112500D02*
X93043750Y-51112500D01*
G75*
G02*
X92800000Y-50868750I0J243750D01*
G01*
X92800000Y-50381250D01*
G75*
G02*
X93043750Y-50137500I243750J0D01*
G01*
X93956250Y-50137500D01*
G75*
G02*
X94200000Y-50381250I0J-243750D01*
G01*
X94200000Y-50868750D01*
G75*
G02*
X93956250Y-51112500I-243750J0D01*
G01*
G37*
G36*
G01*
X93956250Y-52987500D02*
X93043750Y-52987500D01*
G75*
G02*
X92800000Y-52743750I0J243750D01*
G01*
X92800000Y-52256250D01*
G75*
G02*
X93043750Y-52012500I243750J0D01*
G01*
X93956250Y-52012500D01*
G75*
G02*
X94200000Y-52256250I0J-243750D01*
G01*
X94200000Y-52743750D01*
G75*
G02*
X93956250Y-52987500I-243750J0D01*
G01*
G37*
G36*
G01*
X90456250Y-51112500D02*
X89543750Y-51112500D01*
G75*
G02*
X89300000Y-50868750I0J243750D01*
G01*
X89300000Y-50381250D01*
G75*
G02*
X89543750Y-50137500I243750J0D01*
G01*
X90456250Y-50137500D01*
G75*
G02*
X90700000Y-50381250I0J-243750D01*
G01*
X90700000Y-50868750D01*
G75*
G02*
X90456250Y-51112500I-243750J0D01*
G01*
G37*
G36*
G01*
X90456250Y-52987500D02*
X89543750Y-52987500D01*
G75*
G02*
X89300000Y-52743750I0J243750D01*
G01*
X89300000Y-52256250D01*
G75*
G02*
X89543750Y-52012500I243750J0D01*
G01*
X90456250Y-52012500D01*
G75*
G02*
X90700000Y-52256250I0J-243750D01*
G01*
X90700000Y-52743750D01*
G75*
G02*
X90456250Y-52987500I-243750J0D01*
G01*
G37*
D19*
X25350000Y-49500000D03*
X29650000Y-49500000D03*
G36*
G01*
X97025000Y-45000000D02*
X97975000Y-45000000D01*
G75*
G02*
X98225000Y-45250000I0J-250000D01*
G01*
X98225000Y-45750000D01*
G75*
G02*
X97975000Y-46000000I-250000J0D01*
G01*
X97025000Y-46000000D01*
G75*
G02*
X96775000Y-45750000I0J250000D01*
G01*
X96775000Y-45250000D01*
G75*
G02*
X97025000Y-45000000I250000J0D01*
G01*
G37*
G36*
G01*
X97025000Y-43100000D02*
X97975000Y-43100000D01*
G75*
G02*
X98225000Y-43350000I0J-250000D01*
G01*
X98225000Y-43850000D01*
G75*
G02*
X97975000Y-44100000I-250000J0D01*
G01*
X97025000Y-44100000D01*
G75*
G02*
X96775000Y-43850000I0J250000D01*
G01*
X96775000Y-43350000D01*
G75*
G02*
X97025000Y-43100000I250000J0D01*
G01*
G37*
G36*
G01*
X111300000Y-68475000D02*
X111300000Y-67525000D01*
G75*
G02*
X111550000Y-67275000I250000J0D01*
G01*
X112050000Y-67275000D01*
G75*
G02*
X112300000Y-67525000I0J-250000D01*
G01*
X112300000Y-68475000D01*
G75*
G02*
X112050000Y-68725000I-250000J0D01*
G01*
X111550000Y-68725000D01*
G75*
G02*
X111300000Y-68475000I0J250000D01*
G01*
G37*
G36*
G01*
X109400000Y-68475000D02*
X109400000Y-67525000D01*
G75*
G02*
X109650000Y-67275000I250000J0D01*
G01*
X110150000Y-67275000D01*
G75*
G02*
X110400000Y-67525000I0J-250000D01*
G01*
X110400000Y-68475000D01*
G75*
G02*
X110150000Y-68725000I-250000J0D01*
G01*
X109650000Y-68725000D01*
G75*
G02*
X109400000Y-68475000I0J250000D01*
G01*
G37*
G36*
G01*
X41975000Y-109500000D02*
X41025000Y-109500000D01*
G75*
G02*
X40775000Y-109250000I0J250000D01*
G01*
X40775000Y-108750000D01*
G75*
G02*
X41025000Y-108500000I250000J0D01*
G01*
X41975000Y-108500000D01*
G75*
G02*
X42225000Y-108750000I0J-250000D01*
G01*
X42225000Y-109250000D01*
G75*
G02*
X41975000Y-109500000I-250000J0D01*
G01*
G37*
G36*
G01*
X41975000Y-111400000D02*
X41025000Y-111400000D01*
G75*
G02*
X40775000Y-111150000I0J250000D01*
G01*
X40775000Y-110650000D01*
G75*
G02*
X41025000Y-110400000I250000J0D01*
G01*
X41975000Y-110400000D01*
G75*
G02*
X42225000Y-110650000I0J-250000D01*
G01*
X42225000Y-111150000D01*
G75*
G02*
X41975000Y-111400000I-250000J0D01*
G01*
G37*
G36*
G01*
X41975000Y-95500000D02*
X41025000Y-95500000D01*
G75*
G02*
X40775000Y-95250000I0J250000D01*
G01*
X40775000Y-94750000D01*
G75*
G02*
X41025000Y-94500000I250000J0D01*
G01*
X41975000Y-94500000D01*
G75*
G02*
X42225000Y-94750000I0J-250000D01*
G01*
X42225000Y-95250000D01*
G75*
G02*
X41975000Y-95500000I-250000J0D01*
G01*
G37*
G36*
G01*
X41975000Y-97400000D02*
X41025000Y-97400000D01*
G75*
G02*
X40775000Y-97150000I0J250000D01*
G01*
X40775000Y-96650000D01*
G75*
G02*
X41025000Y-96400000I250000J0D01*
G01*
X41975000Y-96400000D01*
G75*
G02*
X42225000Y-96650000I0J-250000D01*
G01*
X42225000Y-97150000D01*
G75*
G02*
X41975000Y-97400000I-250000J0D01*
G01*
G37*
G36*
G01*
X41975000Y-81500000D02*
X41025000Y-81500000D01*
G75*
G02*
X40775000Y-81250000I0J250000D01*
G01*
X40775000Y-80750000D01*
G75*
G02*
X41025000Y-80500000I250000J0D01*
G01*
X41975000Y-80500000D01*
G75*
G02*
X42225000Y-80750000I0J-250000D01*
G01*
X42225000Y-81250000D01*
G75*
G02*
X41975000Y-81500000I-250000J0D01*
G01*
G37*
G36*
G01*
X41975000Y-83400000D02*
X41025000Y-83400000D01*
G75*
G02*
X40775000Y-83150000I0J250000D01*
G01*
X40775000Y-82650000D01*
G75*
G02*
X41025000Y-82400000I250000J0D01*
G01*
X41975000Y-82400000D01*
G75*
G02*
X42225000Y-82650000I0J-250000D01*
G01*
X42225000Y-83150000D01*
G75*
G02*
X41975000Y-83400000I-250000J0D01*
G01*
G37*
G36*
G01*
X41975000Y-67500000D02*
X41025000Y-67500000D01*
G75*
G02*
X40775000Y-67250000I0J250000D01*
G01*
X40775000Y-66750000D01*
G75*
G02*
X41025000Y-66500000I250000J0D01*
G01*
X41975000Y-66500000D01*
G75*
G02*
X42225000Y-66750000I0J-250000D01*
G01*
X42225000Y-67250000D01*
G75*
G02*
X41975000Y-67500000I-250000J0D01*
G01*
G37*
G36*
G01*
X41975000Y-69400000D02*
X41025000Y-69400000D01*
G75*
G02*
X40775000Y-69150000I0J250000D01*
G01*
X40775000Y-68650000D01*
G75*
G02*
X41025000Y-68400000I250000J0D01*
G01*
X41975000Y-68400000D01*
G75*
G02*
X42225000Y-68650000I0J-250000D01*
G01*
X42225000Y-69150000D01*
G75*
G02*
X41975000Y-69400000I-250000J0D01*
G01*
G37*
G36*
G01*
X57975000Y-85100000D02*
X57025000Y-85100000D01*
G75*
G02*
X56775000Y-84850000I0J250000D01*
G01*
X56775000Y-84350000D01*
G75*
G02*
X57025000Y-84100000I250000J0D01*
G01*
X57975000Y-84100000D01*
G75*
G02*
X58225000Y-84350000I0J-250000D01*
G01*
X58225000Y-84850000D01*
G75*
G02*
X57975000Y-85100000I-250000J0D01*
G01*
G37*
G36*
G01*
X57975000Y-87000000D02*
X57025000Y-87000000D01*
G75*
G02*
X56775000Y-86750000I0J250000D01*
G01*
X56775000Y-86250000D01*
G75*
G02*
X57025000Y-86000000I250000J0D01*
G01*
X57975000Y-86000000D01*
G75*
G02*
X58225000Y-86250000I0J-250000D01*
G01*
X58225000Y-86750000D01*
G75*
G02*
X57975000Y-87000000I-250000J0D01*
G01*
G37*
G36*
G01*
X57975000Y-65100000D02*
X57025000Y-65100000D01*
G75*
G02*
X56775000Y-64850000I0J250000D01*
G01*
X56775000Y-64350000D01*
G75*
G02*
X57025000Y-64100000I250000J0D01*
G01*
X57975000Y-64100000D01*
G75*
G02*
X58225000Y-64350000I0J-250000D01*
G01*
X58225000Y-64850000D01*
G75*
G02*
X57975000Y-65100000I-250000J0D01*
G01*
G37*
G36*
G01*
X57975000Y-67000000D02*
X57025000Y-67000000D01*
G75*
G02*
X56775000Y-66750000I0J250000D01*
G01*
X56775000Y-66250000D01*
G75*
G02*
X57025000Y-66000000I250000J0D01*
G01*
X57975000Y-66000000D01*
G75*
G02*
X58225000Y-66250000I0J-250000D01*
G01*
X58225000Y-66750000D01*
G75*
G02*
X57975000Y-67000000I-250000J0D01*
G01*
G37*
G36*
G01*
X41975000Y-102500000D02*
X41025000Y-102500000D01*
G75*
G02*
X40775000Y-102250000I0J250000D01*
G01*
X40775000Y-101750000D01*
G75*
G02*
X41025000Y-101500000I250000J0D01*
G01*
X41975000Y-101500000D01*
G75*
G02*
X42225000Y-101750000I0J-250000D01*
G01*
X42225000Y-102250000D01*
G75*
G02*
X41975000Y-102500000I-250000J0D01*
G01*
G37*
G36*
G01*
X41975000Y-104400000D02*
X41025000Y-104400000D01*
G75*
G02*
X40775000Y-104150000I0J250000D01*
G01*
X40775000Y-103650000D01*
G75*
G02*
X41025000Y-103400000I250000J0D01*
G01*
X41975000Y-103400000D01*
G75*
G02*
X42225000Y-103650000I0J-250000D01*
G01*
X42225000Y-104150000D01*
G75*
G02*
X41975000Y-104400000I-250000J0D01*
G01*
G37*
G36*
G01*
X41975000Y-88500000D02*
X41025000Y-88500000D01*
G75*
G02*
X40775000Y-88250000I0J250000D01*
G01*
X40775000Y-87750000D01*
G75*
G02*
X41025000Y-87500000I250000J0D01*
G01*
X41975000Y-87500000D01*
G75*
G02*
X42225000Y-87750000I0J-250000D01*
G01*
X42225000Y-88250000D01*
G75*
G02*
X41975000Y-88500000I-250000J0D01*
G01*
G37*
G36*
G01*
X41975000Y-90400000D02*
X41025000Y-90400000D01*
G75*
G02*
X40775000Y-90150000I0J250000D01*
G01*
X40775000Y-89650000D01*
G75*
G02*
X41025000Y-89400000I250000J0D01*
G01*
X41975000Y-89400000D01*
G75*
G02*
X42225000Y-89650000I0J-250000D01*
G01*
X42225000Y-90150000D01*
G75*
G02*
X41975000Y-90400000I-250000J0D01*
G01*
G37*
G36*
G01*
X41975000Y-74500000D02*
X41025000Y-74500000D01*
G75*
G02*
X40775000Y-74250000I0J250000D01*
G01*
X40775000Y-73750000D01*
G75*
G02*
X41025000Y-73500000I250000J0D01*
G01*
X41975000Y-73500000D01*
G75*
G02*
X42225000Y-73750000I0J-250000D01*
G01*
X42225000Y-74250000D01*
G75*
G02*
X41975000Y-74500000I-250000J0D01*
G01*
G37*
G36*
G01*
X41975000Y-76400000D02*
X41025000Y-76400000D01*
G75*
G02*
X40775000Y-76150000I0J250000D01*
G01*
X40775000Y-75650000D01*
G75*
G02*
X41025000Y-75400000I250000J0D01*
G01*
X41975000Y-75400000D01*
G75*
G02*
X42225000Y-75650000I0J-250000D01*
G01*
X42225000Y-76150000D01*
G75*
G02*
X41975000Y-76400000I-250000J0D01*
G01*
G37*
G36*
G01*
X41975000Y-60500000D02*
X41025000Y-60500000D01*
G75*
G02*
X40775000Y-60250000I0J250000D01*
G01*
X40775000Y-59750000D01*
G75*
G02*
X41025000Y-59500000I250000J0D01*
G01*
X41975000Y-59500000D01*
G75*
G02*
X42225000Y-59750000I0J-250000D01*
G01*
X42225000Y-60250000D01*
G75*
G02*
X41975000Y-60500000I-250000J0D01*
G01*
G37*
G36*
G01*
X41975000Y-62400000D02*
X41025000Y-62400000D01*
G75*
G02*
X40775000Y-62150000I0J250000D01*
G01*
X40775000Y-61650000D01*
G75*
G02*
X41025000Y-61400000I250000J0D01*
G01*
X41975000Y-61400000D01*
G75*
G02*
X42225000Y-61650000I0J-250000D01*
G01*
X42225000Y-62150000D01*
G75*
G02*
X41975000Y-62400000I-250000J0D01*
G01*
G37*
G36*
G01*
X54025000Y-46500000D02*
X54975000Y-46500000D01*
G75*
G02*
X55225000Y-46750000I0J-250000D01*
G01*
X55225000Y-47250000D01*
G75*
G02*
X54975000Y-47500000I-250000J0D01*
G01*
X54025000Y-47500000D01*
G75*
G02*
X53775000Y-47250000I0J250000D01*
G01*
X53775000Y-46750000D01*
G75*
G02*
X54025000Y-46500000I250000J0D01*
G01*
G37*
G36*
G01*
X54025000Y-44600000D02*
X54975000Y-44600000D01*
G75*
G02*
X55225000Y-44850000I0J-250000D01*
G01*
X55225000Y-45350000D01*
G75*
G02*
X54975000Y-45600000I-250000J0D01*
G01*
X54025000Y-45600000D01*
G75*
G02*
X53775000Y-45350000I0J250000D01*
G01*
X53775000Y-44850000D01*
G75*
G02*
X54025000Y-44600000I250000J0D01*
G01*
G37*
G36*
G01*
X51400000Y-42975000D02*
X51400000Y-42025000D01*
G75*
G02*
X51650000Y-41775000I250000J0D01*
G01*
X52150000Y-41775000D01*
G75*
G02*
X52400000Y-42025000I0J-250000D01*
G01*
X52400000Y-42975000D01*
G75*
G02*
X52150000Y-43225000I-250000J0D01*
G01*
X51650000Y-43225000D01*
G75*
G02*
X51400000Y-42975000I0J250000D01*
G01*
G37*
G36*
G01*
X49500000Y-42975000D02*
X49500000Y-42025000D01*
G75*
G02*
X49750000Y-41775000I250000J0D01*
G01*
X50250000Y-41775000D01*
G75*
G02*
X50500000Y-42025000I0J-250000D01*
G01*
X50500000Y-42975000D01*
G75*
G02*
X50250000Y-43225000I-250000J0D01*
G01*
X49750000Y-43225000D01*
G75*
G02*
X49500000Y-42975000I0J250000D01*
G01*
G37*
G36*
G01*
X40500000Y-41525000D02*
X40500000Y-42475000D01*
G75*
G02*
X40250000Y-42725000I-250000J0D01*
G01*
X39750000Y-42725000D01*
G75*
G02*
X39500000Y-42475000I0J250000D01*
G01*
X39500000Y-41525000D01*
G75*
G02*
X39750000Y-41275000I250000J0D01*
G01*
X40250000Y-41275000D01*
G75*
G02*
X40500000Y-41525000I0J-250000D01*
G01*
G37*
G36*
G01*
X42400000Y-41525000D02*
X42400000Y-42475000D01*
G75*
G02*
X42150000Y-42725000I-250000J0D01*
G01*
X41650000Y-42725000D01*
G75*
G02*
X41400000Y-42475000I0J250000D01*
G01*
X41400000Y-41525000D01*
G75*
G02*
X41650000Y-41275000I250000J0D01*
G01*
X42150000Y-41275000D01*
G75*
G02*
X42400000Y-41525000I0J-250000D01*
G01*
G37*
G36*
G01*
X33025000Y-34400000D02*
X33975000Y-34400000D01*
G75*
G02*
X34225000Y-34650000I0J-250000D01*
G01*
X34225000Y-35150000D01*
G75*
G02*
X33975000Y-35400000I-250000J0D01*
G01*
X33025000Y-35400000D01*
G75*
G02*
X32775000Y-35150000I0J250000D01*
G01*
X32775000Y-34650000D01*
G75*
G02*
X33025000Y-34400000I250000J0D01*
G01*
G37*
G36*
G01*
X33025000Y-32500000D02*
X33975000Y-32500000D01*
G75*
G02*
X34225000Y-32750000I0J-250000D01*
G01*
X34225000Y-33250000D01*
G75*
G02*
X33975000Y-33500000I-250000J0D01*
G01*
X33025000Y-33500000D01*
G75*
G02*
X32775000Y-33250000I0J250000D01*
G01*
X32775000Y-32750000D01*
G75*
G02*
X33025000Y-32500000I250000J0D01*
G01*
G37*
G36*
G01*
X36025000Y-42500000D02*
X36975000Y-42500000D01*
G75*
G02*
X37225000Y-42750000I0J-250000D01*
G01*
X37225000Y-43250000D01*
G75*
G02*
X36975000Y-43500000I-250000J0D01*
G01*
X36025000Y-43500000D01*
G75*
G02*
X35775000Y-43250000I0J250000D01*
G01*
X35775000Y-42750000D01*
G75*
G02*
X36025000Y-42500000I250000J0D01*
G01*
G37*
G36*
G01*
X36025000Y-40600000D02*
X36975000Y-40600000D01*
G75*
G02*
X37225000Y-40850000I0J-250000D01*
G01*
X37225000Y-41350000D01*
G75*
G02*
X36975000Y-41600000I-250000J0D01*
G01*
X36025000Y-41600000D01*
G75*
G02*
X35775000Y-41350000I0J250000D01*
G01*
X35775000Y-40850000D01*
G75*
G02*
X36025000Y-40600000I250000J0D01*
G01*
G37*
G36*
G01*
X54500000Y-29525000D02*
X54500000Y-30475000D01*
G75*
G02*
X54250000Y-30725000I-250000J0D01*
G01*
X53750000Y-30725000D01*
G75*
G02*
X53500000Y-30475000I0J250000D01*
G01*
X53500000Y-29525000D01*
G75*
G02*
X53750000Y-29275000I250000J0D01*
G01*
X54250000Y-29275000D01*
G75*
G02*
X54500000Y-29525000I0J-250000D01*
G01*
G37*
G36*
G01*
X56400000Y-29525000D02*
X56400000Y-30475000D01*
G75*
G02*
X56150000Y-30725000I-250000J0D01*
G01*
X55650000Y-30725000D01*
G75*
G02*
X55400000Y-30475000I0J250000D01*
G01*
X55400000Y-29525000D01*
G75*
G02*
X55650000Y-29275000I250000J0D01*
G01*
X56150000Y-29275000D01*
G75*
G02*
X56400000Y-29525000I0J-250000D01*
G01*
G37*
G36*
G01*
X33025000Y-42500000D02*
X33975000Y-42500000D01*
G75*
G02*
X34225000Y-42750000I0J-250000D01*
G01*
X34225000Y-43250000D01*
G75*
G02*
X33975000Y-43500000I-250000J0D01*
G01*
X33025000Y-43500000D01*
G75*
G02*
X32775000Y-43250000I0J250000D01*
G01*
X32775000Y-42750000D01*
G75*
G02*
X33025000Y-42500000I250000J0D01*
G01*
G37*
G36*
G01*
X33025000Y-40600000D02*
X33975000Y-40600000D01*
G75*
G02*
X34225000Y-40850000I0J-250000D01*
G01*
X34225000Y-41350000D01*
G75*
G02*
X33975000Y-41600000I-250000J0D01*
G01*
X33025000Y-41600000D01*
G75*
G02*
X32775000Y-41350000I0J250000D01*
G01*
X32775000Y-40850000D01*
G75*
G02*
X33025000Y-40600000I250000J0D01*
G01*
G37*
G36*
G01*
X51400000Y-40475000D02*
X51400000Y-39525000D01*
G75*
G02*
X51650000Y-39275000I250000J0D01*
G01*
X52150000Y-39275000D01*
G75*
G02*
X52400000Y-39525000I0J-250000D01*
G01*
X52400000Y-40475000D01*
G75*
G02*
X52150000Y-40725000I-250000J0D01*
G01*
X51650000Y-40725000D01*
G75*
G02*
X51400000Y-40475000I0J250000D01*
G01*
G37*
G36*
G01*
X49500000Y-40475000D02*
X49500000Y-39525000D01*
G75*
G02*
X49750000Y-39275000I250000J0D01*
G01*
X50250000Y-39275000D01*
G75*
G02*
X50500000Y-39525000I0J-250000D01*
G01*
X50500000Y-40475000D01*
G75*
G02*
X50250000Y-40725000I-250000J0D01*
G01*
X49750000Y-40725000D01*
G75*
G02*
X49500000Y-40475000I0J250000D01*
G01*
G37*
M02*
