G04 #@! TF.GenerationSoftware,KiCad,Pcbnew,5.1.10-88a1d61d58~90~ubuntu20.04.1*
G04 #@! TF.CreationDate,2021-11-01T21:41:42-04:00*
G04 #@! TF.ProjectId,control,636f6e74-726f-46c2-9e6b-696361645f70,rev?*
G04 #@! TF.SameCoordinates,Original*
G04 #@! TF.FileFunction,Legend,Bot*
G04 #@! TF.FilePolarity,Positive*
%FSLAX46Y46*%
G04 Gerber Fmt 4.6, Leading zero omitted, Abs format (unit mm)*
G04 Created by KiCad (PCBNEW 5.1.10-88a1d61d58~90~ubuntu20.04.1) date 2021-11-01 21:41:42*
%MOMM*%
%LPD*%
G01*
G04 APERTURE LIST*
%ADD10C,0.120000*%
%ADD11C,0.150000*%
%ADD12C,1.500000*%
%ADD13R,1.500000X1.500000*%
%ADD14C,1.620000*%
%ADD15C,2.200000*%
%ADD16C,4.000000*%
%ADD17O,1.950000X1.700000*%
%ADD18C,1.350000*%
%ADD19C,1.700000*%
%ADD20C,2.032000*%
%ADD21R,2.032000X2.032000*%
%ADD22C,3.200000*%
%ADD23O,1.700000X1.950000*%
%ADD24C,3.500000*%
%ADD25R,1.700000X1.700000*%
%ADD26O,1.700000X2.000000*%
%ADD27C,2.000000*%
%ADD28R,2.000000X2.000000*%
G04 APERTURE END LIST*
D10*
X57310436Y-27090000D02*
X58764564Y-27090000D01*
X57310436Y-28910000D02*
X58764564Y-28910000D01*
D11*
X58680357Y-30272380D02*
X59013690Y-29796190D01*
X59251785Y-30272380D02*
X59251785Y-29272380D01*
X58870833Y-29272380D01*
X58775595Y-29320000D01*
X58727976Y-29367619D01*
X58680357Y-29462857D01*
X58680357Y-29605714D01*
X58727976Y-29700952D01*
X58775595Y-29748571D01*
X58870833Y-29796190D01*
X59251785Y-29796190D01*
X57823214Y-29272380D02*
X58013690Y-29272380D01*
X58108928Y-29320000D01*
X58156547Y-29367619D01*
X58251785Y-29510476D01*
X58299404Y-29700952D01*
X58299404Y-30081904D01*
X58251785Y-30177142D01*
X58204166Y-30224761D01*
X58108928Y-30272380D01*
X57918452Y-30272380D01*
X57823214Y-30224761D01*
X57775595Y-30177142D01*
X57727976Y-30081904D01*
X57727976Y-29843809D01*
X57775595Y-29748571D01*
X57823214Y-29700952D01*
X57918452Y-29653333D01*
X58108928Y-29653333D01*
X58204166Y-29700952D01*
X58251785Y-29748571D01*
X58299404Y-29843809D01*
X57156547Y-29700952D02*
X57251785Y-29653333D01*
X57299404Y-29605714D01*
X57347023Y-29510476D01*
X57347023Y-29462857D01*
X57299404Y-29367619D01*
X57251785Y-29320000D01*
X57156547Y-29272380D01*
X56966071Y-29272380D01*
X56870833Y-29320000D01*
X56823214Y-29367619D01*
X56775595Y-29462857D01*
X56775595Y-29510476D01*
X56823214Y-29605714D01*
X56870833Y-29653333D01*
X56966071Y-29700952D01*
X57156547Y-29700952D01*
X57251785Y-29748571D01*
X57299404Y-29796190D01*
X57347023Y-29891428D01*
X57347023Y-30081904D01*
X57299404Y-30177142D01*
X57251785Y-30224761D01*
X57156547Y-30272380D01*
X56966071Y-30272380D01*
X56870833Y-30224761D01*
X56823214Y-30177142D01*
X56775595Y-30081904D01*
X56775595Y-29891428D01*
X56823214Y-29796190D01*
X56870833Y-29748571D01*
X56966071Y-29700952D01*
%LPC*%
D12*
X100110000Y-33055000D03*
X100110000Y-35595000D03*
X100110000Y-38135000D03*
X100110000Y-40675000D03*
X102650000Y-34325000D03*
X102650000Y-36865000D03*
X102650000Y-39405000D03*
D13*
X102650000Y-41945000D03*
D14*
X114080000Y-43825000D03*
X112380000Y-31175000D03*
X114080000Y-33715000D03*
X112380000Y-41285000D03*
D15*
X106000000Y-45375000D03*
X105950000Y-29625000D03*
D16*
X109000000Y-31785000D03*
X109000000Y-43215000D03*
D17*
X89500000Y-23000000D03*
X89500000Y-25500000D03*
X89500000Y-28000000D03*
X89500000Y-30500000D03*
X89500000Y-33000000D03*
G36*
G01*
X90225000Y-36350000D02*
X88775000Y-36350000D01*
G75*
G02*
X88525000Y-36100000I0J250000D01*
G01*
X88525000Y-34900000D01*
G75*
G02*
X88775000Y-34650000I250000J0D01*
G01*
X90225000Y-34650000D01*
G75*
G02*
X90475000Y-34900000I0J-250000D01*
G01*
X90475000Y-36100000D01*
G75*
G02*
X90225000Y-36350000I-250000J0D01*
G01*
G37*
D18*
X73170000Y-41970000D03*
X75170000Y-41970000D03*
X77170000Y-41970000D03*
X73170000Y-39970000D03*
X75170000Y-39970000D03*
X77170000Y-39970000D03*
D19*
X79620000Y-27000000D03*
X79620000Y-29540000D03*
X79620000Y-32080000D03*
X79620000Y-34620000D03*
X79620000Y-37160000D03*
X79620000Y-39700000D03*
X79620000Y-42240000D03*
X79620000Y-44780000D03*
X79620000Y-47320000D03*
X79620000Y-49860000D03*
X79620000Y-52400000D03*
X79620000Y-54940000D03*
X79620000Y-57480000D03*
X79620000Y-60020000D03*
X79620000Y-62560000D03*
X79620000Y-65100000D03*
X79620000Y-67640000D03*
X79620000Y-70180000D03*
X79620000Y-72720000D03*
X79620000Y-75260000D03*
X79620000Y-77800000D03*
X79620000Y-80340000D03*
X79620000Y-82880000D03*
X79620000Y-85420000D03*
X64380000Y-85420000D03*
X64380000Y-82880000D03*
X64380000Y-80340000D03*
X64380000Y-77800000D03*
X64380000Y-75260000D03*
X64380000Y-72720000D03*
X64380000Y-70180000D03*
X64380000Y-67640000D03*
X64380000Y-65100000D03*
X64380000Y-62560000D03*
X64380000Y-60020000D03*
X64380000Y-57480000D03*
X64380000Y-54940000D03*
X64380000Y-52400000D03*
X64380000Y-49860000D03*
X64380000Y-47320000D03*
X64380000Y-44780000D03*
X64380000Y-42240000D03*
X64380000Y-39700000D03*
X64380000Y-37160000D03*
X64380000Y-34620000D03*
X64380000Y-32080000D03*
X64380000Y-29540000D03*
X64380000Y-27000000D03*
D20*
X116000000Y-94405000D03*
D21*
X116000000Y-90595000D03*
D20*
X116000000Y-99595000D03*
D21*
X116000000Y-103405000D03*
D20*
X116000000Y-76405000D03*
D21*
X116000000Y-72595000D03*
D20*
X116000000Y-81595000D03*
D21*
X116000000Y-85405000D03*
D22*
X116000000Y-24000000D03*
X116000000Y-116000000D03*
X24000000Y-116000000D03*
X24000000Y-24000000D03*
G36*
G01*
X58937500Y-28625001D02*
X58937500Y-27374999D01*
G75*
G02*
X59187499Y-27125000I249999J0D01*
G01*
X59812501Y-27125000D01*
G75*
G02*
X60062500Y-27374999I0J-249999D01*
G01*
X60062500Y-28625001D01*
G75*
G02*
X59812501Y-28875000I-249999J0D01*
G01*
X59187499Y-28875000D01*
G75*
G02*
X58937500Y-28625001I0J249999D01*
G01*
G37*
G36*
G01*
X56012500Y-28625001D02*
X56012500Y-27374999D01*
G75*
G02*
X56262499Y-27125000I249999J0D01*
G01*
X56887501Y-27125000D01*
G75*
G02*
X57137500Y-27374999I0J-249999D01*
G01*
X57137500Y-28625001D01*
G75*
G02*
X56887501Y-28875000I-249999J0D01*
G01*
X56262499Y-28875000D01*
G75*
G02*
X56012500Y-28625001I0J249999D01*
G01*
G37*
D23*
X109195354Y-23090000D03*
X106695354Y-23090000D03*
X104195354Y-23090000D03*
X101695354Y-23090000D03*
X99195354Y-23090000D03*
G36*
G01*
X95845354Y-23815000D02*
X95845354Y-22365000D01*
G75*
G02*
X96095354Y-22115000I250000J0D01*
G01*
X97295354Y-22115000D01*
G75*
G02*
X97545354Y-22365000I0J-250000D01*
G01*
X97545354Y-23815000D01*
G75*
G02*
X97295354Y-24065000I-250000J0D01*
G01*
X96095354Y-24065000D01*
G75*
G02*
X95845354Y-23815000I0J250000D01*
G01*
G37*
D24*
X109710000Y-64270000D03*
X109710000Y-52230000D03*
D19*
X107000000Y-57000000D03*
X107000000Y-59500000D03*
X105000000Y-59500000D03*
D25*
X105000000Y-57000000D03*
D23*
X109000000Y-116000000D03*
X106500000Y-116000000D03*
X104000000Y-116000000D03*
X101500000Y-116000000D03*
G36*
G01*
X98150000Y-116725000D02*
X98150000Y-115275000D01*
G75*
G02*
X98400000Y-115025000I250000J0D01*
G01*
X99600000Y-115025000D01*
G75*
G02*
X99850000Y-115275000I0J-250000D01*
G01*
X99850000Y-116725000D01*
G75*
G02*
X99600000Y-116975000I-250000J0D01*
G01*
X98400000Y-116975000D01*
G75*
G02*
X98150000Y-116725000I0J250000D01*
G01*
G37*
X92500000Y-116000000D03*
X90000000Y-116000000D03*
X87500000Y-116000000D03*
G36*
G01*
X84150000Y-116725000D02*
X84150000Y-115275000D01*
G75*
G02*
X84400000Y-115025000I250000J0D01*
G01*
X85600000Y-115025000D01*
G75*
G02*
X85850000Y-115275000I0J-250000D01*
G01*
X85850000Y-116725000D01*
G75*
G02*
X85600000Y-116975000I-250000J0D01*
G01*
X84400000Y-116975000D01*
G75*
G02*
X84150000Y-116725000I0J250000D01*
G01*
G37*
X78500000Y-116000000D03*
X76000000Y-116000000D03*
X73500000Y-116000000D03*
G36*
G01*
X70150000Y-116725000D02*
X70150000Y-115275000D01*
G75*
G02*
X70400000Y-115025000I250000J0D01*
G01*
X71600000Y-115025000D01*
G75*
G02*
X71850000Y-115275000I0J-250000D01*
G01*
X71850000Y-116725000D01*
G75*
G02*
X71600000Y-116975000I-250000J0D01*
G01*
X70400000Y-116975000D01*
G75*
G02*
X70150000Y-116725000I0J250000D01*
G01*
G37*
X64500000Y-116000000D03*
X62000000Y-116000000D03*
X59500000Y-116000000D03*
G36*
G01*
X56150000Y-116725000D02*
X56150000Y-115275000D01*
G75*
G02*
X56400000Y-115025000I250000J0D01*
G01*
X57600000Y-115025000D01*
G75*
G02*
X57850000Y-115275000I0J-250000D01*
G01*
X57850000Y-116725000D01*
G75*
G02*
X57600000Y-116975000I-250000J0D01*
G01*
X56400000Y-116975000D01*
G75*
G02*
X56150000Y-116725000I0J250000D01*
G01*
G37*
X50500000Y-116000000D03*
X48000000Y-116000000D03*
X45500000Y-116000000D03*
G36*
G01*
X42150000Y-116725000D02*
X42150000Y-115275000D01*
G75*
G02*
X42400000Y-115025000I250000J0D01*
G01*
X43600000Y-115025000D01*
G75*
G02*
X43850000Y-115275000I0J-250000D01*
G01*
X43850000Y-116725000D01*
G75*
G02*
X43600000Y-116975000I-250000J0D01*
G01*
X42400000Y-116975000D01*
G75*
G02*
X42150000Y-116725000I0J250000D01*
G01*
G37*
X30000000Y-108000000D03*
X27500000Y-108000000D03*
G36*
G01*
X24150000Y-108725000D02*
X24150000Y-107275000D01*
G75*
G02*
X24400000Y-107025000I250000J0D01*
G01*
X25600000Y-107025000D01*
G75*
G02*
X25850000Y-107275000I0J-250000D01*
G01*
X25850000Y-108725000D01*
G75*
G02*
X25600000Y-108975000I-250000J0D01*
G01*
X24400000Y-108975000D01*
G75*
G02*
X24150000Y-108725000I0J250000D01*
G01*
G37*
X30000000Y-94000000D03*
X27500000Y-94000000D03*
G36*
G01*
X24150000Y-94725000D02*
X24150000Y-93275000D01*
G75*
G02*
X24400000Y-93025000I250000J0D01*
G01*
X25600000Y-93025000D01*
G75*
G02*
X25850000Y-93275000I0J-250000D01*
G01*
X25850000Y-94725000D01*
G75*
G02*
X25600000Y-94975000I-250000J0D01*
G01*
X24400000Y-94975000D01*
G75*
G02*
X24150000Y-94725000I0J250000D01*
G01*
G37*
X30000000Y-80000000D03*
X27500000Y-80000000D03*
G36*
G01*
X24150000Y-80725000D02*
X24150000Y-79275000D01*
G75*
G02*
X24400000Y-79025000I250000J0D01*
G01*
X25600000Y-79025000D01*
G75*
G02*
X25850000Y-79275000I0J-250000D01*
G01*
X25850000Y-80725000D01*
G75*
G02*
X25600000Y-80975000I-250000J0D01*
G01*
X24400000Y-80975000D01*
G75*
G02*
X24150000Y-80725000I0J250000D01*
G01*
G37*
X30000000Y-66000000D03*
X27500000Y-66000000D03*
G36*
G01*
X24150000Y-66725000D02*
X24150000Y-65275000D01*
G75*
G02*
X24400000Y-65025000I250000J0D01*
G01*
X25600000Y-65025000D01*
G75*
G02*
X25850000Y-65275000I0J-250000D01*
G01*
X25850000Y-66725000D01*
G75*
G02*
X25600000Y-66975000I-250000J0D01*
G01*
X24400000Y-66975000D01*
G75*
G02*
X24150000Y-66725000I0J250000D01*
G01*
G37*
X30000000Y-101000000D03*
X27500000Y-101000000D03*
G36*
G01*
X24150000Y-101725000D02*
X24150000Y-100275000D01*
G75*
G02*
X24400000Y-100025000I250000J0D01*
G01*
X25600000Y-100025000D01*
G75*
G02*
X25850000Y-100275000I0J-250000D01*
G01*
X25850000Y-101725000D01*
G75*
G02*
X25600000Y-101975000I-250000J0D01*
G01*
X24400000Y-101975000D01*
G75*
G02*
X24150000Y-101725000I0J250000D01*
G01*
G37*
X30000000Y-87000000D03*
X27500000Y-87000000D03*
G36*
G01*
X24150000Y-87725000D02*
X24150000Y-86275000D01*
G75*
G02*
X24400000Y-86025000I250000J0D01*
G01*
X25600000Y-86025000D01*
G75*
G02*
X25850000Y-86275000I0J-250000D01*
G01*
X25850000Y-87725000D01*
G75*
G02*
X25600000Y-87975000I-250000J0D01*
G01*
X24400000Y-87975000D01*
G75*
G02*
X24150000Y-87725000I0J250000D01*
G01*
G37*
X30000000Y-73000000D03*
X27500000Y-73000000D03*
G36*
G01*
X24150000Y-73725000D02*
X24150000Y-72275000D01*
G75*
G02*
X24400000Y-72025000I250000J0D01*
G01*
X25600000Y-72025000D01*
G75*
G02*
X25850000Y-72275000I0J-250000D01*
G01*
X25850000Y-73725000D01*
G75*
G02*
X25600000Y-73975000I-250000J0D01*
G01*
X24400000Y-73975000D01*
G75*
G02*
X24150000Y-73725000I0J250000D01*
G01*
G37*
X30000000Y-59000000D03*
X27500000Y-59000000D03*
G36*
G01*
X24150000Y-59725000D02*
X24150000Y-58275000D01*
G75*
G02*
X24400000Y-58025000I250000J0D01*
G01*
X25600000Y-58025000D01*
G75*
G02*
X25850000Y-58275000I0J-250000D01*
G01*
X25850000Y-59725000D01*
G75*
G02*
X25600000Y-59975000I-250000J0D01*
G01*
X24400000Y-59975000D01*
G75*
G02*
X24150000Y-59725000I0J250000D01*
G01*
G37*
D26*
X53500000Y-23000000D03*
G36*
G01*
X50150000Y-23750000D02*
X50150000Y-22250000D01*
G75*
G02*
X50400000Y-22000000I250000J0D01*
G01*
X51600000Y-22000000D01*
G75*
G02*
X51850000Y-22250000I0J-250000D01*
G01*
X51850000Y-23750000D01*
G75*
G02*
X51600000Y-24000000I-250000J0D01*
G01*
X50400000Y-24000000D01*
G75*
G02*
X50150000Y-23750000I0J250000D01*
G01*
G37*
X43500000Y-23000000D03*
G36*
G01*
X40150000Y-23750000D02*
X40150000Y-22250000D01*
G75*
G02*
X40400000Y-22000000I250000J0D01*
G01*
X41600000Y-22000000D01*
G75*
G02*
X41850000Y-22250000I0J-250000D01*
G01*
X41850000Y-23750000D01*
G75*
G02*
X41600000Y-24000000I-250000J0D01*
G01*
X40400000Y-24000000D01*
G75*
G02*
X40150000Y-23750000I0J250000D01*
G01*
G37*
D20*
X33905000Y-24000000D03*
D21*
X30095000Y-24000000D03*
D27*
X40000000Y-34500000D03*
D28*
X45000000Y-34500000D03*
D27*
X24000000Y-34500000D03*
D28*
X29000000Y-34500000D03*
M02*
