M48
INCH,TZ
T1C0.0157
T2C0.0315
T3C0.0362
T4C0.0374
T5C0.0394
T6C0.0433
T7C0.0500
T8C0.0917
T9C0.1260
%
G90
G05
T1
X15354Y-10630
X15354Y-13780
X15354Y-16929
X15354Y-20079
X15354Y-23228
X15354Y-26378
X15748Y-10630
X15748Y-13780
X15748Y-16929
X15748Y-20079
X15748Y-23228
X15748Y-26378
X16535Y-29639
X16535Y-31102
X16535Y-34252
X16929Y-11220
X17520Y-13189
X17717Y-37008
X17717Y-38189
X17717Y-39764
X17913Y-28543
X17913Y-32480
X17913Y-35236
X18110Y-11417
X18110Y-11417
X18307Y-46260
X18701Y-46260
X18898Y-11417
X18898Y-12008
X19291Y-11417
X19291Y-12008
X19685Y-11417
X19685Y-12008
X19685Y-13189
X19882Y-28740
X19882Y-29724
X19882Y-31496
X19882Y-32480
X19882Y-34252
X19882Y-35236
X19882Y-37008
X19882Y-37992
X19882Y-39764
X20079Y-11417
X20079Y-12008
X20472Y-11417
X20472Y-12008
X21260Y-27953
X21260Y-44882
X21850Y-13386
X21850Y-13780
X21850Y-14173
X21850Y-14567
X21850Y-41732
X22244Y-13386
X22244Y-13780
X22244Y-14173
X22244Y-14567
X22638Y-13386
X22638Y-13780
X22638Y-14173
X22638Y-14567
X22638Y-27953
X22662Y-43135
X23031Y-13386
X23031Y-13780
X23031Y-14173
X23031Y-14567
X23031Y-31890
X23031Y-34055
X23425Y-12598
X23425Y-12992
X23425Y-13386
X23425Y-13780
X23425Y-14173
X23425Y-14567
X23425Y-30118
X23622Y-43307
X23819Y-12205
X23819Y-12598
X23819Y-12992
X23819Y-13386
X23819Y-13780
X23819Y-14173
X23819Y-14567
X23819Y-41732
X24213Y-12205
X24213Y-12598
X24213Y-12992
X24213Y-13386
X24213Y-13780
X24213Y-14173
X24213Y-14567
X24213Y-20276
X24213Y-44291
X24213Y-45079
X24409Y-18504
X24606Y-12205
X24606Y-12598
X24606Y-12992
X24606Y-13386
X24606Y-13780
X24606Y-14173
X24606Y-14567
X24606Y-41732
X24803Y-16535
X25000Y-12205
X25000Y-12598
X25000Y-12992
X25000Y-13386
X25000Y-13780
X25000Y-14173
X25000Y-14567
X25197Y-16535
X25197Y-16929
X25197Y-38386
X25394Y-12205
X25394Y-12598
X25394Y-12992
X25394Y-13386
X25394Y-13780
X25394Y-14173
X25394Y-14567
X25591Y-16535
X25591Y-16929
X25591Y-18504
X25591Y-20276
X25591Y-30709
X25598Y-28819
X25787Y-12205
X25787Y-12598
X25787Y-12992
X25787Y-13386
X25787Y-13780
X25787Y-14173
X25787Y-14567
X25787Y-42913
X25984Y-16535
X25984Y-16929
X25984Y-28740
X26378Y-25000
X26378Y-44882
X26569Y-37987
X26575Y-28740
X26777Y-27750
X26922Y-24690
X27165Y-25000
X27165Y-38386
X27171Y-32486
X27335Y-38031
X27391Y-27971
X27953Y-42323
X28150Y-21260
X28346Y-25197
X28543Y-12205
X28543Y-12598
X28543Y-24803
X28740Y-32869
X28740Y-27165
X28740Y-29134
X28740Y-33268
X28822Y-28329
X28937Y-12598
X28937Y-27953
X28937Y-29921
X28937Y-43307
X29349Y-27536
X29514Y-29441
X29528Y-30906
X29724Y-21260
X29921Y-26181
X30118Y-42323
X30601Y-34932
X30709Y-26181
X30906Y-15157
X30906Y-18307
X30906Y-20079
X30906Y-40945
X30977Y-30333
X31102Y-22638
X31299Y-29331
X31299Y-30906
X31496Y-26181
X31693Y-43898
X31722Y-30936
X31890Y-26378
X32087Y-22638
X32087Y-24606
X32176Y-26100
X32391Y-24199
X32480Y-30906
X32677Y-16339
X32677Y-17126
X32874Y-30906
X32975Y-29289
X33071Y-29724
X33268Y-32480
X33268Y-33268
X33268Y-41339
X33465Y-26772
X33465Y-29134
X33465Y-46063
X33470Y-29719
X33473Y-27167
X33858Y-41929
X34055Y-43504
X35236Y-29832
X35433Y-26020
X35827Y-29921
X36220Y-26772
X36417Y-29921
X36533Y-33383
X36614Y-44882
X36811Y-33661
X37002Y-19876
X37008Y-27273
X37205Y-34055
X37402Y-34449
X37598Y-20866
X37598Y-27667
X38172Y-28060
X38183Y-19876
X38386Y-10630
X38386Y-13189
X38386Y-15748
X38386Y-18307
X38386Y-20866
X38386Y-34646
X38698Y-28436
X39961Y-18307
X40748Y-40551
X41142Y-37402
X41929Y-37402
X41929Y-38780
X42323Y-42717
X42913Y-37795
X43110Y-34646
X44291Y-43504
X44488Y-37795
X45472Y-41142
X46063Y-41142
X46063Y-41929
X46260Y-37795
X46260Y-38976
X46260Y-43504
T2
X34646Y-40913
X34646Y-41913
X34646Y-42913
T3
X33858Y-13386
X33858Y-14173
X34843Y-13386
X34843Y-14173
T4
X9843Y-9843
X9843Y-12992
X9843Y-16142
X9843Y-19291
X9843Y-22441
X9843Y-25591
X9843Y-29134
X9843Y-34252
X9843Y-39370
X10827Y-9843
X10827Y-12992
X10827Y-16142
X10827Y-19291
X10827Y-22441
X10827Y-25591
X10827Y-29134
X10827Y-34252
X10827Y-39370
X11811Y-9843
X11811Y-12992
X11811Y-16142
X11811Y-19291
X11811Y-22441
X11811Y-25591
X11811Y-29134
X11811Y-34252
X11811Y-39370
X12795Y-29134
X12795Y-34252
X12795Y-39370
X12795Y-45472
X13780Y-45472
X14764Y-45472
X19291Y-21654
X19291Y-24803
X20276Y-21654
X20276Y-24803
X21260Y-21654
X21260Y-24803
X22244Y-21654
X22244Y-24803
X24213Y-27559
X24213Y-28543
X24213Y-29528
X24213Y-30512
X24213Y-31496
X24213Y-32480
X24213Y-33465
X29921Y-45276
X30906Y-45276
X31890Y-45276
X32874Y-45276
X33268Y-36024
X33858Y-45276
X34252Y-36024
X35236Y-36024
X36220Y-36024
X37205Y-36024
X38189Y-36024
X38780Y-23622
X38976Y-31496
X39764Y-23622
X39961Y-31496
X40748Y-23622
X40945Y-31496
X40945Y-35630
X41732Y-23622
X41929Y-31496
X41929Y-35630
X42717Y-23622
X42913Y-31496
X42913Y-35630
X43701Y-23622
X43898Y-31496
X43898Y-35630
X44685Y-23622
X44882Y-31496
X44882Y-35630
X45276Y-12205
X45276Y-13189
X45276Y-14173
X45276Y-15157
X45276Y-16142
X45276Y-17126
X45669Y-23622
X45866Y-31496
X45866Y-35630
T5
X18701Y-17717
X20669Y-17717
X22835Y-10236
X23984Y-39173
X24803Y-10236
X24984Y-39173
X25984Y-39173
X27134Y-13780
X28134Y-13780
X28740Y-39173
X29134Y-13780
X29740Y-39173
X30740Y-39173
X39764Y-45276
X39882Y-26969
X39882Y-27969
X40551Y-10827
X40551Y-11827
X40551Y-12827
X40551Y-13827
X40551Y-14827
X40551Y-15827
X40551Y-16827
X40551Y-17827
X40551Y-18827
X40551Y-19827
X40748Y-45276
X40882Y-26969
X40882Y-27969
X41551Y-10827
X41551Y-11827
X41551Y-12827
X41551Y-13827
X41551Y-14827
X41551Y-15827
X41551Y-16827
X41551Y-17827
X41551Y-18827
X41551Y-19827
X41882Y-26969
X41882Y-27969
X42882Y-26969
X42882Y-27969
X43882Y-26969
X43882Y-27969
X44882Y-26969
X44882Y-27969
T6
X26772Y-34843
X26772Y-36614
X29331Y-34843
X29331Y-36614
X32283Y-19291
X32283Y-21063
X34843Y-19291
X34843Y-21063
T7
X27316Y-9449
X28816Y-9449
T8
X31980Y-12319
X36720Y-12319
T9
X9449Y-45669
X18898Y-9449
X45669Y-9449
X45669Y-45669
T0
M30
