%TF.GenerationSoftware,KiCad,Pcbnew,5.1.9-73d0e3b20d~88~ubuntu20.04.1*%
%TF.CreationDate,2021-04-20T13:41:42-04:00*%
%TF.ProjectId,control,636f6e74-726f-46c2-9e6b-696361645f70,rev?*%
%TF.SameCoordinates,Original*%
%TF.FileFunction,Soldermask,Top*%
%TF.FilePolarity,Negative*%
%FSLAX46Y46*%
G04 Gerber Fmt 4.6, Leading zero omitted, Abs format (unit mm)*
G04 Created by KiCad (PCBNEW 5.1.9-73d0e3b20d~88~ubuntu20.04.1) date 2021-04-20 13:41:42*
%MOMM*%
%LPD*%
G01*
G04 APERTURE LIST*
%ADD10C,1.700000*%
%ADD11R,1.550000X1.000000*%
%ADD12R,1.500000X1.500000*%
%ADD13R,1.750000X0.700000*%
%ADD14R,1.400000X0.800000*%
%ADD15R,1.000000X1.450000*%
%ADD16R,1.500000X0.800000*%
%ADD17R,1.500000X1.300000*%
%ADD18O,1.700000X1.950000*%
%ADD19O,1.950000X1.700000*%
%ADD20R,1.900000X2.400000*%
%ADD21C,3.200000*%
%ADD22O,1.700000X2.000000*%
%ADD23R,1.500000X2.000000*%
%ADD24R,3.800000X2.000000*%
%ADD25C,0.100000*%
%ADD26R,0.900000X1.300000*%
%ADD27R,0.650000X1.060000*%
%ADD28C,2.000000*%
%ADD29C,1.440000*%
%ADD30R,0.800000X0.900000*%
%ADD31O,1.700000X1.700000*%
%ADD32R,1.700000X1.700000*%
%ADD33C,3.500000*%
%ADD34C,2.032000*%
%ADD35R,2.032000X2.032000*%
%ADD36R,2.500000X1.800000*%
%ADD37R,2.000000X2.000000*%
G04 APERTURE END LIST*
%TO.C,R2*%
G36*
G01*
X82687500Y-39049999D02*
X82687500Y-39950001D01*
G75*
G02*
X82437501Y-40200000I-249999J0D01*
G01*
X81912499Y-40200000D01*
G75*
G02*
X81662500Y-39950001I0J249999D01*
G01*
X81662500Y-39049999D01*
G75*
G02*
X81912499Y-38800000I249999J0D01*
G01*
X82437501Y-38800000D01*
G75*
G02*
X82687500Y-39049999I0J-249999D01*
G01*
G37*
G36*
G01*
X84512500Y-39049999D02*
X84512500Y-39950001D01*
G75*
G02*
X84262501Y-40200000I-249999J0D01*
G01*
X83737499Y-40200000D01*
G75*
G02*
X83487500Y-39950001I0J249999D01*
G01*
X83487500Y-39049999D01*
G75*
G02*
X83737499Y-38800000I249999J0D01*
G01*
X84262501Y-38800000D01*
G75*
G02*
X84512500Y-39049999I0J-249999D01*
G01*
G37*
%TD*%
%TO.C,C4*%
G36*
G01*
X78975000Y-40050000D02*
X78025000Y-40050000D01*
G75*
G02*
X77775000Y-39800000I0J250000D01*
G01*
X77775000Y-39300000D01*
G75*
G02*
X78025000Y-39050000I250000J0D01*
G01*
X78975000Y-39050000D01*
G75*
G02*
X79225000Y-39300000I0J-250000D01*
G01*
X79225000Y-39800000D01*
G75*
G02*
X78975000Y-40050000I-250000J0D01*
G01*
G37*
G36*
G01*
X78975000Y-41950000D02*
X78025000Y-41950000D01*
G75*
G02*
X77775000Y-41700000I0J250000D01*
G01*
X77775000Y-41200000D01*
G75*
G02*
X78025000Y-40950000I250000J0D01*
G01*
X78975000Y-40950000D01*
G75*
G02*
X79225000Y-41200000I0J-250000D01*
G01*
X79225000Y-41700000D01*
G75*
G02*
X78975000Y-41950000I-250000J0D01*
G01*
G37*
%TD*%
D10*
%TO.C,J34*%
X101300000Y-71040000D03*
X103840000Y-71040000D03*
X106380000Y-71040000D03*
X108920000Y-71040000D03*
X111460000Y-71040000D03*
X114000000Y-71040000D03*
X101300000Y-68500000D03*
X103840000Y-68500000D03*
X106380000Y-68500000D03*
X108920000Y-68500000D03*
X111460000Y-68500000D03*
G36*
G01*
X113400000Y-67650000D02*
X114600000Y-67650000D01*
G75*
G02*
X114850000Y-67900000I0J-250000D01*
G01*
X114850000Y-69100000D01*
G75*
G02*
X114600000Y-69350000I-250000J0D01*
G01*
X113400000Y-69350000D01*
G75*
G02*
X113150000Y-69100000I0J250000D01*
G01*
X113150000Y-67900000D01*
G75*
G02*
X113400000Y-67650000I250000J0D01*
G01*
G37*
%TD*%
D11*
%TO.C,J33*%
X108050000Y-98925000D03*
D12*
X118725000Y-98875000D03*
D13*
X118850000Y-101325000D03*
X118850000Y-102425000D03*
X118850000Y-103525000D03*
X118850000Y-104625000D03*
X118850000Y-105725000D03*
X118850000Y-106825000D03*
X118850000Y-107925000D03*
D14*
X110475000Y-98525000D03*
D15*
X109625000Y-110150000D03*
D16*
X111125000Y-110475000D03*
D17*
X118725000Y-110225000D03*
D13*
X118850000Y-109025000D03*
%TD*%
D18*
%TO.C,J29*%
X116500000Y-80000000D03*
X114000000Y-80000000D03*
X111500000Y-80000000D03*
X109000000Y-80000000D03*
X106500000Y-80000000D03*
X104000000Y-80000000D03*
X101500000Y-80000000D03*
G36*
G01*
X98150000Y-80725000D02*
X98150000Y-79275000D01*
G75*
G02*
X98400000Y-79025000I250000J0D01*
G01*
X99600000Y-79025000D01*
G75*
G02*
X99850000Y-79275000I0J-250000D01*
G01*
X99850000Y-80725000D01*
G75*
G02*
X99600000Y-80975000I-250000J0D01*
G01*
X98400000Y-80975000D01*
G75*
G02*
X98150000Y-80725000I0J250000D01*
G01*
G37*
%TD*%
D19*
%TO.C,J25*%
X61500000Y-70000000D03*
X61500000Y-72500000D03*
X61500000Y-75000000D03*
X61500000Y-77500000D03*
X61500000Y-80000000D03*
X61500000Y-82500000D03*
G36*
G01*
X62225000Y-85850000D02*
X60775000Y-85850000D01*
G75*
G02*
X60525000Y-85600000I0J250000D01*
G01*
X60525000Y-84400000D01*
G75*
G02*
X60775000Y-84150000I250000J0D01*
G01*
X62225000Y-84150000D01*
G75*
G02*
X62475000Y-84400000I0J-250000D01*
G01*
X62475000Y-85600000D01*
G75*
G02*
X62225000Y-85850000I-250000J0D01*
G01*
G37*
%TD*%
D18*
%TO.C,J24*%
X116000000Y-60000000D03*
X113500000Y-60000000D03*
X111000000Y-60000000D03*
X108500000Y-60000000D03*
X106000000Y-60000000D03*
X103500000Y-60000000D03*
X101000000Y-60000000D03*
G36*
G01*
X97650000Y-60725000D02*
X97650000Y-59275000D01*
G75*
G02*
X97900000Y-59025000I250000J0D01*
G01*
X99100000Y-59025000D01*
G75*
G02*
X99350000Y-59275000I0J-250000D01*
G01*
X99350000Y-60725000D01*
G75*
G02*
X99100000Y-60975000I-250000J0D01*
G01*
X97900000Y-60975000D01*
G75*
G02*
X97650000Y-60725000I0J250000D01*
G01*
G37*
%TD*%
D20*
%TO.C,Y1*%
X71700000Y-60000000D03*
X75800000Y-60000000D03*
%TD*%
D18*
%TO.C,J12*%
X86000000Y-115000000D03*
X83500000Y-115000000D03*
X81000000Y-115000000D03*
X78500000Y-115000000D03*
G36*
G01*
X75150000Y-115725000D02*
X75150000Y-114275000D01*
G75*
G02*
X75400000Y-114025000I250000J0D01*
G01*
X76600000Y-114025000D01*
G75*
G02*
X76850000Y-114275000I0J-250000D01*
G01*
X76850000Y-115725000D01*
G75*
G02*
X76600000Y-115975000I-250000J0D01*
G01*
X75400000Y-115975000D01*
G75*
G02*
X75150000Y-115725000I0J250000D01*
G01*
G37*
%TD*%
D21*
%TO.C,REF\u002A\u002A*%
X116000000Y-116000000D03*
%TD*%
%TO.C,REF\u002A\u002A*%
X116000000Y-24000000D03*
%TD*%
%TO.C,REF\u002A\u002A*%
X48000000Y-24000000D03*
%TD*%
%TO.C,REF\u002A\u002A*%
X24000000Y-116000000D03*
%TD*%
D22*
%TO.C,J11*%
X103500000Y-115000000D03*
G36*
G01*
X100150000Y-115750000D02*
X100150000Y-114250000D01*
G75*
G02*
X100400000Y-114000000I250000J0D01*
G01*
X101600000Y-114000000D01*
G75*
G02*
X101850000Y-114250000I0J-250000D01*
G01*
X101850000Y-115750000D01*
G75*
G02*
X101600000Y-116000000I-250000J0D01*
G01*
X100400000Y-116000000D01*
G75*
G02*
X100150000Y-115750000I0J250000D01*
G01*
G37*
%TD*%
%TO.C,U5*%
G36*
G01*
X44500000Y-97755000D02*
X44500000Y-98055000D01*
G75*
G02*
X44350000Y-98205000I-150000J0D01*
G01*
X42700000Y-98205000D01*
G75*
G02*
X42550000Y-98055000I0J150000D01*
G01*
X42550000Y-97755000D01*
G75*
G02*
X42700000Y-97605000I150000J0D01*
G01*
X44350000Y-97605000D01*
G75*
G02*
X44500000Y-97755000I0J-150000D01*
G01*
G37*
G36*
G01*
X44500000Y-96485000D02*
X44500000Y-96785000D01*
G75*
G02*
X44350000Y-96935000I-150000J0D01*
G01*
X42700000Y-96935000D01*
G75*
G02*
X42550000Y-96785000I0J150000D01*
G01*
X42550000Y-96485000D01*
G75*
G02*
X42700000Y-96335000I150000J0D01*
G01*
X44350000Y-96335000D01*
G75*
G02*
X44500000Y-96485000I0J-150000D01*
G01*
G37*
G36*
G01*
X44500000Y-95215000D02*
X44500000Y-95515000D01*
G75*
G02*
X44350000Y-95665000I-150000J0D01*
G01*
X42700000Y-95665000D01*
G75*
G02*
X42550000Y-95515000I0J150000D01*
G01*
X42550000Y-95215000D01*
G75*
G02*
X42700000Y-95065000I150000J0D01*
G01*
X44350000Y-95065000D01*
G75*
G02*
X44500000Y-95215000I0J-150000D01*
G01*
G37*
G36*
G01*
X44500000Y-93945000D02*
X44500000Y-94245000D01*
G75*
G02*
X44350000Y-94395000I-150000J0D01*
G01*
X42700000Y-94395000D01*
G75*
G02*
X42550000Y-94245000I0J150000D01*
G01*
X42550000Y-93945000D01*
G75*
G02*
X42700000Y-93795000I150000J0D01*
G01*
X44350000Y-93795000D01*
G75*
G02*
X44500000Y-93945000I0J-150000D01*
G01*
G37*
G36*
G01*
X49450000Y-93945000D02*
X49450000Y-94245000D01*
G75*
G02*
X49300000Y-94395000I-150000J0D01*
G01*
X47650000Y-94395000D01*
G75*
G02*
X47500000Y-94245000I0J150000D01*
G01*
X47500000Y-93945000D01*
G75*
G02*
X47650000Y-93795000I150000J0D01*
G01*
X49300000Y-93795000D01*
G75*
G02*
X49450000Y-93945000I0J-150000D01*
G01*
G37*
G36*
G01*
X49450000Y-95215000D02*
X49450000Y-95515000D01*
G75*
G02*
X49300000Y-95665000I-150000J0D01*
G01*
X47650000Y-95665000D01*
G75*
G02*
X47500000Y-95515000I0J150000D01*
G01*
X47500000Y-95215000D01*
G75*
G02*
X47650000Y-95065000I150000J0D01*
G01*
X49300000Y-95065000D01*
G75*
G02*
X49450000Y-95215000I0J-150000D01*
G01*
G37*
G36*
G01*
X49450000Y-96485000D02*
X49450000Y-96785000D01*
G75*
G02*
X49300000Y-96935000I-150000J0D01*
G01*
X47650000Y-96935000D01*
G75*
G02*
X47500000Y-96785000I0J150000D01*
G01*
X47500000Y-96485000D01*
G75*
G02*
X47650000Y-96335000I150000J0D01*
G01*
X49300000Y-96335000D01*
G75*
G02*
X49450000Y-96485000I0J-150000D01*
G01*
G37*
G36*
G01*
X49450000Y-97755000D02*
X49450000Y-98055000D01*
G75*
G02*
X49300000Y-98205000I-150000J0D01*
G01*
X47650000Y-98205000D01*
G75*
G02*
X47500000Y-98055000I0J150000D01*
G01*
X47500000Y-97755000D01*
G75*
G02*
X47650000Y-97605000I150000J0D01*
G01*
X49300000Y-97605000D01*
G75*
G02*
X49450000Y-97755000I0J-150000D01*
G01*
G37*
%TD*%
%TO.C,U4*%
G36*
G01*
X44500000Y-90755000D02*
X44500000Y-91055000D01*
G75*
G02*
X44350000Y-91205000I-150000J0D01*
G01*
X42700000Y-91205000D01*
G75*
G02*
X42550000Y-91055000I0J150000D01*
G01*
X42550000Y-90755000D01*
G75*
G02*
X42700000Y-90605000I150000J0D01*
G01*
X44350000Y-90605000D01*
G75*
G02*
X44500000Y-90755000I0J-150000D01*
G01*
G37*
G36*
G01*
X44500000Y-89485000D02*
X44500000Y-89785000D01*
G75*
G02*
X44350000Y-89935000I-150000J0D01*
G01*
X42700000Y-89935000D01*
G75*
G02*
X42550000Y-89785000I0J150000D01*
G01*
X42550000Y-89485000D01*
G75*
G02*
X42700000Y-89335000I150000J0D01*
G01*
X44350000Y-89335000D01*
G75*
G02*
X44500000Y-89485000I0J-150000D01*
G01*
G37*
G36*
G01*
X44500000Y-88215000D02*
X44500000Y-88515000D01*
G75*
G02*
X44350000Y-88665000I-150000J0D01*
G01*
X42700000Y-88665000D01*
G75*
G02*
X42550000Y-88515000I0J150000D01*
G01*
X42550000Y-88215000D01*
G75*
G02*
X42700000Y-88065000I150000J0D01*
G01*
X44350000Y-88065000D01*
G75*
G02*
X44500000Y-88215000I0J-150000D01*
G01*
G37*
G36*
G01*
X44500000Y-86945000D02*
X44500000Y-87245000D01*
G75*
G02*
X44350000Y-87395000I-150000J0D01*
G01*
X42700000Y-87395000D01*
G75*
G02*
X42550000Y-87245000I0J150000D01*
G01*
X42550000Y-86945000D01*
G75*
G02*
X42700000Y-86795000I150000J0D01*
G01*
X44350000Y-86795000D01*
G75*
G02*
X44500000Y-86945000I0J-150000D01*
G01*
G37*
G36*
G01*
X49450000Y-86945000D02*
X49450000Y-87245000D01*
G75*
G02*
X49300000Y-87395000I-150000J0D01*
G01*
X47650000Y-87395000D01*
G75*
G02*
X47500000Y-87245000I0J150000D01*
G01*
X47500000Y-86945000D01*
G75*
G02*
X47650000Y-86795000I150000J0D01*
G01*
X49300000Y-86795000D01*
G75*
G02*
X49450000Y-86945000I0J-150000D01*
G01*
G37*
G36*
G01*
X49450000Y-88215000D02*
X49450000Y-88515000D01*
G75*
G02*
X49300000Y-88665000I-150000J0D01*
G01*
X47650000Y-88665000D01*
G75*
G02*
X47500000Y-88515000I0J150000D01*
G01*
X47500000Y-88215000D01*
G75*
G02*
X47650000Y-88065000I150000J0D01*
G01*
X49300000Y-88065000D01*
G75*
G02*
X49450000Y-88215000I0J-150000D01*
G01*
G37*
G36*
G01*
X49450000Y-89485000D02*
X49450000Y-89785000D01*
G75*
G02*
X49300000Y-89935000I-150000J0D01*
G01*
X47650000Y-89935000D01*
G75*
G02*
X47500000Y-89785000I0J150000D01*
G01*
X47500000Y-89485000D01*
G75*
G02*
X47650000Y-89335000I150000J0D01*
G01*
X49300000Y-89335000D01*
G75*
G02*
X49450000Y-89485000I0J-150000D01*
G01*
G37*
G36*
G01*
X49450000Y-90755000D02*
X49450000Y-91055000D01*
G75*
G02*
X49300000Y-91205000I-150000J0D01*
G01*
X47650000Y-91205000D01*
G75*
G02*
X47500000Y-91055000I0J150000D01*
G01*
X47500000Y-90755000D01*
G75*
G02*
X47650000Y-90605000I150000J0D01*
G01*
X49300000Y-90605000D01*
G75*
G02*
X49450000Y-90755000I0J-150000D01*
G01*
G37*
%TD*%
%TO.C,U2*%
G36*
G01*
X44500000Y-76755000D02*
X44500000Y-77055000D01*
G75*
G02*
X44350000Y-77205000I-150000J0D01*
G01*
X42700000Y-77205000D01*
G75*
G02*
X42550000Y-77055000I0J150000D01*
G01*
X42550000Y-76755000D01*
G75*
G02*
X42700000Y-76605000I150000J0D01*
G01*
X44350000Y-76605000D01*
G75*
G02*
X44500000Y-76755000I0J-150000D01*
G01*
G37*
G36*
G01*
X44500000Y-75485000D02*
X44500000Y-75785000D01*
G75*
G02*
X44350000Y-75935000I-150000J0D01*
G01*
X42700000Y-75935000D01*
G75*
G02*
X42550000Y-75785000I0J150000D01*
G01*
X42550000Y-75485000D01*
G75*
G02*
X42700000Y-75335000I150000J0D01*
G01*
X44350000Y-75335000D01*
G75*
G02*
X44500000Y-75485000I0J-150000D01*
G01*
G37*
G36*
G01*
X44500000Y-74215000D02*
X44500000Y-74515000D01*
G75*
G02*
X44350000Y-74665000I-150000J0D01*
G01*
X42700000Y-74665000D01*
G75*
G02*
X42550000Y-74515000I0J150000D01*
G01*
X42550000Y-74215000D01*
G75*
G02*
X42700000Y-74065000I150000J0D01*
G01*
X44350000Y-74065000D01*
G75*
G02*
X44500000Y-74215000I0J-150000D01*
G01*
G37*
G36*
G01*
X44500000Y-72945000D02*
X44500000Y-73245000D01*
G75*
G02*
X44350000Y-73395000I-150000J0D01*
G01*
X42700000Y-73395000D01*
G75*
G02*
X42550000Y-73245000I0J150000D01*
G01*
X42550000Y-72945000D01*
G75*
G02*
X42700000Y-72795000I150000J0D01*
G01*
X44350000Y-72795000D01*
G75*
G02*
X44500000Y-72945000I0J-150000D01*
G01*
G37*
G36*
G01*
X49450000Y-72945000D02*
X49450000Y-73245000D01*
G75*
G02*
X49300000Y-73395000I-150000J0D01*
G01*
X47650000Y-73395000D01*
G75*
G02*
X47500000Y-73245000I0J150000D01*
G01*
X47500000Y-72945000D01*
G75*
G02*
X47650000Y-72795000I150000J0D01*
G01*
X49300000Y-72795000D01*
G75*
G02*
X49450000Y-72945000I0J-150000D01*
G01*
G37*
G36*
G01*
X49450000Y-74215000D02*
X49450000Y-74515000D01*
G75*
G02*
X49300000Y-74665000I-150000J0D01*
G01*
X47650000Y-74665000D01*
G75*
G02*
X47500000Y-74515000I0J150000D01*
G01*
X47500000Y-74215000D01*
G75*
G02*
X47650000Y-74065000I150000J0D01*
G01*
X49300000Y-74065000D01*
G75*
G02*
X49450000Y-74215000I0J-150000D01*
G01*
G37*
G36*
G01*
X49450000Y-75485000D02*
X49450000Y-75785000D01*
G75*
G02*
X49300000Y-75935000I-150000J0D01*
G01*
X47650000Y-75935000D01*
G75*
G02*
X47500000Y-75785000I0J150000D01*
G01*
X47500000Y-75485000D01*
G75*
G02*
X47650000Y-75335000I150000J0D01*
G01*
X49300000Y-75335000D01*
G75*
G02*
X49450000Y-75485000I0J-150000D01*
G01*
G37*
G36*
G01*
X49450000Y-76755000D02*
X49450000Y-77055000D01*
G75*
G02*
X49300000Y-77205000I-150000J0D01*
G01*
X47650000Y-77205000D01*
G75*
G02*
X47500000Y-77055000I0J150000D01*
G01*
X47500000Y-76755000D01*
G75*
G02*
X47650000Y-76605000I150000J0D01*
G01*
X49300000Y-76605000D01*
G75*
G02*
X49450000Y-76755000I0J-150000D01*
G01*
G37*
%TD*%
%TO.C,U3*%
G36*
G01*
X44500000Y-83755000D02*
X44500000Y-84055000D01*
G75*
G02*
X44350000Y-84205000I-150000J0D01*
G01*
X42700000Y-84205000D01*
G75*
G02*
X42550000Y-84055000I0J150000D01*
G01*
X42550000Y-83755000D01*
G75*
G02*
X42700000Y-83605000I150000J0D01*
G01*
X44350000Y-83605000D01*
G75*
G02*
X44500000Y-83755000I0J-150000D01*
G01*
G37*
G36*
G01*
X44500000Y-82485000D02*
X44500000Y-82785000D01*
G75*
G02*
X44350000Y-82935000I-150000J0D01*
G01*
X42700000Y-82935000D01*
G75*
G02*
X42550000Y-82785000I0J150000D01*
G01*
X42550000Y-82485000D01*
G75*
G02*
X42700000Y-82335000I150000J0D01*
G01*
X44350000Y-82335000D01*
G75*
G02*
X44500000Y-82485000I0J-150000D01*
G01*
G37*
G36*
G01*
X44500000Y-81215000D02*
X44500000Y-81515000D01*
G75*
G02*
X44350000Y-81665000I-150000J0D01*
G01*
X42700000Y-81665000D01*
G75*
G02*
X42550000Y-81515000I0J150000D01*
G01*
X42550000Y-81215000D01*
G75*
G02*
X42700000Y-81065000I150000J0D01*
G01*
X44350000Y-81065000D01*
G75*
G02*
X44500000Y-81215000I0J-150000D01*
G01*
G37*
G36*
G01*
X44500000Y-79945000D02*
X44500000Y-80245000D01*
G75*
G02*
X44350000Y-80395000I-150000J0D01*
G01*
X42700000Y-80395000D01*
G75*
G02*
X42550000Y-80245000I0J150000D01*
G01*
X42550000Y-79945000D01*
G75*
G02*
X42700000Y-79795000I150000J0D01*
G01*
X44350000Y-79795000D01*
G75*
G02*
X44500000Y-79945000I0J-150000D01*
G01*
G37*
G36*
G01*
X49450000Y-79945000D02*
X49450000Y-80245000D01*
G75*
G02*
X49300000Y-80395000I-150000J0D01*
G01*
X47650000Y-80395000D01*
G75*
G02*
X47500000Y-80245000I0J150000D01*
G01*
X47500000Y-79945000D01*
G75*
G02*
X47650000Y-79795000I150000J0D01*
G01*
X49300000Y-79795000D01*
G75*
G02*
X49450000Y-79945000I0J-150000D01*
G01*
G37*
G36*
G01*
X49450000Y-81215000D02*
X49450000Y-81515000D01*
G75*
G02*
X49300000Y-81665000I-150000J0D01*
G01*
X47650000Y-81665000D01*
G75*
G02*
X47500000Y-81515000I0J150000D01*
G01*
X47500000Y-81215000D01*
G75*
G02*
X47650000Y-81065000I150000J0D01*
G01*
X49300000Y-81065000D01*
G75*
G02*
X49450000Y-81215000I0J-150000D01*
G01*
G37*
G36*
G01*
X49450000Y-82485000D02*
X49450000Y-82785000D01*
G75*
G02*
X49300000Y-82935000I-150000J0D01*
G01*
X47650000Y-82935000D01*
G75*
G02*
X47500000Y-82785000I0J150000D01*
G01*
X47500000Y-82485000D01*
G75*
G02*
X47650000Y-82335000I150000J0D01*
G01*
X49300000Y-82335000D01*
G75*
G02*
X49450000Y-82485000I0J-150000D01*
G01*
G37*
G36*
G01*
X49450000Y-83755000D02*
X49450000Y-84055000D01*
G75*
G02*
X49300000Y-84205000I-150000J0D01*
G01*
X47650000Y-84205000D01*
G75*
G02*
X47500000Y-84055000I0J150000D01*
G01*
X47500000Y-83755000D01*
G75*
G02*
X47650000Y-83605000I150000J0D01*
G01*
X49300000Y-83605000D01*
G75*
G02*
X49450000Y-83755000I0J-150000D01*
G01*
G37*
%TD*%
%TO.C,U14*%
G36*
G01*
X85950000Y-66350000D02*
X87400000Y-66350000D01*
G75*
G02*
X87475000Y-66425000I0J-75000D01*
G01*
X87475000Y-66575000D01*
G75*
G02*
X87400000Y-66650000I-75000J0D01*
G01*
X85950000Y-66650000D01*
G75*
G02*
X85875000Y-66575000I0J75000D01*
G01*
X85875000Y-66425000D01*
G75*
G02*
X85950000Y-66350000I75000J0D01*
G01*
G37*
G36*
G01*
X85950000Y-66850000D02*
X87400000Y-66850000D01*
G75*
G02*
X87475000Y-66925000I0J-75000D01*
G01*
X87475000Y-67075000D01*
G75*
G02*
X87400000Y-67150000I-75000J0D01*
G01*
X85950000Y-67150000D01*
G75*
G02*
X85875000Y-67075000I0J75000D01*
G01*
X85875000Y-66925000D01*
G75*
G02*
X85950000Y-66850000I75000J0D01*
G01*
G37*
G36*
G01*
X85950000Y-67350000D02*
X87400000Y-67350000D01*
G75*
G02*
X87475000Y-67425000I0J-75000D01*
G01*
X87475000Y-67575000D01*
G75*
G02*
X87400000Y-67650000I-75000J0D01*
G01*
X85950000Y-67650000D01*
G75*
G02*
X85875000Y-67575000I0J75000D01*
G01*
X85875000Y-67425000D01*
G75*
G02*
X85950000Y-67350000I75000J0D01*
G01*
G37*
G36*
G01*
X85950000Y-67850000D02*
X87400000Y-67850000D01*
G75*
G02*
X87475000Y-67925000I0J-75000D01*
G01*
X87475000Y-68075000D01*
G75*
G02*
X87400000Y-68150000I-75000J0D01*
G01*
X85950000Y-68150000D01*
G75*
G02*
X85875000Y-68075000I0J75000D01*
G01*
X85875000Y-67925000D01*
G75*
G02*
X85950000Y-67850000I75000J0D01*
G01*
G37*
G36*
G01*
X85950000Y-68350000D02*
X87400000Y-68350000D01*
G75*
G02*
X87475000Y-68425000I0J-75000D01*
G01*
X87475000Y-68575000D01*
G75*
G02*
X87400000Y-68650000I-75000J0D01*
G01*
X85950000Y-68650000D01*
G75*
G02*
X85875000Y-68575000I0J75000D01*
G01*
X85875000Y-68425000D01*
G75*
G02*
X85950000Y-68350000I75000J0D01*
G01*
G37*
G36*
G01*
X85950000Y-68850000D02*
X87400000Y-68850000D01*
G75*
G02*
X87475000Y-68925000I0J-75000D01*
G01*
X87475000Y-69075000D01*
G75*
G02*
X87400000Y-69150000I-75000J0D01*
G01*
X85950000Y-69150000D01*
G75*
G02*
X85875000Y-69075000I0J75000D01*
G01*
X85875000Y-68925000D01*
G75*
G02*
X85950000Y-68850000I75000J0D01*
G01*
G37*
G36*
G01*
X85950000Y-69350000D02*
X87400000Y-69350000D01*
G75*
G02*
X87475000Y-69425000I0J-75000D01*
G01*
X87475000Y-69575000D01*
G75*
G02*
X87400000Y-69650000I-75000J0D01*
G01*
X85950000Y-69650000D01*
G75*
G02*
X85875000Y-69575000I0J75000D01*
G01*
X85875000Y-69425000D01*
G75*
G02*
X85950000Y-69350000I75000J0D01*
G01*
G37*
G36*
G01*
X85950000Y-69850000D02*
X87400000Y-69850000D01*
G75*
G02*
X87475000Y-69925000I0J-75000D01*
G01*
X87475000Y-70075000D01*
G75*
G02*
X87400000Y-70150000I-75000J0D01*
G01*
X85950000Y-70150000D01*
G75*
G02*
X85875000Y-70075000I0J75000D01*
G01*
X85875000Y-69925000D01*
G75*
G02*
X85950000Y-69850000I75000J0D01*
G01*
G37*
G36*
G01*
X85950000Y-70350000D02*
X87400000Y-70350000D01*
G75*
G02*
X87475000Y-70425000I0J-75000D01*
G01*
X87475000Y-70575000D01*
G75*
G02*
X87400000Y-70650000I-75000J0D01*
G01*
X85950000Y-70650000D01*
G75*
G02*
X85875000Y-70575000I0J75000D01*
G01*
X85875000Y-70425000D01*
G75*
G02*
X85950000Y-70350000I75000J0D01*
G01*
G37*
G36*
G01*
X85950000Y-70850000D02*
X87400000Y-70850000D01*
G75*
G02*
X87475000Y-70925000I0J-75000D01*
G01*
X87475000Y-71075000D01*
G75*
G02*
X87400000Y-71150000I-75000J0D01*
G01*
X85950000Y-71150000D01*
G75*
G02*
X85875000Y-71075000I0J75000D01*
G01*
X85875000Y-70925000D01*
G75*
G02*
X85950000Y-70850000I75000J0D01*
G01*
G37*
G36*
G01*
X85950000Y-71350000D02*
X87400000Y-71350000D01*
G75*
G02*
X87475000Y-71425000I0J-75000D01*
G01*
X87475000Y-71575000D01*
G75*
G02*
X87400000Y-71650000I-75000J0D01*
G01*
X85950000Y-71650000D01*
G75*
G02*
X85875000Y-71575000I0J75000D01*
G01*
X85875000Y-71425000D01*
G75*
G02*
X85950000Y-71350000I75000J0D01*
G01*
G37*
G36*
G01*
X85950000Y-71850000D02*
X87400000Y-71850000D01*
G75*
G02*
X87475000Y-71925000I0J-75000D01*
G01*
X87475000Y-72075000D01*
G75*
G02*
X87400000Y-72150000I-75000J0D01*
G01*
X85950000Y-72150000D01*
G75*
G02*
X85875000Y-72075000I0J75000D01*
G01*
X85875000Y-71925000D01*
G75*
G02*
X85950000Y-71850000I75000J0D01*
G01*
G37*
G36*
G01*
X85950000Y-72350000D02*
X87400000Y-72350000D01*
G75*
G02*
X87475000Y-72425000I0J-75000D01*
G01*
X87475000Y-72575000D01*
G75*
G02*
X87400000Y-72650000I-75000J0D01*
G01*
X85950000Y-72650000D01*
G75*
G02*
X85875000Y-72575000I0J75000D01*
G01*
X85875000Y-72425000D01*
G75*
G02*
X85950000Y-72350000I75000J0D01*
G01*
G37*
G36*
G01*
X85950000Y-72850000D02*
X87400000Y-72850000D01*
G75*
G02*
X87475000Y-72925000I0J-75000D01*
G01*
X87475000Y-73075000D01*
G75*
G02*
X87400000Y-73150000I-75000J0D01*
G01*
X85950000Y-73150000D01*
G75*
G02*
X85875000Y-73075000I0J75000D01*
G01*
X85875000Y-72925000D01*
G75*
G02*
X85950000Y-72850000I75000J0D01*
G01*
G37*
G36*
G01*
X85950000Y-73350000D02*
X87400000Y-73350000D01*
G75*
G02*
X87475000Y-73425000I0J-75000D01*
G01*
X87475000Y-73575000D01*
G75*
G02*
X87400000Y-73650000I-75000J0D01*
G01*
X85950000Y-73650000D01*
G75*
G02*
X85875000Y-73575000I0J75000D01*
G01*
X85875000Y-73425000D01*
G75*
G02*
X85950000Y-73350000I75000J0D01*
G01*
G37*
G36*
G01*
X85950000Y-73850000D02*
X87400000Y-73850000D01*
G75*
G02*
X87475000Y-73925000I0J-75000D01*
G01*
X87475000Y-74075000D01*
G75*
G02*
X87400000Y-74150000I-75000J0D01*
G01*
X85950000Y-74150000D01*
G75*
G02*
X85875000Y-74075000I0J75000D01*
G01*
X85875000Y-73925000D01*
G75*
G02*
X85950000Y-73850000I75000J0D01*
G01*
G37*
G36*
G01*
X85950000Y-74350000D02*
X87400000Y-74350000D01*
G75*
G02*
X87475000Y-74425000I0J-75000D01*
G01*
X87475000Y-74575000D01*
G75*
G02*
X87400000Y-74650000I-75000J0D01*
G01*
X85950000Y-74650000D01*
G75*
G02*
X85875000Y-74575000I0J75000D01*
G01*
X85875000Y-74425000D01*
G75*
G02*
X85950000Y-74350000I75000J0D01*
G01*
G37*
G36*
G01*
X85950000Y-74850000D02*
X87400000Y-74850000D01*
G75*
G02*
X87475000Y-74925000I0J-75000D01*
G01*
X87475000Y-75075000D01*
G75*
G02*
X87400000Y-75150000I-75000J0D01*
G01*
X85950000Y-75150000D01*
G75*
G02*
X85875000Y-75075000I0J75000D01*
G01*
X85875000Y-74925000D01*
G75*
G02*
X85950000Y-74850000I75000J0D01*
G01*
G37*
G36*
G01*
X85950000Y-75350000D02*
X87400000Y-75350000D01*
G75*
G02*
X87475000Y-75425000I0J-75000D01*
G01*
X87475000Y-75575000D01*
G75*
G02*
X87400000Y-75650000I-75000J0D01*
G01*
X85950000Y-75650000D01*
G75*
G02*
X85875000Y-75575000I0J75000D01*
G01*
X85875000Y-75425000D01*
G75*
G02*
X85950000Y-75350000I75000J0D01*
G01*
G37*
G36*
G01*
X85950000Y-75850000D02*
X87400000Y-75850000D01*
G75*
G02*
X87475000Y-75925000I0J-75000D01*
G01*
X87475000Y-76075000D01*
G75*
G02*
X87400000Y-76150000I-75000J0D01*
G01*
X85950000Y-76150000D01*
G75*
G02*
X85875000Y-76075000I0J75000D01*
G01*
X85875000Y-75925000D01*
G75*
G02*
X85950000Y-75850000I75000J0D01*
G01*
G37*
G36*
G01*
X85950000Y-76350000D02*
X87400000Y-76350000D01*
G75*
G02*
X87475000Y-76425000I0J-75000D01*
G01*
X87475000Y-76575000D01*
G75*
G02*
X87400000Y-76650000I-75000J0D01*
G01*
X85950000Y-76650000D01*
G75*
G02*
X85875000Y-76575000I0J75000D01*
G01*
X85875000Y-76425000D01*
G75*
G02*
X85950000Y-76350000I75000J0D01*
G01*
G37*
G36*
G01*
X85950000Y-76850000D02*
X87400000Y-76850000D01*
G75*
G02*
X87475000Y-76925000I0J-75000D01*
G01*
X87475000Y-77075000D01*
G75*
G02*
X87400000Y-77150000I-75000J0D01*
G01*
X85950000Y-77150000D01*
G75*
G02*
X85875000Y-77075000I0J75000D01*
G01*
X85875000Y-76925000D01*
G75*
G02*
X85950000Y-76850000I75000J0D01*
G01*
G37*
G36*
G01*
X85950000Y-77350000D02*
X87400000Y-77350000D01*
G75*
G02*
X87475000Y-77425000I0J-75000D01*
G01*
X87475000Y-77575000D01*
G75*
G02*
X87400000Y-77650000I-75000J0D01*
G01*
X85950000Y-77650000D01*
G75*
G02*
X85875000Y-77575000I0J75000D01*
G01*
X85875000Y-77425000D01*
G75*
G02*
X85950000Y-77350000I75000J0D01*
G01*
G37*
G36*
G01*
X85950000Y-77850000D02*
X87400000Y-77850000D01*
G75*
G02*
X87475000Y-77925000I0J-75000D01*
G01*
X87475000Y-78075000D01*
G75*
G02*
X87400000Y-78150000I-75000J0D01*
G01*
X85950000Y-78150000D01*
G75*
G02*
X85875000Y-78075000I0J75000D01*
G01*
X85875000Y-77925000D01*
G75*
G02*
X85950000Y-77850000I75000J0D01*
G01*
G37*
G36*
G01*
X85950000Y-78350000D02*
X87400000Y-78350000D01*
G75*
G02*
X87475000Y-78425000I0J-75000D01*
G01*
X87475000Y-78575000D01*
G75*
G02*
X87400000Y-78650000I-75000J0D01*
G01*
X85950000Y-78650000D01*
G75*
G02*
X85875000Y-78575000I0J75000D01*
G01*
X85875000Y-78425000D01*
G75*
G02*
X85950000Y-78350000I75000J0D01*
G01*
G37*
G36*
G01*
X84925000Y-79375000D02*
X85075000Y-79375000D01*
G75*
G02*
X85150000Y-79450000I0J-75000D01*
G01*
X85150000Y-80900000D01*
G75*
G02*
X85075000Y-80975000I-75000J0D01*
G01*
X84925000Y-80975000D01*
G75*
G02*
X84850000Y-80900000I0J75000D01*
G01*
X84850000Y-79450000D01*
G75*
G02*
X84925000Y-79375000I75000J0D01*
G01*
G37*
G36*
G01*
X84425000Y-79375000D02*
X84575000Y-79375000D01*
G75*
G02*
X84650000Y-79450000I0J-75000D01*
G01*
X84650000Y-80900000D01*
G75*
G02*
X84575000Y-80975000I-75000J0D01*
G01*
X84425000Y-80975000D01*
G75*
G02*
X84350000Y-80900000I0J75000D01*
G01*
X84350000Y-79450000D01*
G75*
G02*
X84425000Y-79375000I75000J0D01*
G01*
G37*
G36*
G01*
X83925000Y-79375000D02*
X84075000Y-79375000D01*
G75*
G02*
X84150000Y-79450000I0J-75000D01*
G01*
X84150000Y-80900000D01*
G75*
G02*
X84075000Y-80975000I-75000J0D01*
G01*
X83925000Y-80975000D01*
G75*
G02*
X83850000Y-80900000I0J75000D01*
G01*
X83850000Y-79450000D01*
G75*
G02*
X83925000Y-79375000I75000J0D01*
G01*
G37*
G36*
G01*
X83425000Y-79375000D02*
X83575000Y-79375000D01*
G75*
G02*
X83650000Y-79450000I0J-75000D01*
G01*
X83650000Y-80900000D01*
G75*
G02*
X83575000Y-80975000I-75000J0D01*
G01*
X83425000Y-80975000D01*
G75*
G02*
X83350000Y-80900000I0J75000D01*
G01*
X83350000Y-79450000D01*
G75*
G02*
X83425000Y-79375000I75000J0D01*
G01*
G37*
G36*
G01*
X82925000Y-79375000D02*
X83075000Y-79375000D01*
G75*
G02*
X83150000Y-79450000I0J-75000D01*
G01*
X83150000Y-80900000D01*
G75*
G02*
X83075000Y-80975000I-75000J0D01*
G01*
X82925000Y-80975000D01*
G75*
G02*
X82850000Y-80900000I0J75000D01*
G01*
X82850000Y-79450000D01*
G75*
G02*
X82925000Y-79375000I75000J0D01*
G01*
G37*
G36*
G01*
X82425000Y-79375000D02*
X82575000Y-79375000D01*
G75*
G02*
X82650000Y-79450000I0J-75000D01*
G01*
X82650000Y-80900000D01*
G75*
G02*
X82575000Y-80975000I-75000J0D01*
G01*
X82425000Y-80975000D01*
G75*
G02*
X82350000Y-80900000I0J75000D01*
G01*
X82350000Y-79450000D01*
G75*
G02*
X82425000Y-79375000I75000J0D01*
G01*
G37*
G36*
G01*
X81925000Y-79375000D02*
X82075000Y-79375000D01*
G75*
G02*
X82150000Y-79450000I0J-75000D01*
G01*
X82150000Y-80900000D01*
G75*
G02*
X82075000Y-80975000I-75000J0D01*
G01*
X81925000Y-80975000D01*
G75*
G02*
X81850000Y-80900000I0J75000D01*
G01*
X81850000Y-79450000D01*
G75*
G02*
X81925000Y-79375000I75000J0D01*
G01*
G37*
G36*
G01*
X81425000Y-79375000D02*
X81575000Y-79375000D01*
G75*
G02*
X81650000Y-79450000I0J-75000D01*
G01*
X81650000Y-80900000D01*
G75*
G02*
X81575000Y-80975000I-75000J0D01*
G01*
X81425000Y-80975000D01*
G75*
G02*
X81350000Y-80900000I0J75000D01*
G01*
X81350000Y-79450000D01*
G75*
G02*
X81425000Y-79375000I75000J0D01*
G01*
G37*
G36*
G01*
X80925000Y-79375000D02*
X81075000Y-79375000D01*
G75*
G02*
X81150000Y-79450000I0J-75000D01*
G01*
X81150000Y-80900000D01*
G75*
G02*
X81075000Y-80975000I-75000J0D01*
G01*
X80925000Y-80975000D01*
G75*
G02*
X80850000Y-80900000I0J75000D01*
G01*
X80850000Y-79450000D01*
G75*
G02*
X80925000Y-79375000I75000J0D01*
G01*
G37*
G36*
G01*
X80425000Y-79375000D02*
X80575000Y-79375000D01*
G75*
G02*
X80650000Y-79450000I0J-75000D01*
G01*
X80650000Y-80900000D01*
G75*
G02*
X80575000Y-80975000I-75000J0D01*
G01*
X80425000Y-80975000D01*
G75*
G02*
X80350000Y-80900000I0J75000D01*
G01*
X80350000Y-79450000D01*
G75*
G02*
X80425000Y-79375000I75000J0D01*
G01*
G37*
G36*
G01*
X79925000Y-79375000D02*
X80075000Y-79375000D01*
G75*
G02*
X80150000Y-79450000I0J-75000D01*
G01*
X80150000Y-80900000D01*
G75*
G02*
X80075000Y-80975000I-75000J0D01*
G01*
X79925000Y-80975000D01*
G75*
G02*
X79850000Y-80900000I0J75000D01*
G01*
X79850000Y-79450000D01*
G75*
G02*
X79925000Y-79375000I75000J0D01*
G01*
G37*
G36*
G01*
X79425000Y-79375000D02*
X79575000Y-79375000D01*
G75*
G02*
X79650000Y-79450000I0J-75000D01*
G01*
X79650000Y-80900000D01*
G75*
G02*
X79575000Y-80975000I-75000J0D01*
G01*
X79425000Y-80975000D01*
G75*
G02*
X79350000Y-80900000I0J75000D01*
G01*
X79350000Y-79450000D01*
G75*
G02*
X79425000Y-79375000I75000J0D01*
G01*
G37*
G36*
G01*
X78925000Y-79375000D02*
X79075000Y-79375000D01*
G75*
G02*
X79150000Y-79450000I0J-75000D01*
G01*
X79150000Y-80900000D01*
G75*
G02*
X79075000Y-80975000I-75000J0D01*
G01*
X78925000Y-80975000D01*
G75*
G02*
X78850000Y-80900000I0J75000D01*
G01*
X78850000Y-79450000D01*
G75*
G02*
X78925000Y-79375000I75000J0D01*
G01*
G37*
G36*
G01*
X78425000Y-79375000D02*
X78575000Y-79375000D01*
G75*
G02*
X78650000Y-79450000I0J-75000D01*
G01*
X78650000Y-80900000D01*
G75*
G02*
X78575000Y-80975000I-75000J0D01*
G01*
X78425000Y-80975000D01*
G75*
G02*
X78350000Y-80900000I0J75000D01*
G01*
X78350000Y-79450000D01*
G75*
G02*
X78425000Y-79375000I75000J0D01*
G01*
G37*
G36*
G01*
X77925000Y-79375000D02*
X78075000Y-79375000D01*
G75*
G02*
X78150000Y-79450000I0J-75000D01*
G01*
X78150000Y-80900000D01*
G75*
G02*
X78075000Y-80975000I-75000J0D01*
G01*
X77925000Y-80975000D01*
G75*
G02*
X77850000Y-80900000I0J75000D01*
G01*
X77850000Y-79450000D01*
G75*
G02*
X77925000Y-79375000I75000J0D01*
G01*
G37*
G36*
G01*
X77425000Y-79375000D02*
X77575000Y-79375000D01*
G75*
G02*
X77650000Y-79450000I0J-75000D01*
G01*
X77650000Y-80900000D01*
G75*
G02*
X77575000Y-80975000I-75000J0D01*
G01*
X77425000Y-80975000D01*
G75*
G02*
X77350000Y-80900000I0J75000D01*
G01*
X77350000Y-79450000D01*
G75*
G02*
X77425000Y-79375000I75000J0D01*
G01*
G37*
G36*
G01*
X76925000Y-79375000D02*
X77075000Y-79375000D01*
G75*
G02*
X77150000Y-79450000I0J-75000D01*
G01*
X77150000Y-80900000D01*
G75*
G02*
X77075000Y-80975000I-75000J0D01*
G01*
X76925000Y-80975000D01*
G75*
G02*
X76850000Y-80900000I0J75000D01*
G01*
X76850000Y-79450000D01*
G75*
G02*
X76925000Y-79375000I75000J0D01*
G01*
G37*
G36*
G01*
X76425000Y-79375000D02*
X76575000Y-79375000D01*
G75*
G02*
X76650000Y-79450000I0J-75000D01*
G01*
X76650000Y-80900000D01*
G75*
G02*
X76575000Y-80975000I-75000J0D01*
G01*
X76425000Y-80975000D01*
G75*
G02*
X76350000Y-80900000I0J75000D01*
G01*
X76350000Y-79450000D01*
G75*
G02*
X76425000Y-79375000I75000J0D01*
G01*
G37*
G36*
G01*
X75925000Y-79375000D02*
X76075000Y-79375000D01*
G75*
G02*
X76150000Y-79450000I0J-75000D01*
G01*
X76150000Y-80900000D01*
G75*
G02*
X76075000Y-80975000I-75000J0D01*
G01*
X75925000Y-80975000D01*
G75*
G02*
X75850000Y-80900000I0J75000D01*
G01*
X75850000Y-79450000D01*
G75*
G02*
X75925000Y-79375000I75000J0D01*
G01*
G37*
G36*
G01*
X75425000Y-79375000D02*
X75575000Y-79375000D01*
G75*
G02*
X75650000Y-79450000I0J-75000D01*
G01*
X75650000Y-80900000D01*
G75*
G02*
X75575000Y-80975000I-75000J0D01*
G01*
X75425000Y-80975000D01*
G75*
G02*
X75350000Y-80900000I0J75000D01*
G01*
X75350000Y-79450000D01*
G75*
G02*
X75425000Y-79375000I75000J0D01*
G01*
G37*
G36*
G01*
X74925000Y-79375000D02*
X75075000Y-79375000D01*
G75*
G02*
X75150000Y-79450000I0J-75000D01*
G01*
X75150000Y-80900000D01*
G75*
G02*
X75075000Y-80975000I-75000J0D01*
G01*
X74925000Y-80975000D01*
G75*
G02*
X74850000Y-80900000I0J75000D01*
G01*
X74850000Y-79450000D01*
G75*
G02*
X74925000Y-79375000I75000J0D01*
G01*
G37*
G36*
G01*
X74425000Y-79375000D02*
X74575000Y-79375000D01*
G75*
G02*
X74650000Y-79450000I0J-75000D01*
G01*
X74650000Y-80900000D01*
G75*
G02*
X74575000Y-80975000I-75000J0D01*
G01*
X74425000Y-80975000D01*
G75*
G02*
X74350000Y-80900000I0J75000D01*
G01*
X74350000Y-79450000D01*
G75*
G02*
X74425000Y-79375000I75000J0D01*
G01*
G37*
G36*
G01*
X73925000Y-79375000D02*
X74075000Y-79375000D01*
G75*
G02*
X74150000Y-79450000I0J-75000D01*
G01*
X74150000Y-80900000D01*
G75*
G02*
X74075000Y-80975000I-75000J0D01*
G01*
X73925000Y-80975000D01*
G75*
G02*
X73850000Y-80900000I0J75000D01*
G01*
X73850000Y-79450000D01*
G75*
G02*
X73925000Y-79375000I75000J0D01*
G01*
G37*
G36*
G01*
X73425000Y-79375000D02*
X73575000Y-79375000D01*
G75*
G02*
X73650000Y-79450000I0J-75000D01*
G01*
X73650000Y-80900000D01*
G75*
G02*
X73575000Y-80975000I-75000J0D01*
G01*
X73425000Y-80975000D01*
G75*
G02*
X73350000Y-80900000I0J75000D01*
G01*
X73350000Y-79450000D01*
G75*
G02*
X73425000Y-79375000I75000J0D01*
G01*
G37*
G36*
G01*
X72925000Y-79375000D02*
X73075000Y-79375000D01*
G75*
G02*
X73150000Y-79450000I0J-75000D01*
G01*
X73150000Y-80900000D01*
G75*
G02*
X73075000Y-80975000I-75000J0D01*
G01*
X72925000Y-80975000D01*
G75*
G02*
X72850000Y-80900000I0J75000D01*
G01*
X72850000Y-79450000D01*
G75*
G02*
X72925000Y-79375000I75000J0D01*
G01*
G37*
G36*
G01*
X70600000Y-78350000D02*
X72050000Y-78350000D01*
G75*
G02*
X72125000Y-78425000I0J-75000D01*
G01*
X72125000Y-78575000D01*
G75*
G02*
X72050000Y-78650000I-75000J0D01*
G01*
X70600000Y-78650000D01*
G75*
G02*
X70525000Y-78575000I0J75000D01*
G01*
X70525000Y-78425000D01*
G75*
G02*
X70600000Y-78350000I75000J0D01*
G01*
G37*
G36*
G01*
X70600000Y-77850000D02*
X72050000Y-77850000D01*
G75*
G02*
X72125000Y-77925000I0J-75000D01*
G01*
X72125000Y-78075000D01*
G75*
G02*
X72050000Y-78150000I-75000J0D01*
G01*
X70600000Y-78150000D01*
G75*
G02*
X70525000Y-78075000I0J75000D01*
G01*
X70525000Y-77925000D01*
G75*
G02*
X70600000Y-77850000I75000J0D01*
G01*
G37*
G36*
G01*
X70600000Y-77350000D02*
X72050000Y-77350000D01*
G75*
G02*
X72125000Y-77425000I0J-75000D01*
G01*
X72125000Y-77575000D01*
G75*
G02*
X72050000Y-77650000I-75000J0D01*
G01*
X70600000Y-77650000D01*
G75*
G02*
X70525000Y-77575000I0J75000D01*
G01*
X70525000Y-77425000D01*
G75*
G02*
X70600000Y-77350000I75000J0D01*
G01*
G37*
G36*
G01*
X70600000Y-76850000D02*
X72050000Y-76850000D01*
G75*
G02*
X72125000Y-76925000I0J-75000D01*
G01*
X72125000Y-77075000D01*
G75*
G02*
X72050000Y-77150000I-75000J0D01*
G01*
X70600000Y-77150000D01*
G75*
G02*
X70525000Y-77075000I0J75000D01*
G01*
X70525000Y-76925000D01*
G75*
G02*
X70600000Y-76850000I75000J0D01*
G01*
G37*
G36*
G01*
X70600000Y-76350000D02*
X72050000Y-76350000D01*
G75*
G02*
X72125000Y-76425000I0J-75000D01*
G01*
X72125000Y-76575000D01*
G75*
G02*
X72050000Y-76650000I-75000J0D01*
G01*
X70600000Y-76650000D01*
G75*
G02*
X70525000Y-76575000I0J75000D01*
G01*
X70525000Y-76425000D01*
G75*
G02*
X70600000Y-76350000I75000J0D01*
G01*
G37*
G36*
G01*
X70600000Y-75850000D02*
X72050000Y-75850000D01*
G75*
G02*
X72125000Y-75925000I0J-75000D01*
G01*
X72125000Y-76075000D01*
G75*
G02*
X72050000Y-76150000I-75000J0D01*
G01*
X70600000Y-76150000D01*
G75*
G02*
X70525000Y-76075000I0J75000D01*
G01*
X70525000Y-75925000D01*
G75*
G02*
X70600000Y-75850000I75000J0D01*
G01*
G37*
G36*
G01*
X70600000Y-75350000D02*
X72050000Y-75350000D01*
G75*
G02*
X72125000Y-75425000I0J-75000D01*
G01*
X72125000Y-75575000D01*
G75*
G02*
X72050000Y-75650000I-75000J0D01*
G01*
X70600000Y-75650000D01*
G75*
G02*
X70525000Y-75575000I0J75000D01*
G01*
X70525000Y-75425000D01*
G75*
G02*
X70600000Y-75350000I75000J0D01*
G01*
G37*
G36*
G01*
X70600000Y-74850000D02*
X72050000Y-74850000D01*
G75*
G02*
X72125000Y-74925000I0J-75000D01*
G01*
X72125000Y-75075000D01*
G75*
G02*
X72050000Y-75150000I-75000J0D01*
G01*
X70600000Y-75150000D01*
G75*
G02*
X70525000Y-75075000I0J75000D01*
G01*
X70525000Y-74925000D01*
G75*
G02*
X70600000Y-74850000I75000J0D01*
G01*
G37*
G36*
G01*
X70600000Y-74350000D02*
X72050000Y-74350000D01*
G75*
G02*
X72125000Y-74425000I0J-75000D01*
G01*
X72125000Y-74575000D01*
G75*
G02*
X72050000Y-74650000I-75000J0D01*
G01*
X70600000Y-74650000D01*
G75*
G02*
X70525000Y-74575000I0J75000D01*
G01*
X70525000Y-74425000D01*
G75*
G02*
X70600000Y-74350000I75000J0D01*
G01*
G37*
G36*
G01*
X70600000Y-73850000D02*
X72050000Y-73850000D01*
G75*
G02*
X72125000Y-73925000I0J-75000D01*
G01*
X72125000Y-74075000D01*
G75*
G02*
X72050000Y-74150000I-75000J0D01*
G01*
X70600000Y-74150000D01*
G75*
G02*
X70525000Y-74075000I0J75000D01*
G01*
X70525000Y-73925000D01*
G75*
G02*
X70600000Y-73850000I75000J0D01*
G01*
G37*
G36*
G01*
X70600000Y-73350000D02*
X72050000Y-73350000D01*
G75*
G02*
X72125000Y-73425000I0J-75000D01*
G01*
X72125000Y-73575000D01*
G75*
G02*
X72050000Y-73650000I-75000J0D01*
G01*
X70600000Y-73650000D01*
G75*
G02*
X70525000Y-73575000I0J75000D01*
G01*
X70525000Y-73425000D01*
G75*
G02*
X70600000Y-73350000I75000J0D01*
G01*
G37*
G36*
G01*
X70600000Y-72850000D02*
X72050000Y-72850000D01*
G75*
G02*
X72125000Y-72925000I0J-75000D01*
G01*
X72125000Y-73075000D01*
G75*
G02*
X72050000Y-73150000I-75000J0D01*
G01*
X70600000Y-73150000D01*
G75*
G02*
X70525000Y-73075000I0J75000D01*
G01*
X70525000Y-72925000D01*
G75*
G02*
X70600000Y-72850000I75000J0D01*
G01*
G37*
G36*
G01*
X70600000Y-72350000D02*
X72050000Y-72350000D01*
G75*
G02*
X72125000Y-72425000I0J-75000D01*
G01*
X72125000Y-72575000D01*
G75*
G02*
X72050000Y-72650000I-75000J0D01*
G01*
X70600000Y-72650000D01*
G75*
G02*
X70525000Y-72575000I0J75000D01*
G01*
X70525000Y-72425000D01*
G75*
G02*
X70600000Y-72350000I75000J0D01*
G01*
G37*
G36*
G01*
X70600000Y-71850000D02*
X72050000Y-71850000D01*
G75*
G02*
X72125000Y-71925000I0J-75000D01*
G01*
X72125000Y-72075000D01*
G75*
G02*
X72050000Y-72150000I-75000J0D01*
G01*
X70600000Y-72150000D01*
G75*
G02*
X70525000Y-72075000I0J75000D01*
G01*
X70525000Y-71925000D01*
G75*
G02*
X70600000Y-71850000I75000J0D01*
G01*
G37*
G36*
G01*
X70600000Y-71350000D02*
X72050000Y-71350000D01*
G75*
G02*
X72125000Y-71425000I0J-75000D01*
G01*
X72125000Y-71575000D01*
G75*
G02*
X72050000Y-71650000I-75000J0D01*
G01*
X70600000Y-71650000D01*
G75*
G02*
X70525000Y-71575000I0J75000D01*
G01*
X70525000Y-71425000D01*
G75*
G02*
X70600000Y-71350000I75000J0D01*
G01*
G37*
G36*
G01*
X70600000Y-70850000D02*
X72050000Y-70850000D01*
G75*
G02*
X72125000Y-70925000I0J-75000D01*
G01*
X72125000Y-71075000D01*
G75*
G02*
X72050000Y-71150000I-75000J0D01*
G01*
X70600000Y-71150000D01*
G75*
G02*
X70525000Y-71075000I0J75000D01*
G01*
X70525000Y-70925000D01*
G75*
G02*
X70600000Y-70850000I75000J0D01*
G01*
G37*
G36*
G01*
X70600000Y-70350000D02*
X72050000Y-70350000D01*
G75*
G02*
X72125000Y-70425000I0J-75000D01*
G01*
X72125000Y-70575000D01*
G75*
G02*
X72050000Y-70650000I-75000J0D01*
G01*
X70600000Y-70650000D01*
G75*
G02*
X70525000Y-70575000I0J75000D01*
G01*
X70525000Y-70425000D01*
G75*
G02*
X70600000Y-70350000I75000J0D01*
G01*
G37*
G36*
G01*
X70600000Y-69850000D02*
X72050000Y-69850000D01*
G75*
G02*
X72125000Y-69925000I0J-75000D01*
G01*
X72125000Y-70075000D01*
G75*
G02*
X72050000Y-70150000I-75000J0D01*
G01*
X70600000Y-70150000D01*
G75*
G02*
X70525000Y-70075000I0J75000D01*
G01*
X70525000Y-69925000D01*
G75*
G02*
X70600000Y-69850000I75000J0D01*
G01*
G37*
G36*
G01*
X70600000Y-69350000D02*
X72050000Y-69350000D01*
G75*
G02*
X72125000Y-69425000I0J-75000D01*
G01*
X72125000Y-69575000D01*
G75*
G02*
X72050000Y-69650000I-75000J0D01*
G01*
X70600000Y-69650000D01*
G75*
G02*
X70525000Y-69575000I0J75000D01*
G01*
X70525000Y-69425000D01*
G75*
G02*
X70600000Y-69350000I75000J0D01*
G01*
G37*
G36*
G01*
X70600000Y-68850000D02*
X72050000Y-68850000D01*
G75*
G02*
X72125000Y-68925000I0J-75000D01*
G01*
X72125000Y-69075000D01*
G75*
G02*
X72050000Y-69150000I-75000J0D01*
G01*
X70600000Y-69150000D01*
G75*
G02*
X70525000Y-69075000I0J75000D01*
G01*
X70525000Y-68925000D01*
G75*
G02*
X70600000Y-68850000I75000J0D01*
G01*
G37*
G36*
G01*
X70597500Y-68355000D02*
X72052500Y-68355000D01*
G75*
G02*
X72125000Y-68427500I0J-72500D01*
G01*
X72125000Y-68572500D01*
G75*
G02*
X72052500Y-68645000I-72500J0D01*
G01*
X70597500Y-68645000D01*
G75*
G02*
X70525000Y-68572500I0J72500D01*
G01*
X70525000Y-68427500D01*
G75*
G02*
X70597500Y-68355000I72500J0D01*
G01*
G37*
G36*
G01*
X70597500Y-67855000D02*
X72052500Y-67855000D01*
G75*
G02*
X72125000Y-67927500I0J-72500D01*
G01*
X72125000Y-68072500D01*
G75*
G02*
X72052500Y-68145000I-72500J0D01*
G01*
X70597500Y-68145000D01*
G75*
G02*
X70525000Y-68072500I0J72500D01*
G01*
X70525000Y-67927500D01*
G75*
G02*
X70597500Y-67855000I72500J0D01*
G01*
G37*
G36*
G01*
X70597500Y-67355000D02*
X72052500Y-67355000D01*
G75*
G02*
X72125000Y-67427500I0J-72500D01*
G01*
X72125000Y-67572500D01*
G75*
G02*
X72052500Y-67645000I-72500J0D01*
G01*
X70597500Y-67645000D01*
G75*
G02*
X70525000Y-67572500I0J72500D01*
G01*
X70525000Y-67427500D01*
G75*
G02*
X70597500Y-67355000I72500J0D01*
G01*
G37*
G36*
G01*
X70600000Y-66850000D02*
X72050000Y-66850000D01*
G75*
G02*
X72125000Y-66925000I0J-75000D01*
G01*
X72125000Y-67075000D01*
G75*
G02*
X72050000Y-67150000I-75000J0D01*
G01*
X70600000Y-67150000D01*
G75*
G02*
X70525000Y-67075000I0J75000D01*
G01*
X70525000Y-66925000D01*
G75*
G02*
X70600000Y-66850000I75000J0D01*
G01*
G37*
G36*
G01*
X70600000Y-66350000D02*
X72050000Y-66350000D01*
G75*
G02*
X72125000Y-66425000I0J-75000D01*
G01*
X72125000Y-66575000D01*
G75*
G02*
X72050000Y-66650000I-75000J0D01*
G01*
X70600000Y-66650000D01*
G75*
G02*
X70525000Y-66575000I0J75000D01*
G01*
X70525000Y-66425000D01*
G75*
G02*
X70600000Y-66350000I75000J0D01*
G01*
G37*
G36*
G01*
X72925000Y-64025000D02*
X73075000Y-64025000D01*
G75*
G02*
X73150000Y-64100000I0J-75000D01*
G01*
X73150000Y-65550000D01*
G75*
G02*
X73075000Y-65625000I-75000J0D01*
G01*
X72925000Y-65625000D01*
G75*
G02*
X72850000Y-65550000I0J75000D01*
G01*
X72850000Y-64100000D01*
G75*
G02*
X72925000Y-64025000I75000J0D01*
G01*
G37*
G36*
G01*
X73425000Y-64025000D02*
X73575000Y-64025000D01*
G75*
G02*
X73650000Y-64100000I0J-75000D01*
G01*
X73650000Y-65550000D01*
G75*
G02*
X73575000Y-65625000I-75000J0D01*
G01*
X73425000Y-65625000D01*
G75*
G02*
X73350000Y-65550000I0J75000D01*
G01*
X73350000Y-64100000D01*
G75*
G02*
X73425000Y-64025000I75000J0D01*
G01*
G37*
G36*
G01*
X73925000Y-64025000D02*
X74075000Y-64025000D01*
G75*
G02*
X74150000Y-64100000I0J-75000D01*
G01*
X74150000Y-65550000D01*
G75*
G02*
X74075000Y-65625000I-75000J0D01*
G01*
X73925000Y-65625000D01*
G75*
G02*
X73850000Y-65550000I0J75000D01*
G01*
X73850000Y-64100000D01*
G75*
G02*
X73925000Y-64025000I75000J0D01*
G01*
G37*
G36*
G01*
X74425000Y-64025000D02*
X74575000Y-64025000D01*
G75*
G02*
X74650000Y-64100000I0J-75000D01*
G01*
X74650000Y-65550000D01*
G75*
G02*
X74575000Y-65625000I-75000J0D01*
G01*
X74425000Y-65625000D01*
G75*
G02*
X74350000Y-65550000I0J75000D01*
G01*
X74350000Y-64100000D01*
G75*
G02*
X74425000Y-64025000I75000J0D01*
G01*
G37*
G36*
G01*
X74925000Y-64025000D02*
X75075000Y-64025000D01*
G75*
G02*
X75150000Y-64100000I0J-75000D01*
G01*
X75150000Y-65550000D01*
G75*
G02*
X75075000Y-65625000I-75000J0D01*
G01*
X74925000Y-65625000D01*
G75*
G02*
X74850000Y-65550000I0J75000D01*
G01*
X74850000Y-64100000D01*
G75*
G02*
X74925000Y-64025000I75000J0D01*
G01*
G37*
G36*
G01*
X75425000Y-64025000D02*
X75575000Y-64025000D01*
G75*
G02*
X75650000Y-64100000I0J-75000D01*
G01*
X75650000Y-65550000D01*
G75*
G02*
X75575000Y-65625000I-75000J0D01*
G01*
X75425000Y-65625000D01*
G75*
G02*
X75350000Y-65550000I0J75000D01*
G01*
X75350000Y-64100000D01*
G75*
G02*
X75425000Y-64025000I75000J0D01*
G01*
G37*
G36*
G01*
X75925000Y-64025000D02*
X76075000Y-64025000D01*
G75*
G02*
X76150000Y-64100000I0J-75000D01*
G01*
X76150000Y-65550000D01*
G75*
G02*
X76075000Y-65625000I-75000J0D01*
G01*
X75925000Y-65625000D01*
G75*
G02*
X75850000Y-65550000I0J75000D01*
G01*
X75850000Y-64100000D01*
G75*
G02*
X75925000Y-64025000I75000J0D01*
G01*
G37*
G36*
G01*
X76425000Y-64025000D02*
X76575000Y-64025000D01*
G75*
G02*
X76650000Y-64100000I0J-75000D01*
G01*
X76650000Y-65550000D01*
G75*
G02*
X76575000Y-65625000I-75000J0D01*
G01*
X76425000Y-65625000D01*
G75*
G02*
X76350000Y-65550000I0J75000D01*
G01*
X76350000Y-64100000D01*
G75*
G02*
X76425000Y-64025000I75000J0D01*
G01*
G37*
G36*
G01*
X76925000Y-64025000D02*
X77075000Y-64025000D01*
G75*
G02*
X77150000Y-64100000I0J-75000D01*
G01*
X77150000Y-65550000D01*
G75*
G02*
X77075000Y-65625000I-75000J0D01*
G01*
X76925000Y-65625000D01*
G75*
G02*
X76850000Y-65550000I0J75000D01*
G01*
X76850000Y-64100000D01*
G75*
G02*
X76925000Y-64025000I75000J0D01*
G01*
G37*
G36*
G01*
X77425000Y-64025000D02*
X77575000Y-64025000D01*
G75*
G02*
X77650000Y-64100000I0J-75000D01*
G01*
X77650000Y-65550000D01*
G75*
G02*
X77575000Y-65625000I-75000J0D01*
G01*
X77425000Y-65625000D01*
G75*
G02*
X77350000Y-65550000I0J75000D01*
G01*
X77350000Y-64100000D01*
G75*
G02*
X77425000Y-64025000I75000J0D01*
G01*
G37*
G36*
G01*
X77925000Y-64025000D02*
X78075000Y-64025000D01*
G75*
G02*
X78150000Y-64100000I0J-75000D01*
G01*
X78150000Y-65550000D01*
G75*
G02*
X78075000Y-65625000I-75000J0D01*
G01*
X77925000Y-65625000D01*
G75*
G02*
X77850000Y-65550000I0J75000D01*
G01*
X77850000Y-64100000D01*
G75*
G02*
X77925000Y-64025000I75000J0D01*
G01*
G37*
G36*
G01*
X78425000Y-64025000D02*
X78575000Y-64025000D01*
G75*
G02*
X78650000Y-64100000I0J-75000D01*
G01*
X78650000Y-65550000D01*
G75*
G02*
X78575000Y-65625000I-75000J0D01*
G01*
X78425000Y-65625000D01*
G75*
G02*
X78350000Y-65550000I0J75000D01*
G01*
X78350000Y-64100000D01*
G75*
G02*
X78425000Y-64025000I75000J0D01*
G01*
G37*
G36*
G01*
X78925000Y-64025000D02*
X79075000Y-64025000D01*
G75*
G02*
X79150000Y-64100000I0J-75000D01*
G01*
X79150000Y-65550000D01*
G75*
G02*
X79075000Y-65625000I-75000J0D01*
G01*
X78925000Y-65625000D01*
G75*
G02*
X78850000Y-65550000I0J75000D01*
G01*
X78850000Y-64100000D01*
G75*
G02*
X78925000Y-64025000I75000J0D01*
G01*
G37*
G36*
G01*
X79425000Y-64025000D02*
X79575000Y-64025000D01*
G75*
G02*
X79650000Y-64100000I0J-75000D01*
G01*
X79650000Y-65550000D01*
G75*
G02*
X79575000Y-65625000I-75000J0D01*
G01*
X79425000Y-65625000D01*
G75*
G02*
X79350000Y-65550000I0J75000D01*
G01*
X79350000Y-64100000D01*
G75*
G02*
X79425000Y-64025000I75000J0D01*
G01*
G37*
G36*
G01*
X79925000Y-64025000D02*
X80075000Y-64025000D01*
G75*
G02*
X80150000Y-64100000I0J-75000D01*
G01*
X80150000Y-65550000D01*
G75*
G02*
X80075000Y-65625000I-75000J0D01*
G01*
X79925000Y-65625000D01*
G75*
G02*
X79850000Y-65550000I0J75000D01*
G01*
X79850000Y-64100000D01*
G75*
G02*
X79925000Y-64025000I75000J0D01*
G01*
G37*
G36*
G01*
X80425000Y-64025000D02*
X80575000Y-64025000D01*
G75*
G02*
X80650000Y-64100000I0J-75000D01*
G01*
X80650000Y-65550000D01*
G75*
G02*
X80575000Y-65625000I-75000J0D01*
G01*
X80425000Y-65625000D01*
G75*
G02*
X80350000Y-65550000I0J75000D01*
G01*
X80350000Y-64100000D01*
G75*
G02*
X80425000Y-64025000I75000J0D01*
G01*
G37*
G36*
G01*
X80925000Y-64025000D02*
X81075000Y-64025000D01*
G75*
G02*
X81150000Y-64100000I0J-75000D01*
G01*
X81150000Y-65550000D01*
G75*
G02*
X81075000Y-65625000I-75000J0D01*
G01*
X80925000Y-65625000D01*
G75*
G02*
X80850000Y-65550000I0J75000D01*
G01*
X80850000Y-64100000D01*
G75*
G02*
X80925000Y-64025000I75000J0D01*
G01*
G37*
G36*
G01*
X81425000Y-64025000D02*
X81575000Y-64025000D01*
G75*
G02*
X81650000Y-64100000I0J-75000D01*
G01*
X81650000Y-65550000D01*
G75*
G02*
X81575000Y-65625000I-75000J0D01*
G01*
X81425000Y-65625000D01*
G75*
G02*
X81350000Y-65550000I0J75000D01*
G01*
X81350000Y-64100000D01*
G75*
G02*
X81425000Y-64025000I75000J0D01*
G01*
G37*
G36*
G01*
X81925000Y-64025000D02*
X82075000Y-64025000D01*
G75*
G02*
X82150000Y-64100000I0J-75000D01*
G01*
X82150000Y-65550000D01*
G75*
G02*
X82075000Y-65625000I-75000J0D01*
G01*
X81925000Y-65625000D01*
G75*
G02*
X81850000Y-65550000I0J75000D01*
G01*
X81850000Y-64100000D01*
G75*
G02*
X81925000Y-64025000I75000J0D01*
G01*
G37*
G36*
G01*
X82425000Y-64025000D02*
X82575000Y-64025000D01*
G75*
G02*
X82650000Y-64100000I0J-75000D01*
G01*
X82650000Y-65550000D01*
G75*
G02*
X82575000Y-65625000I-75000J0D01*
G01*
X82425000Y-65625000D01*
G75*
G02*
X82350000Y-65550000I0J75000D01*
G01*
X82350000Y-64100000D01*
G75*
G02*
X82425000Y-64025000I75000J0D01*
G01*
G37*
G36*
G01*
X82925000Y-64025000D02*
X83075000Y-64025000D01*
G75*
G02*
X83150000Y-64100000I0J-75000D01*
G01*
X83150000Y-65550000D01*
G75*
G02*
X83075000Y-65625000I-75000J0D01*
G01*
X82925000Y-65625000D01*
G75*
G02*
X82850000Y-65550000I0J75000D01*
G01*
X82850000Y-64100000D01*
G75*
G02*
X82925000Y-64025000I75000J0D01*
G01*
G37*
G36*
G01*
X83425000Y-64025000D02*
X83575000Y-64025000D01*
G75*
G02*
X83650000Y-64100000I0J-75000D01*
G01*
X83650000Y-65550000D01*
G75*
G02*
X83575000Y-65625000I-75000J0D01*
G01*
X83425000Y-65625000D01*
G75*
G02*
X83350000Y-65550000I0J75000D01*
G01*
X83350000Y-64100000D01*
G75*
G02*
X83425000Y-64025000I75000J0D01*
G01*
G37*
G36*
G01*
X83925000Y-64025000D02*
X84075000Y-64025000D01*
G75*
G02*
X84150000Y-64100000I0J-75000D01*
G01*
X84150000Y-65550000D01*
G75*
G02*
X84075000Y-65625000I-75000J0D01*
G01*
X83925000Y-65625000D01*
G75*
G02*
X83850000Y-65550000I0J75000D01*
G01*
X83850000Y-64100000D01*
G75*
G02*
X83925000Y-64025000I75000J0D01*
G01*
G37*
G36*
G01*
X84425000Y-64025000D02*
X84575000Y-64025000D01*
G75*
G02*
X84650000Y-64100000I0J-75000D01*
G01*
X84650000Y-65550000D01*
G75*
G02*
X84575000Y-65625000I-75000J0D01*
G01*
X84425000Y-65625000D01*
G75*
G02*
X84350000Y-65550000I0J75000D01*
G01*
X84350000Y-64100000D01*
G75*
G02*
X84425000Y-64025000I75000J0D01*
G01*
G37*
G36*
G01*
X84925000Y-64025000D02*
X85075000Y-64025000D01*
G75*
G02*
X85150000Y-64100000I0J-75000D01*
G01*
X85150000Y-65550000D01*
G75*
G02*
X85075000Y-65625000I-75000J0D01*
G01*
X84925000Y-65625000D01*
G75*
G02*
X84850000Y-65550000I0J75000D01*
G01*
X84850000Y-64100000D01*
G75*
G02*
X84925000Y-64025000I75000J0D01*
G01*
G37*
%TD*%
D23*
%TO.C,U11*%
X58700000Y-40300000D03*
X63300000Y-40300000D03*
X61000000Y-40300000D03*
D24*
X61000000Y-34000000D03*
%TD*%
D25*
%TO.C,U10*%
G36*
X50866500Y-28200000D02*
G01*
X50866500Y-31325000D01*
X50450000Y-31325000D01*
X50450000Y-32800000D01*
X49550000Y-32800000D01*
X49550000Y-31325000D01*
X49133500Y-31325000D01*
X49133500Y-28200000D01*
X50866500Y-28200000D01*
G37*
D26*
X51500000Y-32150000D03*
X48500000Y-32150000D03*
%TD*%
%TO.C,U9*%
G36*
G01*
X77500000Y-105245000D02*
X77500000Y-104945000D01*
G75*
G02*
X77650000Y-104795000I150000J0D01*
G01*
X79300000Y-104795000D01*
G75*
G02*
X79450000Y-104945000I0J-150000D01*
G01*
X79450000Y-105245000D01*
G75*
G02*
X79300000Y-105395000I-150000J0D01*
G01*
X77650000Y-105395000D01*
G75*
G02*
X77500000Y-105245000I0J150000D01*
G01*
G37*
G36*
G01*
X77500000Y-106515000D02*
X77500000Y-106215000D01*
G75*
G02*
X77650000Y-106065000I150000J0D01*
G01*
X79300000Y-106065000D01*
G75*
G02*
X79450000Y-106215000I0J-150000D01*
G01*
X79450000Y-106515000D01*
G75*
G02*
X79300000Y-106665000I-150000J0D01*
G01*
X77650000Y-106665000D01*
G75*
G02*
X77500000Y-106515000I0J150000D01*
G01*
G37*
G36*
G01*
X77500000Y-107785000D02*
X77500000Y-107485000D01*
G75*
G02*
X77650000Y-107335000I150000J0D01*
G01*
X79300000Y-107335000D01*
G75*
G02*
X79450000Y-107485000I0J-150000D01*
G01*
X79450000Y-107785000D01*
G75*
G02*
X79300000Y-107935000I-150000J0D01*
G01*
X77650000Y-107935000D01*
G75*
G02*
X77500000Y-107785000I0J150000D01*
G01*
G37*
G36*
G01*
X77500000Y-109055000D02*
X77500000Y-108755000D01*
G75*
G02*
X77650000Y-108605000I150000J0D01*
G01*
X79300000Y-108605000D01*
G75*
G02*
X79450000Y-108755000I0J-150000D01*
G01*
X79450000Y-109055000D01*
G75*
G02*
X79300000Y-109205000I-150000J0D01*
G01*
X77650000Y-109205000D01*
G75*
G02*
X77500000Y-109055000I0J150000D01*
G01*
G37*
G36*
G01*
X72550000Y-109055000D02*
X72550000Y-108755000D01*
G75*
G02*
X72700000Y-108605000I150000J0D01*
G01*
X74350000Y-108605000D01*
G75*
G02*
X74500000Y-108755000I0J-150000D01*
G01*
X74500000Y-109055000D01*
G75*
G02*
X74350000Y-109205000I-150000J0D01*
G01*
X72700000Y-109205000D01*
G75*
G02*
X72550000Y-109055000I0J150000D01*
G01*
G37*
G36*
G01*
X72550000Y-107785000D02*
X72550000Y-107485000D01*
G75*
G02*
X72700000Y-107335000I150000J0D01*
G01*
X74350000Y-107335000D01*
G75*
G02*
X74500000Y-107485000I0J-150000D01*
G01*
X74500000Y-107785000D01*
G75*
G02*
X74350000Y-107935000I-150000J0D01*
G01*
X72700000Y-107935000D01*
G75*
G02*
X72550000Y-107785000I0J150000D01*
G01*
G37*
G36*
G01*
X72550000Y-106515000D02*
X72550000Y-106215000D01*
G75*
G02*
X72700000Y-106065000I150000J0D01*
G01*
X74350000Y-106065000D01*
G75*
G02*
X74500000Y-106215000I0J-150000D01*
G01*
X74500000Y-106515000D01*
G75*
G02*
X74350000Y-106665000I-150000J0D01*
G01*
X72700000Y-106665000D01*
G75*
G02*
X72550000Y-106515000I0J150000D01*
G01*
G37*
G36*
G01*
X72550000Y-105245000D02*
X72550000Y-104945000D01*
G75*
G02*
X72700000Y-104795000I150000J0D01*
G01*
X74350000Y-104795000D01*
G75*
G02*
X74500000Y-104945000I0J-150000D01*
G01*
X74500000Y-105245000D01*
G75*
G02*
X74350000Y-105395000I-150000J0D01*
G01*
X72700000Y-105395000D01*
G75*
G02*
X72550000Y-105245000I0J150000D01*
G01*
G37*
%TD*%
%TO.C,U8*%
G36*
G01*
X98755000Y-107500000D02*
X99055000Y-107500000D01*
G75*
G02*
X99205000Y-107650000I0J-150000D01*
G01*
X99205000Y-109300000D01*
G75*
G02*
X99055000Y-109450000I-150000J0D01*
G01*
X98755000Y-109450000D01*
G75*
G02*
X98605000Y-109300000I0J150000D01*
G01*
X98605000Y-107650000D01*
G75*
G02*
X98755000Y-107500000I150000J0D01*
G01*
G37*
G36*
G01*
X97485000Y-107500000D02*
X97785000Y-107500000D01*
G75*
G02*
X97935000Y-107650000I0J-150000D01*
G01*
X97935000Y-109300000D01*
G75*
G02*
X97785000Y-109450000I-150000J0D01*
G01*
X97485000Y-109450000D01*
G75*
G02*
X97335000Y-109300000I0J150000D01*
G01*
X97335000Y-107650000D01*
G75*
G02*
X97485000Y-107500000I150000J0D01*
G01*
G37*
G36*
G01*
X96215000Y-107500000D02*
X96515000Y-107500000D01*
G75*
G02*
X96665000Y-107650000I0J-150000D01*
G01*
X96665000Y-109300000D01*
G75*
G02*
X96515000Y-109450000I-150000J0D01*
G01*
X96215000Y-109450000D01*
G75*
G02*
X96065000Y-109300000I0J150000D01*
G01*
X96065000Y-107650000D01*
G75*
G02*
X96215000Y-107500000I150000J0D01*
G01*
G37*
G36*
G01*
X94945000Y-107500000D02*
X95245000Y-107500000D01*
G75*
G02*
X95395000Y-107650000I0J-150000D01*
G01*
X95395000Y-109300000D01*
G75*
G02*
X95245000Y-109450000I-150000J0D01*
G01*
X94945000Y-109450000D01*
G75*
G02*
X94795000Y-109300000I0J150000D01*
G01*
X94795000Y-107650000D01*
G75*
G02*
X94945000Y-107500000I150000J0D01*
G01*
G37*
G36*
G01*
X94945000Y-102550000D02*
X95245000Y-102550000D01*
G75*
G02*
X95395000Y-102700000I0J-150000D01*
G01*
X95395000Y-104350000D01*
G75*
G02*
X95245000Y-104500000I-150000J0D01*
G01*
X94945000Y-104500000D01*
G75*
G02*
X94795000Y-104350000I0J150000D01*
G01*
X94795000Y-102700000D01*
G75*
G02*
X94945000Y-102550000I150000J0D01*
G01*
G37*
G36*
G01*
X96215000Y-102550000D02*
X96515000Y-102550000D01*
G75*
G02*
X96665000Y-102700000I0J-150000D01*
G01*
X96665000Y-104350000D01*
G75*
G02*
X96515000Y-104500000I-150000J0D01*
G01*
X96215000Y-104500000D01*
G75*
G02*
X96065000Y-104350000I0J150000D01*
G01*
X96065000Y-102700000D01*
G75*
G02*
X96215000Y-102550000I150000J0D01*
G01*
G37*
G36*
G01*
X97485000Y-102550000D02*
X97785000Y-102550000D01*
G75*
G02*
X97935000Y-102700000I0J-150000D01*
G01*
X97935000Y-104350000D01*
G75*
G02*
X97785000Y-104500000I-150000J0D01*
G01*
X97485000Y-104500000D01*
G75*
G02*
X97335000Y-104350000I0J150000D01*
G01*
X97335000Y-102700000D01*
G75*
G02*
X97485000Y-102550000I150000J0D01*
G01*
G37*
G36*
G01*
X98755000Y-102550000D02*
X99055000Y-102550000D01*
G75*
G02*
X99205000Y-102700000I0J-150000D01*
G01*
X99205000Y-104350000D01*
G75*
G02*
X99055000Y-104500000I-150000J0D01*
G01*
X98755000Y-104500000D01*
G75*
G02*
X98605000Y-104350000I0J150000D01*
G01*
X98605000Y-102700000D01*
G75*
G02*
X98755000Y-102550000I150000J0D01*
G01*
G37*
%TD*%
%TO.C,U7*%
G36*
G01*
X56745000Y-108500000D02*
X56445000Y-108500000D01*
G75*
G02*
X56295000Y-108350000I0J150000D01*
G01*
X56295000Y-106700000D01*
G75*
G02*
X56445000Y-106550000I150000J0D01*
G01*
X56745000Y-106550000D01*
G75*
G02*
X56895000Y-106700000I0J-150000D01*
G01*
X56895000Y-108350000D01*
G75*
G02*
X56745000Y-108500000I-150000J0D01*
G01*
G37*
G36*
G01*
X58015000Y-108500000D02*
X57715000Y-108500000D01*
G75*
G02*
X57565000Y-108350000I0J150000D01*
G01*
X57565000Y-106700000D01*
G75*
G02*
X57715000Y-106550000I150000J0D01*
G01*
X58015000Y-106550000D01*
G75*
G02*
X58165000Y-106700000I0J-150000D01*
G01*
X58165000Y-108350000D01*
G75*
G02*
X58015000Y-108500000I-150000J0D01*
G01*
G37*
G36*
G01*
X59285000Y-108500000D02*
X58985000Y-108500000D01*
G75*
G02*
X58835000Y-108350000I0J150000D01*
G01*
X58835000Y-106700000D01*
G75*
G02*
X58985000Y-106550000I150000J0D01*
G01*
X59285000Y-106550000D01*
G75*
G02*
X59435000Y-106700000I0J-150000D01*
G01*
X59435000Y-108350000D01*
G75*
G02*
X59285000Y-108500000I-150000J0D01*
G01*
G37*
G36*
G01*
X60555000Y-108500000D02*
X60255000Y-108500000D01*
G75*
G02*
X60105000Y-108350000I0J150000D01*
G01*
X60105000Y-106700000D01*
G75*
G02*
X60255000Y-106550000I150000J0D01*
G01*
X60555000Y-106550000D01*
G75*
G02*
X60705000Y-106700000I0J-150000D01*
G01*
X60705000Y-108350000D01*
G75*
G02*
X60555000Y-108500000I-150000J0D01*
G01*
G37*
G36*
G01*
X60555000Y-113450000D02*
X60255000Y-113450000D01*
G75*
G02*
X60105000Y-113300000I0J150000D01*
G01*
X60105000Y-111650000D01*
G75*
G02*
X60255000Y-111500000I150000J0D01*
G01*
X60555000Y-111500000D01*
G75*
G02*
X60705000Y-111650000I0J-150000D01*
G01*
X60705000Y-113300000D01*
G75*
G02*
X60555000Y-113450000I-150000J0D01*
G01*
G37*
G36*
G01*
X59285000Y-113450000D02*
X58985000Y-113450000D01*
G75*
G02*
X58835000Y-113300000I0J150000D01*
G01*
X58835000Y-111650000D01*
G75*
G02*
X58985000Y-111500000I150000J0D01*
G01*
X59285000Y-111500000D01*
G75*
G02*
X59435000Y-111650000I0J-150000D01*
G01*
X59435000Y-113300000D01*
G75*
G02*
X59285000Y-113450000I-150000J0D01*
G01*
G37*
G36*
G01*
X58015000Y-113450000D02*
X57715000Y-113450000D01*
G75*
G02*
X57565000Y-113300000I0J150000D01*
G01*
X57565000Y-111650000D01*
G75*
G02*
X57715000Y-111500000I150000J0D01*
G01*
X58015000Y-111500000D01*
G75*
G02*
X58165000Y-111650000I0J-150000D01*
G01*
X58165000Y-113300000D01*
G75*
G02*
X58015000Y-113450000I-150000J0D01*
G01*
G37*
G36*
G01*
X56745000Y-113450000D02*
X56445000Y-113450000D01*
G75*
G02*
X56295000Y-113300000I0J150000D01*
G01*
X56295000Y-111650000D01*
G75*
G02*
X56445000Y-111500000I150000J0D01*
G01*
X56745000Y-111500000D01*
G75*
G02*
X56895000Y-111650000I0J-150000D01*
G01*
X56895000Y-113300000D01*
G75*
G02*
X56745000Y-113450000I-150000J0D01*
G01*
G37*
%TD*%
%TO.C,U6*%
G36*
G01*
X44500000Y-104755000D02*
X44500000Y-105055000D01*
G75*
G02*
X44350000Y-105205000I-150000J0D01*
G01*
X42700000Y-105205000D01*
G75*
G02*
X42550000Y-105055000I0J150000D01*
G01*
X42550000Y-104755000D01*
G75*
G02*
X42700000Y-104605000I150000J0D01*
G01*
X44350000Y-104605000D01*
G75*
G02*
X44500000Y-104755000I0J-150000D01*
G01*
G37*
G36*
G01*
X44500000Y-103485000D02*
X44500000Y-103785000D01*
G75*
G02*
X44350000Y-103935000I-150000J0D01*
G01*
X42700000Y-103935000D01*
G75*
G02*
X42550000Y-103785000I0J150000D01*
G01*
X42550000Y-103485000D01*
G75*
G02*
X42700000Y-103335000I150000J0D01*
G01*
X44350000Y-103335000D01*
G75*
G02*
X44500000Y-103485000I0J-150000D01*
G01*
G37*
G36*
G01*
X44500000Y-102215000D02*
X44500000Y-102515000D01*
G75*
G02*
X44350000Y-102665000I-150000J0D01*
G01*
X42700000Y-102665000D01*
G75*
G02*
X42550000Y-102515000I0J150000D01*
G01*
X42550000Y-102215000D01*
G75*
G02*
X42700000Y-102065000I150000J0D01*
G01*
X44350000Y-102065000D01*
G75*
G02*
X44500000Y-102215000I0J-150000D01*
G01*
G37*
G36*
G01*
X44500000Y-100945000D02*
X44500000Y-101245000D01*
G75*
G02*
X44350000Y-101395000I-150000J0D01*
G01*
X42700000Y-101395000D01*
G75*
G02*
X42550000Y-101245000I0J150000D01*
G01*
X42550000Y-100945000D01*
G75*
G02*
X42700000Y-100795000I150000J0D01*
G01*
X44350000Y-100795000D01*
G75*
G02*
X44500000Y-100945000I0J-150000D01*
G01*
G37*
G36*
G01*
X49450000Y-100945000D02*
X49450000Y-101245000D01*
G75*
G02*
X49300000Y-101395000I-150000J0D01*
G01*
X47650000Y-101395000D01*
G75*
G02*
X47500000Y-101245000I0J150000D01*
G01*
X47500000Y-100945000D01*
G75*
G02*
X47650000Y-100795000I150000J0D01*
G01*
X49300000Y-100795000D01*
G75*
G02*
X49450000Y-100945000I0J-150000D01*
G01*
G37*
G36*
G01*
X49450000Y-102215000D02*
X49450000Y-102515000D01*
G75*
G02*
X49300000Y-102665000I-150000J0D01*
G01*
X47650000Y-102665000D01*
G75*
G02*
X47500000Y-102515000I0J150000D01*
G01*
X47500000Y-102215000D01*
G75*
G02*
X47650000Y-102065000I150000J0D01*
G01*
X49300000Y-102065000D01*
G75*
G02*
X49450000Y-102215000I0J-150000D01*
G01*
G37*
G36*
G01*
X49450000Y-103485000D02*
X49450000Y-103785000D01*
G75*
G02*
X49300000Y-103935000I-150000J0D01*
G01*
X47650000Y-103935000D01*
G75*
G02*
X47500000Y-103785000I0J150000D01*
G01*
X47500000Y-103485000D01*
G75*
G02*
X47650000Y-103335000I150000J0D01*
G01*
X49300000Y-103335000D01*
G75*
G02*
X49450000Y-103485000I0J-150000D01*
G01*
G37*
G36*
G01*
X49450000Y-104755000D02*
X49450000Y-105055000D01*
G75*
G02*
X49300000Y-105205000I-150000J0D01*
G01*
X47650000Y-105205000D01*
G75*
G02*
X47500000Y-105055000I0J150000D01*
G01*
X47500000Y-104755000D01*
G75*
G02*
X47650000Y-104605000I150000J0D01*
G01*
X49300000Y-104605000D01*
G75*
G02*
X49450000Y-104755000I0J-150000D01*
G01*
G37*
%TD*%
D27*
%TO.C,U1*%
X83000000Y-43600000D03*
X83950000Y-43600000D03*
X82050000Y-43600000D03*
X82050000Y-41400000D03*
X83000000Y-41400000D03*
X83950000Y-41400000D03*
%TD*%
D28*
%TO.C,SW2*%
X74500000Y-88500000D03*
X74500000Y-93000000D03*
X68000000Y-88500000D03*
X68000000Y-93000000D03*
%TD*%
%TO.C,SW1*%
X82000000Y-53500000D03*
X82000000Y-49000000D03*
X88500000Y-53500000D03*
X88500000Y-49000000D03*
%TD*%
%TO.C,RV9*%
G36*
G01*
X36512500Y-34549999D02*
X36512500Y-35450001D01*
G75*
G02*
X36262501Y-35700000I-249999J0D01*
G01*
X35737499Y-35700000D01*
G75*
G02*
X35487500Y-35450001I0J249999D01*
G01*
X35487500Y-34549999D01*
G75*
G02*
X35737499Y-34300000I249999J0D01*
G01*
X36262501Y-34300000D01*
G75*
G02*
X36512500Y-34549999I0J-249999D01*
G01*
G37*
G36*
G01*
X38337500Y-34549999D02*
X38337500Y-35450001D01*
G75*
G02*
X38087501Y-35700000I-249999J0D01*
G01*
X37562499Y-35700000D01*
G75*
G02*
X37312500Y-35450001I0J249999D01*
G01*
X37312500Y-34549999D01*
G75*
G02*
X37562499Y-34300000I249999J0D01*
G01*
X38087501Y-34300000D01*
G75*
G02*
X38337500Y-34549999I0J-249999D01*
G01*
G37*
%TD*%
%TO.C,RV8*%
G36*
G01*
X36512500Y-50549999D02*
X36512500Y-51450001D01*
G75*
G02*
X36262501Y-51700000I-249999J0D01*
G01*
X35737499Y-51700000D01*
G75*
G02*
X35487500Y-51450001I0J249999D01*
G01*
X35487500Y-50549999D01*
G75*
G02*
X35737499Y-50300000I249999J0D01*
G01*
X36262501Y-50300000D01*
G75*
G02*
X36512500Y-50549999I0J-249999D01*
G01*
G37*
G36*
G01*
X38337500Y-50549999D02*
X38337500Y-51450001D01*
G75*
G02*
X38087501Y-51700000I-249999J0D01*
G01*
X37562499Y-51700000D01*
G75*
G02*
X37312500Y-51450001I0J249999D01*
G01*
X37312500Y-50549999D01*
G75*
G02*
X37562499Y-50300000I249999J0D01*
G01*
X38087501Y-50300000D01*
G75*
G02*
X38337500Y-50549999I0J-249999D01*
G01*
G37*
%TD*%
%TO.C,RV7*%
G36*
G01*
X36512500Y-66549999D02*
X36512500Y-67450001D01*
G75*
G02*
X36262501Y-67700000I-249999J0D01*
G01*
X35737499Y-67700000D01*
G75*
G02*
X35487500Y-67450001I0J249999D01*
G01*
X35487500Y-66549999D01*
G75*
G02*
X35737499Y-66300000I249999J0D01*
G01*
X36262501Y-66300000D01*
G75*
G02*
X36512500Y-66549999I0J-249999D01*
G01*
G37*
G36*
G01*
X38337500Y-66549999D02*
X38337500Y-67450001D01*
G75*
G02*
X38087501Y-67700000I-249999J0D01*
G01*
X37562499Y-67700000D01*
G75*
G02*
X37312500Y-67450001I0J249999D01*
G01*
X37312500Y-66549999D01*
G75*
G02*
X37562499Y-66300000I249999J0D01*
G01*
X38087501Y-66300000D01*
G75*
G02*
X38337500Y-66549999I0J-249999D01*
G01*
G37*
%TD*%
%TO.C,RV6*%
G36*
G01*
X36512500Y-26549999D02*
X36512500Y-27450001D01*
G75*
G02*
X36262501Y-27700000I-249999J0D01*
G01*
X35737499Y-27700000D01*
G75*
G02*
X35487500Y-27450001I0J249999D01*
G01*
X35487500Y-26549999D01*
G75*
G02*
X35737499Y-26300000I249999J0D01*
G01*
X36262501Y-26300000D01*
G75*
G02*
X36512500Y-26549999I0J-249999D01*
G01*
G37*
G36*
G01*
X38337500Y-26549999D02*
X38337500Y-27450001D01*
G75*
G02*
X38087501Y-27700000I-249999J0D01*
G01*
X37562499Y-27700000D01*
G75*
G02*
X37312500Y-27450001I0J249999D01*
G01*
X37312500Y-26549999D01*
G75*
G02*
X37562499Y-26300000I249999J0D01*
G01*
X38087501Y-26300000D01*
G75*
G02*
X38337500Y-26549999I0J-249999D01*
G01*
G37*
%TD*%
%TO.C,RV5*%
G36*
G01*
X36512500Y-58549999D02*
X36512500Y-59450001D01*
G75*
G02*
X36262501Y-59700000I-249999J0D01*
G01*
X35737499Y-59700000D01*
G75*
G02*
X35487500Y-59450001I0J249999D01*
G01*
X35487500Y-58549999D01*
G75*
G02*
X35737499Y-58300000I249999J0D01*
G01*
X36262501Y-58300000D01*
G75*
G02*
X36512500Y-58549999I0J-249999D01*
G01*
G37*
G36*
G01*
X38337500Y-58549999D02*
X38337500Y-59450001D01*
G75*
G02*
X38087501Y-59700000I-249999J0D01*
G01*
X37562499Y-59700000D01*
G75*
G02*
X37312500Y-59450001I0J249999D01*
G01*
X37312500Y-58549999D01*
G75*
G02*
X37562499Y-58300000I249999J0D01*
G01*
X38087501Y-58300000D01*
G75*
G02*
X38337500Y-58549999I0J-249999D01*
G01*
G37*
%TD*%
%TO.C,RV4*%
G36*
G01*
X36512500Y-42549999D02*
X36512500Y-43450001D01*
G75*
G02*
X36262501Y-43700000I-249999J0D01*
G01*
X35737499Y-43700000D01*
G75*
G02*
X35487500Y-43450001I0J249999D01*
G01*
X35487500Y-42549999D01*
G75*
G02*
X35737499Y-42300000I249999J0D01*
G01*
X36262501Y-42300000D01*
G75*
G02*
X36512500Y-42549999I0J-249999D01*
G01*
G37*
G36*
G01*
X38337500Y-42549999D02*
X38337500Y-43450001D01*
G75*
G02*
X38087501Y-43700000I-249999J0D01*
G01*
X37562499Y-43700000D01*
G75*
G02*
X37312500Y-43450001I0J249999D01*
G01*
X37312500Y-42549999D01*
G75*
G02*
X37562499Y-42300000I249999J0D01*
G01*
X38087501Y-42300000D01*
G75*
G02*
X38337500Y-42549999I0J-249999D01*
G01*
G37*
%TD*%
D29*
%TO.C,RV3*%
X88000000Y-103920000D03*
X88000000Y-106460000D03*
X88000000Y-109000000D03*
%TD*%
%TO.C,RV2*%
G36*
G01*
X44012500Y-117049999D02*
X44012500Y-117950001D01*
G75*
G02*
X43762501Y-118200000I-249999J0D01*
G01*
X43237499Y-118200000D01*
G75*
G02*
X42987500Y-117950001I0J249999D01*
G01*
X42987500Y-117049999D01*
G75*
G02*
X43237499Y-116800000I249999J0D01*
G01*
X43762501Y-116800000D01*
G75*
G02*
X44012500Y-117049999I0J-249999D01*
G01*
G37*
G36*
G01*
X45837500Y-117049999D02*
X45837500Y-117950001D01*
G75*
G02*
X45587501Y-118200000I-249999J0D01*
G01*
X45062499Y-118200000D01*
G75*
G02*
X44812500Y-117950001I0J249999D01*
G01*
X44812500Y-117049999D01*
G75*
G02*
X45062499Y-116800000I249999J0D01*
G01*
X45587501Y-116800000D01*
G75*
G02*
X45837500Y-117049999I0J-249999D01*
G01*
G37*
%TD*%
%TO.C,RV1*%
G36*
G01*
X70812500Y-31450001D02*
X70812500Y-30549999D01*
G75*
G02*
X71062499Y-30300000I249999J0D01*
G01*
X71587501Y-30300000D01*
G75*
G02*
X71837500Y-30549999I0J-249999D01*
G01*
X71837500Y-31450001D01*
G75*
G02*
X71587501Y-31700000I-249999J0D01*
G01*
X71062499Y-31700000D01*
G75*
G02*
X70812500Y-31450001I0J249999D01*
G01*
G37*
G36*
G01*
X68987500Y-31450001D02*
X68987500Y-30549999D01*
G75*
G02*
X69237499Y-30300000I249999J0D01*
G01*
X69762501Y-30300000D01*
G75*
G02*
X70012500Y-30549999I0J-249999D01*
G01*
X70012500Y-31450001D01*
G75*
G02*
X69762501Y-31700000I-249999J0D01*
G01*
X69237499Y-31700000D01*
G75*
G02*
X68987500Y-31450001I0J249999D01*
G01*
G37*
%TD*%
%TO.C,R66*%
G36*
G01*
X104487500Y-101950001D02*
X104487500Y-101049999D01*
G75*
G02*
X104737499Y-100800000I249999J0D01*
G01*
X105262501Y-100800000D01*
G75*
G02*
X105512500Y-101049999I0J-249999D01*
G01*
X105512500Y-101950001D01*
G75*
G02*
X105262501Y-102200000I-249999J0D01*
G01*
X104737499Y-102200000D01*
G75*
G02*
X104487500Y-101950001I0J249999D01*
G01*
G37*
G36*
G01*
X102662500Y-101950001D02*
X102662500Y-101049999D01*
G75*
G02*
X102912499Y-100800000I249999J0D01*
G01*
X103437501Y-100800000D01*
G75*
G02*
X103687500Y-101049999I0J-249999D01*
G01*
X103687500Y-101950001D01*
G75*
G02*
X103437501Y-102200000I-249999J0D01*
G01*
X102912499Y-102200000D01*
G75*
G02*
X102662500Y-101950001I0J249999D01*
G01*
G37*
%TD*%
%TO.C,R65*%
G36*
G01*
X104487500Y-99450001D02*
X104487500Y-98549999D01*
G75*
G02*
X104737499Y-98300000I249999J0D01*
G01*
X105262501Y-98300000D01*
G75*
G02*
X105512500Y-98549999I0J-249999D01*
G01*
X105512500Y-99450001D01*
G75*
G02*
X105262501Y-99700000I-249999J0D01*
G01*
X104737499Y-99700000D01*
G75*
G02*
X104487500Y-99450001I0J249999D01*
G01*
G37*
G36*
G01*
X102662500Y-99450001D02*
X102662500Y-98549999D01*
G75*
G02*
X102912499Y-98300000I249999J0D01*
G01*
X103437501Y-98300000D01*
G75*
G02*
X103687500Y-98549999I0J-249999D01*
G01*
X103687500Y-99450001D01*
G75*
G02*
X103437501Y-99700000I-249999J0D01*
G01*
X102912499Y-99700000D01*
G75*
G02*
X102662500Y-99450001I0J249999D01*
G01*
G37*
%TD*%
%TO.C,R64*%
G36*
G01*
X104487500Y-96950001D02*
X104487500Y-96049999D01*
G75*
G02*
X104737499Y-95800000I249999J0D01*
G01*
X105262501Y-95800000D01*
G75*
G02*
X105512500Y-96049999I0J-249999D01*
G01*
X105512500Y-96950001D01*
G75*
G02*
X105262501Y-97200000I-249999J0D01*
G01*
X104737499Y-97200000D01*
G75*
G02*
X104487500Y-96950001I0J249999D01*
G01*
G37*
G36*
G01*
X102662500Y-96950001D02*
X102662500Y-96049999D01*
G75*
G02*
X102912499Y-95800000I249999J0D01*
G01*
X103437501Y-95800000D01*
G75*
G02*
X103687500Y-96049999I0J-249999D01*
G01*
X103687500Y-96950001D01*
G75*
G02*
X103437501Y-97200000I-249999J0D01*
G01*
X102912499Y-97200000D01*
G75*
G02*
X102662500Y-96950001I0J249999D01*
G01*
G37*
%TD*%
%TO.C,R63*%
G36*
G01*
X61049999Y-49487500D02*
X61950001Y-49487500D01*
G75*
G02*
X62200000Y-49737499I0J-249999D01*
G01*
X62200000Y-50262501D01*
G75*
G02*
X61950001Y-50512500I-249999J0D01*
G01*
X61049999Y-50512500D01*
G75*
G02*
X60800000Y-50262501I0J249999D01*
G01*
X60800000Y-49737499D01*
G75*
G02*
X61049999Y-49487500I249999J0D01*
G01*
G37*
G36*
G01*
X61049999Y-47662500D02*
X61950001Y-47662500D01*
G75*
G02*
X62200000Y-47912499I0J-249999D01*
G01*
X62200000Y-48437501D01*
G75*
G02*
X61950001Y-48687500I-249999J0D01*
G01*
X61049999Y-48687500D01*
G75*
G02*
X60800000Y-48437501I0J249999D01*
G01*
X60800000Y-47912499D01*
G75*
G02*
X61049999Y-47662500I249999J0D01*
G01*
G37*
%TD*%
%TO.C,R62*%
G36*
G01*
X64549999Y-49487500D02*
X65450001Y-49487500D01*
G75*
G02*
X65700000Y-49737499I0J-249999D01*
G01*
X65700000Y-50262501D01*
G75*
G02*
X65450001Y-50512500I-249999J0D01*
G01*
X64549999Y-50512500D01*
G75*
G02*
X64300000Y-50262501I0J249999D01*
G01*
X64300000Y-49737499D01*
G75*
G02*
X64549999Y-49487500I249999J0D01*
G01*
G37*
G36*
G01*
X64549999Y-47662500D02*
X65450001Y-47662500D01*
G75*
G02*
X65700000Y-47912499I0J-249999D01*
G01*
X65700000Y-48437501D01*
G75*
G02*
X65450001Y-48687500I-249999J0D01*
G01*
X64549999Y-48687500D01*
G75*
G02*
X64300000Y-48437501I0J249999D01*
G01*
X64300000Y-47912499D01*
G75*
G02*
X64549999Y-47662500I249999J0D01*
G01*
G37*
%TD*%
%TO.C,R61*%
G36*
G01*
X97049999Y-55487500D02*
X97950001Y-55487500D01*
G75*
G02*
X98200000Y-55737499I0J-249999D01*
G01*
X98200000Y-56262501D01*
G75*
G02*
X97950001Y-56512500I-249999J0D01*
G01*
X97049999Y-56512500D01*
G75*
G02*
X96800000Y-56262501I0J249999D01*
G01*
X96800000Y-55737499D01*
G75*
G02*
X97049999Y-55487500I249999J0D01*
G01*
G37*
G36*
G01*
X97049999Y-53662500D02*
X97950001Y-53662500D01*
G75*
G02*
X98200000Y-53912499I0J-249999D01*
G01*
X98200000Y-54437501D01*
G75*
G02*
X97950001Y-54687500I-249999J0D01*
G01*
X97049999Y-54687500D01*
G75*
G02*
X96800000Y-54437501I0J249999D01*
G01*
X96800000Y-53912499D01*
G75*
G02*
X97049999Y-53662500I249999J0D01*
G01*
G37*
%TD*%
%TO.C,R60*%
G36*
G01*
X97049999Y-48987500D02*
X97950001Y-48987500D01*
G75*
G02*
X98200000Y-49237499I0J-249999D01*
G01*
X98200000Y-49762501D01*
G75*
G02*
X97950001Y-50012500I-249999J0D01*
G01*
X97049999Y-50012500D01*
G75*
G02*
X96800000Y-49762501I0J249999D01*
G01*
X96800000Y-49237499D01*
G75*
G02*
X97049999Y-48987500I249999J0D01*
G01*
G37*
G36*
G01*
X97049999Y-47162500D02*
X97950001Y-47162500D01*
G75*
G02*
X98200000Y-47412499I0J-249999D01*
G01*
X98200000Y-47937501D01*
G75*
G02*
X97950001Y-48187500I-249999J0D01*
G01*
X97049999Y-48187500D01*
G75*
G02*
X96800000Y-47937501I0J249999D01*
G01*
X96800000Y-47412499D01*
G75*
G02*
X97049999Y-47162500I249999J0D01*
G01*
G37*
%TD*%
%TO.C,R59*%
G36*
G01*
X66687500Y-56549999D02*
X66687500Y-57450001D01*
G75*
G02*
X66437501Y-57700000I-249999J0D01*
G01*
X65912499Y-57700000D01*
G75*
G02*
X65662500Y-57450001I0J249999D01*
G01*
X65662500Y-56549999D01*
G75*
G02*
X65912499Y-56300000I249999J0D01*
G01*
X66437501Y-56300000D01*
G75*
G02*
X66687500Y-56549999I0J-249999D01*
G01*
G37*
G36*
G01*
X68512500Y-56549999D02*
X68512500Y-57450001D01*
G75*
G02*
X68262501Y-57700000I-249999J0D01*
G01*
X67737499Y-57700000D01*
G75*
G02*
X67487500Y-57450001I0J249999D01*
G01*
X67487500Y-56549999D01*
G75*
G02*
X67737499Y-56300000I249999J0D01*
G01*
X68262501Y-56300000D01*
G75*
G02*
X68512500Y-56549999I0J-249999D01*
G01*
G37*
%TD*%
%TO.C,R58*%
G36*
G01*
X97049999Y-42487500D02*
X97950001Y-42487500D01*
G75*
G02*
X98200000Y-42737499I0J-249999D01*
G01*
X98200000Y-43262501D01*
G75*
G02*
X97950001Y-43512500I-249999J0D01*
G01*
X97049999Y-43512500D01*
G75*
G02*
X96800000Y-43262501I0J249999D01*
G01*
X96800000Y-42737499D01*
G75*
G02*
X97049999Y-42487500I249999J0D01*
G01*
G37*
G36*
G01*
X97049999Y-40662500D02*
X97950001Y-40662500D01*
G75*
G02*
X98200000Y-40912499I0J-249999D01*
G01*
X98200000Y-41437501D01*
G75*
G02*
X97950001Y-41687500I-249999J0D01*
G01*
X97049999Y-41687500D01*
G75*
G02*
X96800000Y-41437501I0J249999D01*
G01*
X96800000Y-40912499D01*
G75*
G02*
X97049999Y-40662500I249999J0D01*
G01*
G37*
%TD*%
%TO.C,R57*%
G36*
G01*
X67549999Y-84487500D02*
X68450001Y-84487500D01*
G75*
G02*
X68700000Y-84737499I0J-249999D01*
G01*
X68700000Y-85262501D01*
G75*
G02*
X68450001Y-85512500I-249999J0D01*
G01*
X67549999Y-85512500D01*
G75*
G02*
X67300000Y-85262501I0J249999D01*
G01*
X67300000Y-84737499D01*
G75*
G02*
X67549999Y-84487500I249999J0D01*
G01*
G37*
G36*
G01*
X67549999Y-82662500D02*
X68450001Y-82662500D01*
G75*
G02*
X68700000Y-82912499I0J-249999D01*
G01*
X68700000Y-83437501D01*
G75*
G02*
X68450001Y-83687500I-249999J0D01*
G01*
X67549999Y-83687500D01*
G75*
G02*
X67300000Y-83437501I0J249999D01*
G01*
X67300000Y-82912499D01*
G75*
G02*
X67549999Y-82662500I249999J0D01*
G01*
G37*
%TD*%
%TO.C,R56*%
G36*
G01*
X54450001Y-68512500D02*
X53549999Y-68512500D01*
G75*
G02*
X53300000Y-68262501I0J249999D01*
G01*
X53300000Y-67737499D01*
G75*
G02*
X53549999Y-67487500I249999J0D01*
G01*
X54450001Y-67487500D01*
G75*
G02*
X54700000Y-67737499I0J-249999D01*
G01*
X54700000Y-68262501D01*
G75*
G02*
X54450001Y-68512500I-249999J0D01*
G01*
G37*
G36*
G01*
X54450001Y-70337500D02*
X53549999Y-70337500D01*
G75*
G02*
X53300000Y-70087501I0J249999D01*
G01*
X53300000Y-69562499D01*
G75*
G02*
X53549999Y-69312500I249999J0D01*
G01*
X54450001Y-69312500D01*
G75*
G02*
X54700000Y-69562499I0J-249999D01*
G01*
X54700000Y-70087501D01*
G75*
G02*
X54450001Y-70337500I-249999J0D01*
G01*
G37*
%TD*%
%TO.C,R55*%
G36*
G01*
X97049999Y-35987500D02*
X97950001Y-35987500D01*
G75*
G02*
X98200000Y-36237499I0J-249999D01*
G01*
X98200000Y-36762501D01*
G75*
G02*
X97950001Y-37012500I-249999J0D01*
G01*
X97049999Y-37012500D01*
G75*
G02*
X96800000Y-36762501I0J249999D01*
G01*
X96800000Y-36237499D01*
G75*
G02*
X97049999Y-35987500I249999J0D01*
G01*
G37*
G36*
G01*
X97049999Y-34162500D02*
X97950001Y-34162500D01*
G75*
G02*
X98200000Y-34412499I0J-249999D01*
G01*
X98200000Y-34937501D01*
G75*
G02*
X97950001Y-35187500I-249999J0D01*
G01*
X97049999Y-35187500D01*
G75*
G02*
X96800000Y-34937501I0J249999D01*
G01*
X96800000Y-34412499D01*
G75*
G02*
X97049999Y-34162500I249999J0D01*
G01*
G37*
%TD*%
%TO.C,R54*%
G36*
G01*
X97049999Y-29637500D02*
X97950001Y-29637500D01*
G75*
G02*
X98200000Y-29887499I0J-249999D01*
G01*
X98200000Y-30412501D01*
G75*
G02*
X97950001Y-30662500I-249999J0D01*
G01*
X97049999Y-30662500D01*
G75*
G02*
X96800000Y-30412501I0J249999D01*
G01*
X96800000Y-29887499D01*
G75*
G02*
X97049999Y-29637500I249999J0D01*
G01*
G37*
G36*
G01*
X97049999Y-27812500D02*
X97950001Y-27812500D01*
G75*
G02*
X98200000Y-28062499I0J-249999D01*
G01*
X98200000Y-28587501D01*
G75*
G02*
X97950001Y-28837500I-249999J0D01*
G01*
X97049999Y-28837500D01*
G75*
G02*
X96800000Y-28587501I0J249999D01*
G01*
X96800000Y-28062499D01*
G75*
G02*
X97049999Y-27812500I249999J0D01*
G01*
G37*
%TD*%
%TO.C,R53*%
G36*
G01*
X57950001Y-68512500D02*
X57049999Y-68512500D01*
G75*
G02*
X56800000Y-68262501I0J249999D01*
G01*
X56800000Y-67737499D01*
G75*
G02*
X57049999Y-67487500I249999J0D01*
G01*
X57950001Y-67487500D01*
G75*
G02*
X58200000Y-67737499I0J-249999D01*
G01*
X58200000Y-68262501D01*
G75*
G02*
X57950001Y-68512500I-249999J0D01*
G01*
G37*
G36*
G01*
X57950001Y-70337500D02*
X57049999Y-70337500D01*
G75*
G02*
X56800000Y-70087501I0J249999D01*
G01*
X56800000Y-69562499D01*
G75*
G02*
X57049999Y-69312500I249999J0D01*
G01*
X57950001Y-69312500D01*
G75*
G02*
X58200000Y-69562499I0J-249999D01*
G01*
X58200000Y-70087501D01*
G75*
G02*
X57950001Y-70337500I-249999J0D01*
G01*
G37*
%TD*%
%TO.C,R52*%
G36*
G01*
X78049999Y-53487500D02*
X78950001Y-53487500D01*
G75*
G02*
X79200000Y-53737499I0J-249999D01*
G01*
X79200000Y-54262501D01*
G75*
G02*
X78950001Y-54512500I-249999J0D01*
G01*
X78049999Y-54512500D01*
G75*
G02*
X77800000Y-54262501I0J249999D01*
G01*
X77800000Y-53737499D01*
G75*
G02*
X78049999Y-53487500I249999J0D01*
G01*
G37*
G36*
G01*
X78049999Y-51662500D02*
X78950001Y-51662500D01*
G75*
G02*
X79200000Y-51912499I0J-249999D01*
G01*
X79200000Y-52437501D01*
G75*
G02*
X78950001Y-52687500I-249999J0D01*
G01*
X78049999Y-52687500D01*
G75*
G02*
X77800000Y-52437501I0J249999D01*
G01*
X77800000Y-51912499D01*
G75*
G02*
X78049999Y-51662500I249999J0D01*
G01*
G37*
%TD*%
%TO.C,R51*%
G36*
G01*
X42487500Y-32450001D02*
X42487500Y-31549999D01*
G75*
G02*
X42737499Y-31300000I249999J0D01*
G01*
X43262501Y-31300000D01*
G75*
G02*
X43512500Y-31549999I0J-249999D01*
G01*
X43512500Y-32450001D01*
G75*
G02*
X43262501Y-32700000I-249999J0D01*
G01*
X42737499Y-32700000D01*
G75*
G02*
X42487500Y-32450001I0J249999D01*
G01*
G37*
G36*
G01*
X40662500Y-32450001D02*
X40662500Y-31549999D01*
G75*
G02*
X40912499Y-31300000I249999J0D01*
G01*
X41437501Y-31300000D01*
G75*
G02*
X41687500Y-31549999I0J-249999D01*
G01*
X41687500Y-32450001D01*
G75*
G02*
X41437501Y-32700000I-249999J0D01*
G01*
X40912499Y-32700000D01*
G75*
G02*
X40662500Y-32450001I0J249999D01*
G01*
G37*
%TD*%
%TO.C,R50*%
G36*
G01*
X36512500Y-31549999D02*
X36512500Y-32450001D01*
G75*
G02*
X36262501Y-32700000I-249999J0D01*
G01*
X35737499Y-32700000D01*
G75*
G02*
X35487500Y-32450001I0J249999D01*
G01*
X35487500Y-31549999D01*
G75*
G02*
X35737499Y-31300000I249999J0D01*
G01*
X36262501Y-31300000D01*
G75*
G02*
X36512500Y-31549999I0J-249999D01*
G01*
G37*
G36*
G01*
X38337500Y-31549999D02*
X38337500Y-32450001D01*
G75*
G02*
X38087501Y-32700000I-249999J0D01*
G01*
X37562499Y-32700000D01*
G75*
G02*
X37312500Y-32450001I0J249999D01*
G01*
X37312500Y-31549999D01*
G75*
G02*
X37562499Y-31300000I249999J0D01*
G01*
X38087501Y-31300000D01*
G75*
G02*
X38337500Y-31549999I0J-249999D01*
G01*
G37*
%TD*%
%TO.C,R49*%
G36*
G01*
X42487500Y-48450001D02*
X42487500Y-47549999D01*
G75*
G02*
X42737499Y-47300000I249999J0D01*
G01*
X43262501Y-47300000D01*
G75*
G02*
X43512500Y-47549999I0J-249999D01*
G01*
X43512500Y-48450001D01*
G75*
G02*
X43262501Y-48700000I-249999J0D01*
G01*
X42737499Y-48700000D01*
G75*
G02*
X42487500Y-48450001I0J249999D01*
G01*
G37*
G36*
G01*
X40662500Y-48450001D02*
X40662500Y-47549999D01*
G75*
G02*
X40912499Y-47300000I249999J0D01*
G01*
X41437501Y-47300000D01*
G75*
G02*
X41687500Y-47549999I0J-249999D01*
G01*
X41687500Y-48450001D01*
G75*
G02*
X41437501Y-48700000I-249999J0D01*
G01*
X40912499Y-48700000D01*
G75*
G02*
X40662500Y-48450001I0J249999D01*
G01*
G37*
%TD*%
%TO.C,R48*%
G36*
G01*
X36512500Y-47549999D02*
X36512500Y-48450001D01*
G75*
G02*
X36262501Y-48700000I-249999J0D01*
G01*
X35737499Y-48700000D01*
G75*
G02*
X35487500Y-48450001I0J249999D01*
G01*
X35487500Y-47549999D01*
G75*
G02*
X35737499Y-47300000I249999J0D01*
G01*
X36262501Y-47300000D01*
G75*
G02*
X36512500Y-47549999I0J-249999D01*
G01*
G37*
G36*
G01*
X38337500Y-47549999D02*
X38337500Y-48450001D01*
G75*
G02*
X38087501Y-48700000I-249999J0D01*
G01*
X37562499Y-48700000D01*
G75*
G02*
X37312500Y-48450001I0J249999D01*
G01*
X37312500Y-47549999D01*
G75*
G02*
X37562499Y-47300000I249999J0D01*
G01*
X38087501Y-47300000D01*
G75*
G02*
X38337500Y-47549999I0J-249999D01*
G01*
G37*
%TD*%
%TO.C,R47*%
G36*
G01*
X42487500Y-64450001D02*
X42487500Y-63549999D01*
G75*
G02*
X42737499Y-63300000I249999J0D01*
G01*
X43262501Y-63300000D01*
G75*
G02*
X43512500Y-63549999I0J-249999D01*
G01*
X43512500Y-64450001D01*
G75*
G02*
X43262501Y-64700000I-249999J0D01*
G01*
X42737499Y-64700000D01*
G75*
G02*
X42487500Y-64450001I0J249999D01*
G01*
G37*
G36*
G01*
X40662500Y-64450001D02*
X40662500Y-63549999D01*
G75*
G02*
X40912499Y-63300000I249999J0D01*
G01*
X41437501Y-63300000D01*
G75*
G02*
X41687500Y-63549999I0J-249999D01*
G01*
X41687500Y-64450001D01*
G75*
G02*
X41437501Y-64700000I-249999J0D01*
G01*
X40912499Y-64700000D01*
G75*
G02*
X40662500Y-64450001I0J249999D01*
G01*
G37*
%TD*%
%TO.C,R46*%
G36*
G01*
X36512500Y-63549999D02*
X36512500Y-64450001D01*
G75*
G02*
X36262501Y-64700000I-249999J0D01*
G01*
X35737499Y-64700000D01*
G75*
G02*
X35487500Y-64450001I0J249999D01*
G01*
X35487500Y-63549999D01*
G75*
G02*
X35737499Y-63300000I249999J0D01*
G01*
X36262501Y-63300000D01*
G75*
G02*
X36512500Y-63549999I0J-249999D01*
G01*
G37*
G36*
G01*
X38337500Y-63549999D02*
X38337500Y-64450001D01*
G75*
G02*
X38087501Y-64700000I-249999J0D01*
G01*
X37562499Y-64700000D01*
G75*
G02*
X37312500Y-64450001I0J249999D01*
G01*
X37312500Y-63549999D01*
G75*
G02*
X37562499Y-63300000I249999J0D01*
G01*
X38087501Y-63300000D01*
G75*
G02*
X38337500Y-63549999I0J-249999D01*
G01*
G37*
%TD*%
%TO.C,R45*%
G36*
G01*
X42312500Y-24450001D02*
X42312500Y-23549999D01*
G75*
G02*
X42562499Y-23300000I249999J0D01*
G01*
X43087501Y-23300000D01*
G75*
G02*
X43337500Y-23549999I0J-249999D01*
G01*
X43337500Y-24450001D01*
G75*
G02*
X43087501Y-24700000I-249999J0D01*
G01*
X42562499Y-24700000D01*
G75*
G02*
X42312500Y-24450001I0J249999D01*
G01*
G37*
G36*
G01*
X40487500Y-24450001D02*
X40487500Y-23549999D01*
G75*
G02*
X40737499Y-23300000I249999J0D01*
G01*
X41262501Y-23300000D01*
G75*
G02*
X41512500Y-23549999I0J-249999D01*
G01*
X41512500Y-24450001D01*
G75*
G02*
X41262501Y-24700000I-249999J0D01*
G01*
X40737499Y-24700000D01*
G75*
G02*
X40487500Y-24450001I0J249999D01*
G01*
G37*
%TD*%
%TO.C,R44*%
G36*
G01*
X36512500Y-23549999D02*
X36512500Y-24450001D01*
G75*
G02*
X36262501Y-24700000I-249999J0D01*
G01*
X35737499Y-24700000D01*
G75*
G02*
X35487500Y-24450001I0J249999D01*
G01*
X35487500Y-23549999D01*
G75*
G02*
X35737499Y-23300000I249999J0D01*
G01*
X36262501Y-23300000D01*
G75*
G02*
X36512500Y-23549999I0J-249999D01*
G01*
G37*
G36*
G01*
X38337500Y-23549999D02*
X38337500Y-24450001D01*
G75*
G02*
X38087501Y-24700000I-249999J0D01*
G01*
X37562499Y-24700000D01*
G75*
G02*
X37312500Y-24450001I0J249999D01*
G01*
X37312500Y-23549999D01*
G75*
G02*
X37562499Y-23300000I249999J0D01*
G01*
X38087501Y-23300000D01*
G75*
G02*
X38337500Y-23549999I0J-249999D01*
G01*
G37*
%TD*%
%TO.C,R43*%
G36*
G01*
X42487500Y-56450001D02*
X42487500Y-55549999D01*
G75*
G02*
X42737499Y-55300000I249999J0D01*
G01*
X43262501Y-55300000D01*
G75*
G02*
X43512500Y-55549999I0J-249999D01*
G01*
X43512500Y-56450001D01*
G75*
G02*
X43262501Y-56700000I-249999J0D01*
G01*
X42737499Y-56700000D01*
G75*
G02*
X42487500Y-56450001I0J249999D01*
G01*
G37*
G36*
G01*
X40662500Y-56450001D02*
X40662500Y-55549999D01*
G75*
G02*
X40912499Y-55300000I249999J0D01*
G01*
X41437501Y-55300000D01*
G75*
G02*
X41687500Y-55549999I0J-249999D01*
G01*
X41687500Y-56450001D01*
G75*
G02*
X41437501Y-56700000I-249999J0D01*
G01*
X40912499Y-56700000D01*
G75*
G02*
X40662500Y-56450001I0J249999D01*
G01*
G37*
%TD*%
%TO.C,R42*%
G36*
G01*
X36512500Y-55549999D02*
X36512500Y-56450001D01*
G75*
G02*
X36262501Y-56700000I-249999J0D01*
G01*
X35737499Y-56700000D01*
G75*
G02*
X35487500Y-56450001I0J249999D01*
G01*
X35487500Y-55549999D01*
G75*
G02*
X35737499Y-55300000I249999J0D01*
G01*
X36262501Y-55300000D01*
G75*
G02*
X36512500Y-55549999I0J-249999D01*
G01*
G37*
G36*
G01*
X38337500Y-55549999D02*
X38337500Y-56450001D01*
G75*
G02*
X38087501Y-56700000I-249999J0D01*
G01*
X37562499Y-56700000D01*
G75*
G02*
X37312500Y-56450001I0J249999D01*
G01*
X37312500Y-55549999D01*
G75*
G02*
X37562499Y-55300000I249999J0D01*
G01*
X38087501Y-55300000D01*
G75*
G02*
X38337500Y-55549999I0J-249999D01*
G01*
G37*
%TD*%
%TO.C,R41*%
G36*
G01*
X42487500Y-40450001D02*
X42487500Y-39549999D01*
G75*
G02*
X42737499Y-39300000I249999J0D01*
G01*
X43262501Y-39300000D01*
G75*
G02*
X43512500Y-39549999I0J-249999D01*
G01*
X43512500Y-40450001D01*
G75*
G02*
X43262501Y-40700000I-249999J0D01*
G01*
X42737499Y-40700000D01*
G75*
G02*
X42487500Y-40450001I0J249999D01*
G01*
G37*
G36*
G01*
X40662500Y-40450001D02*
X40662500Y-39549999D01*
G75*
G02*
X40912499Y-39300000I249999J0D01*
G01*
X41437501Y-39300000D01*
G75*
G02*
X41687500Y-39549999I0J-249999D01*
G01*
X41687500Y-40450001D01*
G75*
G02*
X41437501Y-40700000I-249999J0D01*
G01*
X40912499Y-40700000D01*
G75*
G02*
X40662500Y-40450001I0J249999D01*
G01*
G37*
%TD*%
%TO.C,R40*%
G36*
G01*
X36512500Y-39549999D02*
X36512500Y-40450001D01*
G75*
G02*
X36262501Y-40700000I-249999J0D01*
G01*
X35737499Y-40700000D01*
G75*
G02*
X35487500Y-40450001I0J249999D01*
G01*
X35487500Y-39549999D01*
G75*
G02*
X35737499Y-39300000I249999J0D01*
G01*
X36262501Y-39300000D01*
G75*
G02*
X36512500Y-39549999I0J-249999D01*
G01*
G37*
G36*
G01*
X38337500Y-39549999D02*
X38337500Y-40450001D01*
G75*
G02*
X38087501Y-40700000I-249999J0D01*
G01*
X37562499Y-40700000D01*
G75*
G02*
X37312500Y-40450001I0J249999D01*
G01*
X37312500Y-39549999D01*
G75*
G02*
X37562499Y-39300000I249999J0D01*
G01*
X38087501Y-39300000D01*
G75*
G02*
X38337500Y-39549999I0J-249999D01*
G01*
G37*
%TD*%
%TO.C,R39*%
G36*
G01*
X93512500Y-111549999D02*
X93512500Y-112450001D01*
G75*
G02*
X93262501Y-112700000I-249999J0D01*
G01*
X92737499Y-112700000D01*
G75*
G02*
X92487500Y-112450001I0J249999D01*
G01*
X92487500Y-111549999D01*
G75*
G02*
X92737499Y-111300000I249999J0D01*
G01*
X93262501Y-111300000D01*
G75*
G02*
X93512500Y-111549999I0J-249999D01*
G01*
G37*
G36*
G01*
X95337500Y-111549999D02*
X95337500Y-112450001D01*
G75*
G02*
X95087501Y-112700000I-249999J0D01*
G01*
X94562499Y-112700000D01*
G75*
G02*
X94312500Y-112450001I0J249999D01*
G01*
X94312500Y-111549999D01*
G75*
G02*
X94562499Y-111300000I249999J0D01*
G01*
X95087501Y-111300000D01*
G75*
G02*
X95337500Y-111549999I0J-249999D01*
G01*
G37*
%TD*%
%TO.C,R37*%
G36*
G01*
X68512500Y-110549999D02*
X68512500Y-111450001D01*
G75*
G02*
X68262501Y-111700000I-249999J0D01*
G01*
X67737499Y-111700000D01*
G75*
G02*
X67487500Y-111450001I0J249999D01*
G01*
X67487500Y-110549999D01*
G75*
G02*
X67737499Y-110300000I249999J0D01*
G01*
X68262501Y-110300000D01*
G75*
G02*
X68512500Y-110549999I0J-249999D01*
G01*
G37*
G36*
G01*
X70337500Y-110549999D02*
X70337500Y-111450001D01*
G75*
G02*
X70087501Y-111700000I-249999J0D01*
G01*
X69562499Y-111700000D01*
G75*
G02*
X69312500Y-111450001I0J249999D01*
G01*
X69312500Y-110549999D01*
G75*
G02*
X69562499Y-110300000I249999J0D01*
G01*
X70087501Y-110300000D01*
G75*
G02*
X70337500Y-110549999I0J-249999D01*
G01*
G37*
%TD*%
%TO.C,R36*%
G36*
G01*
X102549999Y-106312500D02*
X103450001Y-106312500D01*
G75*
G02*
X103700000Y-106562499I0J-249999D01*
G01*
X103700000Y-107087501D01*
G75*
G02*
X103450001Y-107337500I-249999J0D01*
G01*
X102549999Y-107337500D01*
G75*
G02*
X102300000Y-107087501I0J249999D01*
G01*
X102300000Y-106562499D01*
G75*
G02*
X102549999Y-106312500I249999J0D01*
G01*
G37*
G36*
G01*
X102549999Y-104487500D02*
X103450001Y-104487500D01*
G75*
G02*
X103700000Y-104737499I0J-249999D01*
G01*
X103700000Y-105262501D01*
G75*
G02*
X103450001Y-105512500I-249999J0D01*
G01*
X102549999Y-105512500D01*
G75*
G02*
X102300000Y-105262501I0J249999D01*
G01*
X102300000Y-104737499D01*
G75*
G02*
X102549999Y-104487500I249999J0D01*
G01*
G37*
%TD*%
%TO.C,R35*%
G36*
G01*
X63687500Y-110549999D02*
X63687500Y-111450001D01*
G75*
G02*
X63437501Y-111700000I-249999J0D01*
G01*
X62912499Y-111700000D01*
G75*
G02*
X62662500Y-111450001I0J249999D01*
G01*
X62662500Y-110549999D01*
G75*
G02*
X62912499Y-110300000I249999J0D01*
G01*
X63437501Y-110300000D01*
G75*
G02*
X63687500Y-110549999I0J-249999D01*
G01*
G37*
G36*
G01*
X65512500Y-110549999D02*
X65512500Y-111450001D01*
G75*
G02*
X65262501Y-111700000I-249999J0D01*
G01*
X64737499Y-111700000D01*
G75*
G02*
X64487500Y-111450001I0J249999D01*
G01*
X64487500Y-110549999D01*
G75*
G02*
X64737499Y-110300000I249999J0D01*
G01*
X65262501Y-110300000D01*
G75*
G02*
X65512500Y-110549999I0J-249999D01*
G01*
G37*
%TD*%
%TO.C,R34*%
G36*
G01*
X64487500Y-108450001D02*
X64487500Y-107549999D01*
G75*
G02*
X64737499Y-107300000I249999J0D01*
G01*
X65262501Y-107300000D01*
G75*
G02*
X65512500Y-107549999I0J-249999D01*
G01*
X65512500Y-108450001D01*
G75*
G02*
X65262501Y-108700000I-249999J0D01*
G01*
X64737499Y-108700000D01*
G75*
G02*
X64487500Y-108450001I0J249999D01*
G01*
G37*
G36*
G01*
X62662500Y-108450001D02*
X62662500Y-107549999D01*
G75*
G02*
X62912499Y-107300000I249999J0D01*
G01*
X63437501Y-107300000D01*
G75*
G02*
X63687500Y-107549999I0J-249999D01*
G01*
X63687500Y-108450001D01*
G75*
G02*
X63437501Y-108700000I-249999J0D01*
G01*
X62912499Y-108700000D01*
G75*
G02*
X62662500Y-108450001I0J249999D01*
G01*
G37*
%TD*%
%TO.C,R33*%
G36*
G01*
X64487500Y-115450001D02*
X64487500Y-114549999D01*
G75*
G02*
X64737499Y-114300000I249999J0D01*
G01*
X65262501Y-114300000D01*
G75*
G02*
X65512500Y-114549999I0J-249999D01*
G01*
X65512500Y-115450001D01*
G75*
G02*
X65262501Y-115700000I-249999J0D01*
G01*
X64737499Y-115700000D01*
G75*
G02*
X64487500Y-115450001I0J249999D01*
G01*
G37*
G36*
G01*
X62662500Y-115450001D02*
X62662500Y-114549999D01*
G75*
G02*
X62912499Y-114300000I249999J0D01*
G01*
X63437501Y-114300000D01*
G75*
G02*
X63687500Y-114549999I0J-249999D01*
G01*
X63687500Y-115450001D01*
G75*
G02*
X63437501Y-115700000I-249999J0D01*
G01*
X62912499Y-115700000D01*
G75*
G02*
X62662500Y-115450001I0J249999D01*
G01*
G37*
%TD*%
%TO.C,R32*%
G36*
G01*
X66512500Y-103549999D02*
X66512500Y-104450001D01*
G75*
G02*
X66262501Y-104700000I-249999J0D01*
G01*
X65737499Y-104700000D01*
G75*
G02*
X65487500Y-104450001I0J249999D01*
G01*
X65487500Y-103549999D01*
G75*
G02*
X65737499Y-103300000I249999J0D01*
G01*
X66262501Y-103300000D01*
G75*
G02*
X66512500Y-103549999I0J-249999D01*
G01*
G37*
G36*
G01*
X68337500Y-103549999D02*
X68337500Y-104450001D01*
G75*
G02*
X68087501Y-104700000I-249999J0D01*
G01*
X67562499Y-104700000D01*
G75*
G02*
X67312500Y-104450001I0J249999D01*
G01*
X67312500Y-103549999D01*
G75*
G02*
X67562499Y-103300000I249999J0D01*
G01*
X68087501Y-103300000D01*
G75*
G02*
X68337500Y-103549999I0J-249999D01*
G01*
G37*
%TD*%
%TO.C,R31*%
G36*
G01*
X57487500Y-105450001D02*
X57487500Y-104549999D01*
G75*
G02*
X57737499Y-104300000I249999J0D01*
G01*
X58262501Y-104300000D01*
G75*
G02*
X58512500Y-104549999I0J-249999D01*
G01*
X58512500Y-105450001D01*
G75*
G02*
X58262501Y-105700000I-249999J0D01*
G01*
X57737499Y-105700000D01*
G75*
G02*
X57487500Y-105450001I0J249999D01*
G01*
G37*
G36*
G01*
X55662500Y-105450001D02*
X55662500Y-104549999D01*
G75*
G02*
X55912499Y-104300000I249999J0D01*
G01*
X56437501Y-104300000D01*
G75*
G02*
X56687500Y-104549999I0J-249999D01*
G01*
X56687500Y-105450001D01*
G75*
G02*
X56437501Y-105700000I-249999J0D01*
G01*
X55912499Y-105700000D01*
G75*
G02*
X55662500Y-105450001I0J249999D01*
G01*
G37*
%TD*%
%TO.C,R30*%
G36*
G01*
X44012500Y-114049999D02*
X44012500Y-114950001D01*
G75*
G02*
X43762501Y-115200000I-249999J0D01*
G01*
X43237499Y-115200000D01*
G75*
G02*
X42987500Y-114950001I0J249999D01*
G01*
X42987500Y-114049999D01*
G75*
G02*
X43237499Y-113800000I249999J0D01*
G01*
X43762501Y-113800000D01*
G75*
G02*
X44012500Y-114049999I0J-249999D01*
G01*
G37*
G36*
G01*
X45837500Y-114049999D02*
X45837500Y-114950001D01*
G75*
G02*
X45587501Y-115200000I-249999J0D01*
G01*
X45062499Y-115200000D01*
G75*
G02*
X44812500Y-114950001I0J249999D01*
G01*
X44812500Y-114049999D01*
G75*
G02*
X45062499Y-113800000I249999J0D01*
G01*
X45587501Y-113800000D01*
G75*
G02*
X45837500Y-114049999I0J-249999D01*
G01*
G37*
%TD*%
%TO.C,R29*%
G36*
G01*
X39075001Y-73562500D02*
X36924999Y-73562500D01*
G75*
G02*
X36675000Y-73312501I0J249999D01*
G01*
X36675000Y-72687499D01*
G75*
G02*
X36924999Y-72437500I249999J0D01*
G01*
X39075001Y-72437500D01*
G75*
G02*
X39325000Y-72687499I0J-249999D01*
G01*
X39325000Y-73312501D01*
G75*
G02*
X39075001Y-73562500I-249999J0D01*
G01*
G37*
G36*
G01*
X39075001Y-76487500D02*
X36924999Y-76487500D01*
G75*
G02*
X36675000Y-76237501I0J249999D01*
G01*
X36675000Y-75612499D01*
G75*
G02*
X36924999Y-75362500I249999J0D01*
G01*
X39075001Y-75362500D01*
G75*
G02*
X39325000Y-75612499I0J-249999D01*
G01*
X39325000Y-76237501D01*
G75*
G02*
X39075001Y-76487500I-249999J0D01*
G01*
G37*
%TD*%
%TO.C,R28*%
G36*
G01*
X39075001Y-99637500D02*
X36924999Y-99637500D01*
G75*
G02*
X36675000Y-99387501I0J249999D01*
G01*
X36675000Y-98762499D01*
G75*
G02*
X36924999Y-98512500I249999J0D01*
G01*
X39075001Y-98512500D01*
G75*
G02*
X39325000Y-98762499I0J-249999D01*
G01*
X39325000Y-99387501D01*
G75*
G02*
X39075001Y-99637500I-249999J0D01*
G01*
G37*
G36*
G01*
X39075001Y-102562500D02*
X36924999Y-102562500D01*
G75*
G02*
X36675000Y-102312501I0J249999D01*
G01*
X36675000Y-101687499D01*
G75*
G02*
X36924999Y-101437500I249999J0D01*
G01*
X39075001Y-101437500D01*
G75*
G02*
X39325000Y-101687499I0J-249999D01*
G01*
X39325000Y-102312501D01*
G75*
G02*
X39075001Y-102562500I-249999J0D01*
G01*
G37*
%TD*%
%TO.C,R27*%
G36*
G01*
X39075001Y-86637500D02*
X36924999Y-86637500D01*
G75*
G02*
X36675000Y-86387501I0J249999D01*
G01*
X36675000Y-85762499D01*
G75*
G02*
X36924999Y-85512500I249999J0D01*
G01*
X39075001Y-85512500D01*
G75*
G02*
X39325000Y-85762499I0J-249999D01*
G01*
X39325000Y-86387501D01*
G75*
G02*
X39075001Y-86637500I-249999J0D01*
G01*
G37*
G36*
G01*
X39075001Y-89562500D02*
X36924999Y-89562500D01*
G75*
G02*
X36675000Y-89312501I0J249999D01*
G01*
X36675000Y-88687499D01*
G75*
G02*
X36924999Y-88437500I249999J0D01*
G01*
X39075001Y-88437500D01*
G75*
G02*
X39325000Y-88687499I0J-249999D01*
G01*
X39325000Y-89312501D01*
G75*
G02*
X39075001Y-89562500I-249999J0D01*
G01*
G37*
%TD*%
%TO.C,R26*%
G36*
G01*
X53487500Y-74450001D02*
X53487500Y-73549999D01*
G75*
G02*
X53737499Y-73300000I249999J0D01*
G01*
X54262501Y-73300000D01*
G75*
G02*
X54512500Y-73549999I0J-249999D01*
G01*
X54512500Y-74450001D01*
G75*
G02*
X54262501Y-74700000I-249999J0D01*
G01*
X53737499Y-74700000D01*
G75*
G02*
X53487500Y-74450001I0J249999D01*
G01*
G37*
G36*
G01*
X51662500Y-74450001D02*
X51662500Y-73549999D01*
G75*
G02*
X51912499Y-73300000I249999J0D01*
G01*
X52437501Y-73300000D01*
G75*
G02*
X52687500Y-73549999I0J-249999D01*
G01*
X52687500Y-74450001D01*
G75*
G02*
X52437501Y-74700000I-249999J0D01*
G01*
X51912499Y-74700000D01*
G75*
G02*
X51662500Y-74450001I0J249999D01*
G01*
G37*
%TD*%
%TO.C,R24*%
G36*
G01*
X53487500Y-95450001D02*
X53487500Y-94549999D01*
G75*
G02*
X53737499Y-94300000I249999J0D01*
G01*
X54262501Y-94300000D01*
G75*
G02*
X54512500Y-94549999I0J-249999D01*
G01*
X54512500Y-95450001D01*
G75*
G02*
X54262501Y-95700000I-249999J0D01*
G01*
X53737499Y-95700000D01*
G75*
G02*
X53487500Y-95450001I0J249999D01*
G01*
G37*
G36*
G01*
X51662500Y-95450001D02*
X51662500Y-94549999D01*
G75*
G02*
X51912499Y-94300000I249999J0D01*
G01*
X52437501Y-94300000D01*
G75*
G02*
X52687500Y-94549999I0J-249999D01*
G01*
X52687500Y-95450001D01*
G75*
G02*
X52437501Y-95700000I-249999J0D01*
G01*
X51912499Y-95700000D01*
G75*
G02*
X51662500Y-95450001I0J249999D01*
G01*
G37*
%TD*%
%TO.C,R22*%
G36*
G01*
X53487500Y-84450001D02*
X53487500Y-83549999D01*
G75*
G02*
X53737499Y-83300000I249999J0D01*
G01*
X54262501Y-83300000D01*
G75*
G02*
X54512500Y-83549999I0J-249999D01*
G01*
X54512500Y-84450001D01*
G75*
G02*
X54262501Y-84700000I-249999J0D01*
G01*
X53737499Y-84700000D01*
G75*
G02*
X53487500Y-84450001I0J249999D01*
G01*
G37*
G36*
G01*
X51662500Y-84450001D02*
X51662500Y-83549999D01*
G75*
G02*
X51912499Y-83300000I249999J0D01*
G01*
X52437501Y-83300000D01*
G75*
G02*
X52687500Y-83549999I0J-249999D01*
G01*
X52687500Y-84450001D01*
G75*
G02*
X52437501Y-84700000I-249999J0D01*
G01*
X51912499Y-84700000D01*
G75*
G02*
X51662500Y-84450001I0J249999D01*
G01*
G37*
%TD*%
%TO.C,R20*%
G36*
G01*
X31562500Y-79924999D02*
X31562500Y-82075001D01*
G75*
G02*
X31312501Y-82325000I-249999J0D01*
G01*
X30687499Y-82325000D01*
G75*
G02*
X30437500Y-82075001I0J249999D01*
G01*
X30437500Y-79924999D01*
G75*
G02*
X30687499Y-79675000I249999J0D01*
G01*
X31312501Y-79675000D01*
G75*
G02*
X31562500Y-79924999I0J-249999D01*
G01*
G37*
G36*
G01*
X34487500Y-79924999D02*
X34487500Y-82075001D01*
G75*
G02*
X34237501Y-82325000I-249999J0D01*
G01*
X33612499Y-82325000D01*
G75*
G02*
X33362500Y-82075001I0J249999D01*
G01*
X33362500Y-79924999D01*
G75*
G02*
X33612499Y-79675000I249999J0D01*
G01*
X34237501Y-79675000D01*
G75*
G02*
X34487500Y-79924999I0J-249999D01*
G01*
G37*
%TD*%
%TO.C,R19*%
G36*
G01*
X31562500Y-105924999D02*
X31562500Y-108075001D01*
G75*
G02*
X31312501Y-108325000I-249999J0D01*
G01*
X30687499Y-108325000D01*
G75*
G02*
X30437500Y-108075001I0J249999D01*
G01*
X30437500Y-105924999D01*
G75*
G02*
X30687499Y-105675000I249999J0D01*
G01*
X31312501Y-105675000D01*
G75*
G02*
X31562500Y-105924999I0J-249999D01*
G01*
G37*
G36*
G01*
X34487500Y-105924999D02*
X34487500Y-108075001D01*
G75*
G02*
X34237501Y-108325000I-249999J0D01*
G01*
X33612499Y-108325000D01*
G75*
G02*
X33362500Y-108075001I0J249999D01*
G01*
X33362500Y-105924999D01*
G75*
G02*
X33612499Y-105675000I249999J0D01*
G01*
X34237501Y-105675000D01*
G75*
G02*
X34487500Y-105924999I0J-249999D01*
G01*
G37*
%TD*%
%TO.C,R18*%
G36*
G01*
X31562500Y-92924999D02*
X31562500Y-95075001D01*
G75*
G02*
X31312501Y-95325000I-249999J0D01*
G01*
X30687499Y-95325000D01*
G75*
G02*
X30437500Y-95075001I0J249999D01*
G01*
X30437500Y-92924999D01*
G75*
G02*
X30687499Y-92675000I249999J0D01*
G01*
X31312501Y-92675000D01*
G75*
G02*
X31562500Y-92924999I0J-249999D01*
G01*
G37*
G36*
G01*
X34487500Y-92924999D02*
X34487500Y-95075001D01*
G75*
G02*
X34237501Y-95325000I-249999J0D01*
G01*
X33612499Y-95325000D01*
G75*
G02*
X33362500Y-95075001I0J249999D01*
G01*
X33362500Y-92924999D01*
G75*
G02*
X33612499Y-92675000I249999J0D01*
G01*
X34237501Y-92675000D01*
G75*
G02*
X34487500Y-92924999I0J-249999D01*
G01*
G37*
%TD*%
%TO.C,R17*%
G36*
G01*
X53487500Y-77450001D02*
X53487500Y-76549999D01*
G75*
G02*
X53737499Y-76300000I249999J0D01*
G01*
X54262501Y-76300000D01*
G75*
G02*
X54512500Y-76549999I0J-249999D01*
G01*
X54512500Y-77450001D01*
G75*
G02*
X54262501Y-77700000I-249999J0D01*
G01*
X53737499Y-77700000D01*
G75*
G02*
X53487500Y-77450001I0J249999D01*
G01*
G37*
G36*
G01*
X51662500Y-77450001D02*
X51662500Y-76549999D01*
G75*
G02*
X51912499Y-76300000I249999J0D01*
G01*
X52437501Y-76300000D01*
G75*
G02*
X52687500Y-76549999I0J-249999D01*
G01*
X52687500Y-77450001D01*
G75*
G02*
X52437501Y-77700000I-249999J0D01*
G01*
X51912499Y-77700000D01*
G75*
G02*
X51662500Y-77450001I0J249999D01*
G01*
G37*
%TD*%
%TO.C,R15*%
G36*
G01*
X53487500Y-98450001D02*
X53487500Y-97549999D01*
G75*
G02*
X53737499Y-97300000I249999J0D01*
G01*
X54262501Y-97300000D01*
G75*
G02*
X54512500Y-97549999I0J-249999D01*
G01*
X54512500Y-98450001D01*
G75*
G02*
X54262501Y-98700000I-249999J0D01*
G01*
X53737499Y-98700000D01*
G75*
G02*
X53487500Y-98450001I0J249999D01*
G01*
G37*
G36*
G01*
X51662500Y-98450001D02*
X51662500Y-97549999D01*
G75*
G02*
X51912499Y-97300000I249999J0D01*
G01*
X52437501Y-97300000D01*
G75*
G02*
X52687500Y-97549999I0J-249999D01*
G01*
X52687500Y-98450001D01*
G75*
G02*
X52437501Y-98700000I-249999J0D01*
G01*
X51912499Y-98700000D01*
G75*
G02*
X51662500Y-98450001I0J249999D01*
G01*
G37*
%TD*%
%TO.C,R13*%
G36*
G01*
X53487500Y-88450001D02*
X53487500Y-87549999D01*
G75*
G02*
X53737499Y-87300000I249999J0D01*
G01*
X54262501Y-87300000D01*
G75*
G02*
X54512500Y-87549999I0J-249999D01*
G01*
X54512500Y-88450001D01*
G75*
G02*
X54262501Y-88700000I-249999J0D01*
G01*
X53737499Y-88700000D01*
G75*
G02*
X53487500Y-88450001I0J249999D01*
G01*
G37*
G36*
G01*
X51662500Y-88450001D02*
X51662500Y-87549999D01*
G75*
G02*
X51912499Y-87300000I249999J0D01*
G01*
X52437501Y-87300000D01*
G75*
G02*
X52687500Y-87549999I0J-249999D01*
G01*
X52687500Y-88450001D01*
G75*
G02*
X52437501Y-88700000I-249999J0D01*
G01*
X51912499Y-88700000D01*
G75*
G02*
X51662500Y-88450001I0J249999D01*
G01*
G37*
%TD*%
%TO.C,R11*%
G36*
G01*
X25562500Y-79924999D02*
X25562500Y-82075001D01*
G75*
G02*
X25312501Y-82325000I-249999J0D01*
G01*
X24687499Y-82325000D01*
G75*
G02*
X24437500Y-82075001I0J249999D01*
G01*
X24437500Y-79924999D01*
G75*
G02*
X24687499Y-79675000I249999J0D01*
G01*
X25312501Y-79675000D01*
G75*
G02*
X25562500Y-79924999I0J-249999D01*
G01*
G37*
G36*
G01*
X28487500Y-79924999D02*
X28487500Y-82075001D01*
G75*
G02*
X28237501Y-82325000I-249999J0D01*
G01*
X27612499Y-82325000D01*
G75*
G02*
X27362500Y-82075001I0J249999D01*
G01*
X27362500Y-79924999D01*
G75*
G02*
X27612499Y-79675000I249999J0D01*
G01*
X28237501Y-79675000D01*
G75*
G02*
X28487500Y-79924999I0J-249999D01*
G01*
G37*
%TD*%
%TO.C,R10*%
G36*
G01*
X25562500Y-105924999D02*
X25562500Y-108075001D01*
G75*
G02*
X25312501Y-108325000I-249999J0D01*
G01*
X24687499Y-108325000D01*
G75*
G02*
X24437500Y-108075001I0J249999D01*
G01*
X24437500Y-105924999D01*
G75*
G02*
X24687499Y-105675000I249999J0D01*
G01*
X25312501Y-105675000D01*
G75*
G02*
X25562500Y-105924999I0J-249999D01*
G01*
G37*
G36*
G01*
X28487500Y-105924999D02*
X28487500Y-108075001D01*
G75*
G02*
X28237501Y-108325000I-249999J0D01*
G01*
X27612499Y-108325000D01*
G75*
G02*
X27362500Y-108075001I0J249999D01*
G01*
X27362500Y-105924999D01*
G75*
G02*
X27612499Y-105675000I249999J0D01*
G01*
X28237501Y-105675000D01*
G75*
G02*
X28487500Y-105924999I0J-249999D01*
G01*
G37*
%TD*%
%TO.C,R9*%
G36*
G01*
X25562500Y-92924999D02*
X25562500Y-95075001D01*
G75*
G02*
X25312501Y-95325000I-249999J0D01*
G01*
X24687499Y-95325000D01*
G75*
G02*
X24437500Y-95075001I0J249999D01*
G01*
X24437500Y-92924999D01*
G75*
G02*
X24687499Y-92675000I249999J0D01*
G01*
X25312501Y-92675000D01*
G75*
G02*
X25562500Y-92924999I0J-249999D01*
G01*
G37*
G36*
G01*
X28487500Y-92924999D02*
X28487500Y-95075001D01*
G75*
G02*
X28237501Y-95325000I-249999J0D01*
G01*
X27612499Y-95325000D01*
G75*
G02*
X27362500Y-95075001I0J249999D01*
G01*
X27362500Y-92924999D01*
G75*
G02*
X27612499Y-92675000I249999J0D01*
G01*
X28237501Y-92675000D01*
G75*
G02*
X28487500Y-92924999I0J-249999D01*
G01*
G37*
%TD*%
%TO.C,R8*%
G36*
G01*
X53487500Y-81450001D02*
X53487500Y-80549999D01*
G75*
G02*
X53737499Y-80300000I249999J0D01*
G01*
X54262501Y-80300000D01*
G75*
G02*
X54512500Y-80549999I0J-249999D01*
G01*
X54512500Y-81450001D01*
G75*
G02*
X54262501Y-81700000I-249999J0D01*
G01*
X53737499Y-81700000D01*
G75*
G02*
X53487500Y-81450001I0J249999D01*
G01*
G37*
G36*
G01*
X51662500Y-81450001D02*
X51662500Y-80549999D01*
G75*
G02*
X51912499Y-80300000I249999J0D01*
G01*
X52437501Y-80300000D01*
G75*
G02*
X52687500Y-80549999I0J-249999D01*
G01*
X52687500Y-81450001D01*
G75*
G02*
X52437501Y-81700000I-249999J0D01*
G01*
X51912499Y-81700000D01*
G75*
G02*
X51662500Y-81450001I0J249999D01*
G01*
G37*
%TD*%
%TO.C,R6*%
G36*
G01*
X53487500Y-102450001D02*
X53487500Y-101549999D01*
G75*
G02*
X53737499Y-101300000I249999J0D01*
G01*
X54262501Y-101300000D01*
G75*
G02*
X54512500Y-101549999I0J-249999D01*
G01*
X54512500Y-102450001D01*
G75*
G02*
X54262501Y-102700000I-249999J0D01*
G01*
X53737499Y-102700000D01*
G75*
G02*
X53487500Y-102450001I0J249999D01*
G01*
G37*
G36*
G01*
X51662500Y-102450001D02*
X51662500Y-101549999D01*
G75*
G02*
X51912499Y-101300000I249999J0D01*
G01*
X52437501Y-101300000D01*
G75*
G02*
X52687500Y-101549999I0J-249999D01*
G01*
X52687500Y-102450001D01*
G75*
G02*
X52437501Y-102700000I-249999J0D01*
G01*
X51912499Y-102700000D01*
G75*
G02*
X51662500Y-102450001I0J249999D01*
G01*
G37*
%TD*%
%TO.C,R4*%
G36*
G01*
X53487500Y-91450001D02*
X53487500Y-90549999D01*
G75*
G02*
X53737499Y-90300000I249999J0D01*
G01*
X54262501Y-90300000D01*
G75*
G02*
X54512500Y-90549999I0J-249999D01*
G01*
X54512500Y-91450001D01*
G75*
G02*
X54262501Y-91700000I-249999J0D01*
G01*
X53737499Y-91700000D01*
G75*
G02*
X53487500Y-91450001I0J249999D01*
G01*
G37*
G36*
G01*
X51662500Y-91450001D02*
X51662500Y-90549999D01*
G75*
G02*
X51912499Y-90300000I249999J0D01*
G01*
X52437501Y-90300000D01*
G75*
G02*
X52687500Y-90549999I0J-249999D01*
G01*
X52687500Y-91450001D01*
G75*
G02*
X52437501Y-91700000I-249999J0D01*
G01*
X51912499Y-91700000D01*
G75*
G02*
X51662500Y-91450001I0J249999D01*
G01*
G37*
%TD*%
%TO.C,R1*%
G36*
G01*
X82687500Y-45049999D02*
X82687500Y-45950001D01*
G75*
G02*
X82437501Y-46200000I-249999J0D01*
G01*
X81912499Y-46200000D01*
G75*
G02*
X81662500Y-45950001I0J249999D01*
G01*
X81662500Y-45049999D01*
G75*
G02*
X81912499Y-44800000I249999J0D01*
G01*
X82437501Y-44800000D01*
G75*
G02*
X82687500Y-45049999I0J-249999D01*
G01*
G37*
G36*
G01*
X84512500Y-45049999D02*
X84512500Y-45950001D01*
G75*
G02*
X84262501Y-46200000I-249999J0D01*
G01*
X83737499Y-46200000D01*
G75*
G02*
X83487500Y-45950001I0J249999D01*
G01*
X83487500Y-45049999D01*
G75*
G02*
X83737499Y-44800000I249999J0D01*
G01*
X84262501Y-44800000D01*
G75*
G02*
X84512500Y-45049999I0J-249999D01*
G01*
G37*
%TD*%
D30*
%TO.C,Q8*%
X67500000Y-59500000D03*
X68450000Y-61500000D03*
X66550000Y-61500000D03*
%TD*%
%TO.C,Q6*%
X94000000Y-117000000D03*
X93050000Y-115000000D03*
X94950000Y-115000000D03*
%TD*%
%TO.C,L1*%
G36*
G01*
X81118750Y-60062500D02*
X81881250Y-60062500D01*
G75*
G02*
X82100000Y-60281250I0J-218750D01*
G01*
X82100000Y-60718750D01*
G75*
G02*
X81881250Y-60937500I-218750J0D01*
G01*
X81118750Y-60937500D01*
G75*
G02*
X80900000Y-60718750I0J218750D01*
G01*
X80900000Y-60281250D01*
G75*
G02*
X81118750Y-60062500I218750J0D01*
G01*
G37*
G36*
G01*
X81118750Y-57937500D02*
X81881250Y-57937500D01*
G75*
G02*
X82100000Y-58156250I0J-218750D01*
G01*
X82100000Y-58593750D01*
G75*
G02*
X81881250Y-58812500I-218750J0D01*
G01*
X81118750Y-58812500D01*
G75*
G02*
X80900000Y-58593750I0J218750D01*
G01*
X80900000Y-58156250D01*
G75*
G02*
X81118750Y-57937500I218750J0D01*
G01*
G37*
%TD*%
D31*
%TO.C,JP12*%
X60920000Y-99500000D03*
X63460000Y-99500000D03*
D32*
X66000000Y-99500000D03*
%TD*%
D31*
%TO.C,JP11*%
X78080000Y-99500000D03*
X75540000Y-99500000D03*
D32*
X73000000Y-99500000D03*
%TD*%
D31*
%TO.C,JP1*%
X68920000Y-35000000D03*
X71460000Y-35000000D03*
D32*
X74000000Y-35000000D03*
%TD*%
D18*
%TO.C,J28*%
X84500000Y-91500000D03*
X87000000Y-91500000D03*
X89500000Y-91500000D03*
X92000000Y-91500000D03*
X94500000Y-91500000D03*
G36*
G01*
X97850000Y-90775000D02*
X97850000Y-92225000D01*
G75*
G02*
X97600000Y-92475000I-250000J0D01*
G01*
X96400000Y-92475000D01*
G75*
G02*
X96150000Y-92225000I0J250000D01*
G01*
X96150000Y-90775000D01*
G75*
G02*
X96400000Y-90525000I250000J0D01*
G01*
X97600000Y-90525000D01*
G75*
G02*
X97850000Y-90775000I0J-250000D01*
G01*
G37*
%TD*%
%TO.C,J26*%
X116500000Y-90500000D03*
X114000000Y-90500000D03*
X111500000Y-90500000D03*
X109000000Y-90500000D03*
X106500000Y-90500000D03*
G36*
G01*
X103150000Y-91225000D02*
X103150000Y-89775000D01*
G75*
G02*
X103400000Y-89525000I250000J0D01*
G01*
X104600000Y-89525000D01*
G75*
G02*
X104850000Y-89775000I0J-250000D01*
G01*
X104850000Y-91225000D01*
G75*
G02*
X104600000Y-91475000I-250000J0D01*
G01*
X103400000Y-91475000D01*
G75*
G02*
X103150000Y-91225000I0J250000D01*
G01*
G37*
%TD*%
D10*
%TO.C,J23*%
X105540000Y-50360000D03*
X105540000Y-47820000D03*
X105540000Y-45280000D03*
X105540000Y-42740000D03*
X105540000Y-40200000D03*
X105540000Y-37660000D03*
X105540000Y-35120000D03*
X105540000Y-32580000D03*
X105540000Y-30040000D03*
X105540000Y-27500000D03*
X103000000Y-50360000D03*
X103000000Y-47820000D03*
X103000000Y-45280000D03*
X103000000Y-42740000D03*
X103000000Y-40200000D03*
X103000000Y-37660000D03*
X103000000Y-35120000D03*
X103000000Y-32580000D03*
X103000000Y-30040000D03*
G36*
G01*
X102150000Y-28100000D02*
X102150000Y-26900000D01*
G75*
G02*
X102400000Y-26650000I250000J0D01*
G01*
X103600000Y-26650000D01*
G75*
G02*
X103850000Y-26900000I0J-250000D01*
G01*
X103850000Y-28100000D01*
G75*
G02*
X103600000Y-28350000I-250000J0D01*
G01*
X102400000Y-28350000D01*
G75*
G02*
X102150000Y-28100000I0J250000D01*
G01*
G37*
%TD*%
D18*
%TO.C,J22*%
X56500000Y-55000000D03*
X54000000Y-55000000D03*
X51500000Y-55000000D03*
G36*
G01*
X48150000Y-55725000D02*
X48150000Y-54275000D01*
G75*
G02*
X48400000Y-54025000I250000J0D01*
G01*
X49600000Y-54025000D01*
G75*
G02*
X49850000Y-54275000I0J-250000D01*
G01*
X49850000Y-55725000D01*
G75*
G02*
X49600000Y-55975000I-250000J0D01*
G01*
X48400000Y-55975000D01*
G75*
G02*
X48150000Y-55725000I0J250000D01*
G01*
G37*
%TD*%
D19*
%TO.C,J21*%
X115000000Y-43500000D03*
X115000000Y-41000000D03*
X115000000Y-38500000D03*
X115000000Y-36000000D03*
X115000000Y-33500000D03*
G36*
G01*
X114275000Y-30150000D02*
X115725000Y-30150000D01*
G75*
G02*
X115975000Y-30400000I0J-250000D01*
G01*
X115975000Y-31600000D01*
G75*
G02*
X115725000Y-31850000I-250000J0D01*
G01*
X114275000Y-31850000D01*
G75*
G02*
X114025000Y-31600000I0J250000D01*
G01*
X114025000Y-30400000D01*
G75*
G02*
X114275000Y-30150000I250000J0D01*
G01*
G37*
%TD*%
D18*
%TO.C,J19*%
X56500000Y-63000000D03*
X54000000Y-63000000D03*
X51500000Y-63000000D03*
G36*
G01*
X48150000Y-63725000D02*
X48150000Y-62275000D01*
G75*
G02*
X48400000Y-62025000I250000J0D01*
G01*
X49600000Y-62025000D01*
G75*
G02*
X49850000Y-62275000I0J-250000D01*
G01*
X49850000Y-63725000D01*
G75*
G02*
X49600000Y-63975000I-250000J0D01*
G01*
X48400000Y-63975000D01*
G75*
G02*
X48150000Y-63725000I0J250000D01*
G01*
G37*
%TD*%
%TO.C,J18*%
X30000000Y-33000000D03*
X27500000Y-33000000D03*
G36*
G01*
X24150000Y-33725000D02*
X24150000Y-32275000D01*
G75*
G02*
X24400000Y-32025000I250000J0D01*
G01*
X25600000Y-32025000D01*
G75*
G02*
X25850000Y-32275000I0J-250000D01*
G01*
X25850000Y-33725000D01*
G75*
G02*
X25600000Y-33975000I-250000J0D01*
G01*
X24400000Y-33975000D01*
G75*
G02*
X24150000Y-33725000I0J250000D01*
G01*
G37*
%TD*%
%TO.C,J17*%
X30000000Y-49000000D03*
X27500000Y-49000000D03*
G36*
G01*
X24150000Y-49725000D02*
X24150000Y-48275000D01*
G75*
G02*
X24400000Y-48025000I250000J0D01*
G01*
X25600000Y-48025000D01*
G75*
G02*
X25850000Y-48275000I0J-250000D01*
G01*
X25850000Y-49725000D01*
G75*
G02*
X25600000Y-49975000I-250000J0D01*
G01*
X24400000Y-49975000D01*
G75*
G02*
X24150000Y-49725000I0J250000D01*
G01*
G37*
%TD*%
%TO.C,J16*%
X30000000Y-65000000D03*
X27500000Y-65000000D03*
G36*
G01*
X24150000Y-65725000D02*
X24150000Y-64275000D01*
G75*
G02*
X24400000Y-64025000I250000J0D01*
G01*
X25600000Y-64025000D01*
G75*
G02*
X25850000Y-64275000I0J-250000D01*
G01*
X25850000Y-65725000D01*
G75*
G02*
X25600000Y-65975000I-250000J0D01*
G01*
X24400000Y-65975000D01*
G75*
G02*
X24150000Y-65725000I0J250000D01*
G01*
G37*
%TD*%
%TO.C,J15*%
X30000000Y-25000000D03*
X27500000Y-25000000D03*
G36*
G01*
X24150000Y-25725000D02*
X24150000Y-24275000D01*
G75*
G02*
X24400000Y-24025000I250000J0D01*
G01*
X25600000Y-24025000D01*
G75*
G02*
X25850000Y-24275000I0J-250000D01*
G01*
X25850000Y-25725000D01*
G75*
G02*
X25600000Y-25975000I-250000J0D01*
G01*
X24400000Y-25975000D01*
G75*
G02*
X24150000Y-25725000I0J250000D01*
G01*
G37*
%TD*%
%TO.C,J14*%
X30000000Y-57000000D03*
X27500000Y-57000000D03*
G36*
G01*
X24150000Y-57725000D02*
X24150000Y-56275000D01*
G75*
G02*
X24400000Y-56025000I250000J0D01*
G01*
X25600000Y-56025000D01*
G75*
G02*
X25850000Y-56275000I0J-250000D01*
G01*
X25850000Y-57725000D01*
G75*
G02*
X25600000Y-57975000I-250000J0D01*
G01*
X24400000Y-57975000D01*
G75*
G02*
X24150000Y-57725000I0J250000D01*
G01*
G37*
%TD*%
%TO.C,J13*%
X30000000Y-41000000D03*
X27500000Y-41000000D03*
G36*
G01*
X24150000Y-41725000D02*
X24150000Y-40275000D01*
G75*
G02*
X24400000Y-40025000I250000J0D01*
G01*
X25600000Y-40025000D01*
G75*
G02*
X25850000Y-40275000I0J-250000D01*
G01*
X25850000Y-41725000D01*
G75*
G02*
X25600000Y-41975000I-250000J0D01*
G01*
X24400000Y-41975000D01*
G75*
G02*
X24150000Y-41725000I0J250000D01*
G01*
G37*
%TD*%
%TO.C,J10*%
X37500000Y-115500000D03*
X35000000Y-115500000D03*
G36*
G01*
X31650000Y-116225000D02*
X31650000Y-114775000D01*
G75*
G02*
X31900000Y-114525000I250000J0D01*
G01*
X33100000Y-114525000D01*
G75*
G02*
X33350000Y-114775000I0J-250000D01*
G01*
X33350000Y-116225000D01*
G75*
G02*
X33100000Y-116475000I-250000J0D01*
G01*
X31900000Y-116475000D01*
G75*
G02*
X31650000Y-116225000I0J250000D01*
G01*
G37*
%TD*%
%TO.C,J8*%
X32500000Y-74000000D03*
X30000000Y-74000000D03*
X27500000Y-74000000D03*
G36*
G01*
X24150000Y-74725000D02*
X24150000Y-73275000D01*
G75*
G02*
X24400000Y-73025000I250000J0D01*
G01*
X25600000Y-73025000D01*
G75*
G02*
X25850000Y-73275000I0J-250000D01*
G01*
X25850000Y-74725000D01*
G75*
G02*
X25600000Y-74975000I-250000J0D01*
G01*
X24400000Y-74975000D01*
G75*
G02*
X24150000Y-74725000I0J250000D01*
G01*
G37*
%TD*%
%TO.C,J6*%
X32500000Y-100000000D03*
X30000000Y-100000000D03*
X27500000Y-100000000D03*
G36*
G01*
X24150000Y-100725000D02*
X24150000Y-99275000D01*
G75*
G02*
X24400000Y-99025000I250000J0D01*
G01*
X25600000Y-99025000D01*
G75*
G02*
X25850000Y-99275000I0J-250000D01*
G01*
X25850000Y-100725000D01*
G75*
G02*
X25600000Y-100975000I-250000J0D01*
G01*
X24400000Y-100975000D01*
G75*
G02*
X24150000Y-100725000I0J250000D01*
G01*
G37*
%TD*%
%TO.C,J4*%
X32500000Y-87000000D03*
X30000000Y-87000000D03*
X27500000Y-87000000D03*
G36*
G01*
X24150000Y-87725000D02*
X24150000Y-86275000D01*
G75*
G02*
X24400000Y-86025000I250000J0D01*
G01*
X25600000Y-86025000D01*
G75*
G02*
X25850000Y-86275000I0J-250000D01*
G01*
X25850000Y-87725000D01*
G75*
G02*
X25600000Y-87975000I-250000J0D01*
G01*
X24400000Y-87975000D01*
G75*
G02*
X24150000Y-87725000I0J250000D01*
G01*
G37*
%TD*%
D33*
%TO.C,J2*%
X93270000Y-31290000D03*
X81230000Y-31290000D03*
D10*
X86000000Y-34000000D03*
X88500000Y-34000000D03*
X88500000Y-36000000D03*
D32*
X86000000Y-36000000D03*
%TD*%
D34*
%TO.C,J1*%
X73192000Y-24000000D03*
D35*
X69382000Y-24000000D03*
%TD*%
D36*
%TO.C,D3*%
X60000000Y-116000000D03*
X56000000Y-116000000D03*
%TD*%
%TO.C,D2*%
X63000000Y-44000000D03*
X59000000Y-44000000D03*
%TD*%
%TO.C,D1*%
X48000000Y-36000000D03*
X52000000Y-36000000D03*
%TD*%
%TO.C,C33*%
G36*
G01*
X74975000Y-83000000D02*
X74025000Y-83000000D01*
G75*
G02*
X73775000Y-82750000I0J250000D01*
G01*
X73775000Y-82250000D01*
G75*
G02*
X74025000Y-82000000I250000J0D01*
G01*
X74975000Y-82000000D01*
G75*
G02*
X75225000Y-82250000I0J-250000D01*
G01*
X75225000Y-82750000D01*
G75*
G02*
X74975000Y-83000000I-250000J0D01*
G01*
G37*
G36*
G01*
X74975000Y-84900000D02*
X74025000Y-84900000D01*
G75*
G02*
X73775000Y-84650000I0J250000D01*
G01*
X73775000Y-84150000D01*
G75*
G02*
X74025000Y-83900000I250000J0D01*
G01*
X74975000Y-83900000D01*
G75*
G02*
X75225000Y-84150000I0J-250000D01*
G01*
X75225000Y-84650000D01*
G75*
G02*
X74975000Y-84900000I-250000J0D01*
G01*
G37*
%TD*%
%TO.C,C32*%
G36*
G01*
X67900000Y-74475000D02*
X67900000Y-73525000D01*
G75*
G02*
X68150000Y-73275000I250000J0D01*
G01*
X68650000Y-73275000D01*
G75*
G02*
X68900000Y-73525000I0J-250000D01*
G01*
X68900000Y-74475000D01*
G75*
G02*
X68650000Y-74725000I-250000J0D01*
G01*
X68150000Y-74725000D01*
G75*
G02*
X67900000Y-74475000I0J250000D01*
G01*
G37*
G36*
G01*
X66000000Y-74475000D02*
X66000000Y-73525000D01*
G75*
G02*
X66250000Y-73275000I250000J0D01*
G01*
X66750000Y-73275000D01*
G75*
G02*
X67000000Y-73525000I0J-250000D01*
G01*
X67000000Y-74475000D01*
G75*
G02*
X66750000Y-74725000I-250000J0D01*
G01*
X66250000Y-74725000D01*
G75*
G02*
X66000000Y-74475000I0J250000D01*
G01*
G37*
%TD*%
%TO.C,C31*%
G36*
G01*
X89500000Y-74025000D02*
X89500000Y-74975000D01*
G75*
G02*
X89250000Y-75225000I-250000J0D01*
G01*
X88750000Y-75225000D01*
G75*
G02*
X88500000Y-74975000I0J250000D01*
G01*
X88500000Y-74025000D01*
G75*
G02*
X88750000Y-73775000I250000J0D01*
G01*
X89250000Y-73775000D01*
G75*
G02*
X89500000Y-74025000I0J-250000D01*
G01*
G37*
G36*
G01*
X91400000Y-74025000D02*
X91400000Y-74975000D01*
G75*
G02*
X91150000Y-75225000I-250000J0D01*
G01*
X90650000Y-75225000D01*
G75*
G02*
X90400000Y-74975000I0J250000D01*
G01*
X90400000Y-74025000D01*
G75*
G02*
X90650000Y-73775000I250000J0D01*
G01*
X91150000Y-73775000D01*
G75*
G02*
X91400000Y-74025000I0J-250000D01*
G01*
G37*
%TD*%
%TO.C,C30*%
G36*
G01*
X89500000Y-67525000D02*
X89500000Y-68475000D01*
G75*
G02*
X89250000Y-68725000I-250000J0D01*
G01*
X88750000Y-68725000D01*
G75*
G02*
X88500000Y-68475000I0J250000D01*
G01*
X88500000Y-67525000D01*
G75*
G02*
X88750000Y-67275000I250000J0D01*
G01*
X89250000Y-67275000D01*
G75*
G02*
X89500000Y-67525000I0J-250000D01*
G01*
G37*
G36*
G01*
X91400000Y-67525000D02*
X91400000Y-68475000D01*
G75*
G02*
X91150000Y-68725000I-250000J0D01*
G01*
X90650000Y-68725000D01*
G75*
G02*
X90400000Y-68475000I0J250000D01*
G01*
X90400000Y-67525000D01*
G75*
G02*
X90650000Y-67275000I250000J0D01*
G01*
X91150000Y-67275000D01*
G75*
G02*
X91400000Y-67525000I0J-250000D01*
G01*
G37*
%TD*%
%TO.C,C29*%
G36*
G01*
X83475000Y-83000000D02*
X82525000Y-83000000D01*
G75*
G02*
X82275000Y-82750000I0J250000D01*
G01*
X82275000Y-82250000D01*
G75*
G02*
X82525000Y-82000000I250000J0D01*
G01*
X83475000Y-82000000D01*
G75*
G02*
X83725000Y-82250000I0J-250000D01*
G01*
X83725000Y-82750000D01*
G75*
G02*
X83475000Y-83000000I-250000J0D01*
G01*
G37*
G36*
G01*
X83475000Y-84900000D02*
X82525000Y-84900000D01*
G75*
G02*
X82275000Y-84650000I0J250000D01*
G01*
X82275000Y-84150000D01*
G75*
G02*
X82525000Y-83900000I250000J0D01*
G01*
X83475000Y-83900000D01*
G75*
G02*
X83725000Y-84150000I0J-250000D01*
G01*
X83725000Y-84650000D01*
G75*
G02*
X83475000Y-84900000I-250000J0D01*
G01*
G37*
%TD*%
%TO.C,C28*%
G36*
G01*
X68500000Y-67975000D02*
X68500000Y-67025000D01*
G75*
G02*
X68750000Y-66775000I250000J0D01*
G01*
X69250000Y-66775000D01*
G75*
G02*
X69500000Y-67025000I0J-250000D01*
G01*
X69500000Y-67975000D01*
G75*
G02*
X69250000Y-68225000I-250000J0D01*
G01*
X68750000Y-68225000D01*
G75*
G02*
X68500000Y-67975000I0J250000D01*
G01*
G37*
G36*
G01*
X66600000Y-67975000D02*
X66600000Y-67025000D01*
G75*
G02*
X66850000Y-66775000I250000J0D01*
G01*
X67350000Y-66775000D01*
G75*
G02*
X67600000Y-67025000I0J-250000D01*
G01*
X67600000Y-67975000D01*
G75*
G02*
X67350000Y-68225000I-250000J0D01*
G01*
X66850000Y-68225000D01*
G75*
G02*
X66600000Y-67975000I0J250000D01*
G01*
G37*
%TD*%
%TO.C,C27*%
G36*
G01*
X68500000Y-65475000D02*
X68500000Y-64525000D01*
G75*
G02*
X68750000Y-64275000I250000J0D01*
G01*
X69250000Y-64275000D01*
G75*
G02*
X69500000Y-64525000I0J-250000D01*
G01*
X69500000Y-65475000D01*
G75*
G02*
X69250000Y-65725000I-250000J0D01*
G01*
X68750000Y-65725000D01*
G75*
G02*
X68500000Y-65475000I0J250000D01*
G01*
G37*
G36*
G01*
X66600000Y-65475000D02*
X66600000Y-64525000D01*
G75*
G02*
X66850000Y-64275000I250000J0D01*
G01*
X67350000Y-64275000D01*
G75*
G02*
X67600000Y-64525000I0J-250000D01*
G01*
X67600000Y-65475000D01*
G75*
G02*
X67350000Y-65725000I-250000J0D01*
G01*
X66850000Y-65725000D01*
G75*
G02*
X66600000Y-65475000I0J250000D01*
G01*
G37*
%TD*%
%TO.C,C26*%
G36*
G01*
X79475000Y-59000000D02*
X78525000Y-59000000D01*
G75*
G02*
X78275000Y-58750000I0J250000D01*
G01*
X78275000Y-58250000D01*
G75*
G02*
X78525000Y-58000000I250000J0D01*
G01*
X79475000Y-58000000D01*
G75*
G02*
X79725000Y-58250000I0J-250000D01*
G01*
X79725000Y-58750000D01*
G75*
G02*
X79475000Y-59000000I-250000J0D01*
G01*
G37*
G36*
G01*
X79475000Y-60900000D02*
X78525000Y-60900000D01*
G75*
G02*
X78275000Y-60650000I0J250000D01*
G01*
X78275000Y-60150000D01*
G75*
G02*
X78525000Y-59900000I250000J0D01*
G01*
X79475000Y-59900000D01*
G75*
G02*
X79725000Y-60150000I0J-250000D01*
G01*
X79725000Y-60650000D01*
G75*
G02*
X79475000Y-60900000I-250000J0D01*
G01*
G37*
%TD*%
%TO.C,C25*%
G36*
G01*
X71975000Y-55600000D02*
X71025000Y-55600000D01*
G75*
G02*
X70775000Y-55350000I0J250000D01*
G01*
X70775000Y-54850000D01*
G75*
G02*
X71025000Y-54600000I250000J0D01*
G01*
X71975000Y-54600000D01*
G75*
G02*
X72225000Y-54850000I0J-250000D01*
G01*
X72225000Y-55350000D01*
G75*
G02*
X71975000Y-55600000I-250000J0D01*
G01*
G37*
G36*
G01*
X71975000Y-57500000D02*
X71025000Y-57500000D01*
G75*
G02*
X70775000Y-57250000I0J250000D01*
G01*
X70775000Y-56750000D01*
G75*
G02*
X71025000Y-56500000I250000J0D01*
G01*
X71975000Y-56500000D01*
G75*
G02*
X72225000Y-56750000I0J-250000D01*
G01*
X72225000Y-57250000D01*
G75*
G02*
X71975000Y-57500000I-250000J0D01*
G01*
G37*
%TD*%
%TO.C,C24*%
G36*
G01*
X75975000Y-55600000D02*
X75025000Y-55600000D01*
G75*
G02*
X74775000Y-55350000I0J250000D01*
G01*
X74775000Y-54850000D01*
G75*
G02*
X75025000Y-54600000I250000J0D01*
G01*
X75975000Y-54600000D01*
G75*
G02*
X76225000Y-54850000I0J-250000D01*
G01*
X76225000Y-55350000D01*
G75*
G02*
X75975000Y-55600000I-250000J0D01*
G01*
G37*
G36*
G01*
X75975000Y-57500000D02*
X75025000Y-57500000D01*
G75*
G02*
X74775000Y-57250000I0J250000D01*
G01*
X74775000Y-56750000D01*
G75*
G02*
X75025000Y-56500000I250000J0D01*
G01*
X75975000Y-56500000D01*
G75*
G02*
X76225000Y-56750000I0J-250000D01*
G01*
X76225000Y-57250000D01*
G75*
G02*
X75975000Y-57500000I-250000J0D01*
G01*
G37*
%TD*%
%TO.C,C23*%
G36*
G01*
X110600000Y-95525000D02*
X110600000Y-96475000D01*
G75*
G02*
X110350000Y-96725000I-250000J0D01*
G01*
X109850000Y-96725000D01*
G75*
G02*
X109600000Y-96475000I0J250000D01*
G01*
X109600000Y-95525000D01*
G75*
G02*
X109850000Y-95275000I250000J0D01*
G01*
X110350000Y-95275000D01*
G75*
G02*
X110600000Y-95525000I0J-250000D01*
G01*
G37*
G36*
G01*
X112500000Y-95525000D02*
X112500000Y-96475000D01*
G75*
G02*
X112250000Y-96725000I-250000J0D01*
G01*
X111750000Y-96725000D01*
G75*
G02*
X111500000Y-96475000I0J250000D01*
G01*
X111500000Y-95525000D01*
G75*
G02*
X111750000Y-95275000I250000J0D01*
G01*
X112250000Y-95275000D01*
G75*
G02*
X112500000Y-95525000I0J-250000D01*
G01*
G37*
%TD*%
%TO.C,C22*%
G36*
G01*
X115900000Y-96475000D02*
X115900000Y-95525000D01*
G75*
G02*
X116150000Y-95275000I250000J0D01*
G01*
X116650000Y-95275000D01*
G75*
G02*
X116900000Y-95525000I0J-250000D01*
G01*
X116900000Y-96475000D01*
G75*
G02*
X116650000Y-96725000I-250000J0D01*
G01*
X116150000Y-96725000D01*
G75*
G02*
X115900000Y-96475000I0J250000D01*
G01*
G37*
G36*
G01*
X114000000Y-96475000D02*
X114000000Y-95525000D01*
G75*
G02*
X114250000Y-95275000I250000J0D01*
G01*
X114750000Y-95275000D01*
G75*
G02*
X115000000Y-95525000I0J-250000D01*
G01*
X115000000Y-96475000D01*
G75*
G02*
X114750000Y-96725000I-250000J0D01*
G01*
X114250000Y-96725000D01*
G75*
G02*
X114000000Y-96475000I0J250000D01*
G01*
G37*
%TD*%
%TO.C,C21*%
G36*
G01*
X41600000Y-34525000D02*
X41600000Y-35475000D01*
G75*
G02*
X41350000Y-35725000I-250000J0D01*
G01*
X40850000Y-35725000D01*
G75*
G02*
X40600000Y-35475000I0J250000D01*
G01*
X40600000Y-34525000D01*
G75*
G02*
X40850000Y-34275000I250000J0D01*
G01*
X41350000Y-34275000D01*
G75*
G02*
X41600000Y-34525000I0J-250000D01*
G01*
G37*
G36*
G01*
X43500000Y-34525000D02*
X43500000Y-35475000D01*
G75*
G02*
X43250000Y-35725000I-250000J0D01*
G01*
X42750000Y-35725000D01*
G75*
G02*
X42500000Y-35475000I0J250000D01*
G01*
X42500000Y-34525000D01*
G75*
G02*
X42750000Y-34275000I250000J0D01*
G01*
X43250000Y-34275000D01*
G75*
G02*
X43500000Y-34525000I0J-250000D01*
G01*
G37*
%TD*%
%TO.C,C20*%
G36*
G01*
X41600000Y-50525000D02*
X41600000Y-51475000D01*
G75*
G02*
X41350000Y-51725000I-250000J0D01*
G01*
X40850000Y-51725000D01*
G75*
G02*
X40600000Y-51475000I0J250000D01*
G01*
X40600000Y-50525000D01*
G75*
G02*
X40850000Y-50275000I250000J0D01*
G01*
X41350000Y-50275000D01*
G75*
G02*
X41600000Y-50525000I0J-250000D01*
G01*
G37*
G36*
G01*
X43500000Y-50525000D02*
X43500000Y-51475000D01*
G75*
G02*
X43250000Y-51725000I-250000J0D01*
G01*
X42750000Y-51725000D01*
G75*
G02*
X42500000Y-51475000I0J250000D01*
G01*
X42500000Y-50525000D01*
G75*
G02*
X42750000Y-50275000I250000J0D01*
G01*
X43250000Y-50275000D01*
G75*
G02*
X43500000Y-50525000I0J-250000D01*
G01*
G37*
%TD*%
%TO.C,C19*%
G36*
G01*
X41600000Y-66525000D02*
X41600000Y-67475000D01*
G75*
G02*
X41350000Y-67725000I-250000J0D01*
G01*
X40850000Y-67725000D01*
G75*
G02*
X40600000Y-67475000I0J250000D01*
G01*
X40600000Y-66525000D01*
G75*
G02*
X40850000Y-66275000I250000J0D01*
G01*
X41350000Y-66275000D01*
G75*
G02*
X41600000Y-66525000I0J-250000D01*
G01*
G37*
G36*
G01*
X43500000Y-66525000D02*
X43500000Y-67475000D01*
G75*
G02*
X43250000Y-67725000I-250000J0D01*
G01*
X42750000Y-67725000D01*
G75*
G02*
X42500000Y-67475000I0J250000D01*
G01*
X42500000Y-66525000D01*
G75*
G02*
X42750000Y-66275000I250000J0D01*
G01*
X43250000Y-66275000D01*
G75*
G02*
X43500000Y-66525000I0J-250000D01*
G01*
G37*
%TD*%
%TO.C,C18*%
G36*
G01*
X41500000Y-26525000D02*
X41500000Y-27475000D01*
G75*
G02*
X41250000Y-27725000I-250000J0D01*
G01*
X40750000Y-27725000D01*
G75*
G02*
X40500000Y-27475000I0J250000D01*
G01*
X40500000Y-26525000D01*
G75*
G02*
X40750000Y-26275000I250000J0D01*
G01*
X41250000Y-26275000D01*
G75*
G02*
X41500000Y-26525000I0J-250000D01*
G01*
G37*
G36*
G01*
X43400000Y-26525000D02*
X43400000Y-27475000D01*
G75*
G02*
X43150000Y-27725000I-250000J0D01*
G01*
X42650000Y-27725000D01*
G75*
G02*
X42400000Y-27475000I0J250000D01*
G01*
X42400000Y-26525000D01*
G75*
G02*
X42650000Y-26275000I250000J0D01*
G01*
X43150000Y-26275000D01*
G75*
G02*
X43400000Y-26525000I0J-250000D01*
G01*
G37*
%TD*%
%TO.C,C17*%
G36*
G01*
X41600000Y-58525000D02*
X41600000Y-59475000D01*
G75*
G02*
X41350000Y-59725000I-250000J0D01*
G01*
X40850000Y-59725000D01*
G75*
G02*
X40600000Y-59475000I0J250000D01*
G01*
X40600000Y-58525000D01*
G75*
G02*
X40850000Y-58275000I250000J0D01*
G01*
X41350000Y-58275000D01*
G75*
G02*
X41600000Y-58525000I0J-250000D01*
G01*
G37*
G36*
G01*
X43500000Y-58525000D02*
X43500000Y-59475000D01*
G75*
G02*
X43250000Y-59725000I-250000J0D01*
G01*
X42750000Y-59725000D01*
G75*
G02*
X42500000Y-59475000I0J250000D01*
G01*
X42500000Y-58525000D01*
G75*
G02*
X42750000Y-58275000I250000J0D01*
G01*
X43250000Y-58275000D01*
G75*
G02*
X43500000Y-58525000I0J-250000D01*
G01*
G37*
%TD*%
%TO.C,C16*%
G36*
G01*
X41600000Y-42525000D02*
X41600000Y-43475000D01*
G75*
G02*
X41350000Y-43725000I-250000J0D01*
G01*
X40850000Y-43725000D01*
G75*
G02*
X40600000Y-43475000I0J250000D01*
G01*
X40600000Y-42525000D01*
G75*
G02*
X40850000Y-42275000I250000J0D01*
G01*
X41350000Y-42275000D01*
G75*
G02*
X41600000Y-42525000I0J-250000D01*
G01*
G37*
G36*
G01*
X43500000Y-42525000D02*
X43500000Y-43475000D01*
G75*
G02*
X43250000Y-43725000I-250000J0D01*
G01*
X42750000Y-43725000D01*
G75*
G02*
X42500000Y-43475000I0J250000D01*
G01*
X42500000Y-42525000D01*
G75*
G02*
X42750000Y-42275000I250000J0D01*
G01*
X43250000Y-42275000D01*
G75*
G02*
X43500000Y-42525000I0J-250000D01*
G01*
G37*
%TD*%
%TO.C,C15*%
G36*
G01*
X82900000Y-105475000D02*
X82900000Y-104525000D01*
G75*
G02*
X83150000Y-104275000I250000J0D01*
G01*
X83650000Y-104275000D01*
G75*
G02*
X83900000Y-104525000I0J-250000D01*
G01*
X83900000Y-105475000D01*
G75*
G02*
X83650000Y-105725000I-250000J0D01*
G01*
X83150000Y-105725000D01*
G75*
G02*
X82900000Y-105475000I0J250000D01*
G01*
G37*
G36*
G01*
X81000000Y-105475000D02*
X81000000Y-104525000D01*
G75*
G02*
X81250000Y-104275000I250000J0D01*
G01*
X81750000Y-104275000D01*
G75*
G02*
X82000000Y-104525000I0J-250000D01*
G01*
X82000000Y-105475000D01*
G75*
G02*
X81750000Y-105725000I-250000J0D01*
G01*
X81250000Y-105725000D01*
G75*
G02*
X81000000Y-105475000I0J250000D01*
G01*
G37*
%TD*%
%TO.C,C14*%
G36*
G01*
X68500000Y-114525000D02*
X68500000Y-115475000D01*
G75*
G02*
X68250000Y-115725000I-250000J0D01*
G01*
X67750000Y-115725000D01*
G75*
G02*
X67500000Y-115475000I0J250000D01*
G01*
X67500000Y-114525000D01*
G75*
G02*
X67750000Y-114275000I250000J0D01*
G01*
X68250000Y-114275000D01*
G75*
G02*
X68500000Y-114525000I0J-250000D01*
G01*
G37*
G36*
G01*
X70400000Y-114525000D02*
X70400000Y-115475000D01*
G75*
G02*
X70150000Y-115725000I-250000J0D01*
G01*
X69650000Y-115725000D01*
G75*
G02*
X69400000Y-115475000I0J250000D01*
G01*
X69400000Y-114525000D01*
G75*
G02*
X69650000Y-114275000I250000J0D01*
G01*
X70150000Y-114275000D01*
G75*
G02*
X70400000Y-114525000I0J-250000D01*
G01*
G37*
%TD*%
%TO.C,C13*%
G36*
G01*
X69400000Y-108475000D02*
X69400000Y-107525000D01*
G75*
G02*
X69650000Y-107275000I250000J0D01*
G01*
X70150000Y-107275000D01*
G75*
G02*
X70400000Y-107525000I0J-250000D01*
G01*
X70400000Y-108475000D01*
G75*
G02*
X70150000Y-108725000I-250000J0D01*
G01*
X69650000Y-108725000D01*
G75*
G02*
X69400000Y-108475000I0J250000D01*
G01*
G37*
G36*
G01*
X67500000Y-108475000D02*
X67500000Y-107525000D01*
G75*
G02*
X67750000Y-107275000I250000J0D01*
G01*
X68250000Y-107275000D01*
G75*
G02*
X68500000Y-107525000I0J-250000D01*
G01*
X68500000Y-108475000D01*
G75*
G02*
X68250000Y-108725000I-250000J0D01*
G01*
X67750000Y-108725000D01*
G75*
G02*
X67500000Y-108475000I0J250000D01*
G01*
G37*
%TD*%
%TO.C,C11*%
G36*
G01*
X49100000Y-117025000D02*
X49100000Y-117975000D01*
G75*
G02*
X48850000Y-118225000I-250000J0D01*
G01*
X48350000Y-118225000D01*
G75*
G02*
X48100000Y-117975000I0J250000D01*
G01*
X48100000Y-117025000D01*
G75*
G02*
X48350000Y-116775000I250000J0D01*
G01*
X48850000Y-116775000D01*
G75*
G02*
X49100000Y-117025000I0J-250000D01*
G01*
G37*
G36*
G01*
X51000000Y-117025000D02*
X51000000Y-117975000D01*
G75*
G02*
X50750000Y-118225000I-250000J0D01*
G01*
X50250000Y-118225000D01*
G75*
G02*
X50000000Y-117975000I0J250000D01*
G01*
X50000000Y-117025000D01*
G75*
G02*
X50250000Y-116775000I250000J0D01*
G01*
X50750000Y-116775000D01*
G75*
G02*
X51000000Y-117025000I0J-250000D01*
G01*
G37*
%TD*%
D28*
%TO.C,C9*%
X47500000Y-45000000D03*
D37*
X52500000Y-45000000D03*
%TD*%
%TO.C,C8*%
G36*
G01*
X66475000Y-39500000D02*
X65525000Y-39500000D01*
G75*
G02*
X65275000Y-39250000I0J250000D01*
G01*
X65275000Y-38750000D01*
G75*
G02*
X65525000Y-38500000I250000J0D01*
G01*
X66475000Y-38500000D01*
G75*
G02*
X66725000Y-38750000I0J-250000D01*
G01*
X66725000Y-39250000D01*
G75*
G02*
X66475000Y-39500000I-250000J0D01*
G01*
G37*
G36*
G01*
X66475000Y-41400000D02*
X65525000Y-41400000D01*
G75*
G02*
X65275000Y-41150000I0J250000D01*
G01*
X65275000Y-40650000D01*
G75*
G02*
X65525000Y-40400000I250000J0D01*
G01*
X66475000Y-40400000D01*
G75*
G02*
X66725000Y-40650000I0J-250000D01*
G01*
X66725000Y-41150000D01*
G75*
G02*
X66475000Y-41400000I-250000J0D01*
G01*
G37*
%TD*%
%TO.C,C7*%
G36*
G01*
X46475000Y-30600000D02*
X45525000Y-30600000D01*
G75*
G02*
X45275000Y-30350000I0J250000D01*
G01*
X45275000Y-29850000D01*
G75*
G02*
X45525000Y-29600000I250000J0D01*
G01*
X46475000Y-29600000D01*
G75*
G02*
X46725000Y-29850000I0J-250000D01*
G01*
X46725000Y-30350000D01*
G75*
G02*
X46475000Y-30600000I-250000J0D01*
G01*
G37*
G36*
G01*
X46475000Y-32500000D02*
X45525000Y-32500000D01*
G75*
G02*
X45275000Y-32250000I0J250000D01*
G01*
X45275000Y-31750000D01*
G75*
G02*
X45525000Y-31500000I250000J0D01*
G01*
X46475000Y-31500000D01*
G75*
G02*
X46725000Y-31750000I0J-250000D01*
G01*
X46725000Y-32250000D01*
G75*
G02*
X46475000Y-32500000I-250000J0D01*
G01*
G37*
%TD*%
%TO.C,C6*%
G36*
G01*
X78025000Y-45000000D02*
X78975000Y-45000000D01*
G75*
G02*
X79225000Y-45250000I0J-250000D01*
G01*
X79225000Y-45750000D01*
G75*
G02*
X78975000Y-46000000I-250000J0D01*
G01*
X78025000Y-46000000D01*
G75*
G02*
X77775000Y-45750000I0J250000D01*
G01*
X77775000Y-45250000D01*
G75*
G02*
X78025000Y-45000000I250000J0D01*
G01*
G37*
G36*
G01*
X78025000Y-43100000D02*
X78975000Y-43100000D01*
G75*
G02*
X79225000Y-43350000I0J-250000D01*
G01*
X79225000Y-43850000D01*
G75*
G02*
X78975000Y-44100000I-250000J0D01*
G01*
X78025000Y-44100000D01*
G75*
G02*
X77775000Y-43850000I0J250000D01*
G01*
X77775000Y-43350000D01*
G75*
G02*
X78025000Y-43100000I250000J0D01*
G01*
G37*
%TD*%
%TO.C,C5*%
G36*
G01*
X56475000Y-39600000D02*
X55525000Y-39600000D01*
G75*
G02*
X55275000Y-39350000I0J250000D01*
G01*
X55275000Y-38850000D01*
G75*
G02*
X55525000Y-38600000I250000J0D01*
G01*
X56475000Y-38600000D01*
G75*
G02*
X56725000Y-38850000I0J-250000D01*
G01*
X56725000Y-39350000D01*
G75*
G02*
X56475000Y-39600000I-250000J0D01*
G01*
G37*
G36*
G01*
X56475000Y-41500000D02*
X55525000Y-41500000D01*
G75*
G02*
X55275000Y-41250000I0J250000D01*
G01*
X55275000Y-40750000D01*
G75*
G02*
X55525000Y-40500000I250000J0D01*
G01*
X56475000Y-40500000D01*
G75*
G02*
X56725000Y-40750000I0J-250000D01*
G01*
X56725000Y-41250000D01*
G75*
G02*
X56475000Y-41500000I-250000J0D01*
G01*
G37*
%TD*%
D28*
%TO.C,C3*%
X58000000Y-26000000D03*
D37*
X63000000Y-26000000D03*
%TD*%
%TO.C,C2*%
G36*
G01*
X54475000Y-30600000D02*
X53525000Y-30600000D01*
G75*
G02*
X53275000Y-30350000I0J250000D01*
G01*
X53275000Y-29850000D01*
G75*
G02*
X53525000Y-29600000I250000J0D01*
G01*
X54475000Y-29600000D01*
G75*
G02*
X54725000Y-29850000I0J-250000D01*
G01*
X54725000Y-30350000D01*
G75*
G02*
X54475000Y-30600000I-250000J0D01*
G01*
G37*
G36*
G01*
X54475000Y-32500000D02*
X53525000Y-32500000D01*
G75*
G02*
X53275000Y-32250000I0J250000D01*
G01*
X53275000Y-31750000D01*
G75*
G02*
X53525000Y-31500000I250000J0D01*
G01*
X54475000Y-31500000D01*
G75*
G02*
X54725000Y-31750000I0J-250000D01*
G01*
X54725000Y-32250000D01*
G75*
G02*
X54475000Y-32500000I-250000J0D01*
G01*
G37*
%TD*%
%TO.C,C1*%
G36*
G01*
X74100000Y-30525000D02*
X74100000Y-31475000D01*
G75*
G02*
X73850000Y-31725000I-250000J0D01*
G01*
X73350000Y-31725000D01*
G75*
G02*
X73100000Y-31475000I0J250000D01*
G01*
X73100000Y-30525000D01*
G75*
G02*
X73350000Y-30275000I250000J0D01*
G01*
X73850000Y-30275000D01*
G75*
G02*
X74100000Y-30525000I0J-250000D01*
G01*
G37*
G36*
G01*
X76000000Y-30525000D02*
X76000000Y-31475000D01*
G75*
G02*
X75750000Y-31725000I-250000J0D01*
G01*
X75250000Y-31725000D01*
G75*
G02*
X75000000Y-31475000I0J250000D01*
G01*
X75000000Y-30525000D01*
G75*
G02*
X75250000Y-30275000I250000J0D01*
G01*
X75750000Y-30275000D01*
G75*
G02*
X76000000Y-30525000I0J-250000D01*
G01*
G37*
%TD*%
M02*
