%TF.GenerationSoftware,KiCad,Pcbnew,5.1.9-73d0e3b20d~88~ubuntu20.04.1*%
%TF.CreationDate,2021-04-20T13:41:42-04:00*%
%TF.ProjectId,control,636f6e74-726f-46c2-9e6b-696361645f70,rev?*%
%TF.SameCoordinates,Original*%
%TF.FileFunction,Soldermask,Bot*%
%TF.FilePolarity,Negative*%
%FSLAX46Y46*%
G04 Gerber Fmt 4.6, Leading zero omitted, Abs format (unit mm)*
G04 Created by KiCad (PCBNEW 5.1.9-73d0e3b20d~88~ubuntu20.04.1) date 2021-04-20 13:41:42*
%MOMM*%
%LPD*%
G01*
G04 APERTURE LIST*
%ADD10C,1.700000*%
%ADD11O,1.700000X1.950000*%
%ADD12O,1.950000X1.700000*%
%ADD13C,3.200000*%
%ADD14O,1.700000X2.000000*%
%ADD15C,2.000000*%
%ADD16C,1.440000*%
%ADD17O,1.700000X1.700000*%
%ADD18R,1.700000X1.700000*%
%ADD19C,3.500000*%
%ADD20C,2.032000*%
%ADD21R,2.032000X2.032000*%
%ADD22R,2.000000X2.000000*%
G04 APERTURE END LIST*
D10*
%TO.C,J34*%
X101300000Y-71040000D03*
X103840000Y-71040000D03*
X106380000Y-71040000D03*
X108920000Y-71040000D03*
X111460000Y-71040000D03*
X114000000Y-71040000D03*
X101300000Y-68500000D03*
X103840000Y-68500000D03*
X106380000Y-68500000D03*
X108920000Y-68500000D03*
X111460000Y-68500000D03*
G36*
G01*
X113400000Y-67650000D02*
X114600000Y-67650000D01*
G75*
G02*
X114850000Y-67900000I0J-250000D01*
G01*
X114850000Y-69100000D01*
G75*
G02*
X114600000Y-69350000I-250000J0D01*
G01*
X113400000Y-69350000D01*
G75*
G02*
X113150000Y-69100000I0J250000D01*
G01*
X113150000Y-67900000D01*
G75*
G02*
X113400000Y-67650000I250000J0D01*
G01*
G37*
%TD*%
D11*
%TO.C,J29*%
X116500000Y-80000000D03*
X114000000Y-80000000D03*
X111500000Y-80000000D03*
X109000000Y-80000000D03*
X106500000Y-80000000D03*
X104000000Y-80000000D03*
X101500000Y-80000000D03*
G36*
G01*
X98150000Y-80725000D02*
X98150000Y-79275000D01*
G75*
G02*
X98400000Y-79025000I250000J0D01*
G01*
X99600000Y-79025000D01*
G75*
G02*
X99850000Y-79275000I0J-250000D01*
G01*
X99850000Y-80725000D01*
G75*
G02*
X99600000Y-80975000I-250000J0D01*
G01*
X98400000Y-80975000D01*
G75*
G02*
X98150000Y-80725000I0J250000D01*
G01*
G37*
%TD*%
D12*
%TO.C,J25*%
X61500000Y-70000000D03*
X61500000Y-72500000D03*
X61500000Y-75000000D03*
X61500000Y-77500000D03*
X61500000Y-80000000D03*
X61500000Y-82500000D03*
G36*
G01*
X62225000Y-85850000D02*
X60775000Y-85850000D01*
G75*
G02*
X60525000Y-85600000I0J250000D01*
G01*
X60525000Y-84400000D01*
G75*
G02*
X60775000Y-84150000I250000J0D01*
G01*
X62225000Y-84150000D01*
G75*
G02*
X62475000Y-84400000I0J-250000D01*
G01*
X62475000Y-85600000D01*
G75*
G02*
X62225000Y-85850000I-250000J0D01*
G01*
G37*
%TD*%
D11*
%TO.C,J24*%
X116000000Y-60000000D03*
X113500000Y-60000000D03*
X111000000Y-60000000D03*
X108500000Y-60000000D03*
X106000000Y-60000000D03*
X103500000Y-60000000D03*
X101000000Y-60000000D03*
G36*
G01*
X97650000Y-60725000D02*
X97650000Y-59275000D01*
G75*
G02*
X97900000Y-59025000I250000J0D01*
G01*
X99100000Y-59025000D01*
G75*
G02*
X99350000Y-59275000I0J-250000D01*
G01*
X99350000Y-60725000D01*
G75*
G02*
X99100000Y-60975000I-250000J0D01*
G01*
X97900000Y-60975000D01*
G75*
G02*
X97650000Y-60725000I0J250000D01*
G01*
G37*
%TD*%
%TO.C,J12*%
X86000000Y-115000000D03*
X83500000Y-115000000D03*
X81000000Y-115000000D03*
X78500000Y-115000000D03*
G36*
G01*
X75150000Y-115725000D02*
X75150000Y-114275000D01*
G75*
G02*
X75400000Y-114025000I250000J0D01*
G01*
X76600000Y-114025000D01*
G75*
G02*
X76850000Y-114275000I0J-250000D01*
G01*
X76850000Y-115725000D01*
G75*
G02*
X76600000Y-115975000I-250000J0D01*
G01*
X75400000Y-115975000D01*
G75*
G02*
X75150000Y-115725000I0J250000D01*
G01*
G37*
%TD*%
D13*
%TO.C,REF\u002A\u002A*%
X116000000Y-116000000D03*
%TD*%
%TO.C,REF\u002A\u002A*%
X116000000Y-24000000D03*
%TD*%
%TO.C,REF\u002A\u002A*%
X48000000Y-24000000D03*
%TD*%
%TO.C,REF\u002A\u002A*%
X24000000Y-116000000D03*
%TD*%
D14*
%TO.C,J11*%
X103500000Y-115000000D03*
G36*
G01*
X100150000Y-115750000D02*
X100150000Y-114250000D01*
G75*
G02*
X100400000Y-114000000I250000J0D01*
G01*
X101600000Y-114000000D01*
G75*
G02*
X101850000Y-114250000I0J-250000D01*
G01*
X101850000Y-115750000D01*
G75*
G02*
X101600000Y-116000000I-250000J0D01*
G01*
X100400000Y-116000000D01*
G75*
G02*
X100150000Y-115750000I0J250000D01*
G01*
G37*
%TD*%
D15*
%TO.C,SW2*%
X74500000Y-88500000D03*
X74500000Y-93000000D03*
X68000000Y-88500000D03*
X68000000Y-93000000D03*
%TD*%
%TO.C,SW1*%
X82000000Y-53500000D03*
X82000000Y-49000000D03*
X88500000Y-53500000D03*
X88500000Y-49000000D03*
%TD*%
D16*
%TO.C,RV3*%
X88000000Y-103920000D03*
X88000000Y-106460000D03*
X88000000Y-109000000D03*
%TD*%
D17*
%TO.C,JP12*%
X60920000Y-99500000D03*
X63460000Y-99500000D03*
D18*
X66000000Y-99500000D03*
%TD*%
D17*
%TO.C,JP11*%
X78080000Y-99500000D03*
X75540000Y-99500000D03*
D18*
X73000000Y-99500000D03*
%TD*%
D17*
%TO.C,JP1*%
X68920000Y-35000000D03*
X71460000Y-35000000D03*
D18*
X74000000Y-35000000D03*
%TD*%
D11*
%TO.C,J28*%
X84500000Y-91500000D03*
X87000000Y-91500000D03*
X89500000Y-91500000D03*
X92000000Y-91500000D03*
X94500000Y-91500000D03*
G36*
G01*
X97850000Y-90775000D02*
X97850000Y-92225000D01*
G75*
G02*
X97600000Y-92475000I-250000J0D01*
G01*
X96400000Y-92475000D01*
G75*
G02*
X96150000Y-92225000I0J250000D01*
G01*
X96150000Y-90775000D01*
G75*
G02*
X96400000Y-90525000I250000J0D01*
G01*
X97600000Y-90525000D01*
G75*
G02*
X97850000Y-90775000I0J-250000D01*
G01*
G37*
%TD*%
%TO.C,J26*%
X116500000Y-90500000D03*
X114000000Y-90500000D03*
X111500000Y-90500000D03*
X109000000Y-90500000D03*
X106500000Y-90500000D03*
G36*
G01*
X103150000Y-91225000D02*
X103150000Y-89775000D01*
G75*
G02*
X103400000Y-89525000I250000J0D01*
G01*
X104600000Y-89525000D01*
G75*
G02*
X104850000Y-89775000I0J-250000D01*
G01*
X104850000Y-91225000D01*
G75*
G02*
X104600000Y-91475000I-250000J0D01*
G01*
X103400000Y-91475000D01*
G75*
G02*
X103150000Y-91225000I0J250000D01*
G01*
G37*
%TD*%
D10*
%TO.C,J23*%
X105540000Y-50360000D03*
X105540000Y-47820000D03*
X105540000Y-45280000D03*
X105540000Y-42740000D03*
X105540000Y-40200000D03*
X105540000Y-37660000D03*
X105540000Y-35120000D03*
X105540000Y-32580000D03*
X105540000Y-30040000D03*
X105540000Y-27500000D03*
X103000000Y-50360000D03*
X103000000Y-47820000D03*
X103000000Y-45280000D03*
X103000000Y-42740000D03*
X103000000Y-40200000D03*
X103000000Y-37660000D03*
X103000000Y-35120000D03*
X103000000Y-32580000D03*
X103000000Y-30040000D03*
G36*
G01*
X102150000Y-28100000D02*
X102150000Y-26900000D01*
G75*
G02*
X102400000Y-26650000I250000J0D01*
G01*
X103600000Y-26650000D01*
G75*
G02*
X103850000Y-26900000I0J-250000D01*
G01*
X103850000Y-28100000D01*
G75*
G02*
X103600000Y-28350000I-250000J0D01*
G01*
X102400000Y-28350000D01*
G75*
G02*
X102150000Y-28100000I0J250000D01*
G01*
G37*
%TD*%
D11*
%TO.C,J22*%
X56500000Y-55000000D03*
X54000000Y-55000000D03*
X51500000Y-55000000D03*
G36*
G01*
X48150000Y-55725000D02*
X48150000Y-54275000D01*
G75*
G02*
X48400000Y-54025000I250000J0D01*
G01*
X49600000Y-54025000D01*
G75*
G02*
X49850000Y-54275000I0J-250000D01*
G01*
X49850000Y-55725000D01*
G75*
G02*
X49600000Y-55975000I-250000J0D01*
G01*
X48400000Y-55975000D01*
G75*
G02*
X48150000Y-55725000I0J250000D01*
G01*
G37*
%TD*%
D12*
%TO.C,J21*%
X115000000Y-43500000D03*
X115000000Y-41000000D03*
X115000000Y-38500000D03*
X115000000Y-36000000D03*
X115000000Y-33500000D03*
G36*
G01*
X114275000Y-30150000D02*
X115725000Y-30150000D01*
G75*
G02*
X115975000Y-30400000I0J-250000D01*
G01*
X115975000Y-31600000D01*
G75*
G02*
X115725000Y-31850000I-250000J0D01*
G01*
X114275000Y-31850000D01*
G75*
G02*
X114025000Y-31600000I0J250000D01*
G01*
X114025000Y-30400000D01*
G75*
G02*
X114275000Y-30150000I250000J0D01*
G01*
G37*
%TD*%
D11*
%TO.C,J19*%
X56500000Y-63000000D03*
X54000000Y-63000000D03*
X51500000Y-63000000D03*
G36*
G01*
X48150000Y-63725000D02*
X48150000Y-62275000D01*
G75*
G02*
X48400000Y-62025000I250000J0D01*
G01*
X49600000Y-62025000D01*
G75*
G02*
X49850000Y-62275000I0J-250000D01*
G01*
X49850000Y-63725000D01*
G75*
G02*
X49600000Y-63975000I-250000J0D01*
G01*
X48400000Y-63975000D01*
G75*
G02*
X48150000Y-63725000I0J250000D01*
G01*
G37*
%TD*%
%TO.C,J18*%
X30000000Y-33000000D03*
X27500000Y-33000000D03*
G36*
G01*
X24150000Y-33725000D02*
X24150000Y-32275000D01*
G75*
G02*
X24400000Y-32025000I250000J0D01*
G01*
X25600000Y-32025000D01*
G75*
G02*
X25850000Y-32275000I0J-250000D01*
G01*
X25850000Y-33725000D01*
G75*
G02*
X25600000Y-33975000I-250000J0D01*
G01*
X24400000Y-33975000D01*
G75*
G02*
X24150000Y-33725000I0J250000D01*
G01*
G37*
%TD*%
%TO.C,J17*%
X30000000Y-49000000D03*
X27500000Y-49000000D03*
G36*
G01*
X24150000Y-49725000D02*
X24150000Y-48275000D01*
G75*
G02*
X24400000Y-48025000I250000J0D01*
G01*
X25600000Y-48025000D01*
G75*
G02*
X25850000Y-48275000I0J-250000D01*
G01*
X25850000Y-49725000D01*
G75*
G02*
X25600000Y-49975000I-250000J0D01*
G01*
X24400000Y-49975000D01*
G75*
G02*
X24150000Y-49725000I0J250000D01*
G01*
G37*
%TD*%
%TO.C,J16*%
X30000000Y-65000000D03*
X27500000Y-65000000D03*
G36*
G01*
X24150000Y-65725000D02*
X24150000Y-64275000D01*
G75*
G02*
X24400000Y-64025000I250000J0D01*
G01*
X25600000Y-64025000D01*
G75*
G02*
X25850000Y-64275000I0J-250000D01*
G01*
X25850000Y-65725000D01*
G75*
G02*
X25600000Y-65975000I-250000J0D01*
G01*
X24400000Y-65975000D01*
G75*
G02*
X24150000Y-65725000I0J250000D01*
G01*
G37*
%TD*%
%TO.C,J15*%
X30000000Y-25000000D03*
X27500000Y-25000000D03*
G36*
G01*
X24150000Y-25725000D02*
X24150000Y-24275000D01*
G75*
G02*
X24400000Y-24025000I250000J0D01*
G01*
X25600000Y-24025000D01*
G75*
G02*
X25850000Y-24275000I0J-250000D01*
G01*
X25850000Y-25725000D01*
G75*
G02*
X25600000Y-25975000I-250000J0D01*
G01*
X24400000Y-25975000D01*
G75*
G02*
X24150000Y-25725000I0J250000D01*
G01*
G37*
%TD*%
%TO.C,J14*%
X30000000Y-57000000D03*
X27500000Y-57000000D03*
G36*
G01*
X24150000Y-57725000D02*
X24150000Y-56275000D01*
G75*
G02*
X24400000Y-56025000I250000J0D01*
G01*
X25600000Y-56025000D01*
G75*
G02*
X25850000Y-56275000I0J-250000D01*
G01*
X25850000Y-57725000D01*
G75*
G02*
X25600000Y-57975000I-250000J0D01*
G01*
X24400000Y-57975000D01*
G75*
G02*
X24150000Y-57725000I0J250000D01*
G01*
G37*
%TD*%
%TO.C,J13*%
X30000000Y-41000000D03*
X27500000Y-41000000D03*
G36*
G01*
X24150000Y-41725000D02*
X24150000Y-40275000D01*
G75*
G02*
X24400000Y-40025000I250000J0D01*
G01*
X25600000Y-40025000D01*
G75*
G02*
X25850000Y-40275000I0J-250000D01*
G01*
X25850000Y-41725000D01*
G75*
G02*
X25600000Y-41975000I-250000J0D01*
G01*
X24400000Y-41975000D01*
G75*
G02*
X24150000Y-41725000I0J250000D01*
G01*
G37*
%TD*%
%TO.C,J10*%
X37500000Y-115500000D03*
X35000000Y-115500000D03*
G36*
G01*
X31650000Y-116225000D02*
X31650000Y-114775000D01*
G75*
G02*
X31900000Y-114525000I250000J0D01*
G01*
X33100000Y-114525000D01*
G75*
G02*
X33350000Y-114775000I0J-250000D01*
G01*
X33350000Y-116225000D01*
G75*
G02*
X33100000Y-116475000I-250000J0D01*
G01*
X31900000Y-116475000D01*
G75*
G02*
X31650000Y-116225000I0J250000D01*
G01*
G37*
%TD*%
%TO.C,J8*%
X32500000Y-74000000D03*
X30000000Y-74000000D03*
X27500000Y-74000000D03*
G36*
G01*
X24150000Y-74725000D02*
X24150000Y-73275000D01*
G75*
G02*
X24400000Y-73025000I250000J0D01*
G01*
X25600000Y-73025000D01*
G75*
G02*
X25850000Y-73275000I0J-250000D01*
G01*
X25850000Y-74725000D01*
G75*
G02*
X25600000Y-74975000I-250000J0D01*
G01*
X24400000Y-74975000D01*
G75*
G02*
X24150000Y-74725000I0J250000D01*
G01*
G37*
%TD*%
%TO.C,J6*%
X32500000Y-100000000D03*
X30000000Y-100000000D03*
X27500000Y-100000000D03*
G36*
G01*
X24150000Y-100725000D02*
X24150000Y-99275000D01*
G75*
G02*
X24400000Y-99025000I250000J0D01*
G01*
X25600000Y-99025000D01*
G75*
G02*
X25850000Y-99275000I0J-250000D01*
G01*
X25850000Y-100725000D01*
G75*
G02*
X25600000Y-100975000I-250000J0D01*
G01*
X24400000Y-100975000D01*
G75*
G02*
X24150000Y-100725000I0J250000D01*
G01*
G37*
%TD*%
%TO.C,J4*%
X32500000Y-87000000D03*
X30000000Y-87000000D03*
X27500000Y-87000000D03*
G36*
G01*
X24150000Y-87725000D02*
X24150000Y-86275000D01*
G75*
G02*
X24400000Y-86025000I250000J0D01*
G01*
X25600000Y-86025000D01*
G75*
G02*
X25850000Y-86275000I0J-250000D01*
G01*
X25850000Y-87725000D01*
G75*
G02*
X25600000Y-87975000I-250000J0D01*
G01*
X24400000Y-87975000D01*
G75*
G02*
X24150000Y-87725000I0J250000D01*
G01*
G37*
%TD*%
D19*
%TO.C,J2*%
X93270000Y-31290000D03*
X81230000Y-31290000D03*
D10*
X86000000Y-34000000D03*
X88500000Y-34000000D03*
X88500000Y-36000000D03*
D18*
X86000000Y-36000000D03*
%TD*%
D20*
%TO.C,J1*%
X73192000Y-24000000D03*
D21*
X69382000Y-24000000D03*
%TD*%
D15*
%TO.C,C9*%
X47500000Y-45000000D03*
D22*
X52500000Y-45000000D03*
%TD*%
D15*
%TO.C,C3*%
X58000000Y-26000000D03*
D22*
X63000000Y-26000000D03*
%TD*%
M02*
